<?xml version="1.0" encoding="UTF-8" standalone="no"?>
<!DOCTYPE svg PUBLIC "-//W3C//DTD SVG 1.1//EN"
 "http://www.w3.org/Graphics/SVG/1.1/DTD/svg11.dtd">
<!-- Generated by graphviz version 2.43.0 (0)
 -->
<!-- Title: %3 Pages: 1 -->
<svg width="1090pt" height="600pt"
 viewBox="0.00 0.00 1090.00 599.60" xmlns="http://www.w3.org/2000/svg" xmlns:xlink="http://www.w3.org/1999/xlink">
<style><![CDATA[
  g[id^="P_"], g[id^="M_"] { cursor: pointer; }
  .highlight ellipse, .highlight polygon, .highlight path, .highlight rect {
    stroke: #d00; stroke-width: 2.5;
  }
  @keyframes pulse { 0%,100%{opacity:1} 50%{opacity:.45} }
  .blink { animation: pulse 0.9s ease-in-out 3; }
]]></style>
<script><![CDATA[
(function(){
  var SPOUSE = {"P_g6p13": ["P_att35"], "P_att35": ["P_g6p13"], "P_att05": ["P_att06"], "P_att06": ["P_att05"], "P_att07": ["P_att08", "P_att14"], "P_att08": ["P_att07"], "P_att14": ["P_att07"], "P_g6p09": ["P_att34"], "P_att34": ["P_g6p09"], "P_att21": ["P_attS02"], "P_attS02": ["P_att21"], "P_att36": ["P_g6p02"], "P_g6p02": ["P_att36"]};
  var FAMILY = {"M_g6F5": ["P_g6p13", "P_att35"], "M_attF2": ["P_att05", "P_att06", "P_att36", "P_att07"], "M_attF3": ["P_att07", "P_att08"], "M_attF5": ["P_att07", "P_att14", "P_att21", "P_att35"], "M_g6F2": ["P_g6p09", "P_att34", "P_g6p10"], "M_attF10": ["P_att21", "P_attS02", "P_att41"], "M_g6F1": ["P_att36", "P_g6p02", "P_att32", "P_att33", "P_att34"]};
  function clearHl(){ document.querySelectorAll('.blink').forEach(function(n){ n.classList.remove('blink'); n.classList.remove('highlight'); }); }
  function hl(id){ var el=document.getElementById(id); if(el){ el.classList.add('highlight'); el.classList.add('blink'); } }
  document.addEventListener('click', function(evt){
    var target = evt.target;
    var g = target.closest && target.closest('g[id^="P_"], g[id^="M_"]');
    if (!g) { while (target) { if (target.id && /^([PM]_)/.test(target.id) && target.tagName && target.tagName.toLowerCase() === 'g') { g = target; break; } target = target.parentNode; } }
    if (!g) return;
    var id = g.id; clearHl();
    if (/^P_/.test(id)) { (SPOUSE[id] || []).forEach(hl); }
    else if (/^M_/.test(id)) { hl(id); (FAMILY[id] || []).forEach(hl); }
  }, false);
})();
]]></script>

<g id="graph0" class="graph" transform="scale(1 1) rotate(0) translate(4 595.6)">
<title>%3</title>
<polygon fill="white" stroke="transparent" points="-4,4 -4,-595.6 1086,-595.6 1086,4 -4,4"/>
<text text-anchor="middle" x="541" y="-578" font-family="DejaVu Sans" font-size="12.00">Helli</text>
<!-- att07 -->
<g id="P_att07" class="node">
<title>att07</title>
<path fill="#dbeafe" stroke="#333333" d="M556,-391.1C556,-391.1 470,-391.1 470,-391.1 464,-391.1 458,-385.1 458,-379.1 458,-379.1 458,-367.1 458,-367.1 458,-361.1 464,-355.1 470,-355.1 470,-355.1 556,-355.1 556,-355.1 562,-355.1 568,-361.1 568,-367.1 568,-367.1 568,-379.1 568,-379.1 568,-385.1 562,-391.1 556,-391.1"/>
<text text-anchor="middle" x="513" y="-376.1" font-family="DejaVu Sans" font-size="10.00">Heimo Adelsberger</text>
<text text-anchor="middle" x="513" y="-365.1" font-family="DejaVu Sans" font-size="10.00">*16.08.1948</text>
</g>
<!-- att14 -->
<g id="P_att14" class="node">
<title>att14</title>
<path fill="#fde7ef" stroke="#333333" d="M711.5,-393.6C711.5,-393.6 612.5,-393.6 612.5,-393.6 606.5,-393.6 600.5,-387.6 600.5,-381.6 600.5,-381.6 600.5,-364.6 600.5,-364.6 600.5,-358.6 606.5,-352.6 612.5,-352.6 612.5,-352.6 711.5,-352.6 711.5,-352.6 717.5,-352.6 723.5,-358.6 723.5,-364.6 723.5,-364.6 723.5,-381.6 723.5,-381.6 723.5,-387.6 717.5,-393.6 711.5,-393.6"/>
<text text-anchor="middle" x="662" y="-381.6" font-family="DejaVu Sans" font-size="10.00">Elisabeth Adelsberger</text>
<text text-anchor="middle" x="662" y="-370.6" font-family="DejaVu Sans" font-size="10.00">geb. Prendinger</text>
<text text-anchor="middle" x="662" y="-359.6" font-family="DejaVu Sans" font-size="10.00">*23.06.1953</text>
</g>
<!-- att07&#45;&gt;att14 -->
<!-- att07&#45;&gt;att14 -->
<!-- att07&#45;&gt;att14 -->
<!-- att08 -->
<g id="P_att08" class="node">
<title>att08</title>
<path fill="#fde7ef" stroke="#333333" d="M121.5,-393.6C121.5,-393.6 32.5,-393.6 32.5,-393.6 26.5,-393.6 20.5,-387.6 20.5,-381.6 20.5,-381.6 20.5,-364.6 20.5,-364.6 20.5,-358.6 26.5,-352.6 32.5,-352.6 32.5,-352.6 121.5,-352.6 121.5,-352.6 127.5,-352.6 133.5,-358.6 133.5,-364.6 133.5,-364.6 133.5,-381.6 133.5,-381.6 133.5,-387.6 127.5,-393.6 121.5,-393.6"/>
<text text-anchor="middle" x="77" y="-381.6" font-family="DejaVu Sans" font-size="10.00">Renate Adelsberger</text>
<text text-anchor="middle" x="77" y="-370.6" font-family="DejaVu Sans" font-size="10.00">geb. Rapatz</text>
<text text-anchor="middle" x="77" y="-359.6" font-family="DejaVu Sans" font-size="10.00">*22.05.1960</text>
</g>
<!-- att07&#45;&gt;att08 -->
<!-- att07&#45;&gt;att08 -->
<!-- M_attF3 -->
<g id="M_attF3" class="node">
<title>M_attF3</title>
<ellipse fill="#fff3b0" stroke="#b08900" cx="221" cy="-282.8" rx="40.98" ry="18"/>
<text text-anchor="middle" x="221" y="-280.6" font-family="DejaVu Sans" font-size="9.00">21.08.2020</text>
</g>
<!-- att07&#45;&gt;M_attF3 -->
<g id="edge14" class="edge">
<title>att07&#45;&gt;M_attF3</title>
<path fill="none" stroke="#555555" d="M457.73,-355.39C397.55,-337.19 303.29,-308.68 253.82,-293.72"/>
</g>
<!-- M_attF5 -->
<g id="M_attF5" class="node">
<title>M_attF5</title>
<ellipse fill="#fff3b0" stroke="#b08900" cx="440" cy="-282.8" rx="73.58" ry="19.6"/>
<text text-anchor="middle" x="440" y="-285.6" font-family="DejaVu Sans" font-size="9.00">05.05.1974</text>
<text text-anchor="middle" x="440" y="-275.6" font-family="DejaVu Sans" font-size="9.00">gesch. 05.05.1994</text>
</g>
<!-- att07&#45;&gt;M_attF5 -->
<g id="edge17" class="edge">
<title>att07&#45;&gt;M_attF5</title>
<path fill="none" stroke="#555555" d="M498.92,-355.07C486.41,-339.94 468.16,-317.86 455.29,-302.3"/>
</g>
<!-- g6p02 -->
<g id="P_g6p02" class="node">
<title>g6p02</title>
<path fill="#fde7ef" stroke="#333333" d="M268,-393.6C268,-393.6 178,-393.6 178,-393.6 172,-393.6 166,-387.6 166,-381.6 166,-381.6 166,-364.6 166,-364.6 166,-358.6 172,-352.6 178,-352.6 178,-352.6 268,-352.6 268,-352.6 274,-352.6 280,-358.6 280,-364.6 280,-364.6 280,-381.6 280,-381.6 280,-387.6 274,-393.6 268,-393.6"/>
<text text-anchor="middle" x="223" y="-381.6" font-family="DejaVu Sans" font-size="10.00">Brigitta Adelsberger</text>
<text text-anchor="middle" x="223" y="-370.6" font-family="DejaVu Sans" font-size="10.00">geb. Kofler</text>
<text text-anchor="middle" x="223" y="-359.6" font-family="DejaVu Sans" font-size="10.00">*04.08.1945</text>
</g>
<!-- g6p02&#45;&gt;att07 -->
<!-- att36 -->
<g id="P_att36" class="node">
<title>att36</title>
<path fill="#dbeafe" stroke="#333333" d="M414,-391.1C414,-391.1 324,-391.1 324,-391.1 318,-391.1 312,-385.1 312,-379.1 312,-379.1 312,-367.1 312,-367.1 312,-361.1 318,-355.1 324,-355.1 324,-355.1 414,-355.1 414,-355.1 420,-355.1 426,-361.1 426,-367.1 426,-367.1 426,-379.1 426,-379.1 426,-385.1 420,-391.1 414,-391.1"/>
<text text-anchor="middle" x="369" y="-376.1" font-family="DejaVu Sans" font-size="10.00">Helmut Adelsberger</text>
<text text-anchor="middle" x="369" y="-365.1" font-family="DejaVu Sans" font-size="10.00">*29.06.1943</text>
</g>
<!-- g6p02&#45;&gt;att36 -->
<!-- M_g6F1 -->
<g id="M_g6F1" class="node">
<title>M_g6F1</title>
<ellipse fill="#fff3b0" stroke="#b08900" cx="587" cy="-282.8" rx="40.98" ry="18"/>
<text text-anchor="middle" x="587" y="-280.6" font-family="DejaVu Sans" font-size="9.00">29.08.1969</text>
</g>
<!-- g6p02&#45;&gt;M_g6F1 -->
<g id="edge35" class="edge">
<title>g6p02&#45;&gt;M_g6F1</title>
<path fill="none" stroke="#555555" d="M280.16,-356.83C289.4,-354.36 296,-352.6 296,-352.6 296,-352.6 530,-302.6 530,-302.6 530,-302.6 542.11,-298.6 555.17,-294.3"/>
</g>
<!-- attS02 -->
<g id="P_attS02" class="node">
<title>attS02</title>
<path fill="#fde7ef" stroke="#333333" d="M64,-210.5C64,-210.5 12,-210.5 12,-210.5 6,-210.5 0,-204.5 0,-198.5 0,-198.5 0,-186.5 0,-186.5 0,-180.5 6,-174.5 12,-174.5 12,-174.5 64,-174.5 64,-174.5 70,-174.5 76,-180.5 76,-186.5 76,-186.5 76,-198.5 76,-198.5 76,-204.5 70,-210.5 64,-210.5"/>
<text text-anchor="middle" x="38" y="-195.5" font-family="DejaVu Sans" font-size="10.00">Nina Novak</text>
<text text-anchor="middle" x="38" y="-184.5" font-family="DejaVu Sans" font-size="10.00">*16.11.1989</text>
</g>
<!-- att21 -->
<g id="P_att21" class="node">
<title>att21</title>
<path fill="#dbeafe" stroke="#333333" d="M214,-210.5C214,-210.5 120,-210.5 120,-210.5 114,-210.5 108,-204.5 108,-198.5 108,-198.5 108,-186.5 108,-186.5 108,-180.5 114,-174.5 120,-174.5 120,-174.5 214,-174.5 214,-174.5 220,-174.5 226,-180.5 226,-186.5 226,-186.5 226,-198.5 226,-198.5 226,-204.5 220,-210.5 214,-210.5"/>
<text text-anchor="middle" x="167" y="-195.5" font-family="DejaVu Sans" font-size="10.00">Stephan Adelsberger</text>
<text text-anchor="middle" x="167" y="-184.5" font-family="DejaVu Sans" font-size="10.00">*30.08.1982</text>
</g>
<!-- attS02&#45;&gt;att21 -->
<!-- att35 -->
<g id="P_att35" class="node">
<title>att35</title>
<path fill="#fde7ef" stroke="#333333" d="M357.5,-213C357.5,-213 270.5,-213 270.5,-213 264.5,-213 258.5,-207 258.5,-201 258.5,-201 258.5,-184 258.5,-184 258.5,-178 264.5,-172 270.5,-172 270.5,-172 357.5,-172 357.5,-172 363.5,-172 369.5,-178 369.5,-184 369.5,-184 369.5,-201 369.5,-201 369.5,-207 363.5,-213 357.5,-213"/>
<text text-anchor="middle" x="314" y="-201" font-family="DejaVu Sans" font-size="10.00">Henriette Frühwirth</text>
<text text-anchor="middle" x="314" y="-190" font-family="DejaVu Sans" font-size="10.00">geb. Adelsberger</text>
<text text-anchor="middle" x="314" y="-179" font-family="DejaVu Sans" font-size="10.00">*11.04.1984</text>
</g>
<!-- attS02&#45;&gt;att35 -->
<!-- M_attF10 -->
<g id="M_attF10" class="node">
<title>M_attF10</title>
<ellipse fill="#fff3b0" stroke="#b08900" cx="103" cy="-104" rx="27" ry="18"/>
<text text-anchor="middle" x="103" y="-101.8" font-family="DejaVu Sans" font-size="9.00">oo</text>
</g>
<!-- attS02&#45;&gt;M_attF10 -->
<g id="edge31" class="edge">
<title>attS02&#45;&gt;M_attF10</title>
<path fill="none" stroke="#555555" d="M50.84,-174.41C62.68,-158.65 80.1,-135.48 91.49,-120.32"/>
</g>
<!-- att06 -->
<g id="P_att06" class="node">
<title>att06</title>
<path fill="#fde7ef" stroke="#111111" stroke-width="1.8" d="M413,-570.6C413,-570.6 293,-570.6 293,-570.6 287,-570.6 281,-564.6 281,-558.6 281,-558.6 281,-541.6 281,-541.6 281,-535.6 287,-529.6 293,-529.6 293,-529.6 413,-529.6 413,-529.6 419,-529.6 425,-535.6 425,-541.6 425,-541.6 425,-558.6 425,-558.6 425,-564.6 419,-570.6 413,-570.6"/>
<text text-anchor="middle" x="353" y="-558.6" font-family="DejaVu Sans" font-size="10.00">Helene Adelsberger</text>
<text text-anchor="middle" x="353" y="-547.6" font-family="DejaVu Sans" font-size="10.00">geb. Polasek</text>
<text text-anchor="middle" x="353" y="-536.6" font-family="DejaVu Sans" font-size="10.00">*05.03.1917 &#160;+25.05.2001</text>
</g>
<!-- att05 -->
<g id="P_att05" class="node">
<title>att05</title>
<path fill="#dbeafe" stroke="#333333" d="M589,-568.1C589,-568.1 469,-568.1 469,-568.1 463,-568.1 457,-562.1 457,-556.1 457,-556.1 457,-544.1 457,-544.1 457,-538.1 463,-532.1 469,-532.1 469,-532.1 589,-532.1 589,-532.1 595,-532.1 601,-538.1 601,-544.1 601,-544.1 601,-556.1 601,-556.1 601,-562.1 595,-568.1 589,-568.1"/>
<text text-anchor="middle" x="529" y="-553.1" font-family="DejaVu Sans" font-size="10.00">Herbert Adelsberger</text>
<text text-anchor="middle" x="529" y="-542.1" font-family="DejaVu Sans" font-size="10.00">*01.11.1913 &#160;+12.09.2001</text>
</g>
<!-- att06&#45;&gt;att05 -->
<!-- M_attF2 -->
<g id="M_attF2" class="node">
<title>M_attF2</title>
<ellipse fill="#fff3b0" stroke="#b08900" cx="441" cy="-461.6" rx="40.98" ry="18"/>
<text text-anchor="middle" x="441" y="-459.4" font-family="DejaVu Sans" font-size="9.00">29.08.1942</text>
</g>
<!-- att06&#45;&gt;M_attF2 -->
<g id="edge6" class="edge">
<title>att06&#45;&gt;M_attF2</title>
<path fill="none" stroke="#555555" d="M372.97,-529.47C388.69,-514.02 410.31,-492.76 424.93,-478.4"/>
</g>
<!-- g6p10 -->
<g id="P_g6p10" class="node">
<title>g6p10</title>
<path fill="#fde7ef" stroke="#333333" d="M1004.5,-36C1004.5,-36 921.5,-36 921.5,-36 915.5,-36 909.5,-30 909.5,-24 909.5,-24 909.5,-12 909.5,-12 909.5,-6 915.5,0 921.5,0 921.5,0 1004.5,0 1004.5,0 1010.5,0 1016.5,-6 1016.5,-12 1016.5,-12 1016.5,-24 1016.5,-24 1016.5,-30 1010.5,-36 1004.5,-36"/>
<text text-anchor="middle" x="963" y="-21" font-family="DejaVu Sans" font-size="10.00">Romy Adelsberger</text>
<text text-anchor="middle" x="963" y="-10" font-family="DejaVu Sans" font-size="10.00">*09.10.2018</text>
</g>
<!-- att32 -->
<g id="P_att32" class="node">
<title>att32</title>
<path fill="#fde7ef" stroke="#333333" d="M631.5,-210.5C631.5,-210.5 542.5,-210.5 542.5,-210.5 536.5,-210.5 530.5,-204.5 530.5,-198.5 530.5,-198.5 530.5,-186.5 530.5,-186.5 530.5,-180.5 536.5,-174.5 542.5,-174.5 542.5,-174.5 631.5,-174.5 631.5,-174.5 637.5,-174.5 643.5,-180.5 643.5,-186.5 643.5,-186.5 643.5,-198.5 643.5,-198.5 643.5,-204.5 637.5,-210.5 631.5,-210.5"/>
<text text-anchor="middle" x="587" y="-195.5" font-family="DejaVu Sans" font-size="10.00">Gudrun Adelsberger</text>
<text text-anchor="middle" x="587" y="-184.5" font-family="DejaVu Sans" font-size="10.00">*29.03.1974</text>
</g>
<!-- att33 -->
<g id="P_att33" class="node">
<title>att33</title>
<path fill="#fde7ef" stroke="#333333" d="M808,-210.5C808,-210.5 688,-210.5 688,-210.5 682,-210.5 676,-204.5 676,-198.5 676,-198.5 676,-186.5 676,-186.5 676,-180.5 682,-174.5 688,-174.5 688,-174.5 808,-174.5 808,-174.5 814,-174.5 820,-180.5 820,-186.5 820,-186.5 820,-198.5 820,-198.5 820,-204.5 814,-210.5 808,-210.5"/>
<text text-anchor="middle" x="748" y="-195.5" font-family="DejaVu Sans" font-size="10.00">Sigrid Adelsberger</text>
<text text-anchor="middle" x="748" y="-184.5" font-family="DejaVu Sans" font-size="10.00">*04.01.1978 &#160;+28.09.1978</text>
</g>
<!-- att32&#45;&gt;att33 -->
<!-- att21&#45;&gt;attS02 -->
<!-- att21&#45;&gt;attS02 -->
<!-- att21&#45;&gt;attS02 -->
<!-- att21&#45;&gt;att35 -->
<!-- att21&#45;&gt;M_attF10 -->
<g id="edge30" class="edge">
<title>att21&#45;&gt;M_attF10</title>
<path fill="none" stroke="#555555" d="M154.36,-174.41C142.77,-158.75 125.77,-135.77 114.54,-120.6"/>
</g>
<!-- att36&#45;&gt;att07 -->
<!-- att36&#45;&gt;g6p02 -->
<!-- att36&#45;&gt;g6p02 -->
<!-- att36&#45;&gt;g6p02 -->
<!-- att36&#45;&gt;M_g6F1 -->
<g id="edge34" class="edge">
<title>att36&#45;&gt;M_g6F1</title>
<path fill="none" stroke="#555555" d="M411.03,-355.07C454.21,-337.58 520.29,-310.82 557.98,-295.55"/>
</g>
<!-- att14&#45;&gt;att07 -->
<!-- att14&#45;&gt;M_attF5 -->
<g id="edge18" class="edge">
<title>att14&#45;&gt;M_attF5</title>
<path fill="none" stroke="#555555" d="M612.73,-352.5C572.62,-336.55 516.74,-314.32 479.52,-299.52"/>
</g>
<!-- att41 -->
<g id="P_att41" class="node">
<title>att41</title>
<path fill="#fde7ef" stroke="#333333" d="M129,-36C129,-36 77,-36 77,-36 71,-36 65,-30 65,-24 65,-24 65,-12 65,-12 65,-6 71,0 77,0 77,0 129,0 129,0 135,0 141,-6 141,-12 141,-12 141,-24 141,-24 141,-30 135,-36 129,-36"/>
<text text-anchor="middle" x="103" y="-21" font-family="DejaVu Sans" font-size="10.00">Lea Novak</text>
<text text-anchor="middle" x="103" y="-10" font-family="DejaVu Sans" font-size="10.00">*28.05.2025</text>
</g>
<!-- g6p13 -->
<g id="P_g6p13" class="node">
<title>g6p13</title>
<path fill="#dbeafe" stroke="#333333" d="M486,-210.5C486,-210.5 414,-210.5 414,-210.5 408,-210.5 402,-204.5 402,-198.5 402,-198.5 402,-186.5 402,-186.5 402,-180.5 408,-174.5 414,-174.5 414,-174.5 486,-174.5 486,-174.5 492,-174.5 498,-180.5 498,-186.5 498,-186.5 498,-198.5 498,-198.5 498,-204.5 492,-210.5 486,-210.5"/>
<text text-anchor="middle" x="450" y="-190" font-family="DejaVu Sans" font-size="10.00">Jürgen Frühwirth</text>
</g>
<!-- att35&#45;&gt;g6p13 -->
<!-- M_g6F5 -->
<g id="M_g6F5" class="node">
<title>M_g6F5</title>
<ellipse fill="#fff3b0" stroke="#b08900" cx="382" cy="-104" rx="27" ry="18"/>
<text text-anchor="middle" x="382" y="-101.8" font-family="DejaVu Sans" font-size="9.00">oo</text>
</g>
<!-- att35&#45;&gt;M_g6F5 -->
<g id="edge3" class="edge">
<title>att35&#45;&gt;M_g6F5</title>
<path fill="none" stroke="#555555" d="M329.43,-171.87C341.73,-156.22 358.72,-134.61 370.02,-120.25"/>
</g>
<!-- att05&#45;&gt;att06 -->
<!-- att05&#45;&gt;att06 -->
<!-- att05&#45;&gt;M_attF2 -->
<g id="edge5" class="edge">
<title>att05&#45;&gt;M_attF2</title>
<path fill="none" stroke="#555555" d="M511.61,-532.01C495.69,-516.35 472.3,-493.37 456.87,-478.2"/>
</g>
<!-- att34 -->
<g id="P_att34" class="node">
<title>att34</title>
<path fill="#fde7ef" stroke="#333333" d="M1070,-210.5C1070,-210.5 988,-210.5 988,-210.5 982,-210.5 976,-204.5 976,-198.5 976,-198.5 976,-186.5 976,-186.5 976,-180.5 982,-174.5 988,-174.5 988,-174.5 1070,-174.5 1070,-174.5 1076,-174.5 1082,-180.5 1082,-186.5 1082,-186.5 1082,-198.5 1082,-198.5 1082,-204.5 1076,-210.5 1070,-210.5"/>
<text text-anchor="middle" x="1029" y="-195.5" font-family="DejaVu Sans" font-size="10.00">Ingrid Adelsberger</text>
<text text-anchor="middle" x="1029" y="-184.5" font-family="DejaVu Sans" font-size="10.00">*02.01.1981</text>
</g>
<!-- att33&#45;&gt;att34 -->
<!-- att08&#45;&gt;att07 -->
<!-- att08&#45;&gt;M_attF3 -->
<g id="edge15" class="edge">
<title>att08&#45;&gt;M_attF3</title>
<path fill="none" stroke="#555555" d="M108.96,-352.5C135.97,-335.94 174.01,-312.61 198.08,-297.85"/>
</g>
<!-- g6p09 -->
<g id="P_g6p09" class="node">
<title>g6p09</title>
<path fill="#dbeafe" stroke="#333333" d="M932,-210.5C932,-210.5 864,-210.5 864,-210.5 858,-210.5 852,-204.5 852,-198.5 852,-198.5 852,-186.5 852,-186.5 852,-180.5 858,-174.5 864,-174.5 864,-174.5 932,-174.5 932,-174.5 938,-174.5 944,-180.5 944,-186.5 944,-186.5 944,-198.5 944,-198.5 944,-204.5 938,-210.5 932,-210.5"/>
<text text-anchor="middle" x="898" y="-195.5" font-family="DejaVu Sans" font-size="10.00">Tat&#45;Dat Nguyen</text>
<text text-anchor="middle" x="898" y="-184.5" font-family="DejaVu Sans" font-size="10.00">*04.05.1972</text>
</g>
<!-- g6p09&#45;&gt;att34 -->
<!-- g6p09&#45;&gt;att34 -->
<!-- g6p09&#45;&gt;att34 -->
<!-- M_g6F2 -->
<g id="M_g6F2" class="node">
<title>M_g6F2</title>
<ellipse fill="#fff3b0" stroke="#b08900" cx="963" cy="-104" rx="40.98" ry="18"/>
<text text-anchor="middle" x="963" y="-101.8" font-family="DejaVu Sans" font-size="9.00">27.06.2015</text>
</g>
<!-- g6p09&#45;&gt;M_g6F2 -->
<g id="edge26" class="edge">
<title>g6p09&#45;&gt;M_g6F2</title>
<path fill="none" stroke="#555555" d="M910.84,-174.41C922.39,-159.05 939.23,-136.63 950.63,-121.47"/>
</g>
<!-- att34&#45;&gt;g6p09 -->
<!-- att34&#45;&gt;M_g6F2 -->
<g id="edge27" class="edge">
<title>att34&#45;&gt;M_g6F2</title>
<path fill="none" stroke="#555555" d="M1015.96,-174.41C1004.16,-158.95 986.92,-136.35 975.34,-121.18"/>
</g>
<!-- g6p13&#45;&gt;att35 -->
<!-- g6p13&#45;&gt;att35 -->
<!-- g6p13&#45;&gt;att35 -->
<!-- g6p13&#45;&gt;M_g6F5 -->
<g id="edge2" class="edge">
<title>g6p13&#45;&gt;M_g6F5</title>
<path fill="none" stroke="#555555" d="M436.57,-174.41C424.18,-158.65 405.96,-135.48 394.04,-120.32"/>
</g>
<!-- M_attF2&#45;&gt;att07 -->
<g id="edge8" class="edge">
<title>M_attF2&#45;&gt;att07</title>
<path fill="none" stroke="#555555" d="M454.54,-444.33C465.2,-431.53 480.22,-413.48 492.37,-398.88"/>
<polygon fill="#555555" stroke="#555555" points="495.07,-401.11 498.78,-391.18 489.69,-396.63 495.07,-401.11"/>
</g>
<!-- M_attF2&#45;&gt;att36 -->
<g id="edge7" class="edge">
<title>M_attF2&#45;&gt;att36</title>
<path fill="none" stroke="#555555" d="M427.46,-444.33C416.8,-431.53 401.78,-413.48 389.63,-398.88"/>
<polygon fill="#555555" stroke="#555555" points="392.31,-396.63 383.22,-391.18 386.93,-401.11 392.31,-396.63"/>
</g>
<!-- M_attF5&#45;&gt;att21 -->
<g id="edge19" class="edge">
<title>M_attF5&#45;&gt;att21</title>
<path fill="none" stroke="#555555" d="M394.61,-267.12C349.55,-252.55 280.12,-230.09 229.78,-213.81"/>
<polygon fill="#555555" stroke="#555555" points="230.58,-210.38 219.98,-210.64 228.42,-217.04 230.58,-210.38"/>
</g>
<!-- M_attF5&#45;&gt;att35 -->
<g id="edge20" class="edge">
<title>M_attF5&#45;&gt;att35</title>
<path fill="none" stroke="#555555" d="M414.8,-264.14C396.37,-251.23 371.09,-233.51 350.46,-219.05"/>
<polygon fill="#555555" stroke="#555555" points="352.42,-216.15 342.23,-213.28 348.41,-221.89 352.42,-216.15"/>
</g>
<!-- M_g6F2&#45;&gt;g6p10 -->
<g id="edge28" class="edge">
<title>M_g6F2&#45;&gt;g6p10</title>
<path fill="none" stroke="#555555" d="M963,-85.6C963,-74.26 963,-59.23 963,-46.32"/>
<polygon fill="#555555" stroke="#555555" points="966.5,-46.1 963,-36.1 959.5,-46.1 966.5,-46.1"/>
</g>
<!-- M_attF10&#45;&gt;att41 -->
<g id="edge32" class="edge">
<title>M_attF10&#45;&gt;att41</title>
<path fill="none" stroke="#555555" d="M103,-85.6C103,-74.26 103,-59.23 103,-46.32"/>
<polygon fill="#555555" stroke="#555555" points="106.5,-46.1 103,-36.1 99.5,-46.1 106.5,-46.1"/>
</g>
<!-- M_g6F1&#45;&gt;att32 -->
<g id="edge36" class="edge">
<title>M_g6F1&#45;&gt;att32</title>
<path fill="none" stroke="#555555" d="M587,-264.77C587,-252.39 587,-235.37 587,-221.06"/>
<polygon fill="#555555" stroke="#555555" points="590.5,-220.77 587,-210.77 583.5,-220.77 590.5,-220.77"/>
</g>
<!-- M_g6F1&#45;&gt;att33 -->
<g id="edge37" class="edge">
<title>M_g6F1&#45;&gt;att33</title>
<path fill="none" stroke="#555555" d="M611.8,-268.2C637.38,-254.17 677.68,-232.07 707.82,-215.54"/>
<polygon fill="#555555" stroke="#555555" points="709.73,-218.48 716.81,-210.6 706.36,-212.34 709.73,-218.48"/>
</g>
<!-- M_g6F1&#45;&gt;att34 -->
<g id="edge38" class="edge">
<title>M_g6F1&#45;&gt;att34</title>
<path fill="none" stroke="#555555" d="M624.13,-274.95C718.47,-257.55 960,-213 960,-213 960,-213 962.2,-212.38 965.8,-211.36"/>
<polygon fill="#555555" stroke="#555555" points="966.99,-214.66 975.66,-208.58 965.08,-207.93 966.99,-214.66"/>
</g>
</g>
</svg>
