<?xml version="1.0" encoding="UTF-8" standalone="no"?>
<!DOCTYPE svg PUBLIC "-//W3C//DTD SVG 1.1//EN"
 "http://www.w3.org/Graphics/SVG/1.1/DTD/svg11.dtd">
<!-- Generated by graphviz version 2.43.0 (0)
 -->
<!-- Title: %3 Pages: 1 -->
<svg width="1090pt" height="600pt"
 viewBox="0.00 0.00 1089.50 599.60" xmlns="http://www.w3.org/2000/svg" xmlns:xlink="http://www.w3.org/1999/xlink">
<style><![CDATA[
  g[id^="P_"], g[id^="M_"] { cursor: pointer; }
  .highlight ellipse, .highlight polygon, .highlight path, .highlight rect {
    stroke: #d00; stroke-width: 2.5;
  }
  @keyframes pulse { 0%,100%{opacity:1} 50%{opacity:.45} }
  .blink { animation: pulse 0.9s ease-in-out 3; }
]]></style>
<script><![CDATA[
(function(){
  var SPOUSE = {"P_g6p13": ["P_att35"], "P_att35": ["P_g6p13"], "P_att07": ["P_att08", "P_att14"], "P_att08": ["P_att07"], "P_att05": ["P_att06"], "P_att06": ["P_att05"], "P_att36": ["P_g6p02"], "P_g6p02": ["P_att36"], "P_g6p09": ["P_att34"], "P_att34": ["P_g6p09"], "P_att14": ["P_att07"], "P_att21": ["P_attS02"], "P_attS02": ["P_att21"]};
  var FAMILY = {"M_g6F5": ["P_g6p13", "P_att35"], "M_attF3": ["P_att07", "P_att08"], "M_attF2": ["P_att05", "P_att06", "P_att36", "P_att07"], "M_g6F1": ["P_att36", "P_g6p02", "P_att32", "P_att33", "P_att34"], "M_g6F2": ["P_g6p09", "P_att34", "P_g6p10"], "M_attF5": ["P_att07", "P_att14", "P_att21", "P_att35"], "M_attF10": ["P_att21", "P_attS02", "P_att41"]};
  function clearHl(){ document.querySelectorAll('.blink').forEach(function(n){ n.classList.remove('blink'); n.classList.remove('highlight'); }); }
  function hl(id){ var el=document.getElementById(id); if(el){ el.classList.add('highlight'); el.classList.add('blink'); } }
  document.addEventListener('click', function(evt){
    var target = evt.target;
    var g = target.closest && target.closest('g[id^="P_"], g[id^="M_"]');
    if (!g) { while (target) { if (target.id && /^([PM]_)/.test(target.id) && target.tagName && target.tagName.toLowerCase() === 'g') { g = target; break; } target = target.parentNode; } }
    if (!g) return;
    var id = g.id; clearHl();
    if (/^P_/.test(id)) { (SPOUSE[id] || []).forEach(hl); }
    else if (/^M_/.test(id)) { hl(id); (FAMILY[id] || []).forEach(hl); }
  }, false);
})();
]]></script>

<g id="graph0" class="graph" transform="scale(1 1) rotate(0) translate(4 595.6)">
<title>%3</title>
<polygon fill="white" stroke="transparent" points="-4,4 -4,-595.6 1085.5,-595.6 1085.5,4 -4,4"/>
<text text-anchor="middle" x="540.75" y="-578" font-family="DejaVu Sans" font-size="12.00">Helli</text>
<!-- att33 -->
<g id="P_att33" class="node">
<title>att33</title>
<path fill="#fde7ef" stroke="#333333" d="M648,-210.5C648,-210.5 528,-210.5 528,-210.5 522,-210.5 516,-204.5 516,-198.5 516,-198.5 516,-186.5 516,-186.5 516,-180.5 522,-174.5 528,-174.5 528,-174.5 648,-174.5 648,-174.5 654,-174.5 660,-180.5 660,-186.5 660,-186.5 660,-198.5 660,-198.5 660,-204.5 654,-210.5 648,-210.5"/>
<text text-anchor="middle" x="588" y="-195.5" font-family="DejaVu Sans" font-size="10.00">Sigrid Adelsberger</text>
<text text-anchor="middle" x="588" y="-184.5" font-family="DejaVu Sans" font-size="10.00">*04.01.1978 &#160;+28.09.1978</text>
</g>
<!-- att34 -->
<g id="P_att34" class="node">
<title>att34</title>
<path fill="#fde7ef" stroke="#333333" d="M218,-210.5C218,-210.5 136,-210.5 136,-210.5 130,-210.5 124,-204.5 124,-198.5 124,-198.5 124,-186.5 124,-186.5 124,-180.5 130,-174.5 136,-174.5 136,-174.5 218,-174.5 218,-174.5 224,-174.5 230,-180.5 230,-186.5 230,-186.5 230,-198.5 230,-198.5 230,-204.5 224,-210.5 218,-210.5"/>
<text text-anchor="middle" x="177" y="-195.5" font-family="DejaVu Sans" font-size="10.00">Ingrid Adelsberger</text>
<text text-anchor="middle" x="177" y="-184.5" font-family="DejaVu Sans" font-size="10.00">*02.01.1981</text>
</g>
<!-- att33&#45;&gt;att34 -->
<!-- g6p10 -->
<g id="P_g6p10" class="node">
<title>g6p10</title>
<path fill="#fde7ef" stroke="#333333" d="M185.5,-36C185.5,-36 102.5,-36 102.5,-36 96.5,-36 90.5,-30 90.5,-24 90.5,-24 90.5,-12 90.5,-12 90.5,-6 96.5,0 102.5,0 102.5,0 185.5,0 185.5,0 191.5,0 197.5,-6 197.5,-12 197.5,-12 197.5,-24 197.5,-24 197.5,-30 191.5,-36 185.5,-36"/>
<text text-anchor="middle" x="144" y="-21" font-family="DejaVu Sans" font-size="10.00">Romy Adelsberger</text>
<text text-anchor="middle" x="144" y="-10" font-family="DejaVu Sans" font-size="10.00">*09.10.2018</text>
</g>
<!-- att41 -->
<g id="P_att41" class="node">
<title>att41</title>
<path fill="#fde7ef" stroke="#333333" d="M359,-36C359,-36 307,-36 307,-36 301,-36 295,-30 295,-24 295,-24 295,-12 295,-12 295,-6 301,0 307,0 307,0 359,0 359,0 365,0 371,-6 371,-12 371,-12 371,-24 371,-24 371,-30 365,-36 359,-36"/>
<text text-anchor="middle" x="333" y="-21" font-family="DejaVu Sans" font-size="10.00">Lea Novak</text>
<text text-anchor="middle" x="333" y="-10" font-family="DejaVu Sans" font-size="10.00">*28.05.2025</text>
</g>
<!-- att35 -->
<g id="P_att35" class="node">
<title>att35</title>
<path fill="#fde7ef" stroke="#333333" d="M1069.5,-213C1069.5,-213 982.5,-213 982.5,-213 976.5,-213 970.5,-207 970.5,-201 970.5,-201 970.5,-184 970.5,-184 970.5,-178 976.5,-172 982.5,-172 982.5,-172 1069.5,-172 1069.5,-172 1075.5,-172 1081.5,-178 1081.5,-184 1081.5,-184 1081.5,-201 1081.5,-201 1081.5,-207 1075.5,-213 1069.5,-213"/>
<text text-anchor="middle" x="1026" y="-201" font-family="DejaVu Sans" font-size="10.00">Henriette Frühwirth</text>
<text text-anchor="middle" x="1026" y="-190" font-family="DejaVu Sans" font-size="10.00">geb. Adelsberger</text>
<text text-anchor="middle" x="1026" y="-179" font-family="DejaVu Sans" font-size="10.00">*11.04.1984</text>
</g>
<!-- g6p13 -->
<g id="P_g6p13" class="node">
<title>g6p13</title>
<path fill="#dbeafe" stroke="#333333" d="M926,-210.5C926,-210.5 854,-210.5 854,-210.5 848,-210.5 842,-204.5 842,-198.5 842,-198.5 842,-186.5 842,-186.5 842,-180.5 848,-174.5 854,-174.5 854,-174.5 926,-174.5 926,-174.5 932,-174.5 938,-180.5 938,-186.5 938,-186.5 938,-198.5 938,-198.5 938,-204.5 932,-210.5 926,-210.5"/>
<text text-anchor="middle" x="890" y="-190" font-family="DejaVu Sans" font-size="10.00">Jürgen Frühwirth</text>
</g>
<!-- att35&#45;&gt;g6p13 -->
<!-- M_g6F5 -->
<g id="M_g6F5" class="node">
<title>M_g6F5</title>
<ellipse fill="#fff3b0" stroke="#b08900" cx="958" cy="-104" rx="27" ry="18"/>
<text text-anchor="middle" x="958" y="-101.8" font-family="DejaVu Sans" font-size="9.00">oo</text>
</g>
<!-- att35&#45;&gt;M_g6F5 -->
<g id="edge3" class="edge">
<title>att35&#45;&gt;M_g6F5</title>
<path fill="none" stroke="#555555" d="M1010.57,-171.87C998.27,-156.22 981.28,-134.61 969.98,-120.25"/>
</g>
<!-- g6p09 -->
<g id="P_g6p09" class="node">
<title>g6p09</title>
<path fill="#dbeafe" stroke="#333333" d="M80,-210.5C80,-210.5 12,-210.5 12,-210.5 6,-210.5 0,-204.5 0,-198.5 0,-198.5 0,-186.5 0,-186.5 0,-180.5 6,-174.5 12,-174.5 12,-174.5 80,-174.5 80,-174.5 86,-174.5 92,-180.5 92,-186.5 92,-186.5 92,-198.5 92,-198.5 92,-204.5 86,-210.5 80,-210.5"/>
<text text-anchor="middle" x="46" y="-195.5" font-family="DejaVu Sans" font-size="10.00">Tat&#45;Dat Nguyen</text>
<text text-anchor="middle" x="46" y="-184.5" font-family="DejaVu Sans" font-size="10.00">*04.05.1972</text>
</g>
<!-- g6p09&#45;&gt;att34 -->
<!-- g6p09&#45;&gt;att34 -->
<!-- g6p09&#45;&gt;att34 -->
<!-- M_g6F2 -->
<g id="M_g6F2" class="node">
<title>M_g6F2</title>
<ellipse fill="#fff3b0" stroke="#b08900" cx="144" cy="-104" rx="40.98" ry="18"/>
<text text-anchor="middle" x="144" y="-101.8" font-family="DejaVu Sans" font-size="9.00">27.06.2015</text>
</g>
<!-- g6p09&#45;&gt;M_g6F2 -->
<g id="edge26" class="edge">
<title>g6p09&#45;&gt;M_g6F2</title>
<path fill="none" stroke="#555555" d="M65.36,-174.41C83.21,-158.65 109.47,-135.48 126.65,-120.32"/>
</g>
<!-- att36 -->
<g id="P_att36" class="node">
<title>att36</title>
<path fill="#dbeafe" stroke="#333333" d="M549,-391.1C549,-391.1 459,-391.1 459,-391.1 453,-391.1 447,-385.1 447,-379.1 447,-379.1 447,-367.1 447,-367.1 447,-361.1 453,-355.1 459,-355.1 459,-355.1 549,-355.1 549,-355.1 555,-355.1 561,-361.1 561,-367.1 561,-367.1 561,-379.1 561,-379.1 561,-385.1 555,-391.1 549,-391.1"/>
<text text-anchor="middle" x="504" y="-376.1" font-family="DejaVu Sans" font-size="10.00">Helmut Adelsberger</text>
<text text-anchor="middle" x="504" y="-365.1" font-family="DejaVu Sans" font-size="10.00">*29.06.1943</text>
</g>
<!-- att07 -->
<g id="P_att07" class="node">
<title>att07</title>
<path fill="#dbeafe" stroke="#333333" d="M837,-391.1C837,-391.1 751,-391.1 751,-391.1 745,-391.1 739,-385.1 739,-379.1 739,-379.1 739,-367.1 739,-367.1 739,-361.1 745,-355.1 751,-355.1 751,-355.1 837,-355.1 837,-355.1 843,-355.1 849,-361.1 849,-367.1 849,-367.1 849,-379.1 849,-379.1 849,-385.1 843,-391.1 837,-391.1"/>
<text text-anchor="middle" x="794" y="-376.1" font-family="DejaVu Sans" font-size="10.00">Heimo Adelsberger</text>
<text text-anchor="middle" x="794" y="-365.1" font-family="DejaVu Sans" font-size="10.00">*16.08.1948</text>
</g>
<!-- att36&#45;&gt;att07 -->
<!-- g6p02 -->
<g id="P_g6p02" class="node">
<title>g6p02</title>
<path fill="#fde7ef" stroke="#333333" d="M403,-393.6C403,-393.6 313,-393.6 313,-393.6 307,-393.6 301,-387.6 301,-381.6 301,-381.6 301,-364.6 301,-364.6 301,-358.6 307,-352.6 313,-352.6 313,-352.6 403,-352.6 403,-352.6 409,-352.6 415,-358.6 415,-364.6 415,-364.6 415,-381.6 415,-381.6 415,-387.6 409,-393.6 403,-393.6"/>
<text text-anchor="middle" x="358" y="-381.6" font-family="DejaVu Sans" font-size="10.00">Brigitta Adelsberger</text>
<text text-anchor="middle" x="358" y="-370.6" font-family="DejaVu Sans" font-size="10.00">geb. Kofler</text>
<text text-anchor="middle" x="358" y="-359.6" font-family="DejaVu Sans" font-size="10.00">*04.08.1945</text>
</g>
<!-- att36&#45;&gt;g6p02 -->
<!-- att36&#45;&gt;g6p02 -->
<!-- att36&#45;&gt;g6p02 -->
<!-- M_g6F1 -->
<g id="M_g6F1" class="node">
<title>M_g6F1</title>
<ellipse fill="#fff3b0" stroke="#b08900" cx="427" cy="-282.8" rx="40.98" ry="18"/>
<text text-anchor="middle" x="427" y="-280.6" font-family="DejaVu Sans" font-size="9.00">29.08.1969</text>
</g>
<!-- att36&#45;&gt;M_g6F1 -->
<g id="edge17" class="edge">
<title>att36&#45;&gt;M_g6F1</title>
<path fill="none" stroke="#555555" d="M489.15,-355.07C475.26,-339.14 454.65,-315.5 441.02,-299.88"/>
</g>
<!-- att05 -->
<g id="P_att05" class="node">
<title>att05</title>
<path fill="#dbeafe" stroke="#333333" d="M621,-568.1C621,-568.1 501,-568.1 501,-568.1 495,-568.1 489,-562.1 489,-556.1 489,-556.1 489,-544.1 489,-544.1 489,-538.1 495,-532.1 501,-532.1 501,-532.1 621,-532.1 621,-532.1 627,-532.1 633,-538.1 633,-544.1 633,-544.1 633,-556.1 633,-556.1 633,-562.1 627,-568.1 621,-568.1"/>
<text text-anchor="middle" x="561" y="-553.1" font-family="DejaVu Sans" font-size="10.00">Herbert Adelsberger</text>
<text text-anchor="middle" x="561" y="-542.1" font-family="DejaVu Sans" font-size="10.00">*01.11.1913 &#160;+12.09.2001</text>
</g>
<!-- att06 -->
<g id="P_att06" class="node">
<title>att06</title>
<path fill="#fde7ef" stroke="#111111" stroke-width="1.8" d="M797,-570.6C797,-570.6 677,-570.6 677,-570.6 671,-570.6 665,-564.6 665,-558.6 665,-558.6 665,-541.6 665,-541.6 665,-535.6 671,-529.6 677,-529.6 677,-529.6 797,-529.6 797,-529.6 803,-529.6 809,-535.6 809,-541.6 809,-541.6 809,-558.6 809,-558.6 809,-564.6 803,-570.6 797,-570.6"/>
<text text-anchor="middle" x="737" y="-558.6" font-family="DejaVu Sans" font-size="10.00">Helene Adelsberger</text>
<text text-anchor="middle" x="737" y="-547.6" font-family="DejaVu Sans" font-size="10.00">geb. Polasek</text>
<text text-anchor="middle" x="737" y="-536.6" font-family="DejaVu Sans" font-size="10.00">*05.03.1917 &#160;+25.05.2001</text>
</g>
<!-- att05&#45;&gt;att06 -->
<!-- att05&#45;&gt;att06 -->
<!-- M_attF2 -->
<g id="M_attF2" class="node">
<title>M_attF2</title>
<ellipse fill="#fff3b0" stroke="#b08900" cx="649" cy="-461.6" rx="40.98" ry="18"/>
<text text-anchor="middle" x="649" y="-459.4" font-family="DejaVu Sans" font-size="9.00">29.08.1942</text>
</g>
<!-- att05&#45;&gt;M_attF2 -->
<g id="edge8" class="edge">
<title>att05&#45;&gt;M_attF2</title>
<path fill="none" stroke="#555555" d="M578.39,-532.01C594.31,-516.35 617.7,-493.37 633.13,-478.2"/>
</g>
<!-- att34&#45;&gt;g6p09 -->
<!-- att34&#45;&gt;M_g6F2 -->
<g id="edge27" class="edge">
<title>att34&#45;&gt;M_g6F2</title>
<path fill="none" stroke="#555555" d="M170.48,-174.41C164.69,-159.25 156.29,-137.21 150.51,-122.05"/>
</g>
<!-- attS02 -->
<g id="P_attS02" class="node">
<title>attS02</title>
<path fill="#fde7ef" stroke="#333333" d="M326,-210.5C326,-210.5 274,-210.5 274,-210.5 268,-210.5 262,-204.5 262,-198.5 262,-198.5 262,-186.5 262,-186.5 262,-180.5 268,-174.5 274,-174.5 274,-174.5 326,-174.5 326,-174.5 332,-174.5 338,-180.5 338,-186.5 338,-186.5 338,-198.5 338,-198.5 338,-204.5 332,-210.5 326,-210.5"/>
<text text-anchor="middle" x="300" y="-195.5" font-family="DejaVu Sans" font-size="10.00">Nina Novak</text>
<text text-anchor="middle" x="300" y="-184.5" font-family="DejaVu Sans" font-size="10.00">*16.11.1989</text>
</g>
<!-- attS02&#45;&gt;att35 -->
<!-- att21 -->
<g id="P_att21" class="node">
<title>att21</title>
<path fill="#dbeafe" stroke="#333333" d="M798,-210.5C798,-210.5 704,-210.5 704,-210.5 698,-210.5 692,-204.5 692,-198.5 692,-198.5 692,-186.5 692,-186.5 692,-180.5 698,-174.5 704,-174.5 704,-174.5 798,-174.5 798,-174.5 804,-174.5 810,-180.5 810,-186.5 810,-186.5 810,-198.5 810,-198.5 810,-204.5 804,-210.5 798,-210.5"/>
<text text-anchor="middle" x="751" y="-195.5" font-family="DejaVu Sans" font-size="10.00">Stephan Adelsberger</text>
<text text-anchor="middle" x="751" y="-184.5" font-family="DejaVu Sans" font-size="10.00">*30.08.1982</text>
</g>
<!-- attS02&#45;&gt;att21 -->
<!-- M_attF10 -->
<g id="M_attF10" class="node">
<title>M_attF10</title>
<ellipse fill="#fff3b0" stroke="#b08900" cx="333" cy="-104" rx="27" ry="18"/>
<text text-anchor="middle" x="333" y="-101.8" font-family="DejaVu Sans" font-size="9.00">oo</text>
</g>
<!-- attS02&#45;&gt;M_attF10 -->
<g id="edge40" class="edge">
<title>attS02&#45;&gt;M_attF10</title>
<path fill="none" stroke="#555555" d="M306.52,-174.41C312.34,-159.15 320.82,-136.92 326.61,-121.76"/>
</g>
<!-- att14 -->
<g id="P_att14" class="node">
<title>att14</title>
<path fill="#fde7ef" stroke="#333333" d="M992.5,-393.6C992.5,-393.6 893.5,-393.6 893.5,-393.6 887.5,-393.6 881.5,-387.6 881.5,-381.6 881.5,-381.6 881.5,-364.6 881.5,-364.6 881.5,-358.6 887.5,-352.6 893.5,-352.6 893.5,-352.6 992.5,-352.6 992.5,-352.6 998.5,-352.6 1004.5,-358.6 1004.5,-364.6 1004.5,-364.6 1004.5,-381.6 1004.5,-381.6 1004.5,-387.6 998.5,-393.6 992.5,-393.6"/>
<text text-anchor="middle" x="943" y="-381.6" font-family="DejaVu Sans" font-size="10.00">Elisabeth Adelsberger</text>
<text text-anchor="middle" x="943" y="-370.6" font-family="DejaVu Sans" font-size="10.00">geb. Prendinger</text>
<text text-anchor="middle" x="943" y="-359.6" font-family="DejaVu Sans" font-size="10.00">*23.06.1953</text>
</g>
<!-- att07&#45;&gt;att14 -->
<!-- att07&#45;&gt;att14 -->
<!-- att07&#45;&gt;att14 -->
<!-- att08 -->
<g id="P_att08" class="node">
<title>att08</title>
<path fill="#fde7ef" stroke="#333333" d="M694.5,-393.6C694.5,-393.6 605.5,-393.6 605.5,-393.6 599.5,-393.6 593.5,-387.6 593.5,-381.6 593.5,-381.6 593.5,-364.6 593.5,-364.6 593.5,-358.6 599.5,-352.6 605.5,-352.6 605.5,-352.6 694.5,-352.6 694.5,-352.6 700.5,-352.6 706.5,-358.6 706.5,-364.6 706.5,-364.6 706.5,-381.6 706.5,-381.6 706.5,-387.6 700.5,-393.6 694.5,-393.6"/>
<text text-anchor="middle" x="650" y="-381.6" font-family="DejaVu Sans" font-size="10.00">Renate Adelsberger</text>
<text text-anchor="middle" x="650" y="-370.6" font-family="DejaVu Sans" font-size="10.00">geb. Rapatz</text>
<text text-anchor="middle" x="650" y="-359.6" font-family="DejaVu Sans" font-size="10.00">*22.05.1960</text>
</g>
<!-- att07&#45;&gt;att08 -->
<!-- att07&#45;&gt;att08 -->
<!-- M_attF3 -->
<g id="M_attF3" class="node">
<title>M_attF3</title>
<ellipse fill="#fff3b0" stroke="#b08900" cx="658" cy="-282.8" rx="40.98" ry="18"/>
<text text-anchor="middle" x="658" y="-280.6" font-family="DejaVu Sans" font-size="9.00">21.08.2020</text>
</g>
<!-- att07&#45;&gt;M_attF3 -->
<g id="edge5" class="edge">
<title>att07&#45;&gt;M_attF3</title>
<path fill="none" stroke="#555555" d="M767.78,-355.07C742.31,-338.54 704.06,-313.71 680.1,-298.15"/>
</g>
<!-- M_attF5 -->
<g id="M_attF5" class="node">
<title>M_attF5</title>
<ellipse fill="#fff3b0" stroke="#b08900" cx="820" cy="-282.8" rx="73.58" ry="19.6"/>
<text text-anchor="middle" x="820" y="-285.6" font-family="DejaVu Sans" font-size="9.00">05.05.1974</text>
<text text-anchor="middle" x="820" y="-275.6" font-family="DejaVu Sans" font-size="9.00">gesch. 05.05.1994</text>
</g>
<!-- att07&#45;&gt;M_attF5 -->
<g id="edge30" class="edge">
<title>att07&#45;&gt;M_attF5</title>
<path fill="none" stroke="#555555" d="M799.01,-355.07C803.44,-340.04 809.88,-318.15 814.46,-302.61"/>
</g>
<!-- g6p02&#45;&gt;att36 -->
<!-- g6p02&#45;&gt;att07 -->
<!-- g6p02&#45;&gt;M_g6F1 -->
<g id="edge18" class="edge">
<title>g6p02&#45;&gt;M_g6F1</title>
<path fill="none" stroke="#555555" d="M373.31,-352.5C385.62,-336.75 402.71,-314.89 414.27,-300.09"/>
</g>
<!-- att14&#45;&gt;att07 -->
<!-- att14&#45;&gt;M_attF5 -->
<g id="edge31" class="edge">
<title>att14&#45;&gt;M_attF5</title>
<path fill="none" stroke="#555555" d="M915.7,-352.5C894.47,-337.26 865.26,-316.29 844.72,-301.54"/>
</g>
<!-- g6p13&#45;&gt;att35 -->
<!-- g6p13&#45;&gt;att35 -->
<!-- g6p13&#45;&gt;att35 -->
<!-- g6p13&#45;&gt;M_g6F5 -->
<g id="edge2" class="edge">
<title>g6p13&#45;&gt;M_g6F5</title>
<path fill="none" stroke="#555555" d="M903.43,-174.41C915.82,-158.65 934.04,-135.48 945.96,-120.32"/>
</g>
<!-- att06&#45;&gt;att05 -->
<!-- att06&#45;&gt;M_attF2 -->
<g id="edge9" class="edge">
<title>att06&#45;&gt;M_attF2</title>
<path fill="none" stroke="#555555" d="M717.03,-529.47C701.31,-514.02 679.69,-492.76 665.07,-478.4"/>
</g>
<!-- att08&#45;&gt;att07 -->
<!-- att08&#45;&gt;M_attF3 -->
<g id="edge6" class="edge">
<title>att08&#45;&gt;M_attF3</title>
<path fill="none" stroke="#555555" d="M651.78,-352.5C653.17,-337.06 655.11,-315.73 656.45,-300.95"/>
</g>
<!-- att21&#45;&gt;att35 -->
<!-- att21&#45;&gt;attS02 -->
<!-- att21&#45;&gt;attS02 -->
<!-- att21&#45;&gt;attS02 -->
<!-- att21&#45;&gt;M_attF10 -->
<g id="edge39" class="edge">
<title>att21&#45;&gt;M_attF10</title>
<path fill="none" stroke="#555555" d="M691.91,-176.14C682.61,-173.72 676,-172 676,-172 676,-172 437.99,-125.51 358.5,-109.98"/>
</g>
<!-- att32 -->
<g id="P_att32" class="node">
<title>att32</title>
<path fill="#fde7ef" stroke="#333333" d="M471.5,-210.5C471.5,-210.5 382.5,-210.5 382.5,-210.5 376.5,-210.5 370.5,-204.5 370.5,-198.5 370.5,-198.5 370.5,-186.5 370.5,-186.5 370.5,-180.5 376.5,-174.5 382.5,-174.5 382.5,-174.5 471.5,-174.5 471.5,-174.5 477.5,-174.5 483.5,-180.5 483.5,-186.5 483.5,-186.5 483.5,-198.5 483.5,-198.5 483.5,-204.5 477.5,-210.5 471.5,-210.5"/>
<text text-anchor="middle" x="427" y="-195.5" font-family="DejaVu Sans" font-size="10.00">Gudrun Adelsberger</text>
<text text-anchor="middle" x="427" y="-184.5" font-family="DejaVu Sans" font-size="10.00">*29.03.1974</text>
</g>
<!-- att32&#45;&gt;att33 -->
<!-- M_attF2&#45;&gt;att36 -->
<g id="edge10" class="edge">
<title>M_attF2&#45;&gt;att36</title>
<path fill="none" stroke="#555555" d="M625.7,-446.7C602.98,-433.14 568.03,-412.3 541.41,-396.41"/>
<polygon fill="#555555" stroke="#555555" points="543.11,-393.35 532.73,-391.24 539.52,-399.37 543.11,-393.35"/>
</g>
<!-- M_attF2&#45;&gt;att07 -->
<g id="edge11" class="edge">
<title>M_attF2&#45;&gt;att07</title>
<path fill="none" stroke="#555555" d="M672.3,-446.7C695.02,-433.14 729.97,-412.3 756.59,-396.41"/>
<polygon fill="#555555" stroke="#555555" points="758.48,-399.37 765.27,-391.24 754.89,-393.35 758.48,-399.37"/>
</g>
<!-- M_g6F1&#45;&gt;att33 -->
<g id="edge20" class="edge">
<title>M_g6F1&#45;&gt;att33</title>
<path fill="none" stroke="#555555" d="M451.8,-268.2C477.38,-254.17 517.68,-232.07 547.82,-215.54"/>
<polygon fill="#555555" stroke="#555555" points="549.73,-218.48 556.81,-210.6 546.36,-212.34 549.73,-218.48"/>
</g>
<!-- M_g6F1&#45;&gt;att34 -->
<g id="edge21" class="edge">
<title>M_g6F1&#45;&gt;att34</title>
<path fill="none" stroke="#555555" d="M396.09,-270.88C355.96,-256.71 285.11,-231.69 234.86,-213.93"/>
<polygon fill="#555555" stroke="#555555" points="236.01,-210.63 225.41,-210.6 233.67,-217.23 236.01,-210.63"/>
</g>
<!-- M_g6F1&#45;&gt;att32 -->
<g id="edge19" class="edge">
<title>M_g6F1&#45;&gt;att32</title>
<path fill="none" stroke="#555555" d="M427,-264.77C427,-252.39 427,-235.37 427,-221.06"/>
<polygon fill="#555555" stroke="#555555" points="430.5,-220.77 427,-210.77 423.5,-220.77 430.5,-220.77"/>
</g>
<!-- M_g6F2&#45;&gt;g6p10 -->
<g id="edge28" class="edge">
<title>M_g6F2&#45;&gt;g6p10</title>
<path fill="none" stroke="#555555" d="M144,-85.6C144,-74.26 144,-59.23 144,-46.32"/>
<polygon fill="#555555" stroke="#555555" points="147.5,-46.1 144,-36.1 140.5,-46.1 147.5,-46.1"/>
</g>
<!-- M_attF5&#45;&gt;att35 -->
<g id="edge33" class="edge">
<title>M_attF5&#45;&gt;att35</title>
<path fill="none" stroke="#555555" d="M857.78,-265.6C889.45,-252.03 935.09,-232.47 970.84,-217.14"/>
<polygon fill="#555555" stroke="#555555" points="972.36,-220.3 980.17,-213.14 969.6,-213.87 972.36,-220.3"/>
</g>
<!-- M_attF5&#45;&gt;att21 -->
<g id="edge32" class="edge">
<title>M_attF5&#45;&gt;att21</title>
<path fill="none" stroke="#555555" d="M805.37,-263.07C795.25,-250.12 781.67,-232.75 770.61,-218.6"/>
<polygon fill="#555555" stroke="#555555" points="773.36,-216.43 764.44,-210.7 767.84,-220.74 773.36,-216.43"/>
</g>
<!-- M_attF10&#45;&gt;att41 -->
<g id="edge41" class="edge">
<title>M_attF10&#45;&gt;att41</title>
<path fill="none" stroke="#555555" d="M333,-85.6C333,-74.26 333,-59.23 333,-46.32"/>
<polygon fill="#555555" stroke="#555555" points="336.5,-46.1 333,-36.1 329.5,-46.1 336.5,-46.1"/>
</g>
</g>
</svg>
