<?xml version="1.0" encoding="UTF-8" standalone="no"?>
<!DOCTYPE svg PUBLIC "-//W3C//DTD SVG 1.1//EN"
 "http://www.w3.org/Graphics/SVG/1.1/DTD/svg11.dtd">
<!-- Generated by graphviz version 2.43.0 (0)
 -->
<!-- Title: %3 Pages: 1 -->
<svg width="1090pt" height="600pt"
 viewBox="0.00 0.00 1090.00 599.60" xmlns="http://www.w3.org/2000/svg" xmlns:xlink="http://www.w3.org/1999/xlink">
<style><![CDATA[
  g[id^="P_"], g[id^="M_"] { cursor: pointer; }
  .highlight ellipse, .highlight polygon, .highlight path, .highlight rect {
    stroke: #d00; stroke-width: 2.5;
  }
  @keyframes pulse { 0%,100%{opacity:1} 50%{opacity:.45} }
  .blink { animation: pulse 0.9s ease-in-out 3; }
]]></style>
<script><![CDATA[
(function(){
  var SPOUSE = {"P_g6p09": ["P_att34"], "P_att34": ["P_g6p09"], "P_att07": ["P_att14", "P_att08"], "P_att14": ["P_att07"], "P_att21": ["P_attS02"], "P_attS02": ["P_att21"], "P_g6p13": ["P_att35"], "P_att35": ["P_g6p13"], "P_att05": ["P_att06"], "P_att06": ["P_att05"], "P_att36": ["P_g6p02"], "P_g6p02": ["P_att36"], "P_att08": ["P_att07"]};
  var FAMILY = {"M_g6F2": ["P_g6p09", "P_att34", "P_g6p10"], "M_attF5": ["P_att07", "P_att14", "P_att21", "P_att35"], "M_attF10": ["P_att21", "P_attS02", "P_att41"], "M_g6F5": ["P_g6p13", "P_att35"], "M_attF2": ["P_att05", "P_att06", "P_att36", "P_att07"], "M_g6F1": ["P_att36", "P_g6p02", "P_att32", "P_att33", "P_att34"], "M_attF3": ["P_att07", "P_att08"]};
  function clearHl(){ document.querySelectorAll('.blink').forEach(function(n){ n.classList.remove('blink'); n.classList.remove('highlight'); }); }
  function hl(id){ var el=document.getElementById(id); if(el){ el.classList.add('highlight'); el.classList.add('blink'); } }
  document.addEventListener('click', function(evt){
    var target = evt.target;
    var g = target.closest && target.closest('g[id^="P_"], g[id^="M_"]');
    if (!g) { while (target) { if (target.id && /^([PM]_)/.test(target.id) && target.tagName && target.tagName.toLowerCase() === 'g') { g = target; break; } target = target.parentNode; } }
    if (!g) return;
    var id = g.id; clearHl();
    if (/^P_/.test(id)) { (SPOUSE[id] || []).forEach(hl); }
    else if (/^M_/.test(id)) { hl(id); (FAMILY[id] || []).forEach(hl); }
  }, false);
})();
]]></script>

<g id="graph0" class="graph" transform="scale(1 1) rotate(0) translate(4 595.6)">
<title>%3</title>
<polygon fill="white" stroke="transparent" points="-4,4 -4,-595.6 1086,-595.6 1086,4 -4,4"/>
<text text-anchor="middle" x="541" y="-578" font-family="DejaVu Sans" font-size="12.00">Helli</text>
<!-- attS02 -->
<g id="P_attS02" class="node">
<title>attS02</title>
<path fill="#fde7ef" stroke="#333333" d="M64,-210.5C64,-210.5 12,-210.5 12,-210.5 6,-210.5 0,-204.5 0,-198.5 0,-198.5 0,-186.5 0,-186.5 0,-180.5 6,-174.5 12,-174.5 12,-174.5 64,-174.5 64,-174.5 70,-174.5 76,-180.5 76,-186.5 76,-186.5 76,-198.5 76,-198.5 76,-204.5 70,-210.5 64,-210.5"/>
<text text-anchor="middle" x="38" y="-195.5" font-family="DejaVu Sans" font-size="10.00">Nina Novak</text>
<text text-anchor="middle" x="38" y="-184.5" font-family="DejaVu Sans" font-size="10.00">*16.11.1989</text>
</g>
<!-- att21 -->
<g id="P_att21" class="node">
<title>att21</title>
<path fill="#dbeafe" stroke="#333333" d="M214,-210.5C214,-210.5 120,-210.5 120,-210.5 114,-210.5 108,-204.5 108,-198.5 108,-198.5 108,-186.5 108,-186.5 108,-180.5 114,-174.5 120,-174.5 120,-174.5 214,-174.5 214,-174.5 220,-174.5 226,-180.5 226,-186.5 226,-186.5 226,-198.5 226,-198.5 226,-204.5 220,-210.5 214,-210.5"/>
<text text-anchor="middle" x="167" y="-195.5" font-family="DejaVu Sans" font-size="10.00">Stephan Adelsberger</text>
<text text-anchor="middle" x="167" y="-184.5" font-family="DejaVu Sans" font-size="10.00">*30.08.1982</text>
</g>
<!-- attS02&#45;&gt;att21 -->
<!-- att35 -->
<g id="P_att35" class="node">
<title>att35</title>
<path fill="#fde7ef" stroke="#333333" d="M357.5,-213C357.5,-213 270.5,-213 270.5,-213 264.5,-213 258.5,-207 258.5,-201 258.5,-201 258.5,-184 258.5,-184 258.5,-178 264.5,-172 270.5,-172 270.5,-172 357.5,-172 357.5,-172 363.5,-172 369.5,-178 369.5,-184 369.5,-184 369.5,-201 369.5,-201 369.5,-207 363.5,-213 357.5,-213"/>
<text text-anchor="middle" x="314" y="-201" font-family="DejaVu Sans" font-size="10.00">Henriette Frühwirth</text>
<text text-anchor="middle" x="314" y="-190" font-family="DejaVu Sans" font-size="10.00">geb. Adelsberger</text>
<text text-anchor="middle" x="314" y="-179" font-family="DejaVu Sans" font-size="10.00">*11.04.1984</text>
</g>
<!-- attS02&#45;&gt;att35 -->
<!-- M_attF10 -->
<g id="M_attF10" class="node">
<title>M_attF10</title>
<ellipse fill="#fff3b0" stroke="#b08900" cx="103" cy="-104" rx="27" ry="18"/>
<text text-anchor="middle" x="103" y="-101.8" font-family="DejaVu Sans" font-size="9.00">oo</text>
</g>
<!-- attS02&#45;&gt;M_attF10 -->
<g id="edge16" class="edge">
<title>attS02&#45;&gt;M_attF10</title>
<path fill="none" stroke="#555555" d="M50.84,-174.41C62.68,-158.65 80.1,-135.48 91.49,-120.32"/>
</g>
<!-- att33 -->
<g id="P_att33" class="node">
<title>att33</title>
<path fill="#fde7ef" stroke="#333333" d="M932,-210.5C932,-210.5 812,-210.5 812,-210.5 806,-210.5 800,-204.5 800,-198.5 800,-198.5 800,-186.5 800,-186.5 800,-180.5 806,-174.5 812,-174.5 812,-174.5 932,-174.5 932,-174.5 938,-174.5 944,-180.5 944,-186.5 944,-186.5 944,-198.5 944,-198.5 944,-204.5 938,-210.5 932,-210.5"/>
<text text-anchor="middle" x="872" y="-195.5" font-family="DejaVu Sans" font-size="10.00">Sigrid Adelsberger</text>
<text text-anchor="middle" x="872" y="-184.5" font-family="DejaVu Sans" font-size="10.00">*04.01.1978 &#160;+28.09.1978</text>
</g>
<!-- att34 -->
<g id="P_att34" class="node">
<title>att34</title>
<path fill="#fde7ef" stroke="#333333" d="M1070,-210.5C1070,-210.5 988,-210.5 988,-210.5 982,-210.5 976,-204.5 976,-198.5 976,-198.5 976,-186.5 976,-186.5 976,-180.5 982,-174.5 988,-174.5 988,-174.5 1070,-174.5 1070,-174.5 1076,-174.5 1082,-180.5 1082,-186.5 1082,-186.5 1082,-198.5 1082,-198.5 1082,-204.5 1076,-210.5 1070,-210.5"/>
<text text-anchor="middle" x="1029" y="-195.5" font-family="DejaVu Sans" font-size="10.00">Ingrid Adelsberger</text>
<text text-anchor="middle" x="1029" y="-184.5" font-family="DejaVu Sans" font-size="10.00">*02.01.1981</text>
</g>
<!-- att33&#45;&gt;att34 -->
<!-- g6p09 -->
<g id="P_g6p09" class="node">
<title>g6p09</title>
<path fill="#dbeafe" stroke="#333333" d="M610,-210.5C610,-210.5 542,-210.5 542,-210.5 536,-210.5 530,-204.5 530,-198.5 530,-198.5 530,-186.5 530,-186.5 530,-180.5 536,-174.5 542,-174.5 542,-174.5 610,-174.5 610,-174.5 616,-174.5 622,-180.5 622,-186.5 622,-186.5 622,-198.5 622,-198.5 622,-204.5 616,-210.5 610,-210.5"/>
<text text-anchor="middle" x="576" y="-195.5" font-family="DejaVu Sans" font-size="10.00">Tat&#45;Dat Nguyen</text>
<text text-anchor="middle" x="576" y="-184.5" font-family="DejaVu Sans" font-size="10.00">*04.05.1972</text>
</g>
<!-- g6p09&#45;&gt;att34 -->
<!-- g6p09&#45;&gt;att34 -->
<!-- g6p09&#45;&gt;att34 -->
<!-- M_g6F2 -->
<g id="M_g6F2" class="node">
<title>M_g6F2</title>
<ellipse fill="#fff3b0" stroke="#b08900" cx="802" cy="-104" rx="40.98" ry="18"/>
<text text-anchor="middle" x="802" y="-101.8" font-family="DejaVu Sans" font-size="9.00">27.06.2015</text>
</g>
<!-- g6p09&#45;&gt;M_g6F2 -->
<g id="edge2" class="edge">
<title>g6p09&#45;&gt;M_g6F2</title>
<path fill="none" stroke="#555555" d="M620.65,-174.41C665.55,-157.23 733.5,-131.22 772.21,-116.4"/>
</g>
<!-- att08 -->
<g id="P_att08" class="node">
<title>att08</title>
<path fill="#fde7ef" stroke="#333333" d="M1043.5,-393.6C1043.5,-393.6 954.5,-393.6 954.5,-393.6 948.5,-393.6 942.5,-387.6 942.5,-381.6 942.5,-381.6 942.5,-364.6 942.5,-364.6 942.5,-358.6 948.5,-352.6 954.5,-352.6 954.5,-352.6 1043.5,-352.6 1043.5,-352.6 1049.5,-352.6 1055.5,-358.6 1055.5,-364.6 1055.5,-364.6 1055.5,-381.6 1055.5,-381.6 1055.5,-387.6 1049.5,-393.6 1043.5,-393.6"/>
<text text-anchor="middle" x="999" y="-381.6" font-family="DejaVu Sans" font-size="10.00">Renate Adelsberger</text>
<text text-anchor="middle" x="999" y="-370.6" font-family="DejaVu Sans" font-size="10.00">geb. Rapatz</text>
<text text-anchor="middle" x="999" y="-359.6" font-family="DejaVu Sans" font-size="10.00">*22.05.1960</text>
</g>
<!-- att07 -->
<g id="P_att07" class="node">
<title>att07</title>
<path fill="#dbeafe" stroke="#333333" d="M898,-391.1C898,-391.1 812,-391.1 812,-391.1 806,-391.1 800,-385.1 800,-379.1 800,-379.1 800,-367.1 800,-367.1 800,-361.1 806,-355.1 812,-355.1 812,-355.1 898,-355.1 898,-355.1 904,-355.1 910,-361.1 910,-367.1 910,-367.1 910,-379.1 910,-379.1 910,-385.1 904,-391.1 898,-391.1"/>
<text text-anchor="middle" x="855" y="-376.1" font-family="DejaVu Sans" font-size="10.00">Heimo Adelsberger</text>
<text text-anchor="middle" x="855" y="-365.1" font-family="DejaVu Sans" font-size="10.00">*16.08.1948</text>
</g>
<!-- att08&#45;&gt;att07 -->
<!-- M_attF3 -->
<g id="M_attF3" class="node">
<title>M_attF3</title>
<ellipse fill="#fff3b0" stroke="#b08900" cx="927" cy="-282.8" rx="40.98" ry="18"/>
<text text-anchor="middle" x="927" y="-280.6" font-family="DejaVu Sans" font-size="9.00">21.08.2020</text>
</g>
<!-- att08&#45;&gt;M_attF3 -->
<g id="edge41" class="edge">
<title>att08&#45;&gt;M_attF3</title>
<path fill="none" stroke="#555555" d="M983.02,-352.5C970.18,-336.75 952.35,-314.89 940.28,-300.09"/>
</g>
<!-- g6p13 -->
<g id="P_g6p13" class="node">
<title>g6p13</title>
<path fill="#dbeafe" stroke="#333333" d="M486,-210.5C486,-210.5 414,-210.5 414,-210.5 408,-210.5 402,-204.5 402,-198.5 402,-198.5 402,-186.5 402,-186.5 402,-180.5 408,-174.5 414,-174.5 414,-174.5 486,-174.5 486,-174.5 492,-174.5 498,-180.5 498,-186.5 498,-186.5 498,-198.5 498,-198.5 498,-204.5 492,-210.5 486,-210.5"/>
<text text-anchor="middle" x="450" y="-190" font-family="DejaVu Sans" font-size="10.00">Jürgen Frühwirth</text>
</g>
<!-- g6p13&#45;&gt;att35 -->
<!-- g6p13&#45;&gt;att35 -->
<!-- g6p13&#45;&gt;att35 -->
<!-- M_g6F5 -->
<g id="M_g6F5" class="node">
<title>M_g6F5</title>
<ellipse fill="#fff3b0" stroke="#b08900" cx="382" cy="-104" rx="27" ry="18"/>
<text text-anchor="middle" x="382" y="-101.8" font-family="DejaVu Sans" font-size="9.00">oo</text>
</g>
<!-- g6p13&#45;&gt;M_g6F5 -->
<g id="edge19" class="edge">
<title>g6p13&#45;&gt;M_g6F5</title>
<path fill="none" stroke="#555555" d="M436.57,-174.41C424.18,-158.65 405.96,-135.48 394.04,-120.32"/>
</g>
<!-- att21&#45;&gt;attS02 -->
<!-- att21&#45;&gt;attS02 -->
<!-- att21&#45;&gt;attS02 -->
<!-- att21&#45;&gt;att35 -->
<!-- att21&#45;&gt;M_attF10 -->
<g id="edge15" class="edge">
<title>att21&#45;&gt;M_attF10</title>
<path fill="none" stroke="#555555" d="M154.36,-174.41C142.77,-158.75 125.77,-135.77 114.54,-120.6"/>
</g>
<!-- att14 -->
<g id="P_att14" class="node">
<title>att14</title>
<path fill="#fde7ef" stroke="#333333" d="M463.5,-393.6C463.5,-393.6 364.5,-393.6 364.5,-393.6 358.5,-393.6 352.5,-387.6 352.5,-381.6 352.5,-381.6 352.5,-364.6 352.5,-364.6 352.5,-358.6 358.5,-352.6 364.5,-352.6 364.5,-352.6 463.5,-352.6 463.5,-352.6 469.5,-352.6 475.5,-358.6 475.5,-364.6 475.5,-364.6 475.5,-381.6 475.5,-381.6 475.5,-387.6 469.5,-393.6 463.5,-393.6"/>
<text text-anchor="middle" x="414" y="-381.6" font-family="DejaVu Sans" font-size="10.00">Elisabeth Adelsberger</text>
<text text-anchor="middle" x="414" y="-370.6" font-family="DejaVu Sans" font-size="10.00">geb. Prendinger</text>
<text text-anchor="middle" x="414" y="-359.6" font-family="DejaVu Sans" font-size="10.00">*23.06.1953</text>
</g>
<!-- att14&#45;&gt;att07 -->
<!-- M_attF5 -->
<g id="M_attF5" class="node">
<title>M_attF5</title>
<ellipse fill="#fff3b0" stroke="#b08900" cx="414" cy="-282.8" rx="73.58" ry="19.6"/>
<text text-anchor="middle" x="414" y="-285.6" font-family="DejaVu Sans" font-size="9.00">05.05.1974</text>
<text text-anchor="middle" x="414" y="-275.6" font-family="DejaVu Sans" font-size="9.00">gesch. 05.05.1994</text>
</g>
<!-- att14&#45;&gt;M_attF5 -->
<g id="edge7" class="edge">
<title>att14&#45;&gt;M_attF5</title>
<path fill="none" stroke="#555555" d="M414,-352.5C414,-337.67 414,-317.41 414,-302.73"/>
</g>
<!-- att05 -->
<g id="P_att05" class="node">
<title>att05</title>
<path fill="#dbeafe" stroke="#333333" d="M755,-568.1C755,-568.1 635,-568.1 635,-568.1 629,-568.1 623,-562.1 623,-556.1 623,-556.1 623,-544.1 623,-544.1 623,-538.1 629,-532.1 635,-532.1 635,-532.1 755,-532.1 755,-532.1 761,-532.1 767,-538.1 767,-544.1 767,-544.1 767,-556.1 767,-556.1 767,-562.1 761,-568.1 755,-568.1"/>
<text text-anchor="middle" x="695" y="-553.1" font-family="DejaVu Sans" font-size="10.00">Herbert Adelsberger</text>
<text text-anchor="middle" x="695" y="-542.1" font-family="DejaVu Sans" font-size="10.00">*01.11.1913 &#160;+12.09.2001</text>
</g>
<!-- att06 -->
<g id="P_att06" class="node">
<title>att06</title>
<path fill="#fde7ef" stroke="#111111" stroke-width="1.8" d="M931,-570.6C931,-570.6 811,-570.6 811,-570.6 805,-570.6 799,-564.6 799,-558.6 799,-558.6 799,-541.6 799,-541.6 799,-535.6 805,-529.6 811,-529.6 811,-529.6 931,-529.6 931,-529.6 937,-529.6 943,-535.6 943,-541.6 943,-541.6 943,-558.6 943,-558.6 943,-564.6 937,-570.6 931,-570.6"/>
<text text-anchor="middle" x="871" y="-558.6" font-family="DejaVu Sans" font-size="10.00">Helene Adelsberger</text>
<text text-anchor="middle" x="871" y="-547.6" font-family="DejaVu Sans" font-size="10.00">geb. Polasek</text>
<text text-anchor="middle" x="871" y="-536.6" font-family="DejaVu Sans" font-size="10.00">*05.03.1917 &#160;+24.05.2001</text>
</g>
<!-- att05&#45;&gt;att06 -->
<!-- att05&#45;&gt;att06 -->
<!-- M_attF2 -->
<g id="M_attF2" class="node">
<title>M_attF2</title>
<ellipse fill="#fff3b0" stroke="#b08900" cx="783" cy="-461.6" rx="40.98" ry="18"/>
<text text-anchor="middle" x="783" y="-459.4" font-family="DejaVu Sans" font-size="9.00">29.08.1942</text>
</g>
<!-- att05&#45;&gt;M_attF2 -->
<g id="edge22" class="edge">
<title>att05&#45;&gt;M_attF2</title>
<path fill="none" stroke="#555555" d="M712.39,-532.01C728.31,-516.35 751.7,-493.37 767.13,-478.2"/>
</g>
<!-- att32 -->
<g id="P_att32" class="node">
<title>att32</title>
<path fill="#fde7ef" stroke="#333333" d="M755.5,-210.5C755.5,-210.5 666.5,-210.5 666.5,-210.5 660.5,-210.5 654.5,-204.5 654.5,-198.5 654.5,-198.5 654.5,-186.5 654.5,-186.5 654.5,-180.5 660.5,-174.5 666.5,-174.5 666.5,-174.5 755.5,-174.5 755.5,-174.5 761.5,-174.5 767.5,-180.5 767.5,-186.5 767.5,-186.5 767.5,-198.5 767.5,-198.5 767.5,-204.5 761.5,-210.5 755.5,-210.5"/>
<text text-anchor="middle" x="711" y="-195.5" font-family="DejaVu Sans" font-size="10.00">Gudrun Adelsberger</text>
<text text-anchor="middle" x="711" y="-184.5" font-family="DejaVu Sans" font-size="10.00">*29.03.1974</text>
</g>
<!-- att32&#45;&gt;att33 -->
<!-- att07&#45;&gt;att08 -->
<!-- att07&#45;&gt;att08 -->
<!-- att07&#45;&gt;att14 -->
<!-- att07&#45;&gt;att14 -->
<!-- att07&#45;&gt;att14 -->
<!-- att07&#45;&gt;M_attF5 -->
<g id="edge6" class="edge">
<title>att07&#45;&gt;M_attF5</title>
<path fill="none" stroke="#555555" d="M799.76,-356.93C790.59,-354.41 784,-352.6 784,-352.6 784,-352.6 577.5,-314.2 473.04,-294.78"/>
</g>
<!-- att07&#45;&gt;M_attF3 -->
<g id="edge40" class="edge">
<title>att07&#45;&gt;M_attF3</title>
<path fill="none" stroke="#555555" d="M868.88,-355.07C881.88,-339.14 901.15,-315.5 913.89,-299.88"/>
</g>
<!-- att36 -->
<g id="P_att36" class="node">
<title>att36</title>
<path fill="#dbeafe" stroke="#333333" d="M756,-391.1C756,-391.1 666,-391.1 666,-391.1 660,-391.1 654,-385.1 654,-379.1 654,-379.1 654,-367.1 654,-367.1 654,-361.1 660,-355.1 666,-355.1 666,-355.1 756,-355.1 756,-355.1 762,-355.1 768,-361.1 768,-367.1 768,-367.1 768,-379.1 768,-379.1 768,-385.1 762,-391.1 756,-391.1"/>
<text text-anchor="middle" x="711" y="-376.1" font-family="DejaVu Sans" font-size="10.00">Helmut Adelsberger</text>
<text text-anchor="middle" x="711" y="-365.1" font-family="DejaVu Sans" font-size="10.00">*29.06.1943</text>
</g>
<!-- att36&#45;&gt;att07 -->
<!-- g6p02 -->
<g id="P_g6p02" class="node">
<title>g6p02</title>
<path fill="#fde7ef" stroke="#333333" d="M610,-393.6C610,-393.6 520,-393.6 520,-393.6 514,-393.6 508,-387.6 508,-381.6 508,-381.6 508,-364.6 508,-364.6 508,-358.6 514,-352.6 520,-352.6 520,-352.6 610,-352.6 610,-352.6 616,-352.6 622,-358.6 622,-364.6 622,-364.6 622,-381.6 622,-381.6 622,-387.6 616,-393.6 610,-393.6"/>
<text text-anchor="middle" x="565" y="-381.6" font-family="DejaVu Sans" font-size="10.00">Brigitta Adelsberger</text>
<text text-anchor="middle" x="565" y="-370.6" font-family="DejaVu Sans" font-size="10.00">geb. Kofler</text>
<text text-anchor="middle" x="565" y="-359.6" font-family="DejaVu Sans" font-size="10.00">*04.08.1945</text>
</g>
<!-- att36&#45;&gt;g6p02 -->
<!-- att36&#45;&gt;g6p02 -->
<!-- att36&#45;&gt;g6p02 -->
<!-- M_g6F1 -->
<g id="M_g6F1" class="node">
<title>M_g6F1</title>
<ellipse fill="#fff3b0" stroke="#b08900" cx="711" cy="-282.8" rx="40.98" ry="18"/>
<text text-anchor="middle" x="711" y="-280.6" font-family="DejaVu Sans" font-size="9.00">29.08.1969</text>
</g>
<!-- att36&#45;&gt;M_g6F1 -->
<g id="edge31" class="edge">
<title>att36&#45;&gt;M_g6F1</title>
<path fill="none" stroke="#555555" d="M711,-355.07C711,-339.54 711,-316.69 711,-301.07"/>
</g>
<!-- g6p10 -->
<g id="P_g6p10" class="node">
<title>g6p10</title>
<path fill="#fde7ef" stroke="#333333" d="M843.5,-36C843.5,-36 760.5,-36 760.5,-36 754.5,-36 748.5,-30 748.5,-24 748.5,-24 748.5,-12 748.5,-12 748.5,-6 754.5,0 760.5,0 760.5,0 843.5,0 843.5,0 849.5,0 855.5,-6 855.5,-12 855.5,-12 855.5,-24 855.5,-24 855.5,-30 849.5,-36 843.5,-36"/>
<text text-anchor="middle" x="802" y="-21" font-family="DejaVu Sans" font-size="10.00">Romy Adelsberger</text>
<text text-anchor="middle" x="802" y="-10" font-family="DejaVu Sans" font-size="10.00">*09.10.2018</text>
</g>
<!-- att41 -->
<g id="P_att41" class="node">
<title>att41</title>
<path fill="#fde7ef" stroke="#333333" d="M129,-36C129,-36 77,-36 77,-36 71,-36 65,-30 65,-24 65,-24 65,-12 65,-12 65,-6 71,0 77,0 77,0 129,0 129,0 135,0 141,-6 141,-12 141,-12 141,-24 141,-24 141,-30 135,-36 129,-36"/>
<text text-anchor="middle" x="103" y="-21" font-family="DejaVu Sans" font-size="10.00">Lea Novak</text>
<text text-anchor="middle" x="103" y="-10" font-family="DejaVu Sans" font-size="10.00">*28.05.2025</text>
</g>
<!-- g6p02&#45;&gt;att07 -->
<!-- g6p02&#45;&gt;att36 -->
<!-- g6p02&#45;&gt;M_g6F1 -->
<g id="edge32" class="edge">
<title>g6p02&#45;&gt;M_g6F1</title>
<path fill="none" stroke="#555555" d="M597.4,-352.5C624.79,-335.94 663.35,-312.61 687.76,-297.85"/>
</g>
<!-- att35&#45;&gt;g6p13 -->
<!-- att35&#45;&gt;M_g6F5 -->
<g id="edge20" class="edge">
<title>att35&#45;&gt;M_g6F5</title>
<path fill="none" stroke="#555555" d="M329.43,-171.87C341.73,-156.22 358.72,-134.61 370.02,-120.25"/>
</g>
<!-- att34&#45;&gt;g6p09 -->
<!-- att34&#45;&gt;M_g6F2 -->
<g id="edge3" class="edge">
<title>att34&#45;&gt;M_g6F2</title>
<path fill="none" stroke="#555555" d="M984.15,-174.41C939.06,-157.23 870.81,-131.22 831.92,-116.4"/>
</g>
<!-- att06&#45;&gt;att05 -->
<!-- att06&#45;&gt;M_attF2 -->
<g id="edge23" class="edge">
<title>att06&#45;&gt;M_attF2</title>
<path fill="none" stroke="#555555" d="M851.03,-529.47C835.31,-514.02 813.69,-492.76 799.07,-478.4"/>
</g>
<!-- M_g6F2&#45;&gt;g6p10 -->
<g id="edge4" class="edge">
<title>M_g6F2&#45;&gt;g6p10</title>
<path fill="none" stroke="#555555" d="M802,-85.6C802,-74.26 802,-59.23 802,-46.32"/>
<polygon fill="#555555" stroke="#555555" points="805.5,-46.1 802,-36.1 798.5,-46.1 805.5,-46.1"/>
</g>
<!-- M_attF5&#45;&gt;att21 -->
<g id="edge8" class="edge">
<title>M_attF5&#45;&gt;att21</title>
<path fill="none" stroke="#555555" d="M371.54,-266.62C330.93,-252.1 269.4,-230.11 224.43,-214.03"/>
<polygon fill="#555555" stroke="#555555" points="225.41,-210.66 214.81,-210.59 223.05,-217.25 225.41,-210.66"/>
</g>
<!-- M_attF5&#45;&gt;att35 -->
<g id="edge9" class="edge">
<title>M_attF5&#45;&gt;att35</title>
<path fill="none" stroke="#555555" d="M393.28,-263.5C379.02,-250.91 359.86,-233.99 343.95,-219.94"/>
<polygon fill="#555555" stroke="#555555" points="346.24,-217.3 336.43,-213.31 341.61,-222.55 346.24,-217.3"/>
</g>
<!-- M_attF10&#45;&gt;att41 -->
<g id="edge17" class="edge">
<title>M_attF10&#45;&gt;att41</title>
<path fill="none" stroke="#555555" d="M103,-85.6C103,-74.26 103,-59.23 103,-46.32"/>
<polygon fill="#555555" stroke="#555555" points="106.5,-46.1 103,-36.1 99.5,-46.1 106.5,-46.1"/>
</g>
<!-- M_attF2&#45;&gt;att07 -->
<g id="edge25" class="edge">
<title>M_attF2&#45;&gt;att07</title>
<path fill="none" stroke="#555555" d="M796.54,-444.33C807.2,-431.53 822.22,-413.48 834.37,-398.88"/>
<polygon fill="#555555" stroke="#555555" points="837.07,-401.11 840.78,-391.18 831.69,-396.63 837.07,-401.11"/>
</g>
<!-- M_attF2&#45;&gt;att36 -->
<g id="edge24" class="edge">
<title>M_attF2&#45;&gt;att36</title>
<path fill="none" stroke="#555555" d="M769.46,-444.33C758.8,-431.53 743.78,-413.48 731.63,-398.88"/>
<polygon fill="#555555" stroke="#555555" points="734.31,-396.63 725.22,-391.18 728.93,-401.11 734.31,-396.63"/>
</g>
<!-- M_g6F1&#45;&gt;att33 -->
<g id="edge34" class="edge">
<title>M_g6F1&#45;&gt;att33</title>
<path fill="none" stroke="#555555" d="M735.8,-268.2C761.38,-254.17 801.68,-232.07 831.82,-215.54"/>
<polygon fill="#555555" stroke="#555555" points="833.73,-218.48 840.81,-210.6 830.36,-212.34 833.73,-218.48"/>
</g>
<!-- M_g6F1&#45;&gt;att32 -->
<g id="edge33" class="edge">
<title>M_g6F1&#45;&gt;att32</title>
<path fill="none" stroke="#555555" d="M711,-264.77C711,-252.39 711,-235.37 711,-221.06"/>
<polygon fill="#555555" stroke="#555555" points="714.5,-220.77 711,-210.77 707.5,-220.77 714.5,-220.77"/>
</g>
<!-- M_g6F1&#45;&gt;att34 -->
<g id="edge35" class="edge">
<title>M_g6F1&#45;&gt;att34</title>
<path fill="none" stroke="#555555" d="M744.84,-272.45C812.92,-253.64 960,-213 960,-213 960,-213 962.2,-212.38 965.8,-211.36"/>
<polygon fill="#555555" stroke="#555555" points="966.99,-214.66 975.66,-208.58 965.08,-207.93 966.99,-214.66"/>
</g>
</g>
</svg>
