<?xml version="1.0" encoding="UTF-8" standalone="no"?>
<!DOCTYPE svg PUBLIC "-//W3C//DTD SVG 1.1//EN"
 "http://www.w3.org/Graphics/SVG/1.1/DTD/svg11.dtd">
<!-- Generated by graphviz version 2.43.0 (0)
 -->
<!-- Title: %3 Pages: 1 -->
<svg width="2072pt" height="607pt"
 viewBox="0.00 0.00 2072.00 607.00" xmlns="http://www.w3.org/2000/svg" xmlns:xlink="http://www.w3.org/1999/xlink">
<style><![CDATA[
  g[id^="P_"], g[id^="M_"] { cursor: pointer; }
  .highlight ellipse, .highlight polygon, .highlight path, .highlight rect {
    stroke: #d00; stroke-width: 2.5;
  }
  @keyframes pulse { 0%,100%{opacity:1} 50%{opacity:.45} }
  .blink { animation: pulse 0.9s ease-in-out 3; }
]]></style>
<script><![CDATA[
(function(){
  var SPOUSE = {"P_pol22": ["P_g3p04"], "P_g3p04": ["P_pol22"], "P_pol15": ["P_polS04", "P_polS05"], "P_polS04": ["P_pol15"], "P_pol19": ["P_g2p07"], "P_g2p07": ["P_pol19"], "P_pol21": ["P_g2p14"], "P_g2p14": ["P_pol21"], "P_polS06": ["P_pol16"], "P_pol16": ["P_polS06"], "P_polS09": ["P_pol18"], "P_pol18": ["P_polS09", "P_polS08"], "P_polS07": ["P_pol17"], "P_pol17": ["P_polS07"], "P_polS08": ["P_pol18"], "P_pol11": ["P_polS03", "P_polS02"], "P_polS03": ["P_pol11"], "P_polS05": ["P_pol15"], "P_polS02": ["P_pol11"], "P_g2p10": ["P_pol20"], "P_pol20": ["P_g2p10"], "P_ped01": ["P_pol14"], "P_pol14": ["P_ped01"]};
  var FAMILY = {"M_g3F2": ["P_pol22", "P_g3p04", "P_g3p05", "P_g3p06", "P_g3p07", "P_g3p08"], "M_polF4": ["P_pol15", "P_polS04", "P_pol19"], "M_g2F3": ["P_pol19", "P_g2p07", "P_g2p08", "P_g2p09"], "M_g2F5": ["P_pol21", "P_g2p14", "P_g2p15", "P_g2p16"], "M_polF6": ["P_polS06", "P_pol16", "P_pol22"], "M_polF9": ["P_polS09", "P_pol18", "P_pol25"], "M_polF7": ["P_polS07", "P_pol17", "P_pol23", "P_pol24"], "M_polF8": ["P_polS08", "P_pol18"], "M_polF3": ["P_pol11", "P_polS03", "P_pol15", "P_pol16", "P_pol17", "P_pol18"], "M_polF5": ["P_pol15", "P_polS05", "P_pol20", "P_pol21"], "M_polF2": ["P_pol11", "P_polS02", "P_pol14"], "M_g2F4": ["P_g2p10", "P_pol20", "P_g2p11", "P_g2p12", "P_g2p13"], "M_pedF1": ["P_ped01", "P_pol14", "P_ped02"]};
  function clearHl(){ document.querySelectorAll('.blink').forEach(function(n){ n.classList.remove('blink'); n.classList.remove('highlight'); }); }
  function hl(id){ var el=document.getElementById(id); if(el){ el.classList.add('highlight'); el.classList.add('blink'); } }
  document.addEventListener('click', function(evt){
    var target = evt.target;
    var g = target.closest && target.closest('g[id^="P_"], g[id^="M_"]');
    if (!g) { while (target) { if (target.id && /^([PM]_)/.test(target.id) && target.tagName && target.tagName.toLowerCase() === 'g') { g = target; break; } target = target.parentNode; } }
    if (!g) return;
    var id = g.id; clearHl();
    if (/^P_/.test(id)) { (SPOUSE[id] || []).forEach(hl); }
    else if (/^M_/.test(id)) { hl(id); (FAMILY[id] || []).forEach(hl); }
  }, false);
})();
]]></script>

<g id="graph0" class="graph" transform="scale(1 1) rotate(0) translate(4 603)">
<title>%3</title>
<polygon fill="white" stroke="transparent" points="-4,4 -4,-603 2068,-603 2068,4 -4,4"/>
<text text-anchor="middle" x="1032" y="-585.4" font-family="DejaVu Sans" font-size="12.00">Otto</text>
<!-- g2p16 -->
<g id="P_g2p16" class="node">
<title>g2p16</title>
<path fill="#dbeafe" stroke="#333333" d="M590.5,-36C590.5,-36 489.5,-36 489.5,-36 483.5,-36 477.5,-30 477.5,-24 477.5,-24 477.5,-12 477.5,-12 477.5,-6 483.5,0 489.5,0 489.5,0 590.5,0 590.5,0 596.5,0 602.5,-6 602.5,-12 602.5,-12 602.5,-24 602.5,-24 602.5,-30 596.5,-36 590.5,-36"/>
<text text-anchor="middle" x="540" y="-21" font-family="DejaVu Sans" font-size="10.00">Nelo&#45;Mika Schultheiss</text>
<text text-anchor="middle" x="540" y="-10" font-family="DejaVu Sans" font-size="10.00">*15.08.2022</text>
</g>
<!-- pol16 -->
<g id="P_pol16" class="node">
<title>pol16</title>
<path fill="#fde7ef" stroke="#333333" d="M1010,-395.5C1010,-395.5 948,-395.5 948,-395.5 942,-395.5 936,-389.5 936,-383.5 936,-383.5 936,-366.5 936,-366.5 936,-360.5 942,-354.5 948,-354.5 948,-354.5 1010,-354.5 1010,-354.5 1016,-354.5 1022,-360.5 1022,-366.5 1022,-366.5 1022,-383.5 1022,-383.5 1022,-389.5 1016,-395.5 1010,-395.5"/>
<text text-anchor="middle" x="979" y="-383.5" font-family="DejaVu Sans" font-size="10.00">Christine Koch</text>
<text text-anchor="middle" x="979" y="-372.5" font-family="DejaVu Sans" font-size="10.00">geb. Polasek</text>
<text text-anchor="middle" x="979" y="-361.5" font-family="DejaVu Sans" font-size="10.00">*19.07.1952</text>
</g>
<!-- polS06 -->
<g id="P_polS06" class="node">
<title>polS06</title>
<path fill="#dbeafe" stroke="#333333" d="M1118,-393C1118,-393 1066,-393 1066,-393 1060,-393 1054,-387 1054,-381 1054,-381 1054,-369 1054,-369 1054,-363 1060,-357 1066,-357 1066,-357 1118,-357 1118,-357 1124,-357 1130,-363 1130,-369 1130,-369 1130,-381 1130,-381 1130,-387 1124,-393 1118,-393"/>
<text text-anchor="middle" x="1092" y="-378" font-family="DejaVu Sans" font-size="10.00">Igo Koch</text>
<text text-anchor="middle" x="1092" y="-367" font-family="DejaVu Sans" font-size="10.00">*29.07.1947</text>
</g>
<!-- pol16&#45;&gt;polS06 -->
<!-- pol17 -->
<g id="P_pol17" class="node">
<title>pol17</title>
<path fill="#fde7ef" stroke="#333333" d="M1294,-395.5C1294,-395.5 1174,-395.5 1174,-395.5 1168,-395.5 1162,-389.5 1162,-383.5 1162,-383.5 1162,-366.5 1162,-366.5 1162,-360.5 1168,-354.5 1174,-354.5 1174,-354.5 1294,-354.5 1294,-354.5 1300,-354.5 1306,-360.5 1306,-366.5 1306,-366.5 1306,-383.5 1306,-383.5 1306,-389.5 1300,-395.5 1294,-395.5"/>
<text text-anchor="middle" x="1234" y="-383.5" font-family="DejaVu Sans" font-size="10.00">Adele (Sissi) Schlosser</text>
<text text-anchor="middle" x="1234" y="-372.5" font-family="DejaVu Sans" font-size="10.00">geb. Polasek</text>
<text text-anchor="middle" x="1234" y="-361.5" font-family="DejaVu Sans" font-size="10.00">*21.02.1954 &#160;+31.12.2023</text>
</g>
<!-- pol16&#45;&gt;pol17 -->
<!-- pol16&#45;&gt;pol17 -->
<!-- M_polF6 -->
<g id="M_polF6" class="node">
<title>M_polF6</title>
<ellipse fill="#fff3b0" stroke="#b08900" cx="1092" cy="-281" rx="27" ry="18"/>
<text text-anchor="middle" x="1092" y="-278.8" font-family="DejaVu Sans" font-size="9.00">oo</text>
</g>
<!-- pol16&#45;&gt;M_polF6 -->
<g id="edge30" class="edge">
<title>pol16&#45;&gt;M_polF6</title>
<path fill="none" stroke="#555555" d="M1002.96,-354.49C1024.73,-336.77 1056.27,-311.09 1075.39,-295.53"/>
</g>
<!-- pol21 -->
<g id="P_pol21" class="node">
<title>pol21</title>
<path fill="#dbeafe" stroke="#333333" d="M451.5,-210.5C451.5,-210.5 386.5,-210.5 386.5,-210.5 380.5,-210.5 374.5,-204.5 374.5,-198.5 374.5,-198.5 374.5,-186.5 374.5,-186.5 374.5,-180.5 380.5,-174.5 386.5,-174.5 386.5,-174.5 451.5,-174.5 451.5,-174.5 457.5,-174.5 463.5,-180.5 463.5,-186.5 463.5,-186.5 463.5,-198.5 463.5,-198.5 463.5,-204.5 457.5,-210.5 451.5,-210.5"/>
<text text-anchor="middle" x="419" y="-195.5" font-family="DejaVu Sans" font-size="10.00">Daniel Polasek</text>
<text text-anchor="middle" x="419" y="-184.5" font-family="DejaVu Sans" font-size="10.00">*15.05.1986</text>
</g>
<!-- g2p14 -->
<g id="P_g2p14" class="node">
<title>g2p14</title>
<path fill="#fde7ef" stroke="#333333" d="M580,-210.5C580,-210.5 508,-210.5 508,-210.5 502,-210.5 496,-204.5 496,-198.5 496,-198.5 496,-186.5 496,-186.5 496,-180.5 502,-174.5 508,-174.5 508,-174.5 580,-174.5 580,-174.5 586,-174.5 592,-180.5 592,-186.5 592,-186.5 592,-198.5 592,-198.5 592,-204.5 586,-210.5 580,-210.5"/>
<text text-anchor="middle" x="544" y="-195.5" font-family="DejaVu Sans" font-size="10.00">Julia Schultheiss</text>
<text text-anchor="middle" x="544" y="-184.5" font-family="DejaVu Sans" font-size="10.00">*29.04.1986</text>
</g>
<!-- pol21&#45;&gt;g2p14 -->
<!-- pol21&#45;&gt;g2p14 -->
<!-- pol21&#45;&gt;g2p14 -->
<!-- M_g2F5 -->
<g id="M_g2F5" class="node">
<title>M_g2F5</title>
<ellipse fill="#fff3b0" stroke="#b08900" cx="479" cy="-104" rx="27" ry="18"/>
<text text-anchor="middle" x="479" y="-101.8" font-family="DejaVu Sans" font-size="9.00">oo</text>
</g>
<!-- pol21&#45;&gt;M_g2F5 -->
<g id="edge23" class="edge">
<title>pol21&#45;&gt;M_g2F5</title>
<path fill="none" stroke="#555555" d="M430.85,-174.41C441.71,-158.75 457.66,-135.77 468.18,-120.6"/>
</g>
<!-- ped02 -->
<g id="P_ped02" class="node">
<title>ped02</title>
<path fill="#fde7ef" stroke="#333333" d="M1976,-210.5C1976,-210.5 1920,-210.5 1920,-210.5 1914,-210.5 1908,-204.5 1908,-198.5 1908,-198.5 1908,-186.5 1908,-186.5 1908,-180.5 1914,-174.5 1920,-174.5 1920,-174.5 1976,-174.5 1976,-174.5 1982,-174.5 1988,-180.5 1988,-186.5 1988,-186.5 1988,-198.5 1988,-198.5 1988,-204.5 1982,-210.5 1976,-210.5"/>
<text text-anchor="middle" x="1948" y="-195.5" font-family="DejaVu Sans" font-size="10.00">Pia Pedersen</text>
<text text-anchor="middle" x="1948" y="-184.5" font-family="DejaVu Sans" font-size="10.00">*10.04.1971</text>
</g>
<!-- pol20 -->
<g id="P_pol20" class="node">
<title>pol20</title>
<path fill="#fde7ef" stroke="#333333" d="M330,-213C330,-213 262,-213 262,-213 256,-213 250,-207 250,-201 250,-201 250,-184 250,-184 250,-178 256,-172 262,-172 262,-172 330,-172 330,-172 336,-172 342,-178 342,-184 342,-184 342,-201 342,-201 342,-207 336,-213 330,-213"/>
<text text-anchor="middle" x="296" y="-201" font-family="DejaVu Sans" font-size="10.00">Bettina Niklaus</text>
<text text-anchor="middle" x="296" y="-190" font-family="DejaVu Sans" font-size="10.00">geb. Polasek</text>
<text text-anchor="middle" x="296" y="-179" font-family="DejaVu Sans" font-size="10.00">*12.04.1983</text>
</g>
<!-- pol20&#45;&gt;pol21 -->
<!-- pol20&#45;&gt;pol21 -->
<!-- g2p10 -->
<g id="P_g2p10" class="node">
<title>g2p10</title>
<path fill="#dbeafe" stroke="#333333" d="M205.5,-210.5C205.5,-210.5 130.5,-210.5 130.5,-210.5 124.5,-210.5 118.5,-204.5 118.5,-198.5 118.5,-198.5 118.5,-186.5 118.5,-186.5 118.5,-180.5 124.5,-174.5 130.5,-174.5 130.5,-174.5 205.5,-174.5 205.5,-174.5 211.5,-174.5 217.5,-180.5 217.5,-186.5 217.5,-186.5 217.5,-198.5 217.5,-198.5 217.5,-204.5 211.5,-210.5 205.5,-210.5"/>
<text text-anchor="middle" x="168" y="-195.5" font-family="DejaVu Sans" font-size="10.00">Matthias Niklaus</text>
<text text-anchor="middle" x="168" y="-184.5" font-family="DejaVu Sans" font-size="10.00">*15.09.1981</text>
</g>
<!-- pol20&#45;&gt;g2p10 -->
<!-- M_g2F4 -->
<g id="M_g2F4" class="node">
<title>M_g2F4</title>
<ellipse fill="#fff3b0" stroke="#b08900" cx="168" cy="-104" rx="27" ry="18"/>
<text text-anchor="middle" x="168" y="-101.8" font-family="DejaVu Sans" font-size="9.00">oo</text>
</g>
<!-- pol20&#45;&gt;M_g2F4 -->
<g id="edge79" class="edge">
<title>pol20&#45;&gt;M_g2F4</title>
<path fill="none" stroke="#555555" d="M266.95,-171.87C242.17,-155.12 207.3,-131.56 186.25,-117.34"/>
</g>
<!-- pol23 -->
<g id="P_pol23" class="node">
<title>pol23</title>
<path fill="#fde7ef" stroke="#333333" d="M1358.5,-210.5C1358.5,-210.5 1291.5,-210.5 1291.5,-210.5 1285.5,-210.5 1279.5,-204.5 1279.5,-198.5 1279.5,-198.5 1279.5,-186.5 1279.5,-186.5 1279.5,-180.5 1285.5,-174.5 1291.5,-174.5 1291.5,-174.5 1358.5,-174.5 1358.5,-174.5 1364.5,-174.5 1370.5,-180.5 1370.5,-186.5 1370.5,-186.5 1370.5,-198.5 1370.5,-198.5 1370.5,-204.5 1364.5,-210.5 1358.5,-210.5"/>
<text text-anchor="middle" x="1325" y="-195.5" font-family="DejaVu Sans" font-size="10.00">Irene Schlosser</text>
<text text-anchor="middle" x="1325" y="-184.5" font-family="DejaVu Sans" font-size="10.00">*20.03.1975</text>
</g>
<!-- pol24 -->
<g id="P_pol24" class="node">
<title>pol24</title>
<path fill="#fde7ef" stroke="#333333" d="M1483,-210.5C1483,-210.5 1415,-210.5 1415,-210.5 1409,-210.5 1403,-204.5 1403,-198.5 1403,-198.5 1403,-186.5 1403,-186.5 1403,-180.5 1409,-174.5 1415,-174.5 1415,-174.5 1483,-174.5 1483,-174.5 1489,-174.5 1495,-180.5 1495,-186.5 1495,-186.5 1495,-198.5 1495,-198.5 1495,-204.5 1489,-210.5 1483,-210.5"/>
<text text-anchor="middle" x="1449" y="-195.5" font-family="DejaVu Sans" font-size="10.00">Karin Schlosser</text>
<text text-anchor="middle" x="1449" y="-184.5" font-family="DejaVu Sans" font-size="10.00">*23.11.1977</text>
</g>
<!-- pol23&#45;&gt;pol24 -->
<!-- g2p11 -->
<g id="P_g2p11" class="node">
<title>g2p11</title>
<path fill="#dbeafe" stroke="#333333" d="M64,-36C64,-36 12,-36 12,-36 6,-36 0,-30 0,-24 0,-24 0,-12 0,-12 0,-6 6,0 12,0 12,0 64,0 64,0 70,0 76,-6 76,-12 76,-12 76,-24 76,-24 76,-30 70,-36 64,-36"/>
<text text-anchor="middle" x="38" y="-21" font-family="DejaVu Sans" font-size="10.00">Tim Niklaus</text>
<text text-anchor="middle" x="38" y="-10" font-family="DejaVu Sans" font-size="10.00">*23.10.2012</text>
</g>
<!-- g2p12 -->
<g id="P_g2p12" class="node">
<title>g2p12</title>
<path fill="#fde7ef" stroke="#333333" d="M173.5,-36C173.5,-36 120.5,-36 120.5,-36 114.5,-36 108.5,-30 108.5,-24 108.5,-24 108.5,-12 108.5,-12 108.5,-6 114.5,0 120.5,0 120.5,0 173.5,0 173.5,0 179.5,0 185.5,-6 185.5,-12 185.5,-12 185.5,-24 185.5,-24 185.5,-30 179.5,-36 173.5,-36"/>
<text text-anchor="middle" x="147" y="-21" font-family="DejaVu Sans" font-size="10.00">Lina Niklaus</text>
<text text-anchor="middle" x="147" y="-10" font-family="DejaVu Sans" font-size="10.00">*24.08.2014</text>
</g>
<!-- g2p11&#45;&gt;g2p12 -->
<!-- pol15 -->
<g id="P_pol15" class="node">
<title>pol15</title>
<path fill="#dbeafe" stroke="#333333" d="M770,-393C770,-393 650,-393 650,-393 644,-393 638,-387 638,-381 638,-381 638,-369 638,-369 638,-363 644,-357 650,-357 650,-357 770,-357 770,-357 776,-357 782,-363 782,-369 782,-369 782,-381 782,-381 782,-387 776,-393 770,-393"/>
<text text-anchor="middle" x="710" y="-378" font-family="DejaVu Sans" font-size="10.00">Wolfgang Polasek</text>
<text text-anchor="middle" x="710" y="-367" font-family="DejaVu Sans" font-size="10.00">*19.06.1951 &#160;+23.05.2013</text>
</g>
<!-- pol15&#45;&gt;pol16 -->
<!-- polS04 -->
<g id="P_polS04" class="node">
<title>polS04</title>
<path fill="#fde7ef" stroke="#333333" d="M593.5,-395.5C593.5,-395.5 534.5,-395.5 534.5,-395.5 528.5,-395.5 522.5,-389.5 522.5,-383.5 522.5,-383.5 522.5,-366.5 522.5,-366.5 522.5,-360.5 528.5,-354.5 534.5,-354.5 534.5,-354.5 593.5,-354.5 593.5,-354.5 599.5,-354.5 605.5,-360.5 605.5,-366.5 605.5,-366.5 605.5,-383.5 605.5,-383.5 605.5,-389.5 599.5,-395.5 593.5,-395.5"/>
<text text-anchor="middle" x="564" y="-383.5" font-family="DejaVu Sans" font-size="10.00">Edith Polasek</text>
<text text-anchor="middle" x="564" y="-372.5" font-family="DejaVu Sans" font-size="10.00">geb. Billich</text>
<text text-anchor="middle" x="564" y="-361.5" font-family="DejaVu Sans" font-size="10.00">*26.10.1947</text>
</g>
<!-- pol15&#45;&gt;polS04 -->
<!-- pol15&#45;&gt;polS04 -->
<!-- pol15&#45;&gt;polS04 -->
<!-- polS05 -->
<g id="P_polS05" class="node">
<title>polS05</title>
<path fill="#fde7ef" stroke="#333333" d="M891.5,-395.5C891.5,-395.5 826.5,-395.5 826.5,-395.5 820.5,-395.5 814.5,-389.5 814.5,-383.5 814.5,-383.5 814.5,-366.5 814.5,-366.5 814.5,-360.5 820.5,-354.5 826.5,-354.5 826.5,-354.5 891.5,-354.5 891.5,-354.5 897.5,-354.5 903.5,-360.5 903.5,-366.5 903.5,-366.5 903.5,-383.5 903.5,-383.5 903.5,-389.5 897.5,-395.5 891.5,-395.5"/>
<text text-anchor="middle" x="859" y="-383.5" font-family="DejaVu Sans" font-size="10.00">Hanka Polasek</text>
<text text-anchor="middle" x="859" y="-372.5" font-family="DejaVu Sans" font-size="10.00">geb. Steindel</text>
<text text-anchor="middle" x="859" y="-361.5" font-family="DejaVu Sans" font-size="10.00">*10.06.1951</text>
</g>
<!-- pol15&#45;&gt;polS05 -->
<!-- pol15&#45;&gt;polS05 -->
<!-- M_polF4 -->
<g id="M_polF4" class="node">
<title>M_polF4</title>
<ellipse fill="#fff3b0" stroke="#b08900" cx="624" cy="-281" rx="27" ry="18"/>
<text text-anchor="middle" x="624" y="-278.8" font-family="DejaVu Sans" font-size="9.00">oo</text>
</g>
<!-- pol15&#45;&gt;M_polF4 -->
<g id="edge12" class="edge">
<title>pol15&#45;&gt;M_polF4</title>
<path fill="none" stroke="#555555" d="M693.82,-356.7C677.67,-339.41 653.11,-313.14 637.83,-296.8"/>
</g>
<!-- M_polF5 -->
<g id="M_polF5" class="node">
<title>M_polF5</title>
<ellipse fill="#fff3b0" stroke="#b08900" cx="710" cy="-281" rx="27" ry="18"/>
<text text-anchor="middle" x="710" y="-278.8" font-family="DejaVu Sans" font-size="9.00">oo</text>
</g>
<!-- pol15&#45;&gt;M_polF5 -->
<g id="edge64" class="edge">
<title>pol15&#45;&gt;M_polF5</title>
<path fill="none" stroke="#555555" d="M710,-356.7C710,-340.25 710,-315.65 710,-299.23"/>
</g>
<!-- polS07 -->
<g id="P_polS07" class="node">
<title>polS07</title>
<path fill="#dbeafe" stroke="#333333" d="M1412,-393C1412,-393 1350,-393 1350,-393 1344,-393 1338,-387 1338,-381 1338,-381 1338,-369 1338,-369 1338,-363 1344,-357 1350,-357 1350,-357 1412,-357 1412,-357 1418,-357 1424,-363 1424,-369 1424,-369 1424,-381 1424,-381 1424,-387 1418,-393 1412,-393"/>
<text text-anchor="middle" x="1381" y="-378" font-family="DejaVu Sans" font-size="10.00">Paul Schlosser</text>
<text text-anchor="middle" x="1381" y="-367" font-family="DejaVu Sans" font-size="10.00">*19.08.1943</text>
</g>
<!-- polS07&#45;&gt;pol17 -->
<!-- polS07&#45;&gt;pol17 -->
<!-- polS07&#45;&gt;pol17 -->
<!-- M_polF7 -->
<g id="M_polF7" class="node">
<title>M_polF7</title>
<ellipse fill="#fff3b0" stroke="#b08900" cx="1338" cy="-281" rx="27" ry="18"/>
<text text-anchor="middle" x="1338" y="-278.8" font-family="DejaVu Sans" font-size="9.00">oo</text>
</g>
<!-- polS07&#45;&gt;M_polF7 -->
<g id="edge38" class="edge">
<title>polS07&#45;&gt;M_polF7</title>
<path fill="none" stroke="#555555" d="M1372.91,-356.7C1365.08,-339.94 1353.29,-314.71 1345.62,-298.3"/>
</g>
<!-- g2p14&#45;&gt;pol21 -->
<!-- g2p14&#45;&gt;M_g2F5 -->
<g id="edge24" class="edge">
<title>g2p14&#45;&gt;M_g2F5</title>
<path fill="none" stroke="#555555" d="M531.16,-174.41C519.32,-158.65 501.9,-135.48 490.51,-120.32"/>
</g>
<!-- g2p08 -->
<g id="P_g2p08" class="node">
<title>g2p08</title>
<path fill="#dbeafe" stroke="#333333" d="M735.5,-36C735.5,-36 646.5,-36 646.5,-36 640.5,-36 634.5,-30 634.5,-24 634.5,-24 634.5,-12 634.5,-12 634.5,-6 640.5,0 646.5,0 646.5,0 735.5,0 735.5,0 741.5,0 747.5,-6 747.5,-12 747.5,-12 747.5,-24 747.5,-24 747.5,-30 741.5,-36 735.5,-36"/>
<text text-anchor="middle" x="691" y="-21" font-family="DejaVu Sans" font-size="10.00">Maximilian Polasek</text>
<text text-anchor="middle" x="691" y="-10" font-family="DejaVu Sans" font-size="10.00">*09.12.2001</text>
</g>
<!-- g2p09 -->
<g id="P_g2p09" class="node">
<title>g2p09</title>
<path fill="#fde7ef" stroke="#333333" d="M864.5,-36C864.5,-36 791.5,-36 791.5,-36 785.5,-36 779.5,-30 779.5,-24 779.5,-24 779.5,-12 779.5,-12 779.5,-6 785.5,0 791.5,0 791.5,0 864.5,0 864.5,0 870.5,0 876.5,-6 876.5,-12 876.5,-12 876.5,-24 876.5,-24 876.5,-30 870.5,-36 864.5,-36"/>
<text text-anchor="middle" x="828" y="-21" font-family="DejaVu Sans" font-size="10.00">Johanna Polasek</text>
<text text-anchor="middle" x="828" y="-10" font-family="DejaVu Sans" font-size="10.00">*12.07.2006</text>
</g>
<!-- g2p08&#45;&gt;g2p09 -->
<!-- polS03 -->
<g id="P_polS03" class="node">
<title>polS03</title>
<path fill="#fde7ef" stroke="#333333" d="M1262,-578C1262,-578 1206,-578 1206,-578 1200,-578 1194,-572 1194,-566 1194,-566 1194,-549 1194,-549 1194,-543 1200,-537 1206,-537 1206,-537 1262,-537 1262,-537 1268,-537 1274,-543 1274,-549 1274,-549 1274,-566 1274,-566 1274,-572 1268,-578 1262,-578"/>
<text text-anchor="middle" x="1234" y="-566" font-family="DejaVu Sans" font-size="10.00">Inge Polasek</text>
<text text-anchor="middle" x="1234" y="-555" font-family="DejaVu Sans" font-size="10.00">geb. Rokitzki</text>
<text text-anchor="middle" x="1234" y="-544" font-family="DejaVu Sans" font-size="10.00">*11.02.1928</text>
</g>
<!-- pol11 -->
<g id="P_pol11" class="node">
<title>pol11</title>
<path fill="#dbeafe" stroke="#111111" stroke-width="1.8" d="M1438,-575.5C1438,-575.5 1318,-575.5 1318,-575.5 1312,-575.5 1306,-569.5 1306,-563.5 1306,-563.5 1306,-551.5 1306,-551.5 1306,-545.5 1312,-539.5 1318,-539.5 1318,-539.5 1438,-539.5 1438,-539.5 1444,-539.5 1450,-545.5 1450,-551.5 1450,-551.5 1450,-563.5 1450,-563.5 1450,-569.5 1444,-575.5 1438,-575.5"/>
<text text-anchor="middle" x="1378" y="-560.5" font-family="DejaVu Sans" font-size="10.00">Otto Polasek</text>
<text text-anchor="middle" x="1378" y="-549.5" font-family="DejaVu Sans" font-size="10.00">*14.09.1912 &#160;+01.11.1994</text>
</g>
<!-- polS03&#45;&gt;pol11 -->
<!-- M_polF3 -->
<g id="M_polF3" class="node">
<title>M_polF3</title>
<ellipse fill="#fff3b0" stroke="#b08900" cx="1234" cy="-469" rx="27" ry="18"/>
<text text-anchor="middle" x="1234" y="-466.8" font-family="DejaVu Sans" font-size="9.00">oo</text>
</g>
<!-- polS03&#45;&gt;M_polF3 -->
<g id="edge48" class="edge">
<title>polS03&#45;&gt;M_polF3</title>
<path fill="none" stroke="#555555" d="M1234,-536.87C1234,-521.92 1234,-501.53 1234,-487.21"/>
</g>
<!-- g2p13 -->
<g id="P_g2p13" class="node">
<title>g2p13</title>
<path fill="#dbeafe" stroke="#333333" d="M282,-36C282,-36 230,-36 230,-36 224,-36 218,-30 218,-24 218,-24 218,-12 218,-12 218,-6 224,0 230,0 230,0 282,0 282,0 288,0 294,-6 294,-12 294,-12 294,-24 294,-24 294,-30 288,-36 282,-36"/>
<text text-anchor="middle" x="256" y="-21" font-family="DejaVu Sans" font-size="10.00">Ben Niklaus</text>
<text text-anchor="middle" x="256" y="-10" font-family="DejaVu Sans" font-size="10.00">*14.10.2016</text>
</g>
<!-- polS02 -->
<g id="P_polS02" class="node">
<title>polS02</title>
<path fill="#fde7ef" stroke="#333333" d="M1571.5,-575.5C1571.5,-575.5 1494.5,-575.5 1494.5,-575.5 1488.5,-575.5 1482.5,-569.5 1482.5,-563.5 1482.5,-563.5 1482.5,-551.5 1482.5,-551.5 1482.5,-545.5 1488.5,-539.5 1494.5,-539.5 1494.5,-539.5 1571.5,-539.5 1571.5,-539.5 1577.5,-539.5 1583.5,-545.5 1583.5,-551.5 1583.5,-551.5 1583.5,-563.5 1583.5,-563.5 1583.5,-569.5 1577.5,-575.5 1571.5,-575.5"/>
<text text-anchor="middle" x="1533" y="-560.5" font-family="DejaVu Sans" font-size="10.00">Gertrude Polasek</text>
<text text-anchor="middle" x="1533" y="-549.5" font-family="DejaVu Sans" font-size="10.00">geb. Winkler</text>
</g>
<!-- polS02&#45;&gt;pol11 -->
<!-- M_polF2 -->
<g id="M_polF2" class="node">
<title>M_polF2</title>
<ellipse fill="#fff3b0" stroke="#b08900" cx="1533" cy="-469" rx="27" ry="18"/>
<text text-anchor="middle" x="1533" y="-466.8" font-family="DejaVu Sans" font-size="9.00">oo</text>
</g>
<!-- polS02&#45;&gt;M_polF2 -->
<g id="edge74" class="edge">
<title>polS02&#45;&gt;M_polF2</title>
<path fill="none" stroke="#555555" d="M1533,-539.41C1533,-524.25 1533,-502.21 1533,-487.05"/>
</g>
<!-- polS06&#45;&gt;pol16 -->
<!-- polS06&#45;&gt;pol16 -->
<!-- polS06&#45;&gt;pol16 -->
<!-- polS06&#45;&gt;M_polF6 -->
<g id="edge29" class="edge">
<title>polS06&#45;&gt;M_polF6</title>
<path fill="none" stroke="#555555" d="M1092,-356.7C1092,-340.25 1092,-315.65 1092,-299.23"/>
</g>
<!-- pol19 -->
<g id="P_pol19" class="node">
<title>pol19</title>
<path fill="#dbeafe" stroke="#333333" d="M842.5,-210.5C842.5,-210.5 771.5,-210.5 771.5,-210.5 765.5,-210.5 759.5,-204.5 759.5,-198.5 759.5,-198.5 759.5,-186.5 759.5,-186.5 759.5,-180.5 765.5,-174.5 771.5,-174.5 771.5,-174.5 842.5,-174.5 842.5,-174.5 848.5,-174.5 854.5,-180.5 854.5,-186.5 854.5,-186.5 854.5,-198.5 854.5,-198.5 854.5,-204.5 848.5,-210.5 842.5,-210.5"/>
<text text-anchor="middle" x="807" y="-195.5" font-family="DejaVu Sans" font-size="10.00">Richard Polasek</text>
<text text-anchor="middle" x="807" y="-184.5" font-family="DejaVu Sans" font-size="10.00">*06.01.1976</text>
</g>
<!-- g2p07 -->
<g id="P_g2p07" class="node">
<title>g2p07</title>
<path fill="#fde7ef" stroke="#333333" d="M715.5,-213C715.5,-213 636.5,-213 636.5,-213 630.5,-213 624.5,-207 624.5,-201 624.5,-201 624.5,-184 624.5,-184 624.5,-178 630.5,-172 636.5,-172 636.5,-172 715.5,-172 715.5,-172 721.5,-172 727.5,-178 727.5,-184 727.5,-184 727.5,-201 727.5,-201 727.5,-207 721.5,-213 715.5,-213"/>
<text text-anchor="middle" x="676" y="-201" font-family="DejaVu Sans" font-size="10.00">Elisabeth Polasek</text>
<text text-anchor="middle" x="676" y="-190" font-family="DejaVu Sans" font-size="10.00">geb. Lackner</text>
<text text-anchor="middle" x="676" y="-179" font-family="DejaVu Sans" font-size="10.00">*13.05.1973</text>
</g>
<!-- pol19&#45;&gt;g2p07 -->
<!-- pol19&#45;&gt;g2p07 -->
<!-- pol19&#45;&gt;g2p07 -->
<!-- M_g2F3 -->
<g id="M_g2F3" class="node">
<title>M_g2F3</title>
<ellipse fill="#fff3b0" stroke="#b08900" cx="749" cy="-104" rx="27" ry="18"/>
<text text-anchor="middle" x="749" y="-101.8" font-family="DejaVu Sans" font-size="9.00">oo</text>
</g>
<!-- pol19&#45;&gt;M_g2F3 -->
<g id="edge17" class="edge">
<title>pol19&#45;&gt;M_g2F3</title>
<path fill="none" stroke="#555555" d="M795.54,-174.41C785.04,-158.75 769.63,-135.77 759.46,-120.6"/>
</g>
<!-- g3p07 -->
<g id="P_g3p07" class="node">
<title>g3p07</title>
<path fill="#dbeafe" stroke="#333333" d="M1323.5,-36C1323.5,-36 1228.5,-36 1228.5,-36 1222.5,-36 1216.5,-30 1216.5,-24 1216.5,-24 1216.5,-12 1216.5,-12 1216.5,-6 1222.5,0 1228.5,0 1228.5,0 1323.5,0 1323.5,0 1329.5,0 1335.5,-6 1335.5,-12 1335.5,-12 1335.5,-24 1335.5,-24 1335.5,-30 1329.5,-36 1323.5,-36"/>
<text text-anchor="middle" x="1276" y="-21" font-family="DejaVu Sans" font-size="10.00">Nathan Guttenberger</text>
<text text-anchor="middle" x="1276" y="-10" font-family="DejaVu Sans" font-size="10.00">*19.11.2007</text>
</g>
<!-- g3p08 -->
<g id="P_g3p08" class="node">
<title>g3p08</title>
<path fill="#fde7ef" stroke="#333333" d="M1462,-36C1462,-36 1380,-36 1380,-36 1374,-36 1368,-30 1368,-24 1368,-24 1368,-12 1368,-12 1368,-6 1374,0 1380,0 1380,0 1462,0 1462,0 1468,0 1474,-6 1474,-12 1474,-12 1474,-24 1474,-24 1474,-30 1468,-36 1462,-36"/>
<text text-anchor="middle" x="1421" y="-21" font-family="DejaVu Sans" font-size="10.00">Sara Guttenberger</text>
<text text-anchor="middle" x="1421" y="-10" font-family="DejaVu Sans" font-size="10.00">*16.09.2011</text>
</g>
<!-- g3p07&#45;&gt;g3p08 -->
<!-- polS09 -->
<g id="P_polS09" class="node">
<title>polS09</title>
<path fill="#dbeafe" stroke="#333333" d="M1760,-393C1760,-393 1698,-393 1698,-393 1692,-393 1686,-387 1686,-381 1686,-381 1686,-369 1686,-369 1686,-363 1692,-357 1698,-357 1698,-357 1760,-357 1760,-357 1766,-357 1772,-363 1772,-369 1772,-369 1772,-381 1772,-381 1772,-387 1766,-393 1760,-393"/>
<text text-anchor="middle" x="1729" y="-378" font-family="DejaVu Sans" font-size="10.00">Jürgen Kessler</text>
<text text-anchor="middle" x="1729" y="-367" font-family="DejaVu Sans" font-size="10.00">*06.12.1946</text>
</g>
<!-- pol18 -->
<g id="P_pol18" class="node">
<title>pol18</title>
<path fill="#fde7ef" stroke="#333333" d="M1524,-401C1524,-401 1468,-401 1468,-401 1462,-401 1456,-395 1456,-389 1456,-389 1456,-361 1456,-361 1456,-355 1462,-349 1468,-349 1468,-349 1524,-349 1524,-349 1530,-349 1536,-355 1536,-361 1536,-361 1536,-389 1536,-389 1536,-395 1530,-401 1524,-401"/>
<text text-anchor="middle" x="1496" y="-389" font-family="DejaVu Sans" font-size="10.00">Doris Kessler</text>
<text text-anchor="middle" x="1496" y="-378" font-family="DejaVu Sans" font-size="10.00">geb. Polasek</text>
<text text-anchor="middle" x="1496" y="-367" font-family="DejaVu Sans" font-size="10.00">verh. Vogl</text>
<text text-anchor="middle" x="1496" y="-356" font-family="DejaVu Sans" font-size="10.00">*03.02.1959</text>
</g>
<!-- polS09&#45;&gt;pol18 -->
<!-- polS09&#45;&gt;pol18 -->
<!-- M_polF9 -->
<g id="M_polF9" class="node">
<title>M_polF9</title>
<ellipse fill="#fff3b0" stroke="#b08900" cx="1620" cy="-281" rx="27" ry="18"/>
<text text-anchor="middle" x="1620" y="-278.8" font-family="DejaVu Sans" font-size="9.00">oo</text>
</g>
<!-- polS09&#45;&gt;M_polF9 -->
<g id="edge34" class="edge">
<title>polS09&#45;&gt;M_polF9</title>
<path fill="none" stroke="#555555" d="M1708.75,-356.91C1687.82,-339.24 1655.55,-312.01 1636.23,-295.7"/>
</g>
<!-- pol14 -->
<g id="P_pol14" class="node">
<title>pol14</title>
<path fill="#fde7ef" stroke="#333333" d="M1933.5,-395.5C1933.5,-395.5 1816.5,-395.5 1816.5,-395.5 1810.5,-395.5 1804.5,-389.5 1804.5,-383.5 1804.5,-383.5 1804.5,-366.5 1804.5,-366.5 1804.5,-360.5 1810.5,-354.5 1816.5,-354.5 1816.5,-354.5 1933.5,-354.5 1933.5,-354.5 1939.5,-354.5 1945.5,-360.5 1945.5,-366.5 1945.5,-366.5 1945.5,-383.5 1945.5,-383.5 1945.5,-389.5 1939.5,-395.5 1933.5,-395.5"/>
<text text-anchor="middle" x="1875" y="-383.5" font-family="DejaVu Sans" font-size="10.00">Gertrud (Traudl) Pedersen</text>
<text text-anchor="middle" x="1875" y="-372.5" font-family="DejaVu Sans" font-size="10.00">geb. Polasek</text>
<text text-anchor="middle" x="1875" y="-361.5" font-family="DejaVu Sans" font-size="10.00">*21.03.1944</text>
</g>
<!-- ped01 -->
<g id="P_ped01" class="node">
<title>ped01</title>
<path fill="#dbeafe" stroke="#333333" d="M2052,-393C2052,-393 1990,-393 1990,-393 1984,-393 1978,-387 1978,-381 1978,-381 1978,-369 1978,-369 1978,-363 1984,-357 1990,-357 1990,-357 2052,-357 2052,-357 2058,-357 2064,-363 2064,-369 2064,-369 2064,-381 2064,-381 2064,-387 2058,-393 2052,-393"/>
<text text-anchor="middle" x="2021" y="-378" font-family="DejaVu Sans" font-size="10.00">John Pedersen</text>
<text text-anchor="middle" x="2021" y="-367" font-family="DejaVu Sans" font-size="10.00">*31.07.1938</text>
</g>
<!-- pol14&#45;&gt;ped01 -->
<!-- M_pedF1 -->
<g id="M_pedF1" class="node">
<title>M_pedF1</title>
<ellipse fill="#fff3b0" stroke="#b08900" cx="1948" cy="-281" rx="27" ry="18"/>
<text text-anchor="middle" x="1948" y="-278.8" font-family="DejaVu Sans" font-size="9.00">oo</text>
</g>
<!-- pol14&#45;&gt;M_pedF1 -->
<g id="edge87" class="edge">
<title>pol14&#45;&gt;M_pedF1</title>
<path fill="none" stroke="#555555" d="M1890.48,-354.49C1904.04,-337.4 1923.47,-312.91 1935.91,-297.23"/>
</g>
<!-- pol25 -->
<g id="P_pol25" class="node">
<title>pol25</title>
<path fill="#dbeafe" stroke="#333333" d="M1649,-210.5C1649,-210.5 1591,-210.5 1591,-210.5 1585,-210.5 1579,-204.5 1579,-198.5 1579,-198.5 1579,-186.5 1579,-186.5 1579,-180.5 1585,-174.5 1591,-174.5 1591,-174.5 1649,-174.5 1649,-174.5 1655,-174.5 1661,-180.5 1661,-186.5 1661,-186.5 1661,-198.5 1661,-198.5 1661,-204.5 1655,-210.5 1649,-210.5"/>
<text text-anchor="middle" x="1620" y="-195.5" font-family="DejaVu Sans" font-size="10.00">Julian Kessler</text>
<text text-anchor="middle" x="1620" y="-184.5" font-family="DejaVu Sans" font-size="10.00">*28.01.1998</text>
</g>
<!-- g2p15 -->
<g id="P_g2p15" class="node">
<title>g2p15</title>
<path fill="#dbeafe" stroke="#333333" d="M433.5,-36C433.5,-36 338.5,-36 338.5,-36 332.5,-36 326.5,-30 326.5,-24 326.5,-24 326.5,-12 326.5,-12 326.5,-6 332.5,0 338.5,0 338.5,0 433.5,0 433.5,0 439.5,0 445.5,-6 445.5,-12 445.5,-12 445.5,-24 445.5,-24 445.5,-30 439.5,-36 433.5,-36"/>
<text text-anchor="middle" x="386" y="-21" font-family="DejaVu Sans" font-size="10.00">Koa&#45;Miro Schultheiss</text>
<text text-anchor="middle" x="386" y="-10" font-family="DejaVu Sans" font-size="10.00">*29.08.2019</text>
</g>
<!-- g2p15&#45;&gt;g2p16 -->
<!-- g2p12&#45;&gt;g2p13 -->
<!-- polS04&#45;&gt;pol16 -->
<!-- polS04&#45;&gt;pol15 -->
<!-- polS04&#45;&gt;M_polF4 -->
<g id="edge13" class="edge">
<title>polS04&#45;&gt;M_polF4</title>
<path fill="none" stroke="#555555" d="M576.72,-354.49C587.73,-337.61 603.45,-313.51 613.69,-297.82"/>
</g>
<!-- pol22 -->
<g id="P_pol22" class="node">
<title>pol22</title>
<path fill="#dbeafe" stroke="#333333" d="M1149,-210.5C1149,-210.5 1097,-210.5 1097,-210.5 1091,-210.5 1085,-204.5 1085,-198.5 1085,-198.5 1085,-186.5 1085,-186.5 1085,-180.5 1091,-174.5 1097,-174.5 1097,-174.5 1149,-174.5 1149,-174.5 1155,-174.5 1161,-180.5 1161,-186.5 1161,-186.5 1161,-198.5 1161,-198.5 1161,-204.5 1155,-210.5 1149,-210.5"/>
<text text-anchor="middle" x="1123" y="-195.5" font-family="DejaVu Sans" font-size="10.00">Oliver Koch</text>
<text text-anchor="middle" x="1123" y="-184.5" font-family="DejaVu Sans" font-size="10.00">*10.10.1974</text>
</g>
<!-- g3p04 -->
<g id="P_g3p04" class="node">
<title>g3p04</title>
<path fill="#fde7ef" stroke="#333333" d="M1041,-210.5C1041,-210.5 949,-210.5 949,-210.5 943,-210.5 937,-204.5 937,-198.5 937,-198.5 937,-186.5 937,-186.5 937,-180.5 943,-174.5 949,-174.5 949,-174.5 1041,-174.5 1041,-174.5 1047,-174.5 1053,-180.5 1053,-186.5 1053,-186.5 1053,-198.5 1053,-198.5 1053,-204.5 1047,-210.5 1041,-210.5"/>
<text text-anchor="middle" x="995" y="-195.5" font-family="DejaVu Sans" font-size="10.00">Carina Guttenberger</text>
<text text-anchor="middle" x="995" y="-184.5" font-family="DejaVu Sans" font-size="10.00">*30.03.1982</text>
</g>
<!-- pol22&#45;&gt;g3p04 -->
<!-- pol22&#45;&gt;g3p04 -->
<!-- pol22&#45;&gt;g3p04 -->
<!-- M_g3F2 -->
<g id="M_g3F2" class="node">
<title>M_g3F2</title>
<ellipse fill="#fff3b0" stroke="#b08900" cx="1123" cy="-104" rx="27" ry="18"/>
<text text-anchor="middle" x="1123" y="-101.8" font-family="DejaVu Sans" font-size="9.00">oo</text>
</g>
<!-- pol22&#45;&gt;M_g3F2 -->
<g id="edge2" class="edge">
<title>pol22&#45;&gt;M_g3F2</title>
<path fill="none" stroke="#555555" d="M1123,-174.41C1123,-159.25 1123,-137.21 1123,-122.05"/>
</g>
<!-- g3p05 -->
<g id="P_g3p05" class="node">
<title>g3p05</title>
<path fill="#dbeafe" stroke="#333333" d="M1017.5,-36C1017.5,-36 920.5,-36 920.5,-36 914.5,-36 908.5,-30 908.5,-24 908.5,-24 908.5,-12 908.5,-12 908.5,-6 914.5,0 920.5,0 920.5,0 1017.5,0 1017.5,0 1023.5,0 1029.5,-6 1029.5,-12 1029.5,-12 1029.5,-24 1029.5,-24 1029.5,-30 1023.5,-36 1017.5,-36"/>
<text text-anchor="middle" x="969" y="-21" font-family="DejaVu Sans" font-size="10.00">Yannick Guttenberger</text>
<text text-anchor="middle" x="969" y="-10" font-family="DejaVu Sans" font-size="10.00">*13.09.2004</text>
</g>
<!-- g3p06 -->
<g id="P_g3p06" class="node">
<title>g3p06</title>
<path fill="#fde7ef" stroke="#333333" d="M1172,-36C1172,-36 1074,-36 1074,-36 1068,-36 1062,-30 1062,-24 1062,-24 1062,-12 1062,-12 1062,-6 1068,0 1074,0 1074,0 1172,0 1172,0 1178,0 1184,-6 1184,-12 1184,-12 1184,-24 1184,-24 1184,-30 1178,-36 1172,-36"/>
<text text-anchor="middle" x="1123" y="-21" font-family="DejaVu Sans" font-size="10.00">Hannah Guttenberger</text>
<text text-anchor="middle" x="1123" y="-10" font-family="DejaVu Sans" font-size="10.00">*05.02.2006</text>
</g>
<!-- g3p05&#45;&gt;g3p06 -->
<!-- g2p10&#45;&gt;pol20 -->
<!-- g2p10&#45;&gt;pol20 -->
<!-- g2p10&#45;&gt;pol20 -->
<!-- g2p10&#45;&gt;M_g2F4 -->
<g id="edge78" class="edge">
<title>g2p10&#45;&gt;M_g2F4</title>
<path fill="none" stroke="#555555" d="M168,-174.41C168,-159.25 168,-137.21 168,-122.05"/>
</g>
<!-- ped01&#45;&gt;pol14 -->
<!-- ped01&#45;&gt;pol14 -->
<!-- ped01&#45;&gt;pol14 -->
<!-- ped01&#45;&gt;M_pedF1 -->
<g id="edge86" class="edge">
<title>ped01&#45;&gt;M_pedF1</title>
<path fill="none" stroke="#555555" d="M2007.27,-356.7C1993.72,-339.62 1973.21,-313.77 1960.21,-297.39"/>
</g>
<!-- pol18&#45;&gt;polS09 -->
<!-- polS08 -->
<g id="P_polS08" class="node">
<title>polS08</title>
<path fill="#dbeafe" stroke="#333333" d="M1641.5,-393C1641.5,-393 1580.5,-393 1580.5,-393 1574.5,-393 1568.5,-387 1568.5,-381 1568.5,-381 1568.5,-369 1568.5,-369 1568.5,-363 1574.5,-357 1580.5,-357 1580.5,-357 1641.5,-357 1641.5,-357 1647.5,-357 1653.5,-363 1653.5,-369 1653.5,-369 1653.5,-381 1653.5,-381 1653.5,-387 1647.5,-393 1641.5,-393"/>
<text text-anchor="middle" x="1611" y="-378" font-family="DejaVu Sans" font-size="10.00">Burkhard Vogl</text>
<text text-anchor="middle" x="1611" y="-367" font-family="DejaVu Sans" font-size="10.00">*11.01.1950</text>
</g>
<!-- pol18&#45;&gt;polS08 -->
<!-- pol18&#45;&gt;M_polF9 -->
<g id="edge35" class="edge">
<title>pol18&#45;&gt;M_polF9</title>
<path fill="none" stroke="#555555" d="M1529.88,-348.86C1553.4,-331.41 1583.77,-308.88 1602.56,-294.94"/>
</g>
<!-- M_polF8 -->
<g id="M_polF8" class="node">
<title>M_polF8</title>
<ellipse fill="#fff3b0" stroke="#b08900" cx="1521" cy="-281" rx="27" ry="18"/>
<text text-anchor="middle" x="1521" y="-278.8" font-family="DejaVu Sans" font-size="9.00">oo</text>
</g>
<!-- pol18&#45;&gt;M_polF8 -->
<g id="edge45" class="edge">
<title>pol18&#45;&gt;M_polF8</title>
<path fill="none" stroke="#555555" d="M1502.83,-348.86C1507.14,-333.01 1512.59,-312.96 1516.39,-298.97"/>
</g>
<!-- g3p06&#45;&gt;g3p07 -->
<!-- pol11&#45;&gt;polS03 -->
<!-- pol11&#45;&gt;polS03 -->
<!-- pol11&#45;&gt;polS02 -->
<!-- pol11&#45;&gt;polS02 -->
<!-- pol11&#45;&gt;M_polF3 -->
<g id="edge47" class="edge">
<title>pol11&#45;&gt;M_polF3</title>
<path fill="none" stroke="#555555" d="M1349.55,-539.41C1321.19,-522.37 1278.39,-496.67 1253.62,-481.79"/>
</g>
<!-- pol11&#45;&gt;M_polF2 -->
<g id="edge73" class="edge">
<title>pol11&#45;&gt;M_polF2</title>
<path fill="none" stroke="#555555" d="M1408.62,-539.41C1439.5,-522.18 1486.29,-496.07 1512.8,-481.27"/>
</g>
<!-- g3p04&#45;&gt;pol22 -->
<!-- g3p04&#45;&gt;M_g3F2 -->
<g id="edge3" class="edge">
<title>g3p04&#45;&gt;M_g3F2</title>
<path fill="none" stroke="#555555" d="M1020.29,-174.41C1045.21,-157.57 1082.66,-132.26 1104.79,-117.31"/>
</g>
<!-- pol17&#45;&gt;polS07 -->
<!-- pol17&#45;&gt;pol18 -->
<!-- pol17&#45;&gt;pol18 -->
<!-- pol17&#45;&gt;M_polF7 -->
<g id="edge39" class="edge">
<title>pol17&#45;&gt;M_polF7</title>
<path fill="none" stroke="#555555" d="M1256.06,-354.49C1275.97,-336.87 1304.77,-311.39 1322.39,-295.8"/>
</g>
<!-- polS08&#45;&gt;pol18 -->
<!-- polS08&#45;&gt;pol18 -->
<!-- polS08&#45;&gt;pol18 -->
<!-- polS08&#45;&gt;M_polF8 -->
<g id="edge44" class="edge">
<title>polS08&#45;&gt;M_polF8</title>
<path fill="none" stroke="#555555" d="M1594.07,-356.7C1577.06,-339.31 1551.15,-312.82 1535.19,-296.5"/>
</g>
<!-- g2p07&#45;&gt;pol19 -->
<!-- g2p07&#45;&gt;M_g2F3 -->
<g id="edge18" class="edge">
<title>g2p07&#45;&gt;M_g2F3</title>
<path fill="none" stroke="#555555" d="M692.56,-171.87C705.86,-156.12 724.24,-134.34 736.37,-119.97"/>
</g>
<!-- polS05&#45;&gt;pol15 -->
<!-- polS05&#45;&gt;M_polF5 -->
<g id="edge65" class="edge">
<title>polS05&#45;&gt;M_polF5</title>
<path fill="none" stroke="#555555" d="M827.4,-354.49C797.67,-336.13 754.12,-309.24 729.27,-293.9"/>
</g>
<!-- M_g3F2&#45;&gt;g3p07 -->
<g id="edge6" class="edge">
<title>M_g3F2&#45;&gt;g3p07</title>
<path fill="none" stroke="#555555" d="M1143.32,-91.85C1166.89,-78.9 1206.33,-57.25 1236.09,-40.91"/>
<polygon fill="#555555" stroke="#555555" points="1237.91,-43.9 1244.99,-36.02 1234.54,-37.77 1237.91,-43.9"/>
</g>
<!-- M_g3F2&#45;&gt;g3p05 -->
<g id="edge4" class="edge">
<title>M_g3F2&#45;&gt;g3p05</title>
<path fill="none" stroke="#555555" d="M1102.55,-91.85C1078.82,-78.9 1039.13,-57.25 1009.17,-40.91"/>
<polygon fill="#555555" stroke="#555555" points="1010.67,-37.74 1000.21,-36.02 1007.31,-43.89 1010.67,-37.74"/>
</g>
<!-- M_g3F2&#45;&gt;g3p06 -->
<g id="edge5" class="edge">
<title>M_g3F2&#45;&gt;g3p06</title>
<path fill="none" stroke="#555555" d="M1123,-85.6C1123,-74.26 1123,-59.23 1123,-46.32"/>
<polygon fill="#555555" stroke="#555555" points="1126.5,-46.1 1123,-36.1 1119.5,-46.1 1126.5,-46.1"/>
</g>
<!-- M_g3F2&#45;&gt;g3p08 -->
<g id="edge7" class="edge">
<title>M_g3F2&#45;&gt;g3p08</title>
<path fill="none" stroke="#555555" d="M1147.39,-96.13C1193,-83.27 1292.54,-55.21 1358.14,-36.72"/>
<polygon fill="#555555" stroke="#555555" points="1359.29,-40.03 1367.97,-33.95 1357.39,-33.29 1359.29,-40.03"/>
</g>
<!-- M_polF4&#45;&gt;pol19 -->
<g id="edge14" class="edge">
<title>M_polF4&#45;&gt;pol19</title>
<path fill="none" stroke="#555555" d="M645.35,-269.91C673.77,-256.47 724.76,-232.37 761.89,-214.82"/>
<polygon fill="#555555" stroke="#555555" points="763.47,-217.95 771.01,-210.51 760.48,-211.62 763.47,-217.95"/>
</g>
<!-- M_g2F3&#45;&gt;g2p08 -->
<g id="edge19" class="edge">
<title>M_g2F3&#45;&gt;g2p08</title>
<path fill="none" stroke="#555555" d="M738.09,-87.2C729.85,-75.27 718.37,-58.65 708.81,-44.8"/>
<polygon fill="#555555" stroke="#555555" points="711.42,-42.41 702.86,-36.17 705.66,-46.39 711.42,-42.41"/>
</g>
<!-- M_g2F3&#45;&gt;g2p09 -->
<g id="edge20" class="edge">
<title>M_g2F3&#45;&gt;g2p09</title>
<path fill="none" stroke="#555555" d="M762.76,-88.37C774.32,-76.07 791.1,-58.24 804.74,-43.73"/>
<polygon fill="#555555" stroke="#555555" points="807.65,-45.75 811.95,-36.07 802.55,-40.95 807.65,-45.75"/>
</g>
<!-- M_g2F5&#45;&gt;g2p16 -->
<g id="edge26" class="edge">
<title>M_g2F5&#45;&gt;g2p16</title>
<path fill="none" stroke="#555555" d="M490.19,-87.59C498.96,-75.51 511.36,-58.45 521.59,-44.36"/>
<polygon fill="#555555" stroke="#555555" points="524.58,-46.19 527.62,-36.04 518.92,-42.08 524.58,-46.19"/>
</g>
<!-- M_g2F5&#45;&gt;g2p15 -->
<g id="edge25" class="edge">
<title>M_g2F5&#45;&gt;g2p15</title>
<path fill="none" stroke="#555555" d="M463.64,-89.13C449.81,-76.63 429.17,-57.99 412.65,-43.07"/>
<polygon fill="#555555" stroke="#555555" points="414.69,-40.19 404.92,-36.09 409.99,-45.39 414.69,-40.19"/>
</g>
<!-- M_polF6&#45;&gt;pol22 -->
<g id="edge31" class="edge">
<title>M_polF6&#45;&gt;pol22</title>
<path fill="none" stroke="#555555" d="M1097.98,-263.32C1102.34,-251.15 1108.34,-234.41 1113.37,-220.36"/>
<polygon fill="#555555" stroke="#555555" points="1116.75,-221.31 1116.83,-210.72 1110.16,-218.95 1116.75,-221.31"/>
</g>
<!-- M_polF9&#45;&gt;pol25 -->
<g id="edge36" class="edge">
<title>M_polF9&#45;&gt;pol25</title>
<path fill="none" stroke="#555555" d="M1620,-262.91C1620,-250.94 1620,-234.7 1620,-220.93"/>
<polygon fill="#555555" stroke="#555555" points="1623.5,-220.55 1620,-210.55 1616.5,-220.55 1623.5,-220.55"/>
</g>
<!-- M_polF7&#45;&gt;pol23 -->
<g id="edge40" class="edge">
<title>M_polF7&#45;&gt;pol23</title>
<path fill="none" stroke="#555555" d="M1335.43,-262.91C1333.62,-250.83 1331.14,-234.38 1329.06,-220.53"/>
<polygon fill="#555555" stroke="#555555" points="1332.51,-219.92 1327.56,-210.55 1325.59,-220.96 1332.51,-219.92"/>
</g>
<!-- M_polF7&#45;&gt;pol24 -->
<g id="edge41" class="edge">
<title>M_polF7&#45;&gt;pol24</title>
<path fill="none" stroke="#555555" d="M1354.86,-266.86C1371.81,-253.65 1398.31,-233 1418.88,-216.97"/>
<polygon fill="#555555" stroke="#555555" points="1421.27,-219.55 1427,-210.64 1416.96,-214.03 1421.27,-219.55"/>
</g>
<!-- M_polF3&#45;&gt;pol16 -->
<g id="edge50" class="edge">
<title>M_polF3&#45;&gt;pol16</title>
<path fill="none" stroke="#555555" d="M1210.36,-459.92C1158.23,-442.1 1038,-401 1038,-401 1038,-401 1035.47,-399.93 1031.46,-398.23"/>
<polygon fill="#555555" stroke="#555555" points="1032.76,-394.98 1022.19,-394.3 1030.03,-401.42 1032.76,-394.98"/>
</g>
<!-- M_polF3&#45;&gt;pol15 -->
<g id="edge49" class="edge">
<title>M_polF3&#45;&gt;pol15</title>
<path fill="none" stroke="#555555" d="M1207.77,-463.96C1113.72,-449.47 799,-401 799,-401 799,-401 791.36,-398.85 780.56,-395.82"/>
<polygon fill="#555555" stroke="#555555" points="781.41,-392.42 770.84,-393.09 779.52,-399.16 781.41,-392.42"/>
</g>
<!-- M_polF3&#45;&gt;pol18 -->
<g id="edge52" class="edge">
<title>M_polF3&#45;&gt;pol18</title>
<path fill="none" stroke="#555555" d="M1258.03,-460.18C1312.37,-442.51 1440,-401 1440,-401 1440,-401 1442.57,-399.85 1446.61,-398.05"/>
<polygon fill="#555555" stroke="#555555" points="1448.19,-401.18 1455.9,-393.9 1445.34,-394.78 1448.19,-401.18"/>
</g>
<!-- M_polF3&#45;&gt;pol17 -->
<g id="edge51" class="edge">
<title>M_polF3&#45;&gt;pol17</title>
<path fill="none" stroke="#555555" d="M1234,-450.7C1234,-438.13 1234,-420.81 1234,-406.01"/>
<polygon fill="#555555" stroke="#555555" points="1237.5,-405.78 1234,-395.78 1230.5,-405.78 1237.5,-405.78"/>
</g>
<!-- M_polF5&#45;&gt;pol21 -->
<g id="edge67" class="edge">
<title>M_polF5&#45;&gt;pol21</title>
<path fill="none" stroke="#555555" d="M687.24,-271C676.93,-266.92 667,-263 667,-263 667,-263 480,-213 480,-213 480,-213 477.38,-212.16 473.24,-210.84"/>
<polygon fill="#555555" stroke="#555555" points="474.24,-207.49 463.65,-207.77 472.11,-214.15 474.24,-207.49"/>
</g>
<!-- M_polF5&#45;&gt;pol20 -->
<g id="edge66" class="edge">
<title>M_polF5&#45;&gt;pol20</title>
<path fill="none" stroke="#555555" d="M687.24,-271C676.93,-266.92 667,-263 667,-263 667,-263 358,-213 358,-213 358,-213 355.59,-212.24 351.72,-211.03"/>
<polygon fill="#555555" stroke="#555555" points="352.62,-207.64 342.03,-207.98 350.52,-214.32 352.62,-207.64"/>
</g>
<!-- M_polF2&#45;&gt;pol14 -->
<g id="edge75" class="edge">
<title>M_polF2&#45;&gt;pol14</title>
<path fill="none" stroke="#555555" d="M1557.91,-461.45C1622.08,-444.59 1788,-401 1788,-401 1788,-401 1791.55,-399.98 1797.22,-398.35"/>
<polygon fill="#555555" stroke="#555555" points="1798.23,-401.7 1806.88,-395.58 1796.3,-394.97 1798.23,-401.7"/>
</g>
<!-- M_g2F4&#45;&gt;g2p11 -->
<g id="edge80" class="edge">
<title>M_g2F4&#45;&gt;g2p11</title>
<path fill="none" stroke="#555555" d="M149.37,-90.96C129.62,-78.2 97.93,-57.72 73.39,-41.87"/>
<polygon fill="#555555" stroke="#555555" points="75.01,-38.75 64.71,-36.26 71.21,-44.63 75.01,-38.75"/>
</g>
<!-- M_g2F4&#45;&gt;g2p13 -->
<g id="edge82" class="edge">
<title>M_g2F4&#45;&gt;g2p13</title>
<path fill="none" stroke="#555555" d="M182.93,-88.75C195.99,-76.28 215.24,-57.9 230.71,-43.14"/>
<polygon fill="#555555" stroke="#555555" points="233.13,-45.66 237.95,-36.23 228.3,-40.6 233.13,-45.66"/>
</g>
<!-- M_g2F4&#45;&gt;g2p12 -->
<g id="edge81" class="edge">
<title>M_g2F4&#45;&gt;g2p12</title>
<path fill="none" stroke="#555555" d="M163.75,-86C160.89,-74.58 157.07,-59.27 153.79,-46.18"/>
<polygon fill="#555555" stroke="#555555" points="157.14,-45.11 151.32,-36.26 150.35,-46.81 157.14,-45.11"/>
</g>
<!-- M_pedF1&#45;&gt;ped02 -->
<g id="edge88" class="edge">
<title>M_pedF1&#45;&gt;ped02</title>
<path fill="none" stroke="#555555" d="M1948,-262.91C1948,-250.94 1948,-234.7 1948,-220.93"/>
<polygon fill="#555555" stroke="#555555" points="1951.5,-220.55 1948,-210.55 1944.5,-220.55 1951.5,-220.55"/>
</g>
</g>
</svg>
