<?xml version="1.0" encoding="UTF-8" standalone="no"?>
<!DOCTYPE svg PUBLIC "-//W3C//DTD SVG 1.1//EN"
 "http://www.w3.org/Graphics/SVG/1.1/DTD/svg11.dtd">
<!-- Generated by graphviz version 2.43.0 (0)
 -->
<!-- Title: %3 Pages: 1 -->
<svg width="2021pt" height="607pt"
 viewBox="0.00 0.00 2020.50 607.00" xmlns="http://www.w3.org/2000/svg" xmlns:xlink="http://www.w3.org/1999/xlink">
<style><![CDATA[
  g[id^="P_"], g[id^="M_"] { cursor: pointer; }
  .highlight ellipse, .highlight polygon, .highlight path, .highlight rect {
    stroke: #d00; stroke-width: 2.5;
  }
  @keyframes pulse { 0%,100%{opacity:1} 50%{opacity:.45} }
  .blink { animation: pulse 0.9s ease-in-out 3; }
]]></style>
<script><![CDATA[
(function(){
  var SPOUSE = {"P_pol15": ["P_polS05", "P_polS04"], "P_polS05": ["P_pol15"], "P_pol11": ["P_polS03", "P_polS02"], "P_polS03": ["P_pol11"], "P_pol21": ["P_g2p14"], "P_g2p14": ["P_pol21"], "P_polS02": ["P_pol11"], "P_pol22": ["P_g3p04"], "P_g3p04": ["P_pol22"], "P_ped01": ["P_pol14"], "P_pol14": ["P_ped01"], "P_pol19": ["P_g2p07"], "P_g2p07": ["P_pol19"], "P_polS08": ["P_pol18"], "P_pol18": ["P_polS08", "P_polS09"], "P_g2p10": ["P_pol20"], "P_pol20": ["P_g2p10"], "P_polS04": ["P_pol15"], "P_polS09": ["P_pol18"], "P_polS07": ["P_pol17"], "P_pol17": ["P_polS07"], "P_polS06": ["P_pol16"], "P_pol16": ["P_polS06"]};
  var FAMILY = {"M_polF5": ["P_pol15", "P_polS05", "P_pol20", "P_pol21"], "M_polF3": ["P_pol11", "P_polS03", "P_pol15", "P_pol16", "P_pol17", "P_pol18"], "M_g2F5": ["P_pol21", "P_g2p14", "P_g2p15", "P_g2p16"], "M_polF2": ["P_pol11", "P_polS02", "P_pol14"], "M_g3F2": ["P_pol22", "P_g3p04", "P_g3p05", "P_g3p06", "P_g3p07", "P_g3p08"], "M_pedF1": ["P_ped01", "P_pol14", "P_ped02"], "M_g2F3": ["P_pol19", "P_g2p07", "P_g2p08", "P_g2p09"], "M_polF8": ["P_polS08", "P_pol18"], "M_g2F4": ["P_g2p10", "P_pol20", "P_g2p11", "P_g2p12", "P_g2p13"], "M_polF4": ["P_pol15", "P_polS04", "P_pol19"], "M_polF9": ["P_polS09", "P_pol18", "P_pol25"], "M_polF7": ["P_polS07", "P_pol17", "P_pol23", "P_pol24"], "M_polF6": ["P_polS06", "P_pol16", "P_pol22"]};
  function clearHl(){ document.querySelectorAll('.blink').forEach(function(n){ n.classList.remove('blink'); n.classList.remove('highlight'); }); }
  function hl(id){ var el=document.getElementById(id); if(el){ el.classList.add('highlight'); el.classList.add('blink'); } }
  document.addEventListener('click', function(evt){
    var target = evt.target;
    var g = target.closest && target.closest('g[id^="P_"], g[id^="M_"]');
    if (!g) { while (target) { if (target.id && /^([PM]_)/.test(target.id) && target.tagName && target.tagName.toLowerCase() === 'g') { g = target; break; } target = target.parentNode; } }
    if (!g) return;
    var id = g.id; clearHl();
    if (/^P_/.test(id)) { (SPOUSE[id] || []).forEach(hl); }
    else if (/^M_/.test(id)) { hl(id); (FAMILY[id] || []).forEach(hl); }
  }, false);
})();
]]></script>

<g id="graph0" class="graph" transform="scale(1 1) rotate(0) translate(4 603)">
<title>%3</title>
<polygon fill="white" stroke="transparent" points="-4,4 -4,-603 2016.5,-603 2016.5,4 -4,4"/>
<text text-anchor="middle" x="1006.25" y="-585.4" font-family="DejaVu Sans" font-size="12.00">Otto</text>
<!-- g3p04 -->
<g id="P_g3p04" class="node">
<title>g3p04</title>
<path fill="#fde7ef" stroke="#333333" d="M841.5,-210.5C841.5,-210.5 749.5,-210.5 749.5,-210.5 743.5,-210.5 737.5,-204.5 737.5,-198.5 737.5,-198.5 737.5,-186.5 737.5,-186.5 737.5,-180.5 743.5,-174.5 749.5,-174.5 749.5,-174.5 841.5,-174.5 841.5,-174.5 847.5,-174.5 853.5,-180.5 853.5,-186.5 853.5,-186.5 853.5,-198.5 853.5,-198.5 853.5,-204.5 847.5,-210.5 841.5,-210.5"/>
<text text-anchor="middle" x="795.5" y="-195.5" font-family="DejaVu Sans" font-size="10.00">Carina Guttenberger</text>
<text text-anchor="middle" x="795.5" y="-184.5" font-family="DejaVu Sans" font-size="10.00">*30.03.1982</text>
</g>
<!-- pol22 -->
<g id="P_pol22" class="node">
<title>pol22</title>
<path fill="#dbeafe" stroke="#333333" d="M1077.5,-210.5C1077.5,-210.5 1025.5,-210.5 1025.5,-210.5 1019.5,-210.5 1013.5,-204.5 1013.5,-198.5 1013.5,-198.5 1013.5,-186.5 1013.5,-186.5 1013.5,-180.5 1019.5,-174.5 1025.5,-174.5 1025.5,-174.5 1077.5,-174.5 1077.5,-174.5 1083.5,-174.5 1089.5,-180.5 1089.5,-186.5 1089.5,-186.5 1089.5,-198.5 1089.5,-198.5 1089.5,-204.5 1083.5,-210.5 1077.5,-210.5"/>
<text text-anchor="middle" x="1051.5" y="-195.5" font-family="DejaVu Sans" font-size="10.00">Oliver Koch</text>
<text text-anchor="middle" x="1051.5" y="-184.5" font-family="DejaVu Sans" font-size="10.00">*10.10.1974</text>
</g>
<!-- g3p04&#45;&gt;pol22 -->
<!-- M_g3F2 -->
<g id="M_g3F2" class="node">
<title>M_g3F2</title>
<ellipse fill="#fff3b0" stroke="#b08900" cx="925.5" cy="-104" rx="27" ry="18"/>
<text text-anchor="middle" x="925.5" y="-101.8" font-family="DejaVu Sans" font-size="9.00">oo</text>
</g>
<!-- g3p04&#45;&gt;M_g3F2 -->
<g id="edge40" class="edge">
<title>g3p04&#45;&gt;M_g3F2</title>
<path fill="none" stroke="#555555" d="M821.18,-174.41C846.49,-157.57 884.53,-132.26 907.01,-117.31"/>
</g>
<!-- polS06 -->
<g id="P_polS06" class="node">
<title>polS06</title>
<path fill="#dbeafe" stroke="#333333" d="M949.5,-393C949.5,-393 897.5,-393 897.5,-393 891.5,-393 885.5,-387 885.5,-381 885.5,-381 885.5,-369 885.5,-369 885.5,-363 891.5,-357 897.5,-357 897.5,-357 949.5,-357 949.5,-357 955.5,-357 961.5,-363 961.5,-369 961.5,-369 961.5,-381 961.5,-381 961.5,-387 955.5,-393 949.5,-393"/>
<text text-anchor="middle" x="923.5" y="-378" font-family="DejaVu Sans" font-size="10.00">Igo Koch</text>
<text text-anchor="middle" x="923.5" y="-367" font-family="DejaVu Sans" font-size="10.00">*29.07.1947</text>
</g>
<!-- pol16 -->
<g id="P_pol16" class="node">
<title>pol16</title>
<path fill="#fde7ef" stroke="#333333" d="M1067.5,-395.5C1067.5,-395.5 1005.5,-395.5 1005.5,-395.5 999.5,-395.5 993.5,-389.5 993.5,-383.5 993.5,-383.5 993.5,-366.5 993.5,-366.5 993.5,-360.5 999.5,-354.5 1005.5,-354.5 1005.5,-354.5 1067.5,-354.5 1067.5,-354.5 1073.5,-354.5 1079.5,-360.5 1079.5,-366.5 1079.5,-366.5 1079.5,-383.5 1079.5,-383.5 1079.5,-389.5 1073.5,-395.5 1067.5,-395.5"/>
<text text-anchor="middle" x="1036.5" y="-383.5" font-family="DejaVu Sans" font-size="10.00">Christine Koch</text>
<text text-anchor="middle" x="1036.5" y="-372.5" font-family="DejaVu Sans" font-size="10.00">geb. Polasek</text>
<text text-anchor="middle" x="1036.5" y="-361.5" font-family="DejaVu Sans" font-size="10.00">*19.07.1952</text>
</g>
<!-- polS06&#45;&gt;pol16 -->
<!-- polS06&#45;&gt;pol16 -->
<!-- polS06&#45;&gt;pol16 -->
<!-- M_polF6 -->
<g id="M_polF6" class="node">
<title>M_polF6</title>
<ellipse fill="#fff3b0" stroke="#b08900" cx="1036.5" cy="-281" rx="27" ry="18"/>
<text text-anchor="middle" x="1036.5" y="-278.8" font-family="DejaVu Sans" font-size="9.00">oo</text>
</g>
<!-- polS06&#45;&gt;M_polF6 -->
<g id="edge85" class="edge">
<title>polS06&#45;&gt;M_polF6</title>
<path fill="none" stroke="#555555" d="M944.49,-356.91C966.32,-339.14 1000.04,-311.69 1020.02,-295.41"/>
</g>
<!-- pol24 -->
<g id="P_pol24" class="node">
<title>pol24</title>
<path fill="#fde7ef" stroke="#333333" d="M1464.5,-210.5C1464.5,-210.5 1396.5,-210.5 1396.5,-210.5 1390.5,-210.5 1384.5,-204.5 1384.5,-198.5 1384.5,-198.5 1384.5,-186.5 1384.5,-186.5 1384.5,-180.5 1390.5,-174.5 1396.5,-174.5 1396.5,-174.5 1464.5,-174.5 1464.5,-174.5 1470.5,-174.5 1476.5,-180.5 1476.5,-186.5 1476.5,-186.5 1476.5,-198.5 1476.5,-198.5 1476.5,-204.5 1470.5,-210.5 1464.5,-210.5"/>
<text text-anchor="middle" x="1430.5" y="-195.5" font-family="DejaVu Sans" font-size="10.00">Karin Schlosser</text>
<text text-anchor="middle" x="1430.5" y="-184.5" font-family="DejaVu Sans" font-size="10.00">*23.11.1977</text>
</g>
<!-- g2p09 -->
<g id="P_g2p09" class="node">
<title>g2p09</title>
<path fill="#fde7ef" stroke="#333333" d="M1463,-36C1463,-36 1390,-36 1390,-36 1384,-36 1378,-30 1378,-24 1378,-24 1378,-12 1378,-12 1378,-6 1384,0 1390,0 1390,0 1463,0 1463,0 1469,0 1475,-6 1475,-12 1475,-12 1475,-24 1475,-24 1475,-30 1469,-36 1463,-36"/>
<text text-anchor="middle" x="1426.5" y="-21" font-family="DejaVu Sans" font-size="10.00">Johanna Polasek</text>
<text text-anchor="middle" x="1426.5" y="-10" font-family="DejaVu Sans" font-size="10.00">*12.07.2006</text>
</g>
<!-- g3p07 -->
<g id="P_g3p07" class="node">
<title>g3p07</title>
<path fill="#dbeafe" stroke="#333333" d="M1050,-36C1050,-36 955,-36 955,-36 949,-36 943,-30 943,-24 943,-24 943,-12 943,-12 943,-6 949,0 955,0 955,0 1050,0 1050,0 1056,0 1062,-6 1062,-12 1062,-12 1062,-24 1062,-24 1062,-30 1056,-36 1050,-36"/>
<text text-anchor="middle" x="1002.5" y="-21" font-family="DejaVu Sans" font-size="10.00">Nathan Guttenberger</text>
<text text-anchor="middle" x="1002.5" y="-10" font-family="DejaVu Sans" font-size="10.00">*19.11.2007</text>
</g>
<!-- g3p08 -->
<g id="P_g3p08" class="node">
<title>g3p08</title>
<path fill="#fde7ef" stroke="#333333" d="M1188.5,-36C1188.5,-36 1106.5,-36 1106.5,-36 1100.5,-36 1094.5,-30 1094.5,-24 1094.5,-24 1094.5,-12 1094.5,-12 1094.5,-6 1100.5,0 1106.5,0 1106.5,0 1188.5,0 1188.5,0 1194.5,0 1200.5,-6 1200.5,-12 1200.5,-12 1200.5,-24 1200.5,-24 1200.5,-30 1194.5,-36 1188.5,-36"/>
<text text-anchor="middle" x="1147.5" y="-21" font-family="DejaVu Sans" font-size="10.00">Sara Guttenberger</text>
<text text-anchor="middle" x="1147.5" y="-10" font-family="DejaVu Sans" font-size="10.00">*16.09.2011</text>
</g>
<!-- g3p07&#45;&gt;g3p08 -->
<!-- pol23 -->
<g id="P_pol23" class="node">
<title>pol23</title>
<path fill="#fde7ef" stroke="#333333" d="M1340,-210.5C1340,-210.5 1273,-210.5 1273,-210.5 1267,-210.5 1261,-204.5 1261,-198.5 1261,-198.5 1261,-186.5 1261,-186.5 1261,-180.5 1267,-174.5 1273,-174.5 1273,-174.5 1340,-174.5 1340,-174.5 1346,-174.5 1352,-180.5 1352,-186.5 1352,-186.5 1352,-198.5 1352,-198.5 1352,-204.5 1346,-210.5 1340,-210.5"/>
<text text-anchor="middle" x="1306.5" y="-195.5" font-family="DejaVu Sans" font-size="10.00">Irene Schlosser</text>
<text text-anchor="middle" x="1306.5" y="-184.5" font-family="DejaVu Sans" font-size="10.00">*20.03.1975</text>
</g>
<!-- pol23&#45;&gt;pol24 -->
<!-- polS05 -->
<g id="P_polS05" class="node">
<title>polS05</title>
<path fill="#fde7ef" stroke="#333333" d="M549,-395.5C549,-395.5 484,-395.5 484,-395.5 478,-395.5 472,-389.5 472,-383.5 472,-383.5 472,-366.5 472,-366.5 472,-360.5 478,-354.5 484,-354.5 484,-354.5 549,-354.5 549,-354.5 555,-354.5 561,-360.5 561,-366.5 561,-366.5 561,-383.5 561,-383.5 561,-389.5 555,-395.5 549,-395.5"/>
<text text-anchor="middle" x="516.5" y="-383.5" font-family="DejaVu Sans" font-size="10.00">Hanka Polasek</text>
<text text-anchor="middle" x="516.5" y="-372.5" font-family="DejaVu Sans" font-size="10.00">geb. Steindel</text>
<text text-anchor="middle" x="516.5" y="-361.5" font-family="DejaVu Sans" font-size="10.00">*10.06.1951</text>
</g>
<!-- pol15 -->
<g id="P_pol15" class="node">
<title>pol15</title>
<path fill="#dbeafe" stroke="#333333" d="M725.5,-393C725.5,-393 605.5,-393 605.5,-393 599.5,-393 593.5,-387 593.5,-381 593.5,-381 593.5,-369 593.5,-369 593.5,-363 599.5,-357 605.5,-357 605.5,-357 725.5,-357 725.5,-357 731.5,-357 737.5,-363 737.5,-369 737.5,-369 737.5,-381 737.5,-381 737.5,-387 731.5,-393 725.5,-393"/>
<text text-anchor="middle" x="665.5" y="-378" font-family="DejaVu Sans" font-size="10.00">Wolfgang Polasek</text>
<text text-anchor="middle" x="665.5" y="-367" font-family="DejaVu Sans" font-size="10.00">*19.06.1951 &#160;+23.05.2013</text>
</g>
<!-- polS05&#45;&gt;pol15 -->
<!-- M_polF5 -->
<g id="M_polF5" class="node">
<title>M_polF5</title>
<ellipse fill="#fff3b0" stroke="#b08900" cx="516.5" cy="-281" rx="27" ry="18"/>
<text text-anchor="middle" x="516.5" y="-278.8" font-family="DejaVu Sans" font-size="9.00">oo</text>
</g>
<!-- polS05&#45;&gt;M_polF5 -->
<g id="edge3" class="edge">
<title>polS05&#45;&gt;M_polF5</title>
<path fill="none" stroke="#555555" d="M516.5,-354.49C516.5,-338.03 516.5,-314.71 516.5,-299.01"/>
</g>
<!-- pol19 -->
<g id="P_pol19" class="node">
<title>pol19</title>
<path fill="#dbeafe" stroke="#333333" d="M969,-210.5C969,-210.5 898,-210.5 898,-210.5 892,-210.5 886,-204.5 886,-198.5 886,-198.5 886,-186.5 886,-186.5 886,-180.5 892,-174.5 898,-174.5 898,-174.5 969,-174.5 969,-174.5 975,-174.5 981,-180.5 981,-186.5 981,-186.5 981,-198.5 981,-198.5 981,-204.5 975,-210.5 969,-210.5"/>
<text text-anchor="middle" x="933.5" y="-195.5" font-family="DejaVu Sans" font-size="10.00">Richard Polasek</text>
<text text-anchor="middle" x="933.5" y="-184.5" font-family="DejaVu Sans" font-size="10.00">*06.01.1976</text>
</g>
<!-- g2p07 -->
<g id="P_g2p07" class="node">
<title>g2p07</title>
<path fill="#fde7ef" stroke="#333333" d="M1213,-213C1213,-213 1134,-213 1134,-213 1128,-213 1122,-207 1122,-201 1122,-201 1122,-184 1122,-184 1122,-178 1128,-172 1134,-172 1134,-172 1213,-172 1213,-172 1219,-172 1225,-178 1225,-184 1225,-184 1225,-201 1225,-201 1225,-207 1219,-213 1213,-213"/>
<text text-anchor="middle" x="1173.5" y="-201" font-family="DejaVu Sans" font-size="10.00">Elisabeth Polasek</text>
<text text-anchor="middle" x="1173.5" y="-190" font-family="DejaVu Sans" font-size="10.00">geb. Lackner</text>
<text text-anchor="middle" x="1173.5" y="-179" font-family="DejaVu Sans" font-size="10.00">*13.05.1973</text>
</g>
<!-- pol19&#45;&gt;g2p07 -->
<!-- pol19&#45;&gt;g2p07 -->
<!-- pol19&#45;&gt;g2p07 -->
<!-- M_g2F3 -->
<g id="M_g2F3" class="node">
<title>M_g2F3</title>
<ellipse fill="#fff3b0" stroke="#b08900" cx="1173.5" cy="-104" rx="27" ry="18"/>
<text text-anchor="middle" x="1173.5" y="-101.8" font-family="DejaVu Sans" font-size="9.00">oo</text>
</g>
<!-- pol19&#45;&gt;M_g2F3 -->
<g id="edge53" class="edge">
<title>pol19&#45;&gt;M_g2F3</title>
<path fill="none" stroke="#555555" d="M980.92,-174.41C1032.01,-156 1111.22,-127.45 1150.2,-113.4"/>
</g>
<!-- pol11 -->
<g id="P_pol11" class="node">
<title>pol11</title>
<path fill="#dbeafe" stroke="#111111" stroke-width="1.8" d="M1387.5,-575.5C1387.5,-575.5 1267.5,-575.5 1267.5,-575.5 1261.5,-575.5 1255.5,-569.5 1255.5,-563.5 1255.5,-563.5 1255.5,-551.5 1255.5,-551.5 1255.5,-545.5 1261.5,-539.5 1267.5,-539.5 1267.5,-539.5 1387.5,-539.5 1387.5,-539.5 1393.5,-539.5 1399.5,-545.5 1399.5,-551.5 1399.5,-551.5 1399.5,-563.5 1399.5,-563.5 1399.5,-569.5 1393.5,-575.5 1387.5,-575.5"/>
<text text-anchor="middle" x="1327.5" y="-560.5" font-family="DejaVu Sans" font-size="10.00">Otto Polasek</text>
<text text-anchor="middle" x="1327.5" y="-549.5" font-family="DejaVu Sans" font-size="10.00">*14.09.1912 &#160;+01.11.1994</text>
</g>
<!-- polS03 -->
<g id="P_polS03" class="node">
<title>polS03</title>
<path fill="#fde7ef" stroke="#333333" d="M1211.5,-578C1211.5,-578 1155.5,-578 1155.5,-578 1149.5,-578 1143.5,-572 1143.5,-566 1143.5,-566 1143.5,-549 1143.5,-549 1143.5,-543 1149.5,-537 1155.5,-537 1155.5,-537 1211.5,-537 1211.5,-537 1217.5,-537 1223.5,-543 1223.5,-549 1223.5,-549 1223.5,-566 1223.5,-566 1223.5,-572 1217.5,-578 1211.5,-578"/>
<text text-anchor="middle" x="1183.5" y="-566" font-family="DejaVu Sans" font-size="10.00">Inge Polasek</text>
<text text-anchor="middle" x="1183.5" y="-555" font-family="DejaVu Sans" font-size="10.00">geb. Rokitzki</text>
<text text-anchor="middle" x="1183.5" y="-544" font-family="DejaVu Sans" font-size="10.00">*11.02.1928</text>
</g>
<!-- pol11&#45;&gt;polS03 -->
<!-- pol11&#45;&gt;polS03 -->
<!-- polS02 -->
<g id="P_polS02" class="node">
<title>polS02</title>
<path fill="#fde7ef" stroke="#333333" d="M1521,-575.5C1521,-575.5 1444,-575.5 1444,-575.5 1438,-575.5 1432,-569.5 1432,-563.5 1432,-563.5 1432,-551.5 1432,-551.5 1432,-545.5 1438,-539.5 1444,-539.5 1444,-539.5 1521,-539.5 1521,-539.5 1527,-539.5 1533,-545.5 1533,-551.5 1533,-551.5 1533,-563.5 1533,-563.5 1533,-569.5 1527,-575.5 1521,-575.5"/>
<text text-anchor="middle" x="1482.5" y="-560.5" font-family="DejaVu Sans" font-size="10.00">Gertrude Polasek</text>
<text text-anchor="middle" x="1482.5" y="-549.5" font-family="DejaVu Sans" font-size="10.00">geb. Winkler</text>
</g>
<!-- pol11&#45;&gt;polS02 -->
<!-- pol11&#45;&gt;polS02 -->
<!-- M_polF3 -->
<g id="M_polF3" class="node">
<title>M_polF3</title>
<ellipse fill="#fff3b0" stroke="#b08900" cx="1183.5" cy="-469" rx="27" ry="18"/>
<text text-anchor="middle" x="1183.5" y="-466.8" font-family="DejaVu Sans" font-size="9.00">oo</text>
</g>
<!-- pol11&#45;&gt;M_polF3 -->
<g id="edge11" class="edge">
<title>pol11&#45;&gt;M_polF3</title>
<path fill="none" stroke="#555555" d="M1299.05,-539.41C1270.69,-522.37 1227.89,-496.67 1203.12,-481.79"/>
</g>
<!-- M_polF2 -->
<g id="M_polF2" class="node">
<title>M_polF2</title>
<ellipse fill="#fff3b0" stroke="#b08900" cx="1482.5" cy="-469" rx="27" ry="18"/>
<text text-anchor="middle" x="1482.5" y="-466.8" font-family="DejaVu Sans" font-size="9.00">oo</text>
</g>
<!-- pol11&#45;&gt;M_polF2 -->
<g id="edge34" class="edge">
<title>pol11&#45;&gt;M_polF2</title>
<path fill="none" stroke="#555555" d="M1358.12,-539.41C1389,-522.18 1435.79,-496.07 1462.3,-481.27"/>
</g>
<!-- g2p08 -->
<g id="P_g2p08" class="node">
<title>g2p08</title>
<path fill="#dbeafe" stroke="#333333" d="M1334,-36C1334,-36 1245,-36 1245,-36 1239,-36 1233,-30 1233,-24 1233,-24 1233,-12 1233,-12 1233,-6 1239,0 1245,0 1245,0 1334,0 1334,0 1340,0 1346,-6 1346,-12 1346,-12 1346,-24 1346,-24 1346,-30 1340,-36 1334,-36"/>
<text text-anchor="middle" x="1289.5" y="-21" font-family="DejaVu Sans" font-size="10.00">Maximilian Polasek</text>
<text text-anchor="middle" x="1289.5" y="-10" font-family="DejaVu Sans" font-size="10.00">*09.12.2001</text>
</g>
<!-- g2p08&#45;&gt;g2p09 -->
<!-- pol14 -->
<g id="P_pol14" class="node">
<title>pol14</title>
<path fill="#fde7ef" stroke="#333333" d="M1882,-395.5C1882,-395.5 1765,-395.5 1765,-395.5 1759,-395.5 1753,-389.5 1753,-383.5 1753,-383.5 1753,-366.5 1753,-366.5 1753,-360.5 1759,-354.5 1765,-354.5 1765,-354.5 1882,-354.5 1882,-354.5 1888,-354.5 1894,-360.5 1894,-366.5 1894,-366.5 1894,-383.5 1894,-383.5 1894,-389.5 1888,-395.5 1882,-395.5"/>
<text text-anchor="middle" x="1823.5" y="-383.5" font-family="DejaVu Sans" font-size="10.00">Gertrud (Traudl) Pedersen</text>
<text text-anchor="middle" x="1823.5" y="-372.5" font-family="DejaVu Sans" font-size="10.00">geb. Polasek</text>
<text text-anchor="middle" x="1823.5" y="-361.5" font-family="DejaVu Sans" font-size="10.00">*21.03.1944</text>
</g>
<!-- ped01 -->
<g id="P_ped01" class="node">
<title>ped01</title>
<path fill="#dbeafe" stroke="#333333" d="M2000.5,-393C2000.5,-393 1938.5,-393 1938.5,-393 1932.5,-393 1926.5,-387 1926.5,-381 1926.5,-381 1926.5,-369 1926.5,-369 1926.5,-363 1932.5,-357 1938.5,-357 1938.5,-357 2000.5,-357 2000.5,-357 2006.5,-357 2012.5,-363 2012.5,-369 2012.5,-369 2012.5,-381 2012.5,-381 2012.5,-387 2006.5,-393 2000.5,-393"/>
<text text-anchor="middle" x="1969.5" y="-378" font-family="DejaVu Sans" font-size="10.00">John Pedersen</text>
<text text-anchor="middle" x="1969.5" y="-367" font-family="DejaVu Sans" font-size="10.00">*31.07.1938</text>
</g>
<!-- pol14&#45;&gt;ped01 -->
<!-- M_pedF1 -->
<g id="M_pedF1" class="node">
<title>M_pedF1</title>
<ellipse fill="#fff3b0" stroke="#b08900" cx="1896.5" cy="-281" rx="27" ry="18"/>
<text text-anchor="middle" x="1896.5" y="-278.8" font-family="DejaVu Sans" font-size="9.00">oo</text>
</g>
<!-- pol14&#45;&gt;M_pedF1 -->
<g id="edge50" class="edge">
<title>pol14&#45;&gt;M_pedF1</title>
<path fill="none" stroke="#555555" d="M1838.98,-354.49C1852.54,-337.4 1871.97,-312.91 1884.41,-297.23"/>
</g>
<!-- g2p13 -->
<g id="P_g2p13" class="node">
<title>g2p13</title>
<path fill="#dbeafe" stroke="#333333" d="M590.5,-36C590.5,-36 538.5,-36 538.5,-36 532.5,-36 526.5,-30 526.5,-24 526.5,-24 526.5,-12 526.5,-12 526.5,-6 532.5,0 538.5,0 538.5,0 590.5,0 590.5,0 596.5,0 602.5,-6 602.5,-12 602.5,-12 602.5,-24 602.5,-24 602.5,-30 596.5,-36 590.5,-36"/>
<text text-anchor="middle" x="564.5" y="-21" font-family="DejaVu Sans" font-size="10.00">Ben Niklaus</text>
<text text-anchor="middle" x="564.5" y="-10" font-family="DejaVu Sans" font-size="10.00">*14.10.2016</text>
</g>
<!-- pol21 -->
<g id="P_pol21" class="node">
<title>pol21</title>
<path fill="#dbeafe" stroke="#333333" d="M548,-210.5C548,-210.5 483,-210.5 483,-210.5 477,-210.5 471,-204.5 471,-198.5 471,-198.5 471,-186.5 471,-186.5 471,-180.5 477,-174.5 483,-174.5 483,-174.5 548,-174.5 548,-174.5 554,-174.5 560,-180.5 560,-186.5 560,-186.5 560,-198.5 560,-198.5 560,-204.5 554,-210.5 548,-210.5"/>
<text text-anchor="middle" x="515.5" y="-195.5" font-family="DejaVu Sans" font-size="10.00">Daniel Polasek</text>
<text text-anchor="middle" x="515.5" y="-184.5" font-family="DejaVu Sans" font-size="10.00">*15.05.1986</text>
</g>
<!-- g2p14 -->
<g id="P_g2p14" class="node">
<title>g2p14</title>
<path fill="#fde7ef" stroke="#333333" d="M302.5,-210.5C302.5,-210.5 230.5,-210.5 230.5,-210.5 224.5,-210.5 218.5,-204.5 218.5,-198.5 218.5,-198.5 218.5,-186.5 218.5,-186.5 218.5,-180.5 224.5,-174.5 230.5,-174.5 230.5,-174.5 302.5,-174.5 302.5,-174.5 308.5,-174.5 314.5,-180.5 314.5,-186.5 314.5,-186.5 314.5,-198.5 314.5,-198.5 314.5,-204.5 308.5,-210.5 302.5,-210.5"/>
<text text-anchor="middle" x="266.5" y="-195.5" font-family="DejaVu Sans" font-size="10.00">Julia Schultheiss</text>
<text text-anchor="middle" x="266.5" y="-184.5" font-family="DejaVu Sans" font-size="10.00">*29.04.1986</text>
</g>
<!-- pol21&#45;&gt;g2p14 -->
<!-- pol21&#45;&gt;g2p14 -->
<!-- pol21&#45;&gt;g2p14 -->
<!-- M_g2F5 -->
<g id="M_g2F5" class="node">
<title>M_g2F5</title>
<ellipse fill="#fff3b0" stroke="#b08900" cx="266.5" cy="-104" rx="27" ry="18"/>
<text text-anchor="middle" x="266.5" y="-101.8" font-family="DejaVu Sans" font-size="9.00">oo</text>
</g>
<!-- pol21&#45;&gt;M_g2F5 -->
<g id="edge28" class="edge">
<title>pol21&#45;&gt;M_g2F5</title>
<path fill="none" stroke="#555555" d="M470.98,-176.04C417.97,-157.62 331.39,-127.54 289.99,-113.16"/>
</g>
<!-- g2p11 -->
<g id="P_g2p11" class="node">
<title>g2p11</title>
<path fill="#dbeafe" stroke="#333333" d="M372.5,-36C372.5,-36 320.5,-36 320.5,-36 314.5,-36 308.5,-30 308.5,-24 308.5,-24 308.5,-12 308.5,-12 308.5,-6 314.5,0 320.5,0 320.5,0 372.5,0 372.5,0 378.5,0 384.5,-6 384.5,-12 384.5,-12 384.5,-24 384.5,-24 384.5,-30 378.5,-36 372.5,-36"/>
<text text-anchor="middle" x="346.5" y="-21" font-family="DejaVu Sans" font-size="10.00">Tim Niklaus</text>
<text text-anchor="middle" x="346.5" y="-10" font-family="DejaVu Sans" font-size="10.00">*23.10.2012</text>
</g>
<!-- g2p12 -->
<g id="P_g2p12" class="node">
<title>g2p12</title>
<path fill="#fde7ef" stroke="#333333" d="M482,-36C482,-36 429,-36 429,-36 423,-36 417,-30 417,-24 417,-24 417,-12 417,-12 417,-6 423,0 429,0 429,0 482,0 482,0 488,0 494,-6 494,-12 494,-12 494,-24 494,-24 494,-30 488,-36 482,-36"/>
<text text-anchor="middle" x="455.5" y="-21" font-family="DejaVu Sans" font-size="10.00">Lina Niklaus</text>
<text text-anchor="middle" x="455.5" y="-10" font-family="DejaVu Sans" font-size="10.00">*24.08.2014</text>
</g>
<!-- g2p11&#45;&gt;g2p12 -->
<!-- g2p07&#45;&gt;pol19 -->
<!-- g2p07&#45;&gt;M_g2F3 -->
<g id="edge54" class="edge">
<title>g2p07&#45;&gt;M_g2F3</title>
<path fill="none" stroke="#555555" d="M1173.5,-171.87C1173.5,-156.92 1173.5,-136.53 1173.5,-122.21"/>
</g>
<!-- ped01&#45;&gt;pol14 -->
<!-- ped01&#45;&gt;pol14 -->
<!-- ped01&#45;&gt;pol14 -->
<!-- ped01&#45;&gt;M_pedF1 -->
<g id="edge49" class="edge">
<title>ped01&#45;&gt;M_pedF1</title>
<path fill="none" stroke="#555555" d="M1955.77,-356.7C1942.22,-339.62 1921.71,-313.77 1908.71,-297.39"/>
</g>
<!-- polS03&#45;&gt;pol11 -->
<!-- polS03&#45;&gt;M_polF3 -->
<g id="edge12" class="edge">
<title>polS03&#45;&gt;M_polF3</title>
<path fill="none" stroke="#555555" d="M1183.5,-536.87C1183.5,-521.92 1183.5,-501.53 1183.5,-487.21"/>
</g>
<!-- g3p06 -->
<g id="P_g3p06" class="node">
<title>g3p06</title>
<path fill="#fde7ef" stroke="#333333" d="M898.5,-36C898.5,-36 800.5,-36 800.5,-36 794.5,-36 788.5,-30 788.5,-24 788.5,-24 788.5,-12 788.5,-12 788.5,-6 794.5,0 800.5,0 800.5,0 898.5,0 898.5,0 904.5,0 910.5,-6 910.5,-12 910.5,-12 910.5,-24 910.5,-24 910.5,-30 904.5,-36 898.5,-36"/>
<text text-anchor="middle" x="849.5" y="-21" font-family="DejaVu Sans" font-size="10.00">Hannah Guttenberger</text>
<text text-anchor="middle" x="849.5" y="-10" font-family="DejaVu Sans" font-size="10.00">*05.02.2006</text>
</g>
<!-- g3p06&#45;&gt;g3p07 -->
<!-- pol25 -->
<g id="P_pol25" class="node">
<title>pol25</title>
<path fill="#dbeafe" stroke="#333333" d="M1585.5,-210.5C1585.5,-210.5 1527.5,-210.5 1527.5,-210.5 1521.5,-210.5 1515.5,-204.5 1515.5,-198.5 1515.5,-198.5 1515.5,-186.5 1515.5,-186.5 1515.5,-180.5 1521.5,-174.5 1527.5,-174.5 1527.5,-174.5 1585.5,-174.5 1585.5,-174.5 1591.5,-174.5 1597.5,-180.5 1597.5,-186.5 1597.5,-186.5 1597.5,-198.5 1597.5,-198.5 1597.5,-204.5 1591.5,-210.5 1585.5,-210.5"/>
<text text-anchor="middle" x="1556.5" y="-195.5" font-family="DejaVu Sans" font-size="10.00">Julian Kessler</text>
<text text-anchor="middle" x="1556.5" y="-184.5" font-family="DejaVu Sans" font-size="10.00">*28.01.1998</text>
</g>
<!-- pol20 -->
<g id="P_pol20" class="node">
<title>pol20</title>
<path fill="#fde7ef" stroke="#333333" d="M426.5,-213C426.5,-213 358.5,-213 358.5,-213 352.5,-213 346.5,-207 346.5,-201 346.5,-201 346.5,-184 346.5,-184 346.5,-178 352.5,-172 358.5,-172 358.5,-172 426.5,-172 426.5,-172 432.5,-172 438.5,-178 438.5,-184 438.5,-184 438.5,-201 438.5,-201 438.5,-207 432.5,-213 426.5,-213"/>
<text text-anchor="middle" x="392.5" y="-201" font-family="DejaVu Sans" font-size="10.00">Bettina Niklaus</text>
<text text-anchor="middle" x="392.5" y="-190" font-family="DejaVu Sans" font-size="10.00">geb. Polasek</text>
<text text-anchor="middle" x="392.5" y="-179" font-family="DejaVu Sans" font-size="10.00">*12.04.1983</text>
</g>
<!-- pol20&#45;&gt;pol21 -->
<!-- pol20&#45;&gt;pol21 -->
<!-- g2p10 -->
<g id="P_g2p10" class="node">
<title>g2p10</title>
<path fill="#dbeafe" stroke="#333333" d="M679,-210.5C679,-210.5 604,-210.5 604,-210.5 598,-210.5 592,-204.5 592,-198.5 592,-198.5 592,-186.5 592,-186.5 592,-180.5 598,-174.5 604,-174.5 604,-174.5 679,-174.5 679,-174.5 685,-174.5 691,-180.5 691,-186.5 691,-186.5 691,-198.5 691,-198.5 691,-204.5 685,-210.5 679,-210.5"/>
<text text-anchor="middle" x="641.5" y="-195.5" font-family="DejaVu Sans" font-size="10.00">Matthias Niklaus</text>
<text text-anchor="middle" x="641.5" y="-184.5" font-family="DejaVu Sans" font-size="10.00">*15.09.1981</text>
</g>
<!-- pol20&#45;&gt;g2p10 -->
<!-- M_g2F4 -->
<g id="M_g2F4" class="node">
<title>M_g2F4</title>
<ellipse fill="#fff3b0" stroke="#b08900" cx="455.5" cy="-104" rx="27" ry="18"/>
<text text-anchor="middle" x="455.5" y="-101.8" font-family="DejaVu Sans" font-size="9.00">oo</text>
</g>
<!-- pol20&#45;&gt;M_g2F4 -->
<g id="edge63" class="edge">
<title>pol20&#45;&gt;M_g2F4</title>
<path fill="none" stroke="#555555" d="M406.8,-171.87C418.12,-156.32 433.73,-134.89 444.2,-120.52"/>
</g>
<!-- g2p10&#45;&gt;pol20 -->
<!-- g2p10&#45;&gt;pol20 -->
<!-- g2p10&#45;&gt;pol20 -->
<!-- g2p10&#45;&gt;M_g2F4 -->
<g id="edge62" class="edge">
<title>g2p10&#45;&gt;M_g2F4</title>
<path fill="none" stroke="#555555" d="M604.75,-174.41C566.64,-156.69 508.33,-129.57 477.08,-115.03"/>
</g>
<!-- g2p16 -->
<g id="P_g2p16" class="node">
<title>g2p16</title>
<path fill="#dbeafe" stroke="#333333" d="M264,-36C264,-36 163,-36 163,-36 157,-36 151,-30 151,-24 151,-24 151,-12 151,-12 151,-6 157,0 163,0 163,0 264,0 264,0 270,0 276,-6 276,-12 276,-12 276,-24 276,-24 276,-30 270,-36 264,-36"/>
<text text-anchor="middle" x="213.5" y="-21" font-family="DejaVu Sans" font-size="10.00">Nelo&#45;Mika Schultheiss</text>
<text text-anchor="middle" x="213.5" y="-10" font-family="DejaVu Sans" font-size="10.00">*15.08.2022</text>
</g>
<!-- polS08 -->
<g id="P_polS08" class="node">
<title>polS08</title>
<path fill="#dbeafe" stroke="#333333" d="M1709,-393C1709,-393 1648,-393 1648,-393 1642,-393 1636,-387 1636,-381 1636,-381 1636,-369 1636,-369 1636,-363 1642,-357 1648,-357 1648,-357 1709,-357 1709,-357 1715,-357 1721,-363 1721,-369 1721,-369 1721,-381 1721,-381 1721,-387 1715,-393 1709,-393"/>
<text text-anchor="middle" x="1678.5" y="-378" font-family="DejaVu Sans" font-size="10.00">Burkhard Vogl</text>
<text text-anchor="middle" x="1678.5" y="-367" font-family="DejaVu Sans" font-size="10.00">*11.01.1950</text>
</g>
<!-- pol18 -->
<g id="P_pol18" class="node">
<title>pol18</title>
<path fill="#fde7ef" stroke="#333333" d="M1473.5,-401C1473.5,-401 1417.5,-401 1417.5,-401 1411.5,-401 1405.5,-395 1405.5,-389 1405.5,-389 1405.5,-361 1405.5,-361 1405.5,-355 1411.5,-349 1417.5,-349 1417.5,-349 1473.5,-349 1473.5,-349 1479.5,-349 1485.5,-355 1485.5,-361 1485.5,-361 1485.5,-389 1485.5,-389 1485.5,-395 1479.5,-401 1473.5,-401"/>
<text text-anchor="middle" x="1445.5" y="-389" font-family="DejaVu Sans" font-size="10.00">Doris Kessler</text>
<text text-anchor="middle" x="1445.5" y="-378" font-family="DejaVu Sans" font-size="10.00">geb. Polasek</text>
<text text-anchor="middle" x="1445.5" y="-367" font-family="DejaVu Sans" font-size="10.00">verh. Vogl</text>
<text text-anchor="middle" x="1445.5" y="-356" font-family="DejaVu Sans" font-size="10.00">*03.02.1959</text>
</g>
<!-- polS08&#45;&gt;pol18 -->
<!-- polS08&#45;&gt;pol18 -->
<!-- polS08&#45;&gt;pol18 -->
<!-- M_polF8 -->
<g id="M_polF8" class="node">
<title>M_polF8</title>
<ellipse fill="#fff3b0" stroke="#b08900" cx="1662.5" cy="-281" rx="27" ry="18"/>
<text text-anchor="middle" x="1662.5" y="-278.8" font-family="DejaVu Sans" font-size="9.00">oo</text>
</g>
<!-- polS08&#45;&gt;M_polF8 -->
<g id="edge59" class="edge">
<title>polS08&#45;&gt;M_polF8</title>
<path fill="none" stroke="#555555" d="M1675.49,-356.7C1672.61,-340.14 1668.3,-315.34 1665.44,-298.92"/>
</g>
<!-- polS09 -->
<g id="P_polS09" class="node">
<title>polS09</title>
<path fill="#dbeafe" stroke="#333333" d="M1591.5,-393C1591.5,-393 1529.5,-393 1529.5,-393 1523.5,-393 1517.5,-387 1517.5,-381 1517.5,-381 1517.5,-369 1517.5,-369 1517.5,-363 1523.5,-357 1529.5,-357 1529.5,-357 1591.5,-357 1591.5,-357 1597.5,-357 1603.5,-363 1603.5,-369 1603.5,-369 1603.5,-381 1603.5,-381 1603.5,-387 1597.5,-393 1591.5,-393"/>
<text text-anchor="middle" x="1560.5" y="-378" font-family="DejaVu Sans" font-size="10.00">Jürgen Kessler</text>
<text text-anchor="middle" x="1560.5" y="-367" font-family="DejaVu Sans" font-size="10.00">*06.12.1946</text>
</g>
<!-- polS09&#45;&gt;pol18 -->
<!-- polS09&#45;&gt;pol18 -->
<!-- M_polF9 -->
<g id="M_polF9" class="node">
<title>M_polF9</title>
<ellipse fill="#fff3b0" stroke="#b08900" cx="1556.5" cy="-281" rx="27" ry="18"/>
<text text-anchor="middle" x="1556.5" y="-278.8" font-family="DejaVu Sans" font-size="9.00">oo</text>
</g>
<!-- polS09&#45;&gt;M_polF9 -->
<g id="edge75" class="edge">
<title>polS09&#45;&gt;M_polF9</title>
<path fill="none" stroke="#555555" d="M1559.75,-356.7C1559.03,-340.25 1557.96,-315.65 1557.25,-299.23"/>
</g>
<!-- g2p14&#45;&gt;pol21 -->
<!-- g2p14&#45;&gt;M_g2F5 -->
<g id="edge29" class="edge">
<title>g2p14&#45;&gt;M_g2F5</title>
<path fill="none" stroke="#555555" d="M266.5,-174.41C266.5,-159.25 266.5,-137.21 266.5,-122.05"/>
</g>
<!-- ped02 -->
<g id="P_ped02" class="node">
<title>ped02</title>
<path fill="#fde7ef" stroke="#333333" d="M1924.5,-210.5C1924.5,-210.5 1868.5,-210.5 1868.5,-210.5 1862.5,-210.5 1856.5,-204.5 1856.5,-198.5 1856.5,-198.5 1856.5,-186.5 1856.5,-186.5 1856.5,-180.5 1862.5,-174.5 1868.5,-174.5 1868.5,-174.5 1924.5,-174.5 1924.5,-174.5 1930.5,-174.5 1936.5,-180.5 1936.5,-186.5 1936.5,-186.5 1936.5,-198.5 1936.5,-198.5 1936.5,-204.5 1930.5,-210.5 1924.5,-210.5"/>
<text text-anchor="middle" x="1896.5" y="-195.5" font-family="DejaVu Sans" font-size="10.00">Pia Pedersen</text>
<text text-anchor="middle" x="1896.5" y="-184.5" font-family="DejaVu Sans" font-size="10.00">*10.04.1971</text>
</g>
<!-- g2p12&#45;&gt;g2p13 -->
<!-- pol18&#45;&gt;polS08 -->
<!-- pol18&#45;&gt;polS09 -->
<!-- pol18&#45;&gt;M_polF8 -->
<g id="edge60" class="edge">
<title>pol18&#45;&gt;M_polF8</title>
<path fill="none" stroke="#555555" d="M1485.6,-356.1C1494.58,-352.09 1501.5,-349 1501.5,-349 1501.5,-349 1595.88,-309.73 1640.11,-291.32"/>
</g>
<!-- pol18&#45;&gt;M_polF9 -->
<g id="edge76" class="edge">
<title>pol18&#45;&gt;M_polF9</title>
<path fill="none" stroke="#555555" d="M1475.83,-348.86C1496.63,-331.62 1523.41,-309.43 1540.27,-295.45"/>
</g>
<!-- pol17 -->
<g id="P_pol17" class="node">
<title>pol17</title>
<path fill="#fde7ef" stroke="#333333" d="M1243.5,-395.5C1243.5,-395.5 1123.5,-395.5 1123.5,-395.5 1117.5,-395.5 1111.5,-389.5 1111.5,-383.5 1111.5,-383.5 1111.5,-366.5 1111.5,-366.5 1111.5,-360.5 1117.5,-354.5 1123.5,-354.5 1123.5,-354.5 1243.5,-354.5 1243.5,-354.5 1249.5,-354.5 1255.5,-360.5 1255.5,-366.5 1255.5,-366.5 1255.5,-383.5 1255.5,-383.5 1255.5,-389.5 1249.5,-395.5 1243.5,-395.5"/>
<text text-anchor="middle" x="1183.5" y="-383.5" font-family="DejaVu Sans" font-size="10.00">Adele (Sissi) Schlosser</text>
<text text-anchor="middle" x="1183.5" y="-372.5" font-family="DejaVu Sans" font-size="10.00">geb. Polasek</text>
<text text-anchor="middle" x="1183.5" y="-361.5" font-family="DejaVu Sans" font-size="10.00">*21.02.1954 &#160;+31.12.2023</text>
</g>
<!-- pol17&#45;&gt;pol18 -->
<!-- pol17&#45;&gt;pol18 -->
<!-- polS07 -->
<g id="P_polS07" class="node">
<title>polS07</title>
<path fill="#dbeafe" stroke="#333333" d="M1361.5,-393C1361.5,-393 1299.5,-393 1299.5,-393 1293.5,-393 1287.5,-387 1287.5,-381 1287.5,-381 1287.5,-369 1287.5,-369 1287.5,-363 1293.5,-357 1299.5,-357 1299.5,-357 1361.5,-357 1361.5,-357 1367.5,-357 1373.5,-363 1373.5,-369 1373.5,-369 1373.5,-381 1373.5,-381 1373.5,-387 1367.5,-393 1361.5,-393"/>
<text text-anchor="middle" x="1330.5" y="-378" font-family="DejaVu Sans" font-size="10.00">Paul Schlosser</text>
<text text-anchor="middle" x="1330.5" y="-367" font-family="DejaVu Sans" font-size="10.00">*19.08.1943</text>
</g>
<!-- pol17&#45;&gt;polS07 -->
<!-- M_polF7 -->
<g id="M_polF7" class="node">
<title>M_polF7</title>
<ellipse fill="#fff3b0" stroke="#b08900" cx="1318.5" cy="-281" rx="27" ry="18"/>
<text text-anchor="middle" x="1318.5" y="-278.8" font-family="DejaVu Sans" font-size="9.00">oo</text>
</g>
<!-- pol17&#45;&gt;M_polF7 -->
<g id="edge80" class="edge">
<title>pol17&#45;&gt;M_polF7</title>
<path fill="none" stroke="#555555" d="M1212.13,-354.49C1238.76,-336.34 1277.62,-309.86 1300.26,-294.43"/>
</g>
<!-- g3p05 -->
<g id="P_g3p05" class="node">
<title>g3p05</title>
<path fill="#dbeafe" stroke="#333333" d="M744,-36C744,-36 647,-36 647,-36 641,-36 635,-30 635,-24 635,-24 635,-12 635,-12 635,-6 641,0 647,0 647,0 744,0 744,0 750,0 756,-6 756,-12 756,-12 756,-24 756,-24 756,-30 750,-36 744,-36"/>
<text text-anchor="middle" x="695.5" y="-21" font-family="DejaVu Sans" font-size="10.00">Yannick Guttenberger</text>
<text text-anchor="middle" x="695.5" y="-10" font-family="DejaVu Sans" font-size="10.00">*13.09.2004</text>
</g>
<!-- g3p05&#45;&gt;g3p06 -->
<!-- polS04 -->
<g id="P_polS04" class="node">
<title>polS04</title>
<path fill="#fde7ef" stroke="#333333" d="M841,-395.5C841,-395.5 782,-395.5 782,-395.5 776,-395.5 770,-389.5 770,-383.5 770,-383.5 770,-366.5 770,-366.5 770,-360.5 776,-354.5 782,-354.5 782,-354.5 841,-354.5 841,-354.5 847,-354.5 853,-360.5 853,-366.5 853,-366.5 853,-383.5 853,-383.5 853,-389.5 847,-395.5 841,-395.5"/>
<text text-anchor="middle" x="811.5" y="-383.5" font-family="DejaVu Sans" font-size="10.00">Edith Polasek</text>
<text text-anchor="middle" x="811.5" y="-372.5" font-family="DejaVu Sans" font-size="10.00">geb. Billich</text>
<text text-anchor="middle" x="811.5" y="-361.5" font-family="DejaVu Sans" font-size="10.00">*26.10.1947</text>
</g>
<!-- polS04&#45;&gt;pol15 -->
<!-- polS04&#45;&gt;pol16 -->
<!-- M_polF4 -->
<g id="M_polF4" class="node">
<title>M_polF4</title>
<ellipse fill="#fff3b0" stroke="#b08900" cx="811.5" cy="-281" rx="27" ry="18"/>
<text text-anchor="middle" x="811.5" y="-278.8" font-family="DejaVu Sans" font-size="9.00">oo</text>
</g>
<!-- polS04&#45;&gt;M_polF4 -->
<g id="edge71" class="edge">
<title>polS04&#45;&gt;M_polF4</title>
<path fill="none" stroke="#555555" d="M811.5,-354.49C811.5,-338.03 811.5,-314.71 811.5,-299.01"/>
</g>
<!-- pol15&#45;&gt;polS05 -->
<!-- pol15&#45;&gt;polS05 -->
<!-- pol15&#45;&gt;polS04 -->
<!-- pol15&#45;&gt;polS04 -->
<!-- pol15&#45;&gt;polS04 -->
<!-- pol15&#45;&gt;pol16 -->
<!-- pol15&#45;&gt;M_polF5 -->
<g id="edge2" class="edge">
<title>pol15&#45;&gt;M_polF5</title>
<path fill="none" stroke="#555555" d="M637.82,-356.91C608.2,-338.62 561.96,-310.07 535.96,-294.02"/>
</g>
<!-- pol15&#45;&gt;M_polF4 -->
<g id="edge70" class="edge">
<title>pol15&#45;&gt;M_polF4</title>
<path fill="none" stroke="#555555" d="M692.62,-356.91C721.65,-338.62 766.95,-310.07 792.43,-294.02"/>
</g>
<!-- polS02&#45;&gt;pol11 -->
<!-- polS02&#45;&gt;M_polF2 -->
<g id="edge35" class="edge">
<title>polS02&#45;&gt;M_polF2</title>
<path fill="none" stroke="#555555" d="M1482.5,-539.41C1482.5,-524.25 1482.5,-502.21 1482.5,-487.05"/>
</g>
<!-- g2p15 -->
<g id="P_g2p15" class="node">
<title>g2p15</title>
<path fill="#dbeafe" stroke="#333333" d="M107,-36C107,-36 12,-36 12,-36 6,-36 0,-30 0,-24 0,-24 0,-12 0,-12 0,-6 6,0 12,0 12,0 107,0 107,0 113,0 119,-6 119,-12 119,-12 119,-24 119,-24 119,-30 113,-36 107,-36"/>
<text text-anchor="middle" x="59.5" y="-21" font-family="DejaVu Sans" font-size="10.00">Koa&#45;Miro Schultheiss</text>
<text text-anchor="middle" x="59.5" y="-10" font-family="DejaVu Sans" font-size="10.00">*29.08.2019</text>
</g>
<!-- g2p15&#45;&gt;g2p16 -->
<!-- pol22&#45;&gt;g3p04 -->
<!-- pol22&#45;&gt;g3p04 -->
<!-- pol22&#45;&gt;g3p04 -->
<!-- pol22&#45;&gt;M_g3F2 -->
<g id="edge39" class="edge">
<title>pol22&#45;&gt;M_g3F2</title>
<path fill="none" stroke="#555555" d="M1026.61,-174.41C1002.22,-157.67 965.64,-132.55 943.81,-117.57"/>
</g>
<!-- pol16&#45;&gt;polS06 -->
<!-- pol16&#45;&gt;pol17 -->
<!-- pol16&#45;&gt;pol17 -->
<!-- pol16&#45;&gt;M_polF6 -->
<g id="edge86" class="edge">
<title>pol16&#45;&gt;M_polF6</title>
<path fill="none" stroke="#555555" d="M1036.5,-354.49C1036.5,-338.03 1036.5,-314.71 1036.5,-299.01"/>
</g>
<!-- polS07&#45;&gt;pol17 -->
<!-- polS07&#45;&gt;pol17 -->
<!-- polS07&#45;&gt;pol17 -->
<!-- polS07&#45;&gt;M_polF7 -->
<g id="edge79" class="edge">
<title>polS07&#45;&gt;M_polF7</title>
<path fill="none" stroke="#555555" d="M1328.24,-356.7C1326.1,-340.25 1322.89,-315.65 1320.75,-299.23"/>
</g>
<!-- M_polF5&#45;&gt;pol21 -->
<g id="edge5" class="edge">
<title>M_polF5&#45;&gt;pol21</title>
<path fill="none" stroke="#555555" d="M516.3,-262.91C516.16,-250.94 515.98,-234.7 515.82,-220.93"/>
<polygon fill="#555555" stroke="#555555" points="519.31,-220.51 515.7,-210.55 512.31,-220.59 519.31,-220.51"/>
</g>
<!-- M_polF5&#45;&gt;pol20 -->
<g id="edge4" class="edge">
<title>M_polF5&#45;&gt;pol20</title>
<path fill="none" stroke="#555555" d="M498.47,-267.42C480.36,-254.79 451.95,-234.97 429.1,-219.03"/>
<polygon fill="#555555" stroke="#555555" points="430.85,-215.99 420.65,-213.13 426.85,-221.73 430.85,-215.99"/>
</g>
<!-- M_polF3&#45;&gt;pol18 -->
<g id="edge16" class="edge">
<title>M_polF3&#45;&gt;pol18</title>
<path fill="none" stroke="#555555" d="M1207.53,-460.18C1261.87,-442.51 1389.5,-401 1389.5,-401 1389.5,-401 1392.07,-399.85 1396.11,-398.05"/>
<polygon fill="#555555" stroke="#555555" points="1397.69,-401.18 1405.4,-393.9 1394.84,-394.78 1397.69,-401.18"/>
</g>
<!-- M_polF3&#45;&gt;pol17 -->
<g id="edge15" class="edge">
<title>M_polF3&#45;&gt;pol17</title>
<path fill="none" stroke="#555555" d="M1183.5,-450.7C1183.5,-438.13 1183.5,-420.81 1183.5,-406.01"/>
<polygon fill="#555555" stroke="#555555" points="1187,-405.78 1183.5,-395.78 1180,-405.78 1187,-405.78"/>
</g>
<!-- M_polF3&#45;&gt;pol15 -->
<g id="edge13" class="edge">
<title>M_polF3&#45;&gt;pol15</title>
<path fill="none" stroke="#555555" d="M1157.57,-463.96C1064.6,-449.47 753.5,-401 753.5,-401 753.5,-401 746.1,-398.9 735.59,-395.91"/>
<polygon fill="#555555" stroke="#555555" points="736.23,-392.46 725.66,-393.09 734.32,-399.19 736.23,-392.46"/>
</g>
<!-- M_polF3&#45;&gt;pol16 -->
<g id="edge14" class="edge">
<title>M_polF3&#45;&gt;pol16</title>
<path fill="none" stroke="#555555" d="M1164.28,-455.97C1142.07,-442.07 1104.9,-418.81 1076.36,-400.95"/>
<polygon fill="#555555" stroke="#555555" points="1078.14,-397.93 1067.81,-395.59 1074.43,-403.87 1078.14,-397.93"/>
</g>
<!-- M_g2F5&#45;&gt;g2p16 -->
<g id="edge31" class="edge">
<title>M_g2F5&#45;&gt;g2p16</title>
<path fill="none" stroke="#555555" d="M256.53,-87.2C249,-75.27 238.51,-58.65 229.78,-44.8"/>
<polygon fill="#555555" stroke="#555555" points="232.63,-42.76 224.34,-36.17 226.71,-46.5 232.63,-42.76"/>
</g>
<!-- M_g2F5&#45;&gt;g2p15 -->
<g id="edge30" class="edge">
<title>M_g2F5&#45;&gt;g2p15</title>
<path fill="none" stroke="#555555" d="M243.95,-93.85C212.29,-81 153.76,-57.25 111.1,-39.94"/>
<polygon fill="#555555" stroke="#555555" points="112.3,-36.65 101.71,-36.13 109.66,-43.13 112.3,-36.65"/>
</g>
<!-- M_polF2&#45;&gt;pol14 -->
<g id="edge36" class="edge">
<title>M_polF2&#45;&gt;pol14</title>
<path fill="none" stroke="#555555" d="M1507.41,-461.45C1571.58,-444.59 1737.5,-401 1737.5,-401 1737.5,-401 1740.85,-400.03 1746.23,-398.46"/>
<polygon fill="#555555" stroke="#555555" points="1747.54,-401.73 1756.16,-395.58 1745.58,-395.01 1747.54,-401.73"/>
</g>
<!-- M_g3F2&#45;&gt;g3p07 -->
<g id="edge43" class="edge">
<title>M_g3F2&#45;&gt;g3p07</title>
<path fill="none" stroke="#555555" d="M938.91,-88.37C950.18,-76.07 966.53,-58.24 979.83,-43.73"/>
<polygon fill="#555555" stroke="#555555" points="982.68,-45.8 986.85,-36.07 977.52,-41.07 982.68,-45.8"/>
</g>
<!-- M_g3F2&#45;&gt;g3p06 -->
<g id="edge42" class="edge">
<title>M_g3F2&#45;&gt;g3p06</title>
<path fill="none" stroke="#555555" d="M911.91,-87.98C900.82,-75.72 884.91,-58.13 871.93,-43.79"/>
<polygon fill="#555555" stroke="#555555" points="874.37,-41.27 865.07,-36.2 869.18,-45.97 874.37,-41.27"/>
</g>
<!-- M_g3F2&#45;&gt;g3p05 -->
<g id="edge41" class="edge">
<title>M_g3F2&#45;&gt;g3p05</title>
<path fill="none" stroke="#555555" d="M902.18,-94.48C867.24,-81.72 800.27,-57.26 752.01,-39.64"/>
<polygon fill="#555555" stroke="#555555" points="752.92,-36.24 742.32,-36.1 750.52,-42.82 752.92,-36.24"/>
</g>
<!-- M_g3F2&#45;&gt;g3p08 -->
<g id="edge44" class="edge">
<title>M_g3F2&#45;&gt;g3p08</title>
<path fill="none" stroke="#555555" d="M948.42,-94.33C982.24,-81.53 1046.51,-57.21 1092.89,-39.66"/>
<polygon fill="#555555" stroke="#555555" points="1094.38,-42.84 1102.5,-36.03 1091.91,-36.29 1094.38,-42.84"/>
</g>
<!-- M_pedF1&#45;&gt;ped02 -->
<g id="edge51" class="edge">
<title>M_pedF1&#45;&gt;ped02</title>
<path fill="none" stroke="#555555" d="M1896.5,-262.91C1896.5,-250.94 1896.5,-234.7 1896.5,-220.93"/>
<polygon fill="#555555" stroke="#555555" points="1900,-220.55 1896.5,-210.55 1893,-220.55 1900,-220.55"/>
</g>
<!-- M_g2F3&#45;&gt;g2p09 -->
<g id="edge56" class="edge">
<title>M_g2F3&#45;&gt;g2p09</title>
<path fill="none" stroke="#555555" d="M1197.3,-95.1C1235.98,-82.26 1313.59,-56.49 1367.73,-38.51"/>
<polygon fill="#555555" stroke="#555555" points="1369.17,-41.72 1377.55,-35.25 1366.96,-35.08 1369.17,-41.72"/>
</g>
<!-- M_g2F3&#45;&gt;g2p08 -->
<g id="edge55" class="edge">
<title>M_g2F3&#45;&gt;g2p08</title>
<path fill="none" stroke="#555555" d="M1191.12,-90.24C1208.69,-77.52 1236.07,-57.69 1257.49,-42.18"/>
<polygon fill="#555555" stroke="#555555" points="1259.62,-44.96 1265.67,-36.26 1255.52,-39.29 1259.62,-44.96"/>
</g>
<!-- M_g2F4&#45;&gt;g2p13 -->
<g id="edge66" class="edge">
<title>M_g2F4&#45;&gt;g2p13</title>
<path fill="none" stroke="#555555" d="M472.53,-89.88C488.98,-77.2 514.26,-57.72 534.16,-42.38"/>
<polygon fill="#555555" stroke="#555555" points="536.53,-44.98 542.31,-36.1 532.25,-39.43 536.53,-44.98"/>
</g>
<!-- M_g2F4&#45;&gt;g2p11 -->
<g id="edge64" class="edge">
<title>M_g2F4&#45;&gt;g2p11</title>
<path fill="none" stroke="#555555" d="M438.47,-89.88C422.02,-77.2 396.74,-57.72 376.84,-42.38"/>
<polygon fill="#555555" stroke="#555555" points="378.75,-39.43 368.69,-36.1 374.47,-44.98 378.75,-39.43"/>
</g>
<!-- M_g2F4&#45;&gt;g2p12 -->
<g id="edge65" class="edge">
<title>M_g2F4&#45;&gt;g2p12</title>
<path fill="none" stroke="#555555" d="M455.5,-85.6C455.5,-74.26 455.5,-59.23 455.5,-46.32"/>
<polygon fill="#555555" stroke="#555555" points="459,-46.1 455.5,-36.1 452,-46.1 459,-46.1"/>
</g>
<!-- M_polF4&#45;&gt;pol19 -->
<g id="edge72" class="edge">
<title>M_polF4&#45;&gt;pol19</title>
<path fill="none" stroke="#555555" d="M829.24,-267.42C847.99,-254.13 877.98,-232.86 900.99,-216.55"/>
<polygon fill="#555555" stroke="#555555" points="903.3,-219.2 909.43,-210.56 899.25,-213.49 903.3,-219.2"/>
</g>
<!-- M_polF9&#45;&gt;pol25 -->
<g id="edge77" class="edge">
<title>M_polF9&#45;&gt;pol25</title>
<path fill="none" stroke="#555555" d="M1556.5,-262.91C1556.5,-250.94 1556.5,-234.7 1556.5,-220.93"/>
<polygon fill="#555555" stroke="#555555" points="1560,-220.55 1556.5,-210.55 1553,-220.55 1560,-220.55"/>
</g>
<!-- M_polF7&#45;&gt;pol24 -->
<g id="edge82" class="edge">
<title>M_polF7&#45;&gt;pol24</title>
<path fill="none" stroke="#555555" d="M1335.51,-266.86C1352.69,-253.59 1379.59,-232.82 1400.38,-216.76"/>
<polygon fill="#555555" stroke="#555555" points="1402.53,-219.53 1408.3,-210.64 1398.25,-213.99 1402.53,-219.53"/>
</g>
<!-- M_polF7&#45;&gt;pol23 -->
<g id="edge81" class="edge">
<title>M_polF7&#45;&gt;pol23</title>
<path fill="none" stroke="#555555" d="M1316.13,-262.91C1314.45,-250.83 1312.17,-234.38 1310.25,-220.53"/>
<polygon fill="#555555" stroke="#555555" points="1313.71,-219.98 1308.87,-210.55 1306.77,-220.94 1313.71,-219.98"/>
</g>
<!-- M_polF6&#45;&gt;pol22 -->
<g id="edge87" class="edge">
<title>M_polF6&#45;&gt;pol22</title>
<path fill="none" stroke="#555555" d="M1039.46,-262.91C1041.56,-250.83 1044.41,-234.38 1046.81,-220.53"/>
<polygon fill="#555555" stroke="#555555" points="1050.28,-221.01 1048.54,-210.55 1043.39,-219.81 1050.28,-221.01"/>
</g>
</g>
</svg>
