<?xml version="1.0" encoding="UTF-8" standalone="no"?>
<!DOCTYPE svg PUBLIC "-//W3C//DTD SVG 1.1//EN"
 "http://www.w3.org/Graphics/SVG/1.1/DTD/svg11.dtd">
<!-- Generated by graphviz version 2.43.0 (0)
 -->
<!-- Title: %3 Pages: 1 -->
<svg width="1595pt" height="607pt"
 viewBox="0.00 0.00 1594.50 607.00" xmlns="http://www.w3.org/2000/svg" xmlns:xlink="http://www.w3.org/1999/xlink">
<style><![CDATA[
  g[id^="P_"], g[id^="M_"] { cursor: pointer; }
  .highlight ellipse, .highlight polygon, .highlight path, .highlight rect {
    stroke: #d00; stroke-width: 2.5;
  }
  @keyframes pulse { 0%,100%{opacity:1} 50%{opacity:.45} }
  .blink { animation: pulse 0.9s ease-in-out 3; }
]]></style>
<script><![CDATA[
(function(){
  var SPOUSE = {"P_pol11": ["P_polS02", "P_polS03"], "P_polS02": ["P_pol11"], "P_pol15": ["P_polS05", "P_polS04"], "P_polS05": ["P_pol15"], "P_polS06": ["P_pol16"], "P_pol16": ["P_polS06"], "P_polS08": ["P_pol18"], "P_pol18": ["P_polS08", "P_polS09"], "P_g2p10": ["P_pol20"], "P_pol20": ["P_g2p10"], "P_polS09": ["P_pol18"], "P_ped01": ["P_pol14"], "P_pol14": ["P_ped01"], "P_pol21": ["P_g2p14"], "P_g2p14": ["P_pol21"], "P_polS03": ["P_pol11"], "P_pol19": ["P_g2p07"], "P_g2p07": ["P_pol19"], "P_pol22": ["P_g3p04"], "P_g3p04": ["P_pol22"], "P_polS04": ["P_pol15"], "P_polS07": ["P_pol17"], "P_pol17": ["P_polS07"]};
  var FAMILY = {"M_polF2": ["P_pol11", "P_polS02", "P_pol14"], "M_polF5": ["P_pol15", "P_polS05", "P_pol20", "P_pol21"], "M_polF6": ["P_polS06", "P_pol16", "P_pol22"], "M_polF8": ["P_polS08", "P_pol18"], "M_g2F4": ["P_g2p10", "P_pol20", "P_g2p11", "P_g2p12", "P_g2p13"], "M_polF9": ["P_polS09", "P_pol18", "P_pol25"], "M_pedF1": ["P_ped01", "P_pol14", "P_ped02"], "M_g2F5": ["P_pol21", "P_g2p14", "P_g2p15", "P_g2p16"], "M_polF3": ["P_pol11", "P_polS03", "P_pol15", "P_pol16", "P_pol17", "P_pol18"], "M_g2F3": ["P_pol19", "P_g2p07", "P_g2p08", "P_g2p09"], "M_g3F2": ["P_pol22", "P_g3p04", "P_g3p05", "P_g3p06", "P_g3p07", "P_g3p08"], "M_polF4": ["P_pol15", "P_polS04", "P_pol19"], "M_polF7": ["P_polS07", "P_pol17", "P_pol23", "P_pol24"]};
  function clearHl(){ document.querySelectorAll('.blink').forEach(function(n){ n.classList.remove('blink'); n.classList.remove('highlight'); }); }
  function hl(id){ var el=document.getElementById(id); if(el){ el.classList.add('highlight'); el.classList.add('blink'); } }
  document.addEventListener('click', function(evt){
    var target = evt.target;
    var g = target.closest && target.closest('g[id^="P_"], g[id^="M_"]');
    if (!g) { while (target) { if (target.id && /^([PM]_)/.test(target.id) && target.tagName && target.tagName.toLowerCase() === 'g') { g = target; break; } target = target.parentNode; } }
    if (!g) return;
    var id = g.id; clearHl();
    if (/^P_/.test(id)) { (SPOUSE[id] || []).forEach(hl); }
    else if (/^M_/.test(id)) { hl(id); (FAMILY[id] || []).forEach(hl); }
  }, false);
})();
]]></script>

<g id="graph0" class="graph" transform="scale(1 1) rotate(0) translate(4 603)">
<title>%3</title>
<polygon fill="white" stroke="transparent" points="-4,4 -4,-603 1590.5,-603 1590.5,4 -4,4"/>
<text text-anchor="middle" x="793.25" y="-585.4" font-family="DejaVu Sans" font-size="12.00">Otto</text>
<!-- pol14 -->
<g id="P_pol14" class="node">
<title>pol14</title>
<path fill="#fde7ef" stroke="#333333" d="M277.5,-395.5C277.5,-395.5 160.5,-395.5 160.5,-395.5 154.5,-395.5 148.5,-389.5 148.5,-383.5 148.5,-383.5 148.5,-366.5 148.5,-366.5 148.5,-360.5 154.5,-354.5 160.5,-354.5 160.5,-354.5 277.5,-354.5 277.5,-354.5 283.5,-354.5 289.5,-360.5 289.5,-366.5 289.5,-366.5 289.5,-383.5 289.5,-383.5 289.5,-389.5 283.5,-395.5 277.5,-395.5"/>
<text text-anchor="middle" x="219" y="-383.5" font-family="DejaVu Sans" font-size="10.00">Gertrud (Traudl) Pedersen</text>
<text text-anchor="middle" x="219" y="-372.5" font-family="DejaVu Sans" font-size="10.00">geb. Polasek</text>
<text text-anchor="middle" x="219" y="-361.5" font-family="DejaVu Sans" font-size="10.00">*21.03.1944</text>
</g>
<!-- ped01 -->
<g id="P_ped01" class="node">
<title>ped01</title>
<path fill="#dbeafe" stroke="#333333" d="M104,-393C104,-393 42,-393 42,-393 36,-393 30,-387 30,-381 30,-381 30,-369 30,-369 30,-363 36,-357 42,-357 42,-357 104,-357 104,-357 110,-357 116,-363 116,-369 116,-369 116,-381 116,-381 116,-387 110,-393 104,-393"/>
<text text-anchor="middle" x="73" y="-378" font-family="DejaVu Sans" font-size="10.00">John Pedersen</text>
<text text-anchor="middle" x="73" y="-367" font-family="DejaVu Sans" font-size="10.00">*31.07.1938</text>
</g>
<!-- pol14&#45;&gt;ped01 -->
<!-- M_pedF1 -->
<g id="M_pedF1" class="node">
<title>M_pedF1</title>
<ellipse fill="#fff3b0" stroke="#b08900" cx="116" cy="-281" rx="27" ry="18"/>
<text text-anchor="middle" x="116" y="-278.8" font-family="DejaVu Sans" font-size="9.00">oo</text>
</g>
<!-- pol14&#45;&gt;M_pedF1 -->
<g id="edge37" class="edge">
<title>pol14&#45;&gt;M_pedF1</title>
<path fill="none" stroke="#555555" d="M197.16,-354.49C177.43,-336.87 148.91,-311.39 131.45,-295.8"/>
</g>
<!-- g2p13 -->
<g id="P_g2p13" class="node">
<title>g2p13</title>
<path fill="#dbeafe" stroke="#333333" d="M282,-36C282,-36 230,-36 230,-36 224,-36 218,-30 218,-24 218,-24 218,-12 218,-12 218,-6 224,0 230,0 230,0 282,0 282,0 288,0 294,-6 294,-12 294,-12 294,-24 294,-24 294,-30 288,-36 282,-36"/>
<text text-anchor="middle" x="256" y="-21" font-family="DejaVu Sans" font-size="10.00">Ben Niklaus</text>
<text text-anchor="middle" x="256" y="-10" font-family="DejaVu Sans" font-size="10.00">*14.10.2016</text>
</g>
<!-- g2p07 -->
<g id="P_g2p07" class="node">
<title>g2p07</title>
<path fill="#fde7ef" stroke="#333333" d="M1552.5,-213C1552.5,-213 1473.5,-213 1473.5,-213 1467.5,-213 1461.5,-207 1461.5,-201 1461.5,-201 1461.5,-184 1461.5,-184 1461.5,-178 1467.5,-172 1473.5,-172 1473.5,-172 1552.5,-172 1552.5,-172 1558.5,-172 1564.5,-178 1564.5,-184 1564.5,-184 1564.5,-201 1564.5,-201 1564.5,-207 1558.5,-213 1552.5,-213"/>
<text text-anchor="middle" x="1513" y="-201" font-family="DejaVu Sans" font-size="10.00">Elisabeth Polasek</text>
<text text-anchor="middle" x="1513" y="-190" font-family="DejaVu Sans" font-size="10.00">geb. Lackner</text>
<text text-anchor="middle" x="1513" y="-179" font-family="DejaVu Sans" font-size="10.00">*13.05.1973</text>
</g>
<!-- pol19 -->
<g id="P_pol19" class="node">
<title>pol19</title>
<path fill="#dbeafe" stroke="#333333" d="M1055.5,-210.5C1055.5,-210.5 984.5,-210.5 984.5,-210.5 978.5,-210.5 972.5,-204.5 972.5,-198.5 972.5,-198.5 972.5,-186.5 972.5,-186.5 972.5,-180.5 978.5,-174.5 984.5,-174.5 984.5,-174.5 1055.5,-174.5 1055.5,-174.5 1061.5,-174.5 1067.5,-180.5 1067.5,-186.5 1067.5,-186.5 1067.5,-198.5 1067.5,-198.5 1067.5,-204.5 1061.5,-210.5 1055.5,-210.5"/>
<text text-anchor="middle" x="1020" y="-195.5" font-family="DejaVu Sans" font-size="10.00">Richard Polasek</text>
<text text-anchor="middle" x="1020" y="-184.5" font-family="DejaVu Sans" font-size="10.00">*06.01.1976</text>
</g>
<!-- g2p07&#45;&gt;pol19 -->
<!-- M_g2F3 -->
<g id="M_g2F3" class="node">
<title>M_g2F3</title>
<ellipse fill="#fff3b0" stroke="#b08900" cx="1457" cy="-104" rx="27" ry="18"/>
<text text-anchor="middle" x="1457" y="-101.8" font-family="DejaVu Sans" font-size="9.00">oo</text>
</g>
<!-- g2p07&#45;&gt;M_g2F3 -->
<g id="edge64" class="edge">
<title>g2p07&#45;&gt;M_g2F3</title>
<path fill="none" stroke="#555555" d="M1500.29,-171.87C1490.29,-156.42 1476.53,-135.16 1467.23,-120.8"/>
</g>
<!-- polS05 -->
<g id="P_polS05" class="node">
<title>polS05</title>
<path fill="#fde7ef" stroke="#333333" d="M398.5,-395.5C398.5,-395.5 333.5,-395.5 333.5,-395.5 327.5,-395.5 321.5,-389.5 321.5,-383.5 321.5,-383.5 321.5,-366.5 321.5,-366.5 321.5,-360.5 327.5,-354.5 333.5,-354.5 333.5,-354.5 398.5,-354.5 398.5,-354.5 404.5,-354.5 410.5,-360.5 410.5,-366.5 410.5,-366.5 410.5,-383.5 410.5,-383.5 410.5,-389.5 404.5,-395.5 398.5,-395.5"/>
<text text-anchor="middle" x="366" y="-383.5" font-family="DejaVu Sans" font-size="10.00">Hanka Polasek</text>
<text text-anchor="middle" x="366" y="-372.5" font-family="DejaVu Sans" font-size="10.00">geb. Steindel</text>
<text text-anchor="middle" x="366" y="-361.5" font-family="DejaVu Sans" font-size="10.00">*10.06.1951</text>
</g>
<!-- pol15 -->
<g id="P_pol15" class="node">
<title>pol15</title>
<path fill="#dbeafe" stroke="#333333" d="M575,-393C575,-393 455,-393 455,-393 449,-393 443,-387 443,-381 443,-381 443,-369 443,-369 443,-363 449,-357 455,-357 455,-357 575,-357 575,-357 581,-357 587,-363 587,-369 587,-369 587,-381 587,-381 587,-387 581,-393 575,-393"/>
<text text-anchor="middle" x="515" y="-378" font-family="DejaVu Sans" font-size="10.00">Wolfgang Polasek</text>
<text text-anchor="middle" x="515" y="-367" font-family="DejaVu Sans" font-size="10.00">*19.06.1951 &#160;+23.05.2013</text>
</g>
<!-- polS05&#45;&gt;pol15 -->
<!-- M_polF5 -->
<g id="M_polF5" class="node">
<title>M_polF5</title>
<ellipse fill="#fff3b0" stroke="#b08900" cx="440" cy="-281" rx="27" ry="18"/>
<text text-anchor="middle" x="440" y="-278.8" font-family="DejaVu Sans" font-size="9.00">oo</text>
</g>
<!-- polS05&#45;&gt;M_polF5 -->
<g id="edge8" class="edge">
<title>polS05&#45;&gt;M_polF5</title>
<path fill="none" stroke="#555555" d="M381.69,-354.49C395.44,-337.4 415.14,-312.91 427.75,-297.23"/>
</g>
<!-- g3p06 -->
<g id="P_g3p06" class="node">
<title>g3p06</title>
<path fill="#fde7ef" stroke="#333333" d="M590,-36C590,-36 492,-36 492,-36 486,-36 480,-30 480,-24 480,-24 480,-12 480,-12 480,-6 486,0 492,0 492,0 590,0 590,0 596,0 602,-6 602,-12 602,-12 602,-24 602,-24 602,-30 596,-36 590,-36"/>
<text text-anchor="middle" x="541" y="-21" font-family="DejaVu Sans" font-size="10.00">Hannah Guttenberger</text>
<text text-anchor="middle" x="541" y="-10" font-family="DejaVu Sans" font-size="10.00">*05.02.2006</text>
</g>
<!-- g3p07 -->
<g id="P_g3p07" class="node">
<title>g3p07</title>
<path fill="#dbeafe" stroke="#333333" d="M741.5,-36C741.5,-36 646.5,-36 646.5,-36 640.5,-36 634.5,-30 634.5,-24 634.5,-24 634.5,-12 634.5,-12 634.5,-6 640.5,0 646.5,0 646.5,0 741.5,0 741.5,0 747.5,0 753.5,-6 753.5,-12 753.5,-12 753.5,-24 753.5,-24 753.5,-30 747.5,-36 741.5,-36"/>
<text text-anchor="middle" x="694" y="-21" font-family="DejaVu Sans" font-size="10.00">Nathan Guttenberger</text>
<text text-anchor="middle" x="694" y="-10" font-family="DejaVu Sans" font-size="10.00">*19.11.2007</text>
</g>
<!-- g3p06&#45;&gt;g3p07 -->
<!-- ped02 -->
<g id="P_ped02" class="node">
<title>ped02</title>
<path fill="#fde7ef" stroke="#333333" d="M144,-210.5C144,-210.5 88,-210.5 88,-210.5 82,-210.5 76,-204.5 76,-198.5 76,-198.5 76,-186.5 76,-186.5 76,-180.5 82,-174.5 88,-174.5 88,-174.5 144,-174.5 144,-174.5 150,-174.5 156,-180.5 156,-186.5 156,-186.5 156,-198.5 156,-198.5 156,-204.5 150,-210.5 144,-210.5"/>
<text text-anchor="middle" x="116" y="-195.5" font-family="DejaVu Sans" font-size="10.00">Pia Pedersen</text>
<text text-anchor="middle" x="116" y="-184.5" font-family="DejaVu Sans" font-size="10.00">*10.04.1971</text>
</g>
<!-- g2p08 -->
<g id="P_g2p08" class="node">
<title>g2p08</title>
<path fill="#dbeafe" stroke="#333333" d="M1445.5,-36C1445.5,-36 1356.5,-36 1356.5,-36 1350.5,-36 1344.5,-30 1344.5,-24 1344.5,-24 1344.5,-12 1344.5,-12 1344.5,-6 1350.5,0 1356.5,0 1356.5,0 1445.5,0 1445.5,0 1451.5,0 1457.5,-6 1457.5,-12 1457.5,-12 1457.5,-24 1457.5,-24 1457.5,-30 1451.5,-36 1445.5,-36"/>
<text text-anchor="middle" x="1401" y="-21" font-family="DejaVu Sans" font-size="10.00">Maximilian Polasek</text>
<text text-anchor="middle" x="1401" y="-10" font-family="DejaVu Sans" font-size="10.00">*09.12.2001</text>
</g>
<!-- g2p09 -->
<g id="P_g2p09" class="node">
<title>g2p09</title>
<path fill="#fde7ef" stroke="#333333" d="M1574.5,-36C1574.5,-36 1501.5,-36 1501.5,-36 1495.5,-36 1489.5,-30 1489.5,-24 1489.5,-24 1489.5,-12 1489.5,-12 1489.5,-6 1495.5,0 1501.5,0 1501.5,0 1574.5,0 1574.5,0 1580.5,0 1586.5,-6 1586.5,-12 1586.5,-12 1586.5,-24 1586.5,-24 1586.5,-30 1580.5,-36 1574.5,-36"/>
<text text-anchor="middle" x="1538" y="-21" font-family="DejaVu Sans" font-size="10.00">Johanna Polasek</text>
<text text-anchor="middle" x="1538" y="-10" font-family="DejaVu Sans" font-size="10.00">*12.07.2006</text>
</g>
<!-- g2p08&#45;&gt;g2p09 -->
<!-- pol25 -->
<g id="P_pol25" class="node">
<title>pol25</title>
<path fill="#dbeafe" stroke="#333333" d="M1417,-210.5C1417,-210.5 1359,-210.5 1359,-210.5 1353,-210.5 1347,-204.5 1347,-198.5 1347,-198.5 1347,-186.5 1347,-186.5 1347,-180.5 1353,-174.5 1359,-174.5 1359,-174.5 1417,-174.5 1417,-174.5 1423,-174.5 1429,-180.5 1429,-186.5 1429,-186.5 1429,-198.5 1429,-198.5 1429,-204.5 1423,-210.5 1417,-210.5"/>
<text text-anchor="middle" x="1388" y="-195.5" font-family="DejaVu Sans" font-size="10.00">Julian Kessler</text>
<text text-anchor="middle" x="1388" y="-184.5" font-family="DejaVu Sans" font-size="10.00">*28.01.1998</text>
</g>
<!-- polS07 -->
<g id="P_polS07" class="node">
<title>polS07</title>
<path fill="#dbeafe" stroke="#333333" d="M1211,-393C1211,-393 1149,-393 1149,-393 1143,-393 1137,-387 1137,-381 1137,-381 1137,-369 1137,-369 1137,-363 1143,-357 1149,-357 1149,-357 1211,-357 1211,-357 1217,-357 1223,-363 1223,-369 1223,-369 1223,-381 1223,-381 1223,-387 1217,-393 1211,-393"/>
<text text-anchor="middle" x="1180" y="-378" font-family="DejaVu Sans" font-size="10.00">Paul Schlosser</text>
<text text-anchor="middle" x="1180" y="-367" font-family="DejaVu Sans" font-size="10.00">*19.08.1943</text>
</g>
<!-- pol17 -->
<g id="P_pol17" class="node">
<title>pol17</title>
<path fill="#fde7ef" stroke="#333333" d="M1093,-395.5C1093,-395.5 973,-395.5 973,-395.5 967,-395.5 961,-389.5 961,-383.5 961,-383.5 961,-366.5 961,-366.5 961,-360.5 967,-354.5 973,-354.5 973,-354.5 1093,-354.5 1093,-354.5 1099,-354.5 1105,-360.5 1105,-366.5 1105,-366.5 1105,-383.5 1105,-383.5 1105,-389.5 1099,-395.5 1093,-395.5"/>
<text text-anchor="middle" x="1033" y="-383.5" font-family="DejaVu Sans" font-size="10.00">Adele (Sissi) Schlosser</text>
<text text-anchor="middle" x="1033" y="-372.5" font-family="DejaVu Sans" font-size="10.00">geb. Polasek</text>
<text text-anchor="middle" x="1033" y="-361.5" font-family="DejaVu Sans" font-size="10.00">*21.02.1954 &#160;+31.12.2023</text>
</g>
<!-- polS07&#45;&gt;pol17 -->
<!-- polS07&#45;&gt;pol17 -->
<!-- polS07&#45;&gt;pol17 -->
<!-- M_polF7 -->
<g id="M_polF7" class="node">
<title>M_polF7</title>
<ellipse fill="#fff3b0" stroke="#b08900" cx="1162" cy="-281" rx="27" ry="18"/>
<text text-anchor="middle" x="1162" y="-278.8" font-family="DejaVu Sans" font-size="9.00">oo</text>
</g>
<!-- polS07&#45;&gt;M_polF7 -->
<g id="edge84" class="edge">
<title>polS07&#45;&gt;M_polF7</title>
<path fill="none" stroke="#555555" d="M1176.61,-356.7C1173.38,-340.14 1168.52,-315.34 1165.31,-298.92"/>
</g>
<!-- pol19&#45;&gt;g2p07 -->
<!-- pol19&#45;&gt;g2p07 -->
<!-- pol19&#45;&gt;g2p07 -->
<!-- pol19&#45;&gt;M_g2F3 -->
<g id="edge63" class="edge">
<title>pol19&#45;&gt;M_g2F3</title>
<path fill="none" stroke="#555555" d="M1067.52,-177.02C1076.94,-174.15 1084,-172 1084,-172 1084,-172 1346.48,-124.85 1431.07,-109.66"/>
</g>
<!-- pol20 -->
<g id="P_pol20" class="node">
<title>pol20</title>
<path fill="#fde7ef" stroke="#333333" d="M290,-213C290,-213 222,-213 222,-213 216,-213 210,-207 210,-201 210,-201 210,-184 210,-184 210,-178 216,-172 222,-172 222,-172 290,-172 290,-172 296,-172 302,-178 302,-184 302,-184 302,-201 302,-201 302,-207 296,-213 290,-213"/>
<text text-anchor="middle" x="256" y="-201" font-family="DejaVu Sans" font-size="10.00">Bettina Niklaus</text>
<text text-anchor="middle" x="256" y="-190" font-family="DejaVu Sans" font-size="10.00">geb. Polasek</text>
<text text-anchor="middle" x="256" y="-179" font-family="DejaVu Sans" font-size="10.00">*12.04.1983</text>
</g>
<!-- pol21 -->
<g id="P_pol21" class="node">
<title>pol21</title>
<path fill="#dbeafe" stroke="#333333" d="M799.5,-210.5C799.5,-210.5 734.5,-210.5 734.5,-210.5 728.5,-210.5 722.5,-204.5 722.5,-198.5 722.5,-198.5 722.5,-186.5 722.5,-186.5 722.5,-180.5 728.5,-174.5 734.5,-174.5 734.5,-174.5 799.5,-174.5 799.5,-174.5 805.5,-174.5 811.5,-180.5 811.5,-186.5 811.5,-186.5 811.5,-198.5 811.5,-198.5 811.5,-204.5 805.5,-210.5 799.5,-210.5"/>
<text text-anchor="middle" x="767" y="-195.5" font-family="DejaVu Sans" font-size="10.00">Daniel Polasek</text>
<text text-anchor="middle" x="767" y="-184.5" font-family="DejaVu Sans" font-size="10.00">*15.05.1986</text>
</g>
<!-- pol20&#45;&gt;pol21 -->
<!-- pol20&#45;&gt;pol21 -->
<!-- g2p10 -->
<g id="P_g2p10" class="node">
<title>g2p10</title>
<path fill="#dbeafe" stroke="#333333" d="M421.5,-210.5C421.5,-210.5 346.5,-210.5 346.5,-210.5 340.5,-210.5 334.5,-204.5 334.5,-198.5 334.5,-198.5 334.5,-186.5 334.5,-186.5 334.5,-180.5 340.5,-174.5 346.5,-174.5 346.5,-174.5 421.5,-174.5 421.5,-174.5 427.5,-174.5 433.5,-180.5 433.5,-186.5 433.5,-186.5 433.5,-198.5 433.5,-198.5 433.5,-204.5 427.5,-210.5 421.5,-210.5"/>
<text text-anchor="middle" x="384" y="-195.5" font-family="DejaVu Sans" font-size="10.00">Matthias Niklaus</text>
<text text-anchor="middle" x="384" y="-184.5" font-family="DejaVu Sans" font-size="10.00">*15.09.1981</text>
</g>
<!-- pol20&#45;&gt;g2p10 -->
<!-- M_g2F4 -->
<g id="M_g2F4" class="node">
<title>M_g2F4</title>
<ellipse fill="#fff3b0" stroke="#b08900" cx="256" cy="-104" rx="27" ry="18"/>
<text text-anchor="middle" x="256" y="-101.8" font-family="DejaVu Sans" font-size="9.00">oo</text>
</g>
<!-- pol20&#45;&gt;M_g2F4 -->
<g id="edge25" class="edge">
<title>pol20&#45;&gt;M_g2F4</title>
<path fill="none" stroke="#555555" d="M256,-171.87C256,-156.92 256,-136.53 256,-122.21"/>
</g>
<!-- pol17&#45;&gt;polS07 -->
<!-- pol18 -->
<g id="P_pol18" class="node">
<title>pol18</title>
<path fill="#fde7ef" stroke="#333333" d="M1323,-401C1323,-401 1267,-401 1267,-401 1261,-401 1255,-395 1255,-389 1255,-389 1255,-361 1255,-361 1255,-355 1261,-349 1267,-349 1267,-349 1323,-349 1323,-349 1329,-349 1335,-355 1335,-361 1335,-361 1335,-389 1335,-389 1335,-395 1329,-401 1323,-401"/>
<text text-anchor="middle" x="1295" y="-389" font-family="DejaVu Sans" font-size="10.00">Doris Kessler</text>
<text text-anchor="middle" x="1295" y="-378" font-family="DejaVu Sans" font-size="10.00">geb. Polasek</text>
<text text-anchor="middle" x="1295" y="-367" font-family="DejaVu Sans" font-size="10.00">verh. Vogl</text>
<text text-anchor="middle" x="1295" y="-356" font-family="DejaVu Sans" font-size="10.00">*03.02.1959</text>
</g>
<!-- pol17&#45;&gt;pol18 -->
<!-- pol17&#45;&gt;pol18 -->
<!-- pol17&#45;&gt;M_polF7 -->
<g id="edge85" class="edge">
<title>pol17&#45;&gt;M_polF7</title>
<path fill="none" stroke="#555555" d="M1060.36,-354.49C1085.65,-336.45 1122.51,-310.17 1144.19,-294.7"/>
</g>
<!-- polS02 -->
<g id="P_polS02" class="node">
<title>polS02</title>
<path fill="#fde7ef" stroke="#333333" d="M517.5,-575.5C517.5,-575.5 440.5,-575.5 440.5,-575.5 434.5,-575.5 428.5,-569.5 428.5,-563.5 428.5,-563.5 428.5,-551.5 428.5,-551.5 428.5,-545.5 434.5,-539.5 440.5,-539.5 440.5,-539.5 517.5,-539.5 517.5,-539.5 523.5,-539.5 529.5,-545.5 529.5,-551.5 529.5,-551.5 529.5,-563.5 529.5,-563.5 529.5,-569.5 523.5,-575.5 517.5,-575.5"/>
<text text-anchor="middle" x="479" y="-560.5" font-family="DejaVu Sans" font-size="10.00">Gertrude Polasek</text>
<text text-anchor="middle" x="479" y="-549.5" font-family="DejaVu Sans" font-size="10.00">geb. Winkler</text>
</g>
<!-- pol11 -->
<g id="P_pol11" class="node">
<title>pol11</title>
<path fill="#dbeafe" stroke="#111111" stroke-width="1.8" d="M694,-575.5C694,-575.5 574,-575.5 574,-575.5 568,-575.5 562,-569.5 562,-563.5 562,-563.5 562,-551.5 562,-551.5 562,-545.5 568,-539.5 574,-539.5 574,-539.5 694,-539.5 694,-539.5 700,-539.5 706,-545.5 706,-551.5 706,-551.5 706,-563.5 706,-563.5 706,-569.5 700,-575.5 694,-575.5"/>
<text text-anchor="middle" x="634" y="-560.5" font-family="DejaVu Sans" font-size="10.00">Otto Polasek</text>
<text text-anchor="middle" x="634" y="-549.5" font-family="DejaVu Sans" font-size="10.00">*14.09.1912 &#160;+01.11.1994</text>
</g>
<!-- polS02&#45;&gt;pol11 -->
<!-- M_polF2 -->
<g id="M_polF2" class="node">
<title>M_polF2</title>
<ellipse fill="#fff3b0" stroke="#b08900" cx="479" cy="-469" rx="27" ry="18"/>
<text text-anchor="middle" x="479" y="-466.8" font-family="DejaVu Sans" font-size="9.00">oo</text>
</g>
<!-- polS02&#45;&gt;M_polF2 -->
<g id="edge3" class="edge">
<title>polS02&#45;&gt;M_polF2</title>
<path fill="none" stroke="#555555" d="M479,-539.41C479,-524.25 479,-502.21 479,-487.05"/>
</g>
<!-- pol24 -->
<g id="P_pol24" class="node">
<title>pol24</title>
<path fill="#fde7ef" stroke="#333333" d="M1303,-210.5C1303,-210.5 1235,-210.5 1235,-210.5 1229,-210.5 1223,-204.5 1223,-198.5 1223,-198.5 1223,-186.5 1223,-186.5 1223,-180.5 1229,-174.5 1235,-174.5 1235,-174.5 1303,-174.5 1303,-174.5 1309,-174.5 1315,-180.5 1315,-186.5 1315,-186.5 1315,-198.5 1315,-198.5 1315,-204.5 1309,-210.5 1303,-210.5"/>
<text text-anchor="middle" x="1269" y="-195.5" font-family="DejaVu Sans" font-size="10.00">Karin Schlosser</text>
<text text-anchor="middle" x="1269" y="-184.5" font-family="DejaVu Sans" font-size="10.00">*23.11.1977</text>
</g>
<!-- pol11&#45;&gt;polS02 -->
<!-- pol11&#45;&gt;polS02 -->
<!-- polS03 -->
<g id="P_polS03" class="node">
<title>polS03</title>
<path fill="#fde7ef" stroke="#333333" d="M806,-578C806,-578 750,-578 750,-578 744,-578 738,-572 738,-566 738,-566 738,-549 738,-549 738,-543 744,-537 750,-537 750,-537 806,-537 806,-537 812,-537 818,-543 818,-549 818,-549 818,-566 818,-566 818,-572 812,-578 806,-578"/>
<text text-anchor="middle" x="778" y="-566" font-family="DejaVu Sans" font-size="10.00">Inge Polasek</text>
<text text-anchor="middle" x="778" y="-555" font-family="DejaVu Sans" font-size="10.00">geb. Rokitzki</text>
<text text-anchor="middle" x="778" y="-544" font-family="DejaVu Sans" font-size="10.00">*11.02.1928</text>
</g>
<!-- pol11&#45;&gt;polS03 -->
<!-- pol11&#45;&gt;polS03 -->
<!-- pol11&#45;&gt;M_polF2 -->
<g id="edge2" class="edge">
<title>pol11&#45;&gt;M_polF2</title>
<path fill="none" stroke="#555555" d="M603.38,-539.41C572.5,-522.18 525.71,-496.07 499.2,-481.27"/>
</g>
<!-- M_polF3 -->
<g id="M_polF3" class="node">
<title>M_polF3</title>
<ellipse fill="#fff3b0" stroke="#b08900" cx="778" cy="-469" rx="27" ry="18"/>
<text text-anchor="middle" x="778" y="-466.8" font-family="DejaVu Sans" font-size="9.00">oo</text>
</g>
<!-- pol11&#45;&gt;M_polF3 -->
<g id="edge46" class="edge">
<title>pol11&#45;&gt;M_polF3</title>
<path fill="none" stroke="#555555" d="M662.45,-539.41C690.81,-522.37 733.61,-496.67 758.38,-481.79"/>
</g>
<!-- g2p14 -->
<g id="P_g2p14" class="node">
<title>g2p14</title>
<path fill="#fde7ef" stroke="#333333" d="M928,-210.5C928,-210.5 856,-210.5 856,-210.5 850,-210.5 844,-204.5 844,-198.5 844,-198.5 844,-186.5 844,-186.5 844,-180.5 850,-174.5 856,-174.5 856,-174.5 928,-174.5 928,-174.5 934,-174.5 940,-180.5 940,-186.5 940,-186.5 940,-198.5 940,-198.5 940,-204.5 934,-210.5 928,-210.5"/>
<text text-anchor="middle" x="892" y="-195.5" font-family="DejaVu Sans" font-size="10.00">Julia Schultheiss</text>
<text text-anchor="middle" x="892" y="-184.5" font-family="DejaVu Sans" font-size="10.00">*29.04.1986</text>
</g>
<!-- g2p14&#45;&gt;pol21 -->
<!-- M_g2F5 -->
<g id="M_g2F5" class="node">
<title>M_g2F5</title>
<ellipse fill="#fff3b0" stroke="#b08900" cx="892" cy="-104" rx="27" ry="18"/>
<text text-anchor="middle" x="892" y="-101.8" font-family="DejaVu Sans" font-size="9.00">oo</text>
</g>
<!-- g2p14&#45;&gt;M_g2F5 -->
<g id="edge41" class="edge">
<title>g2p14&#45;&gt;M_g2F5</title>
<path fill="none" stroke="#555555" d="M892,-174.41C892,-159.25 892,-137.21 892,-122.05"/>
</g>
<!-- g3p04 -->
<g id="P_g3p04" class="node">
<title>g3p04</title>
<path fill="#fde7ef" stroke="#333333" d="M678,-210.5C678,-210.5 586,-210.5 586,-210.5 580,-210.5 574,-204.5 574,-198.5 574,-198.5 574,-186.5 574,-186.5 574,-180.5 580,-174.5 586,-174.5 586,-174.5 678,-174.5 678,-174.5 684,-174.5 690,-180.5 690,-186.5 690,-186.5 690,-198.5 690,-198.5 690,-204.5 684,-210.5 678,-210.5"/>
<text text-anchor="middle" x="632" y="-195.5" font-family="DejaVu Sans" font-size="10.00">Carina Guttenberger</text>
<text text-anchor="middle" x="632" y="-184.5" font-family="DejaVu Sans" font-size="10.00">*30.03.1982</text>
</g>
<!-- pol22 -->
<g id="P_pol22" class="node">
<title>pol22</title>
<path fill="#dbeafe" stroke="#333333" d="M530,-210.5C530,-210.5 478,-210.5 478,-210.5 472,-210.5 466,-204.5 466,-198.5 466,-198.5 466,-186.5 466,-186.5 466,-180.5 472,-174.5 478,-174.5 478,-174.5 530,-174.5 530,-174.5 536,-174.5 542,-180.5 542,-186.5 542,-186.5 542,-198.5 542,-198.5 542,-204.5 536,-210.5 530,-210.5"/>
<text text-anchor="middle" x="504" y="-195.5" font-family="DejaVu Sans" font-size="10.00">Oliver Koch</text>
<text text-anchor="middle" x="504" y="-184.5" font-family="DejaVu Sans" font-size="10.00">*10.10.1974</text>
</g>
<!-- g3p04&#45;&gt;pol22 -->
<!-- M_g3F2 -->
<g id="M_g3F2" class="node">
<title>M_g3F2</title>
<ellipse fill="#fff3b0" stroke="#b08900" cx="587" cy="-104" rx="27" ry="18"/>
<text text-anchor="middle" x="587" y="-101.8" font-family="DejaVu Sans" font-size="9.00">oo</text>
</g>
<!-- g3p04&#45;&gt;M_g3F2 -->
<g id="edge70" class="edge">
<title>g3p04&#45;&gt;M_g3F2</title>
<path fill="none" stroke="#555555" d="M623.11,-174.41C615.07,-158.95 603.31,-136.35 595.42,-121.18"/>
</g>
<!-- polS06 -->
<g id="P_polS06" class="node">
<title>polS06</title>
<path fill="#dbeafe" stroke="#333333" d="M917,-393C917,-393 865,-393 865,-393 859,-393 853,-387 853,-381 853,-381 853,-369 853,-369 853,-363 859,-357 865,-357 865,-357 917,-357 917,-357 923,-357 929,-363 929,-369 929,-369 929,-381 929,-381 929,-387 923,-393 917,-393"/>
<text text-anchor="middle" x="891" y="-378" font-family="DejaVu Sans" font-size="10.00">Igo Koch</text>
<text text-anchor="middle" x="891" y="-367" font-family="DejaVu Sans" font-size="10.00">*29.07.1947</text>
</g>
<!-- pol16 -->
<g id="P_pol16" class="node">
<title>pol16</title>
<path fill="#fde7ef" stroke="#333333" d="M809,-395.5C809,-395.5 747,-395.5 747,-395.5 741,-395.5 735,-389.5 735,-383.5 735,-383.5 735,-366.5 735,-366.5 735,-360.5 741,-354.5 747,-354.5 747,-354.5 809,-354.5 809,-354.5 815,-354.5 821,-360.5 821,-366.5 821,-366.5 821,-383.5 821,-383.5 821,-389.5 815,-395.5 809,-395.5"/>
<text text-anchor="middle" x="778" y="-383.5" font-family="DejaVu Sans" font-size="10.00">Christine Koch</text>
<text text-anchor="middle" x="778" y="-372.5" font-family="DejaVu Sans" font-size="10.00">geb. Polasek</text>
<text text-anchor="middle" x="778" y="-361.5" font-family="DejaVu Sans" font-size="10.00">*19.07.1952</text>
</g>
<!-- polS06&#45;&gt;pol16 -->
<!-- polS06&#45;&gt;pol16 -->
<!-- polS06&#45;&gt;pol16 -->
<!-- M_polF6 -->
<g id="M_polF6" class="node">
<title>M_polF6</title>
<ellipse fill="#fff3b0" stroke="#b08900" cx="778" cy="-281" rx="27" ry="18"/>
<text text-anchor="middle" x="778" y="-278.8" font-family="DejaVu Sans" font-size="9.00">oo</text>
</g>
<!-- polS06&#45;&gt;M_polF6 -->
<g id="edge16" class="edge">
<title>polS06&#45;&gt;M_polF6</title>
<path fill="none" stroke="#555555" d="M870.01,-356.91C848.18,-339.14 814.46,-311.69 794.48,-295.41"/>
</g>
<!-- pol22&#45;&gt;g3p04 -->
<!-- pol22&#45;&gt;g3p04 -->
<!-- pol22&#45;&gt;g3p04 -->
<!-- pol22&#45;&gt;M_g3F2 -->
<g id="edge69" class="edge">
<title>pol22&#45;&gt;M_g3F2</title>
<path fill="none" stroke="#555555" d="M520.4,-174.41C535.8,-158.36 558.59,-134.61 573.11,-119.47"/>
</g>
<!-- pol21&#45;&gt;g2p14 -->
<!-- pol21&#45;&gt;g2p14 -->
<!-- pol21&#45;&gt;g2p14 -->
<!-- pol21&#45;&gt;M_g2F5 -->
<g id="edge40" class="edge">
<title>pol21&#45;&gt;M_g2F5</title>
<path fill="none" stroke="#555555" d="M791.7,-174.41C815.89,-157.67 852.18,-132.55 873.84,-117.57"/>
</g>
<!-- polS08 -->
<g id="P_polS08" class="node">
<title>polS08</title>
<path fill="#dbeafe" stroke="#333333" d="M1558.5,-393C1558.5,-393 1497.5,-393 1497.5,-393 1491.5,-393 1485.5,-387 1485.5,-381 1485.5,-381 1485.5,-369 1485.5,-369 1485.5,-363 1491.5,-357 1497.5,-357 1497.5,-357 1558.5,-357 1558.5,-357 1564.5,-357 1570.5,-363 1570.5,-369 1570.5,-369 1570.5,-381 1570.5,-381 1570.5,-387 1564.5,-393 1558.5,-393"/>
<text text-anchor="middle" x="1528" y="-378" font-family="DejaVu Sans" font-size="10.00">Burkhard Vogl</text>
<text text-anchor="middle" x="1528" y="-367" font-family="DejaVu Sans" font-size="10.00">*11.01.1950</text>
</g>
<!-- polS08&#45;&gt;pol18 -->
<!-- polS08&#45;&gt;pol18 -->
<!-- polS08&#45;&gt;pol18 -->
<!-- M_polF8 -->
<g id="M_polF8" class="node">
<title>M_polF8</title>
<ellipse fill="#fff3b0" stroke="#b08900" cx="1501" cy="-281" rx="27" ry="18"/>
<text text-anchor="middle" x="1501" y="-278.8" font-family="DejaVu Sans" font-size="9.00">oo</text>
</g>
<!-- polS08&#45;&gt;M_polF8 -->
<g id="edge21" class="edge">
<title>polS08&#45;&gt;M_polF8</title>
<path fill="none" stroke="#555555" d="M1522.92,-356.7C1518.06,-340.14 1510.78,-315.34 1505.96,-298.92"/>
</g>
<!-- pol18&#45;&gt;polS08 -->
<!-- polS09 -->
<g id="P_polS09" class="node">
<title>polS09</title>
<path fill="#dbeafe" stroke="#333333" d="M1441,-393C1441,-393 1379,-393 1379,-393 1373,-393 1367,-387 1367,-381 1367,-381 1367,-369 1367,-369 1367,-363 1373,-357 1379,-357 1379,-357 1441,-357 1441,-357 1447,-357 1453,-363 1453,-369 1453,-369 1453,-381 1453,-381 1453,-387 1447,-393 1441,-393"/>
<text text-anchor="middle" x="1410" y="-378" font-family="DejaVu Sans" font-size="10.00">Jürgen Kessler</text>
<text text-anchor="middle" x="1410" y="-367" font-family="DejaVu Sans" font-size="10.00">*06.12.1946</text>
</g>
<!-- pol18&#45;&gt;polS09 -->
<!-- pol18&#45;&gt;M_polF8 -->
<g id="edge22" class="edge">
<title>pol18&#45;&gt;M_polF8</title>
<path fill="none" stroke="#555555" d="M1335.21,-356.04C1378.3,-336.8 1445.09,-306.97 1479.26,-291.71"/>
</g>
<!-- M_polF9 -->
<g id="M_polF9" class="node">
<title>M_polF9</title>
<ellipse fill="#fff3b0" stroke="#b08900" cx="1388" cy="-281" rx="27" ry="18"/>
<text text-anchor="middle" x="1388" y="-278.8" font-family="DejaVu Sans" font-size="9.00">oo</text>
</g>
<!-- pol18&#45;&gt;M_polF9 -->
<g id="edge33" class="edge">
<title>pol18&#45;&gt;M_polF9</title>
<path fill="none" stroke="#555555" d="M1320.41,-348.86C1337.51,-331.94 1359.45,-310.25 1373.61,-296.24"/>
</g>
<!-- g2p10&#45;&gt;pol20 -->
<!-- g2p10&#45;&gt;pol20 -->
<!-- g2p10&#45;&gt;pol20 -->
<!-- g2p10&#45;&gt;M_g2F4 -->
<g id="edge24" class="edge">
<title>g2p10&#45;&gt;M_g2F4</title>
<path fill="none" stroke="#555555" d="M358.71,-174.41C333.79,-157.57 296.34,-132.26 274.21,-117.31"/>
</g>
<!-- g2p11 -->
<g id="P_g2p11" class="node">
<title>g2p11</title>
<path fill="#dbeafe" stroke="#333333" d="M64,-36C64,-36 12,-36 12,-36 6,-36 0,-30 0,-24 0,-24 0,-12 0,-12 0,-6 6,0 12,0 12,0 64,0 64,0 70,0 76,-6 76,-12 76,-12 76,-24 76,-24 76,-30 70,-36 64,-36"/>
<text text-anchor="middle" x="38" y="-21" font-family="DejaVu Sans" font-size="10.00">Tim Niklaus</text>
<text text-anchor="middle" x="38" y="-10" font-family="DejaVu Sans" font-size="10.00">*23.10.2012</text>
</g>
<!-- g2p12 -->
<g id="P_g2p12" class="node">
<title>g2p12</title>
<path fill="#fde7ef" stroke="#333333" d="M173.5,-36C173.5,-36 120.5,-36 120.5,-36 114.5,-36 108.5,-30 108.5,-24 108.5,-24 108.5,-12 108.5,-12 108.5,-6 114.5,0 120.5,0 120.5,0 173.5,0 173.5,0 179.5,0 185.5,-6 185.5,-12 185.5,-12 185.5,-24 185.5,-24 185.5,-30 179.5,-36 173.5,-36"/>
<text text-anchor="middle" x="147" y="-21" font-family="DejaVu Sans" font-size="10.00">Lina Niklaus</text>
<text text-anchor="middle" x="147" y="-10" font-family="DejaVu Sans" font-size="10.00">*24.08.2014</text>
</g>
<!-- g2p11&#45;&gt;g2p12 -->
<!-- pol16&#45;&gt;pol17 -->
<!-- pol16&#45;&gt;pol17 -->
<!-- pol16&#45;&gt;polS06 -->
<!-- pol16&#45;&gt;M_polF6 -->
<g id="edge17" class="edge">
<title>pol16&#45;&gt;M_polF6</title>
<path fill="none" stroke="#555555" d="M778,-354.49C778,-338.03 778,-314.71 778,-299.01"/>
</g>
<!-- polS03&#45;&gt;pol11 -->
<!-- polS03&#45;&gt;M_polF3 -->
<g id="edge47" class="edge">
<title>polS03&#45;&gt;M_polF3</title>
<path fill="none" stroke="#555555" d="M778,-536.87C778,-521.92 778,-501.53 778,-487.21"/>
</g>
<!-- g2p15 -->
<g id="P_g2p15" class="node">
<title>g2p15</title>
<path fill="#dbeafe" stroke="#333333" d="M1031.5,-36C1031.5,-36 936.5,-36 936.5,-36 930.5,-36 924.5,-30 924.5,-24 924.5,-24 924.5,-12 924.5,-12 924.5,-6 930.5,0 936.5,0 936.5,0 1031.5,0 1031.5,0 1037.5,0 1043.5,-6 1043.5,-12 1043.5,-12 1043.5,-24 1043.5,-24 1043.5,-30 1037.5,-36 1031.5,-36"/>
<text text-anchor="middle" x="984" y="-21" font-family="DejaVu Sans" font-size="10.00">Koa&#45;Miro Schultheiss</text>
<text text-anchor="middle" x="984" y="-10" font-family="DejaVu Sans" font-size="10.00">*29.08.2019</text>
</g>
<!-- g2p16 -->
<g id="P_g2p16" class="node">
<title>g2p16</title>
<path fill="#dbeafe" stroke="#333333" d="M1188.5,-36C1188.5,-36 1087.5,-36 1087.5,-36 1081.5,-36 1075.5,-30 1075.5,-24 1075.5,-24 1075.5,-12 1075.5,-12 1075.5,-6 1081.5,0 1087.5,0 1087.5,0 1188.5,0 1188.5,0 1194.5,0 1200.5,-6 1200.5,-12 1200.5,-12 1200.5,-24 1200.5,-24 1200.5,-30 1194.5,-36 1188.5,-36"/>
<text text-anchor="middle" x="1138" y="-21" font-family="DejaVu Sans" font-size="10.00">Nelo&#45;Mika Schultheiss</text>
<text text-anchor="middle" x="1138" y="-10" font-family="DejaVu Sans" font-size="10.00">*15.08.2022</text>
</g>
<!-- g2p15&#45;&gt;g2p16 -->
<!-- g3p05 -->
<g id="P_g3p05" class="node">
<title>g3p05</title>
<path fill="#dbeafe" stroke="#333333" d="M435.5,-36C435.5,-36 338.5,-36 338.5,-36 332.5,-36 326.5,-30 326.5,-24 326.5,-24 326.5,-12 326.5,-12 326.5,-6 332.5,0 338.5,0 338.5,0 435.5,0 435.5,0 441.5,0 447.5,-6 447.5,-12 447.5,-12 447.5,-24 447.5,-24 447.5,-30 441.5,-36 435.5,-36"/>
<text text-anchor="middle" x="387" y="-21" font-family="DejaVu Sans" font-size="10.00">Yannick Guttenberger</text>
<text text-anchor="middle" x="387" y="-10" font-family="DejaVu Sans" font-size="10.00">*13.09.2004</text>
</g>
<!-- g3p05&#45;&gt;g3p06 -->
<!-- polS09&#45;&gt;pol18 -->
<!-- polS09&#45;&gt;pol18 -->
<!-- polS09&#45;&gt;M_polF9 -->
<g id="edge32" class="edge">
<title>polS09&#45;&gt;M_polF9</title>
<path fill="none" stroke="#555555" d="M1405.86,-356.7C1401.9,-340.14 1395.97,-315.34 1392.05,-298.92"/>
</g>
<!-- pol15&#45;&gt;polS05 -->
<!-- pol15&#45;&gt;polS05 -->
<!-- pol15&#45;&gt;pol16 -->
<!-- polS04 -->
<g id="P_polS04" class="node">
<title>polS04</title>
<path fill="#fde7ef" stroke="#333333" d="M690.5,-395.5C690.5,-395.5 631.5,-395.5 631.5,-395.5 625.5,-395.5 619.5,-389.5 619.5,-383.5 619.5,-383.5 619.5,-366.5 619.5,-366.5 619.5,-360.5 625.5,-354.5 631.5,-354.5 631.5,-354.5 690.5,-354.5 690.5,-354.5 696.5,-354.5 702.5,-360.5 702.5,-366.5 702.5,-366.5 702.5,-383.5 702.5,-383.5 702.5,-389.5 696.5,-395.5 690.5,-395.5"/>
<text text-anchor="middle" x="661" y="-383.5" font-family="DejaVu Sans" font-size="10.00">Edith Polasek</text>
<text text-anchor="middle" x="661" y="-372.5" font-family="DejaVu Sans" font-size="10.00">geb. Billich</text>
<text text-anchor="middle" x="661" y="-361.5" font-family="DejaVu Sans" font-size="10.00">*26.10.1947</text>
</g>
<!-- pol15&#45;&gt;polS04 -->
<!-- pol15&#45;&gt;polS04 -->
<!-- pol15&#45;&gt;polS04 -->
<!-- pol15&#45;&gt;M_polF5 -->
<g id="edge7" class="edge">
<title>pol15&#45;&gt;M_polF5</title>
<path fill="none" stroke="#555555" d="M500.89,-356.7C486.89,-339.52 465.64,-313.45 452.3,-297.09"/>
</g>
<!-- M_polF4 -->
<g id="M_polF4" class="node">
<title>M_polF4</title>
<ellipse fill="#fff3b0" stroke="#b08900" cx="661" cy="-281" rx="27" ry="18"/>
<text text-anchor="middle" x="661" y="-278.8" font-family="DejaVu Sans" font-size="9.00">oo</text>
</g>
<!-- pol15&#45;&gt;M_polF4 -->
<g id="edge79" class="edge">
<title>pol15&#45;&gt;M_polF4</title>
<path fill="none" stroke="#555555" d="M542.12,-356.91C571.15,-338.62 616.45,-310.07 641.93,-294.02"/>
</g>
<!-- polS04&#45;&gt;pol16 -->
<!-- polS04&#45;&gt;pol15 -->
<!-- polS04&#45;&gt;M_polF4 -->
<g id="edge80" class="edge">
<title>polS04&#45;&gt;M_polF4</title>
<path fill="none" stroke="#555555" d="M661,-354.49C661,-338.03 661,-314.71 661,-299.01"/>
</g>
<!-- pol23 -->
<g id="P_pol23" class="node">
<title>pol23</title>
<path fill="#fde7ef" stroke="#333333" d="M1178.5,-210.5C1178.5,-210.5 1111.5,-210.5 1111.5,-210.5 1105.5,-210.5 1099.5,-204.5 1099.5,-198.5 1099.5,-198.5 1099.5,-186.5 1099.5,-186.5 1099.5,-180.5 1105.5,-174.5 1111.5,-174.5 1111.5,-174.5 1178.5,-174.5 1178.5,-174.5 1184.5,-174.5 1190.5,-180.5 1190.5,-186.5 1190.5,-186.5 1190.5,-198.5 1190.5,-198.5 1190.5,-204.5 1184.5,-210.5 1178.5,-210.5"/>
<text text-anchor="middle" x="1145" y="-195.5" font-family="DejaVu Sans" font-size="10.00">Irene Schlosser</text>
<text text-anchor="middle" x="1145" y="-184.5" font-family="DejaVu Sans" font-size="10.00">*20.03.1975</text>
</g>
<!-- pol23&#45;&gt;pol24 -->
<!-- g3p08 -->
<g id="P_g3p08" class="node">
<title>g3p08</title>
<path fill="#fde7ef" stroke="#333333" d="M880,-36C880,-36 798,-36 798,-36 792,-36 786,-30 786,-24 786,-24 786,-12 786,-12 786,-6 792,0 798,0 798,0 880,0 880,0 886,0 892,-6 892,-12 892,-12 892,-24 892,-24 892,-30 886,-36 880,-36"/>
<text text-anchor="middle" x="839" y="-21" font-family="DejaVu Sans" font-size="10.00">Sara Guttenberger</text>
<text text-anchor="middle" x="839" y="-10" font-family="DejaVu Sans" font-size="10.00">*16.09.2011</text>
</g>
<!-- g3p07&#45;&gt;g3p08 -->
<!-- g2p12&#45;&gt;g2p13 -->
<!-- ped01&#45;&gt;pol14 -->
<!-- ped01&#45;&gt;pol14 -->
<!-- ped01&#45;&gt;pol14 -->
<!-- ped01&#45;&gt;M_pedF1 -->
<g id="edge36" class="edge">
<title>ped01&#45;&gt;M_pedF1</title>
<path fill="none" stroke="#555555" d="M81.09,-356.7C88.92,-339.94 100.71,-314.71 108.38,-298.3"/>
</g>
<!-- M_polF2&#45;&gt;pol14 -->
<g id="edge4" class="edge">
<title>M_polF2&#45;&gt;pol14</title>
<path fill="none" stroke="#555555" d="M455.47,-459.67C417.06,-446.08 339.61,-418.68 283.79,-398.93"/>
<polygon fill="#555555" stroke="#555555" points="284.93,-395.62 274.33,-395.58 282.59,-402.21 284.93,-395.62"/>
</g>
<!-- M_polF5&#45;&gt;pol20 -->
<g id="edge9" class="edge">
<title>M_polF5&#45;&gt;pol20</title>
<path fill="none" stroke="#555555" d="M418.53,-269.91C391.27,-257.09 343.34,-234.56 306.57,-217.28"/>
<polygon fill="#555555" stroke="#555555" points="308.03,-214.09 297.49,-213 305.05,-220.43 308.03,-214.09"/>
</g>
<!-- M_polF5&#45;&gt;pol21 -->
<g id="edge10" class="edge">
<title>M_polF5&#45;&gt;pol21</title>
<path fill="none" stroke="#555555" d="M465.02,-273.7C531.24,-257.02 706,-213 706,-213 706,-213 708.62,-212.16 712.76,-210.84"/>
<polygon fill="#555555" stroke="#555555" points="713.89,-214.15 722.35,-207.77 711.76,-207.49 713.89,-214.15"/>
</g>
<!-- M_polF6&#45;&gt;pol22 -->
<g id="edge18" class="edge">
<title>M_polF6&#45;&gt;pol22</title>
<path fill="none" stroke="#555555" d="M754.04,-272.7C697.02,-255.34 558,-213 558,-213 558,-213 555.54,-212.11 551.67,-210.72"/>
<polygon fill="#555555" stroke="#555555" points="552.68,-207.36 542.09,-207.25 550.31,-213.94 552.68,-207.36"/>
</g>
<!-- M_g2F4&#45;&gt;g2p13 -->
<g id="edge28" class="edge">
<title>M_g2F4&#45;&gt;g2p13</title>
<path fill="none" stroke="#555555" d="M256,-85.6C256,-74.26 256,-59.23 256,-46.32"/>
<polygon fill="#555555" stroke="#555555" points="259.5,-46.1 256,-36.1 252.5,-46.1 259.5,-46.1"/>
</g>
<!-- M_g2F4&#45;&gt;g2p11 -->
<g id="edge26" class="edge">
<title>M_g2F4&#45;&gt;g2p11</title>
<path fill="none" stroke="#555555" d="M233.08,-94.17C198.28,-80.76 131.33,-54.96 85.67,-37.37"/>
<polygon fill="#555555" stroke="#555555" points="86.86,-34.08 76.27,-33.75 84.34,-40.61 86.86,-34.08"/>
</g>
<!-- M_g2F4&#45;&gt;g2p12 -->
<g id="edge27" class="edge">
<title>M_g2F4&#45;&gt;g2p12</title>
<path fill="none" stroke="#555555" d="M238.97,-89.88C222.52,-77.2 197.24,-57.72 177.34,-42.38"/>
<polygon fill="#555555" stroke="#555555" points="179.25,-39.43 169.19,-36.1 174.97,-44.98 179.25,-39.43"/>
</g>
<!-- M_polF9&#45;&gt;pol25 -->
<g id="edge34" class="edge">
<title>M_polF9&#45;&gt;pol25</title>
<path fill="none" stroke="#555555" d="M1388,-262.91C1388,-250.94 1388,-234.7 1388,-220.93"/>
<polygon fill="#555555" stroke="#555555" points="1391.5,-220.55 1388,-210.55 1384.5,-220.55 1391.5,-220.55"/>
</g>
<!-- M_pedF1&#45;&gt;ped02 -->
<g id="edge38" class="edge">
<title>M_pedF1&#45;&gt;ped02</title>
<path fill="none" stroke="#555555" d="M116,-262.91C116,-250.94 116,-234.7 116,-220.93"/>
<polygon fill="#555555" stroke="#555555" points="119.5,-220.55 116,-210.55 112.5,-220.55 119.5,-220.55"/>
</g>
<!-- M_g2F5&#45;&gt;g2p15 -->
<g id="edge42" class="edge">
<title>M_g2F5&#45;&gt;g2p15</title>
<path fill="none" stroke="#555555" d="M907.61,-88.75C921.26,-76.28 941.39,-57.9 957.56,-43.14"/>
<polygon fill="#555555" stroke="#555555" points="960.11,-45.56 965.13,-36.23 955.39,-40.39 960.11,-45.56"/>
</g>
<!-- M_g2F5&#45;&gt;g2p16 -->
<g id="edge43" class="edge">
<title>M_g2F5&#45;&gt;g2p16</title>
<path fill="none" stroke="#555555" d="M915.59,-94.95C952.72,-82.27 1025.96,-57.26 1078.25,-39.4"/>
<polygon fill="#555555" stroke="#555555" points="1079.42,-42.7 1087.75,-36.16 1077.16,-36.08 1079.42,-42.7"/>
</g>
<!-- M_polF3&#45;&gt;pol17 -->
<g id="edge50" class="edge">
<title>M_polF3&#45;&gt;pol17</title>
<path fill="none" stroke="#555555" d="M801.53,-459.51C839.28,-445.89 914.63,-418.71 969.13,-399.04"/>
<polygon fill="#555555" stroke="#555555" points="970.49,-402.27 978.71,-395.59 968.11,-395.69 970.49,-402.27"/>
</g>
<!-- M_polF3&#45;&gt;pol18 -->
<g id="edge51" class="edge">
<title>M_polF3&#45;&gt;pol18</title>
<path fill="none" stroke="#555555" d="M804.11,-464.21C901.63,-450.03 1239,-401 1239,-401 1239,-401 1241.57,-399.85 1245.61,-398.05"/>
<polygon fill="#555555" stroke="#555555" points="1247.19,-401.18 1254.9,-393.9 1244.34,-394.78 1247.19,-401.18"/>
</g>
<!-- M_polF3&#45;&gt;pol16 -->
<g id="edge49" class="edge">
<title>M_polF3&#45;&gt;pol16</title>
<path fill="none" stroke="#555555" d="M778,-450.7C778,-438.13 778,-420.81 778,-406.01"/>
<polygon fill="#555555" stroke="#555555" points="781.5,-405.78 778,-395.78 774.5,-405.78 781.5,-405.78"/>
</g>
<!-- M_polF3&#45;&gt;pol15 -->
<g id="edge48" class="edge">
<title>M_polF3&#45;&gt;pol15</title>
<path fill="none" stroke="#555555" d="M754.66,-459.84C714.31,-445.72 630.38,-416.36 573.36,-396.41"/>
<polygon fill="#555555" stroke="#555555" points="574.34,-393.05 563.75,-393.05 572.03,-399.66 574.34,-393.05"/>
</g>
<!-- M_g2F3&#45;&gt;g2p08 -->
<g id="edge65" class="edge">
<title>M_g2F3&#45;&gt;g2p08</title>
<path fill="none" stroke="#555555" d="M1446.47,-87.2C1438.51,-75.27 1427.43,-58.65 1418.2,-44.8"/>
<polygon fill="#555555" stroke="#555555" points="1420.91,-42.55 1412.45,-36.17 1415.08,-46.44 1420.91,-42.55"/>
</g>
<!-- M_g2F3&#45;&gt;g2p09 -->
<g id="edge66" class="edge">
<title>M_g2F3&#45;&gt;g2p09</title>
<path fill="none" stroke="#555555" d="M1471.11,-88.37C1483.07,-75.96 1500.48,-57.91 1514.54,-43.33"/>
<polygon fill="#555555" stroke="#555555" points="1517.12,-45.7 1521.54,-36.07 1512.08,-40.84 1517.12,-45.7"/>
</g>
<!-- M_g3F2&#45;&gt;g3p06 -->
<g id="edge72" class="edge">
<title>M_g3F2&#45;&gt;g3p06</title>
<path fill="none" stroke="#555555" d="M578.13,-86.8C571.64,-74.95 562.7,-58.62 555.21,-44.96"/>
<polygon fill="#555555" stroke="#555555" points="558.19,-43.1 550.32,-36.01 552.05,-46.46 558.19,-43.1"/>
</g>
<!-- M_g3F2&#45;&gt;g3p05 -->
<g id="edge71" class="edge">
<title>M_g3F2&#45;&gt;g3p05</title>
<path fill="none" stroke="#555555" d="M564.83,-93.69C534.17,-80.81 477.95,-57.2 436.91,-39.96"/>
<polygon fill="#555555" stroke="#555555" points="438.19,-36.7 427.61,-36.06 435.47,-43.16 438.19,-36.7"/>
</g>
<!-- M_g3F2&#45;&gt;g3p07 -->
<g id="edge73" class="edge">
<title>M_g3F2&#45;&gt;g3p07</title>
<path fill="none" stroke="#555555" d="M604.19,-89.5C620.32,-76.84 644.78,-57.64 664.1,-42.47"/>
<polygon fill="#555555" stroke="#555555" points="666.33,-45.17 672.03,-36.25 662.01,-39.67 666.33,-45.17"/>
</g>
<!-- M_g3F2&#45;&gt;g3p08 -->
<g id="edge74" class="edge">
<title>M_g3F2&#45;&gt;g3p08</title>
<path fill="none" stroke="#555555" d="M610.71,-95.1C648.66,-82.45 724.23,-57.26 778.03,-39.32"/>
<polygon fill="#555555" stroke="#555555" points="779.42,-42.55 787.8,-36.07 777.21,-35.91 779.42,-42.55"/>
</g>
<!-- M_polF4&#45;&gt;pol19 -->
<g id="edge81" class="edge">
<title>M_polF4&#45;&gt;pol19</title>
<path fill="none" stroke="#555555" d="M686.05,-274.24C707.52,-269.31 735,-263 735,-263 735,-263 956,-213 956,-213 956,-213 958.62,-212.2 962.8,-210.93"/>
<polygon fill="#555555" stroke="#555555" points="963.94,-214.24 972.48,-207.98 961.9,-207.54 963.94,-214.24"/>
</g>
<!-- M_polF7&#45;&gt;pol24 -->
<g id="edge87" class="edge">
<title>M_polF7&#45;&gt;pol24</title>
<path fill="none" stroke="#555555" d="M1178.72,-266.48C1194.97,-253.35 1220,-233.11 1239.58,-217.28"/>
<polygon fill="#555555" stroke="#555555" points="1242.03,-219.81 1247.6,-210.8 1237.63,-214.36 1242.03,-219.81"/>
</g>
<!-- M_polF7&#45;&gt;pol23 -->
<g id="edge86" class="edge">
<title>M_polF7&#45;&gt;pol23</title>
<path fill="none" stroke="#555555" d="M1158.64,-262.91C1156.27,-250.83 1153.03,-234.38 1150.31,-220.53"/>
<polygon fill="#555555" stroke="#555555" points="1153.71,-219.69 1148.35,-210.55 1146.85,-221.04 1153.71,-219.69"/>
</g>
</g>
</svg>
