<?xml version="1.0" encoding="UTF-8" standalone="no"?>
<!DOCTYPE svg PUBLIC "-//W3C//DTD SVG 1.1//EN"
 "http://www.w3.org/Graphics/SVG/1.1/DTD/svg11.dtd">
<!-- Generated by graphviz version 2.43.0 (0)
 -->
<!-- Title: %3 Pages: 1 -->
<svg width="2008pt" height="607pt"
 viewBox="0.00 0.00 2007.50 607.00" xmlns="http://www.w3.org/2000/svg" xmlns:xlink="http://www.w3.org/1999/xlink">
<style><![CDATA[
  g[id^="P_"], g[id^="M_"] { cursor: pointer; }
  .highlight ellipse, .highlight polygon, .highlight path, .highlight rect {
    stroke: #d00; stroke-width: 2.5;
  }
  @keyframes pulse { 0%,100%{opacity:1} 50%{opacity:.45} }
  .blink { animation: pulse 0.9s ease-in-out 3; }
]]></style>
<script><![CDATA[
(function(){
  var SPOUSE = {"P_polS06": ["P_pol16"], "P_pol16": ["P_polS06"], "P_pol11": ["P_polS02", "P_polS03"], "P_polS02": ["P_pol11"], "P_pol19": ["P_g2p07"], "P_g2p07": ["P_pol19"], "P_pol21": ["P_g2p14"], "P_g2p14": ["P_pol21"], "P_polS09": ["P_pol18"], "P_pol18": ["P_polS09", "P_polS08"], "P_pol22": ["P_g3p04"], "P_g3p04": ["P_pol22"], "P_ped01": ["P_pol14"], "P_pol14": ["P_ped01"], "P_polS03": ["P_pol11"], "P_polS08": ["P_pol18"], "P_pol15": ["P_polS04", "P_polS05"], "P_polS04": ["P_pol15"], "P_g2p10": ["P_pol20"], "P_pol20": ["P_g2p10"], "P_polS05": ["P_pol15"], "P_polS07": ["P_pol17"], "P_pol17": ["P_polS07"]};
  var FAMILY = {"M_polF6": ["P_polS06", "P_pol16", "P_pol22"], "M_polF2": ["P_pol11", "P_polS02", "P_pol14"], "M_g2F3": ["P_pol19", "P_g2p07", "P_g2p08", "P_g2p09"], "M_g2F5": ["P_pol21", "P_g2p14", "P_g2p15", "P_g2p16"], "M_polF9": ["P_polS09", "P_pol18", "P_pol25"], "M_g3F2": ["P_pol22", "P_g3p04", "P_g3p05", "P_g3p06", "P_g3p07", "P_g3p08"], "M_pedF1": ["P_ped01", "P_pol14", "P_ped02"], "M_polF3": ["P_pol11", "P_polS03", "P_pol15", "P_pol16", "P_pol17", "P_pol18"], "M_polF8": ["P_polS08", "P_pol18"], "M_polF4": ["P_pol15", "P_polS04", "P_pol19"], "M_g2F4": ["P_g2p10", "P_pol20", "P_g2p11", "P_g2p12", "P_g2p13"], "M_polF5": ["P_pol15", "P_polS05", "P_pol20", "P_pol21"], "M_polF7": ["P_polS07", "P_pol17", "P_pol23", "P_pol24"]};
  function clearHl(){ document.querySelectorAll('.blink').forEach(function(n){ n.classList.remove('blink'); n.classList.remove('highlight'); }); }
  function hl(id){ var el=document.getElementById(id); if(el){ el.classList.add('highlight'); el.classList.add('blink'); } }
  document.addEventListener('click', function(evt){
    var target = evt.target;
    var g = target.closest && target.closest('g[id^="P_"], g[id^="M_"]');
    if (!g) { while (target) { if (target.id && /^([PM]_)/.test(target.id) && target.tagName && target.tagName.toLowerCase() === 'g') { g = target; break; } target = target.parentNode; } }
    if (!g) return;
    var id = g.id; clearHl();
    if (/^P_/.test(id)) { (SPOUSE[id] || []).forEach(hl); }
    else if (/^M_/.test(id)) { hl(id); (FAMILY[id] || []).forEach(hl); }
  }, false);
})();
]]></script>

<g id="graph0" class="graph" transform="scale(1 1) rotate(0) translate(4 603)">
<title>%3</title>
<polygon fill="white" stroke="transparent" points="-4,4 -4,-603 2003.5,-603 2003.5,4 -4,4"/>
<text text-anchor="middle" x="999.75" y="-585.4" font-family="DejaVu Sans" font-size="12.00">Otto</text>
<!-- polS08 -->
<g id="P_polS08" class="node">
<title>polS08</title>
<path fill="#dbeafe" stroke="#333333" d="M1465,-393C1465,-393 1404,-393 1404,-393 1398,-393 1392,-387 1392,-381 1392,-381 1392,-369 1392,-369 1392,-363 1398,-357 1404,-357 1404,-357 1465,-357 1465,-357 1471,-357 1477,-363 1477,-369 1477,-369 1477,-381 1477,-381 1477,-387 1471,-393 1465,-393"/>
<text text-anchor="middle" x="1434.5" y="-378" font-family="DejaVu Sans" font-size="10.00">Burkhard Vogl</text>
<text text-anchor="middle" x="1434.5" y="-367" font-family="DejaVu Sans" font-size="10.00">*11.01.1950</text>
</g>
<!-- pol18 -->
<g id="P_pol18" class="node">
<title>pol18</title>
<path fill="#fde7ef" stroke="#333333" d="M1577.5,-401C1577.5,-401 1521.5,-401 1521.5,-401 1515.5,-401 1509.5,-395 1509.5,-389 1509.5,-389 1509.5,-361 1509.5,-361 1509.5,-355 1515.5,-349 1521.5,-349 1521.5,-349 1577.5,-349 1577.5,-349 1583.5,-349 1589.5,-355 1589.5,-361 1589.5,-361 1589.5,-389 1589.5,-389 1589.5,-395 1583.5,-401 1577.5,-401"/>
<text text-anchor="middle" x="1549.5" y="-389" font-family="DejaVu Sans" font-size="10.00">Doris Kessler</text>
<text text-anchor="middle" x="1549.5" y="-378" font-family="DejaVu Sans" font-size="10.00">geb. Polasek</text>
<text text-anchor="middle" x="1549.5" y="-367" font-family="DejaVu Sans" font-size="10.00">verh. Vogl</text>
<text text-anchor="middle" x="1549.5" y="-356" font-family="DejaVu Sans" font-size="10.00">*03.02.1959</text>
</g>
<!-- polS08&#45;&gt;pol18 -->
<!-- polS08&#45;&gt;pol18 -->
<!-- polS08&#45;&gt;pol18 -->
<!-- M_polF8 -->
<g id="M_polF8" class="node">
<title>M_polF8</title>
<ellipse fill="#fff3b0" stroke="#b08900" cx="1448.5" cy="-281" rx="27" ry="18"/>
<text text-anchor="middle" x="1448.5" y="-278.8" font-family="DejaVu Sans" font-size="9.00">oo</text>
</g>
<!-- polS08&#45;&gt;M_polF8 -->
<g id="edge59" class="edge">
<title>polS08&#45;&gt;M_polF8</title>
<path fill="none" stroke="#555555" d="M1437.13,-356.7C1439.64,-340.25 1443.38,-315.65 1445.88,-299.23"/>
</g>
<!-- polS03 -->
<g id="P_polS03" class="node">
<title>polS03</title>
<path fill="#fde7ef" stroke="#333333" d="M1197.5,-578C1197.5,-578 1141.5,-578 1141.5,-578 1135.5,-578 1129.5,-572 1129.5,-566 1129.5,-566 1129.5,-549 1129.5,-549 1129.5,-543 1135.5,-537 1141.5,-537 1141.5,-537 1197.5,-537 1197.5,-537 1203.5,-537 1209.5,-543 1209.5,-549 1209.5,-549 1209.5,-566 1209.5,-566 1209.5,-572 1203.5,-578 1197.5,-578"/>
<text text-anchor="middle" x="1169.5" y="-566" font-family="DejaVu Sans" font-size="10.00">Inge Polasek</text>
<text text-anchor="middle" x="1169.5" y="-555" font-family="DejaVu Sans" font-size="10.00">geb. Rokitzki</text>
<text text-anchor="middle" x="1169.5" y="-544" font-family="DejaVu Sans" font-size="10.00">*11.02.1928</text>
</g>
<!-- pol11 -->
<g id="P_pol11" class="node">
<title>pol11</title>
<path fill="#dbeafe" stroke="#111111" stroke-width="1.8" d="M1373.5,-575.5C1373.5,-575.5 1253.5,-575.5 1253.5,-575.5 1247.5,-575.5 1241.5,-569.5 1241.5,-563.5 1241.5,-563.5 1241.5,-551.5 1241.5,-551.5 1241.5,-545.5 1247.5,-539.5 1253.5,-539.5 1253.5,-539.5 1373.5,-539.5 1373.5,-539.5 1379.5,-539.5 1385.5,-545.5 1385.5,-551.5 1385.5,-551.5 1385.5,-563.5 1385.5,-563.5 1385.5,-569.5 1379.5,-575.5 1373.5,-575.5"/>
<text text-anchor="middle" x="1313.5" y="-560.5" font-family="DejaVu Sans" font-size="10.00">Otto Polasek</text>
<text text-anchor="middle" x="1313.5" y="-549.5" font-family="DejaVu Sans" font-size="10.00">*14.09.1912 &#160;+01.11.1994</text>
</g>
<!-- polS03&#45;&gt;pol11 -->
<!-- M_polF3 -->
<g id="M_polF3" class="node">
<title>M_polF3</title>
<ellipse fill="#fff3b0" stroke="#b08900" cx="1169.5" cy="-469" rx="27" ry="18"/>
<text text-anchor="middle" x="1169.5" y="-466.8" font-family="DejaVu Sans" font-size="9.00">oo</text>
</g>
<!-- polS03&#45;&gt;M_polF3 -->
<g id="edge43" class="edge">
<title>polS03&#45;&gt;M_polF3</title>
<path fill="none" stroke="#555555" d="M1169.5,-536.87C1169.5,-521.92 1169.5,-501.53 1169.5,-487.21"/>
</g>
<!-- polS06 -->
<g id="P_polS06" class="node">
<title>polS06</title>
<path fill="#dbeafe" stroke="#333333" d="M521.5,-393C521.5,-393 469.5,-393 469.5,-393 463.5,-393 457.5,-387 457.5,-381 457.5,-381 457.5,-369 457.5,-369 457.5,-363 463.5,-357 469.5,-357 469.5,-357 521.5,-357 521.5,-357 527.5,-357 533.5,-363 533.5,-369 533.5,-369 533.5,-381 533.5,-381 533.5,-387 527.5,-393 521.5,-393"/>
<text text-anchor="middle" x="495.5" y="-378" font-family="DejaVu Sans" font-size="10.00">Igo Koch</text>
<text text-anchor="middle" x="495.5" y="-367" font-family="DejaVu Sans" font-size="10.00">*29.07.1947</text>
</g>
<!-- pol16 -->
<g id="P_pol16" class="node">
<title>pol16</title>
<path fill="#fde7ef" stroke="#333333" d="M931.5,-395.5C931.5,-395.5 869.5,-395.5 869.5,-395.5 863.5,-395.5 857.5,-389.5 857.5,-383.5 857.5,-383.5 857.5,-366.5 857.5,-366.5 857.5,-360.5 863.5,-354.5 869.5,-354.5 869.5,-354.5 931.5,-354.5 931.5,-354.5 937.5,-354.5 943.5,-360.5 943.5,-366.5 943.5,-366.5 943.5,-383.5 943.5,-383.5 943.5,-389.5 937.5,-395.5 931.5,-395.5"/>
<text text-anchor="middle" x="900.5" y="-383.5" font-family="DejaVu Sans" font-size="10.00">Christine Koch</text>
<text text-anchor="middle" x="900.5" y="-372.5" font-family="DejaVu Sans" font-size="10.00">geb. Polasek</text>
<text text-anchor="middle" x="900.5" y="-361.5" font-family="DejaVu Sans" font-size="10.00">*19.07.1952</text>
</g>
<!-- polS06&#45;&gt;pol16 -->
<!-- polS06&#45;&gt;pol16 -->
<!-- polS06&#45;&gt;pol16 -->
<!-- M_polF6 -->
<g id="M_polF6" class="node">
<title>M_polF6</title>
<ellipse fill="#fff3b0" stroke="#b08900" cx="495.5" cy="-281" rx="27" ry="18"/>
<text text-anchor="middle" x="495.5" y="-278.8" font-family="DejaVu Sans" font-size="9.00">oo</text>
</g>
<!-- polS06&#45;&gt;M_polF6 -->
<g id="edge2" class="edge">
<title>polS06&#45;&gt;M_polF6</title>
<path fill="none" stroke="#555555" d="M495.5,-356.7C495.5,-340.25 495.5,-315.65 495.5,-299.23"/>
</g>
<!-- g2p14 -->
<g id="P_g2p14" class="node">
<title>g2p14</title>
<path fill="#fde7ef" stroke="#333333" d="M1665.5,-210.5C1665.5,-210.5 1593.5,-210.5 1593.5,-210.5 1587.5,-210.5 1581.5,-204.5 1581.5,-198.5 1581.5,-198.5 1581.5,-186.5 1581.5,-186.5 1581.5,-180.5 1587.5,-174.5 1593.5,-174.5 1593.5,-174.5 1665.5,-174.5 1665.5,-174.5 1671.5,-174.5 1677.5,-180.5 1677.5,-186.5 1677.5,-186.5 1677.5,-198.5 1677.5,-198.5 1677.5,-204.5 1671.5,-210.5 1665.5,-210.5"/>
<text text-anchor="middle" x="1629.5" y="-195.5" font-family="DejaVu Sans" font-size="10.00">Julia Schultheiss</text>
<text text-anchor="middle" x="1629.5" y="-184.5" font-family="DejaVu Sans" font-size="10.00">*29.04.1986</text>
</g>
<!-- pol21 -->
<g id="P_pol21" class="node">
<title>pol21</title>
<path fill="#dbeafe" stroke="#333333" d="M1176,-210.5C1176,-210.5 1111,-210.5 1111,-210.5 1105,-210.5 1099,-204.5 1099,-198.5 1099,-198.5 1099,-186.5 1099,-186.5 1099,-180.5 1105,-174.5 1111,-174.5 1111,-174.5 1176,-174.5 1176,-174.5 1182,-174.5 1188,-180.5 1188,-186.5 1188,-186.5 1188,-198.5 1188,-198.5 1188,-204.5 1182,-210.5 1176,-210.5"/>
<text text-anchor="middle" x="1143.5" y="-195.5" font-family="DejaVu Sans" font-size="10.00">Daniel Polasek</text>
<text text-anchor="middle" x="1143.5" y="-184.5" font-family="DejaVu Sans" font-size="10.00">*15.05.1986</text>
</g>
<!-- g2p14&#45;&gt;pol21 -->
<!-- M_g2F5 -->
<g id="M_g2F5" class="node">
<title>M_g2F5</title>
<ellipse fill="#fff3b0" stroke="#b08900" cx="1520.5" cy="-104" rx="27" ry="18"/>
<text text-anchor="middle" x="1520.5" y="-101.8" font-family="DejaVu Sans" font-size="9.00">oo</text>
</g>
<!-- g2p14&#45;&gt;M_g2F5 -->
<g id="edge19" class="edge">
<title>g2p14&#45;&gt;M_g2F5</title>
<path fill="none" stroke="#555555" d="M1607.97,-174.41C1587.24,-157.97 1556.34,-133.44 1537.35,-118.37"/>
</g>
<!-- g3p04 -->
<g id="P_g3p04" class="node">
<title>g3p04</title>
<path fill="#fde7ef" stroke="#333333" d="M413.5,-210.5C413.5,-210.5 321.5,-210.5 321.5,-210.5 315.5,-210.5 309.5,-204.5 309.5,-198.5 309.5,-198.5 309.5,-186.5 309.5,-186.5 309.5,-180.5 315.5,-174.5 321.5,-174.5 321.5,-174.5 413.5,-174.5 413.5,-174.5 419.5,-174.5 425.5,-180.5 425.5,-186.5 425.5,-186.5 425.5,-198.5 425.5,-198.5 425.5,-204.5 419.5,-210.5 413.5,-210.5"/>
<text text-anchor="middle" x="367.5" y="-195.5" font-family="DejaVu Sans" font-size="10.00">Carina Guttenberger</text>
<text text-anchor="middle" x="367.5" y="-184.5" font-family="DejaVu Sans" font-size="10.00">*30.03.1982</text>
</g>
<!-- pol22 -->
<g id="P_pol22" class="node">
<title>pol22</title>
<path fill="#dbeafe" stroke="#333333" d="M521.5,-210.5C521.5,-210.5 469.5,-210.5 469.5,-210.5 463.5,-210.5 457.5,-204.5 457.5,-198.5 457.5,-198.5 457.5,-186.5 457.5,-186.5 457.5,-180.5 463.5,-174.5 469.5,-174.5 469.5,-174.5 521.5,-174.5 521.5,-174.5 527.5,-174.5 533.5,-180.5 533.5,-186.5 533.5,-186.5 533.5,-198.5 533.5,-198.5 533.5,-204.5 527.5,-210.5 521.5,-210.5"/>
<text text-anchor="middle" x="495.5" y="-195.5" font-family="DejaVu Sans" font-size="10.00">Oliver Koch</text>
<text text-anchor="middle" x="495.5" y="-184.5" font-family="DejaVu Sans" font-size="10.00">*10.10.1974</text>
</g>
<!-- g3p04&#45;&gt;pol22 -->
<!-- M_g3F2 -->
<g id="M_g3F2" class="node">
<title>M_g3F2</title>
<ellipse fill="#fff3b0" stroke="#b08900" cx="367.5" cy="-104" rx="27" ry="18"/>
<text text-anchor="middle" x="367.5" y="-101.8" font-family="DejaVu Sans" font-size="9.00">oo</text>
</g>
<!-- g3p04&#45;&gt;M_g3F2 -->
<g id="edge29" class="edge">
<title>g3p04&#45;&gt;M_g3F2</title>
<path fill="none" stroke="#555555" d="M367.5,-174.41C367.5,-159.25 367.5,-137.21 367.5,-122.05"/>
</g>
<!-- pol18&#45;&gt;polS08 -->
<!-- polS09 -->
<g id="P_polS09" class="node">
<title>polS09</title>
<path fill="#dbeafe" stroke="#333333" d="M1695.5,-393C1695.5,-393 1633.5,-393 1633.5,-393 1627.5,-393 1621.5,-387 1621.5,-381 1621.5,-381 1621.5,-369 1621.5,-369 1621.5,-363 1627.5,-357 1633.5,-357 1633.5,-357 1695.5,-357 1695.5,-357 1701.5,-357 1707.5,-363 1707.5,-369 1707.5,-369 1707.5,-381 1707.5,-381 1707.5,-387 1701.5,-393 1695.5,-393"/>
<text text-anchor="middle" x="1664.5" y="-378" font-family="DejaVu Sans" font-size="10.00">Jürgen Kessler</text>
<text text-anchor="middle" x="1664.5" y="-367" font-family="DejaVu Sans" font-size="10.00">*06.12.1946</text>
</g>
<!-- pol18&#45;&gt;polS09 -->
<!-- M_polF9 -->
<g id="M_polF9" class="node">
<title>M_polF9</title>
<ellipse fill="#fff3b0" stroke="#b08900" cx="1549.5" cy="-281" rx="27" ry="18"/>
<text text-anchor="middle" x="1549.5" y="-278.8" font-family="DejaVu Sans" font-size="9.00">oo</text>
</g>
<!-- pol18&#45;&gt;M_polF9 -->
<g id="edge25" class="edge">
<title>pol18&#45;&gt;M_polF9</title>
<path fill="none" stroke="#555555" d="M1549.5,-348.86C1549.5,-333.11 1549.5,-313.23 1549.5,-299.25"/>
</g>
<!-- pol18&#45;&gt;M_polF8 -->
<g id="edge60" class="edge">
<title>pol18&#45;&gt;M_polF8</title>
<path fill="none" stroke="#555555" d="M1521.9,-348.86C1503.21,-331.84 1479.21,-309.97 1463.84,-295.97"/>
</g>
<!-- polS09&#45;&gt;pol18 -->
<!-- polS09&#45;&gt;pol18 -->
<!-- polS09&#45;&gt;M_polF9 -->
<g id="edge24" class="edge">
<title>polS09&#45;&gt;M_polF9</title>
<path fill="none" stroke="#555555" d="M1643.14,-356.91C1620.92,-339.14 1586.61,-311.69 1566.27,-295.41"/>
</g>
<!-- polS07 -->
<g id="P_polS07" class="node">
<title>polS07</title>
<path fill="#dbeafe" stroke="#333333" d="M1347.5,-393C1347.5,-393 1285.5,-393 1285.5,-393 1279.5,-393 1273.5,-387 1273.5,-381 1273.5,-381 1273.5,-369 1273.5,-369 1273.5,-363 1279.5,-357 1285.5,-357 1285.5,-357 1347.5,-357 1347.5,-357 1353.5,-357 1359.5,-363 1359.5,-369 1359.5,-369 1359.5,-381 1359.5,-381 1359.5,-387 1353.5,-393 1347.5,-393"/>
<text text-anchor="middle" x="1316.5" y="-378" font-family="DejaVu Sans" font-size="10.00">Paul Schlosser</text>
<text text-anchor="middle" x="1316.5" y="-367" font-family="DejaVu Sans" font-size="10.00">*19.08.1943</text>
</g>
<!-- pol17 -->
<g id="P_pol17" class="node">
<title>pol17</title>
<path fill="#fde7ef" stroke="#333333" d="M1229.5,-395.5C1229.5,-395.5 1109.5,-395.5 1109.5,-395.5 1103.5,-395.5 1097.5,-389.5 1097.5,-383.5 1097.5,-383.5 1097.5,-366.5 1097.5,-366.5 1097.5,-360.5 1103.5,-354.5 1109.5,-354.5 1109.5,-354.5 1229.5,-354.5 1229.5,-354.5 1235.5,-354.5 1241.5,-360.5 1241.5,-366.5 1241.5,-366.5 1241.5,-383.5 1241.5,-383.5 1241.5,-389.5 1235.5,-395.5 1229.5,-395.5"/>
<text text-anchor="middle" x="1169.5" y="-383.5" font-family="DejaVu Sans" font-size="10.00">Adele (Sissi) Schlosser</text>
<text text-anchor="middle" x="1169.5" y="-372.5" font-family="DejaVu Sans" font-size="10.00">geb. Polasek</text>
<text text-anchor="middle" x="1169.5" y="-361.5" font-family="DejaVu Sans" font-size="10.00">*21.02.1954 &#160;+31.12.2023</text>
</g>
<!-- polS07&#45;&gt;pol17 -->
<!-- polS07&#45;&gt;pol17 -->
<!-- polS07&#45;&gt;pol17 -->
<!-- M_polF7 -->
<g id="M_polF7" class="node">
<title>M_polF7</title>
<ellipse fill="#fff3b0" stroke="#b08900" cx="1291.5" cy="-281" rx="27" ry="18"/>
<text text-anchor="middle" x="1291.5" y="-278.8" font-family="DejaVu Sans" font-size="9.00">oo</text>
</g>
<!-- polS07&#45;&gt;M_polF7 -->
<g id="edge84" class="edge">
<title>polS07&#45;&gt;M_polF7</title>
<path fill="none" stroke="#555555" d="M1311.8,-356.7C1307.3,-340.14 1300.56,-315.34 1296.1,-298.92"/>
</g>
<!-- polS04 -->
<g id="P_polS04" class="node">
<title>polS04</title>
<path fill="#fde7ef" stroke="#333333" d="M637,-395.5C637,-395.5 578,-395.5 578,-395.5 572,-395.5 566,-389.5 566,-383.5 566,-383.5 566,-366.5 566,-366.5 566,-360.5 572,-354.5 578,-354.5 578,-354.5 637,-354.5 637,-354.5 643,-354.5 649,-360.5 649,-366.5 649,-366.5 649,-383.5 649,-383.5 649,-389.5 643,-395.5 637,-395.5"/>
<text text-anchor="middle" x="607.5" y="-383.5" font-family="DejaVu Sans" font-size="10.00">Edith Polasek</text>
<text text-anchor="middle" x="607.5" y="-372.5" font-family="DejaVu Sans" font-size="10.00">geb. Billich</text>
<text text-anchor="middle" x="607.5" y="-361.5" font-family="DejaVu Sans" font-size="10.00">*26.10.1947</text>
</g>
<!-- polS04&#45;&gt;pol16 -->
<!-- pol15 -->
<g id="P_pol15" class="node">
<title>pol15</title>
<path fill="#dbeafe" stroke="#333333" d="M813.5,-393C813.5,-393 693.5,-393 693.5,-393 687.5,-393 681.5,-387 681.5,-381 681.5,-381 681.5,-369 681.5,-369 681.5,-363 687.5,-357 693.5,-357 693.5,-357 813.5,-357 813.5,-357 819.5,-357 825.5,-363 825.5,-369 825.5,-369 825.5,-381 825.5,-381 825.5,-387 819.5,-393 813.5,-393"/>
<text text-anchor="middle" x="753.5" y="-378" font-family="DejaVu Sans" font-size="10.00">Wolfgang Polasek</text>
<text text-anchor="middle" x="753.5" y="-367" font-family="DejaVu Sans" font-size="10.00">*19.06.1951 &#160;+23.05.2013</text>
</g>
<!-- polS04&#45;&gt;pol15 -->
<!-- M_polF4 -->
<g id="M_polF4" class="node">
<title>M_polF4</title>
<ellipse fill="#fff3b0" stroke="#b08900" cx="620.5" cy="-281" rx="27" ry="18"/>
<text text-anchor="middle" x="620.5" y="-278.8" font-family="DejaVu Sans" font-size="9.00">oo</text>
</g>
<!-- polS04&#45;&gt;M_polF4 -->
<g id="edge63" class="edge">
<title>polS04&#45;&gt;M_polF4</title>
<path fill="none" stroke="#555555" d="M610.26,-354.49C612.58,-338.03 615.88,-314.71 618.1,-299.01"/>
</g>
<!-- g3p05 -->
<g id="P_g3p05" class="node">
<title>g3p05</title>
<path fill="#dbeafe" stroke="#333333" d="M109,-36C109,-36 12,-36 12,-36 6,-36 0,-30 0,-24 0,-24 0,-12 0,-12 0,-6 6,0 12,0 12,0 109,0 109,0 115,0 121,-6 121,-12 121,-12 121,-24 121,-24 121,-30 115,-36 109,-36"/>
<text text-anchor="middle" x="60.5" y="-21" font-family="DejaVu Sans" font-size="10.00">Yannick Guttenberger</text>
<text text-anchor="middle" x="60.5" y="-10" font-family="DejaVu Sans" font-size="10.00">*13.09.2004</text>
</g>
<!-- g3p06 -->
<g id="P_g3p06" class="node">
<title>g3p06</title>
<path fill="#fde7ef" stroke="#333333" d="M263.5,-36C263.5,-36 165.5,-36 165.5,-36 159.5,-36 153.5,-30 153.5,-24 153.5,-24 153.5,-12 153.5,-12 153.5,-6 159.5,0 165.5,0 165.5,0 263.5,0 263.5,0 269.5,0 275.5,-6 275.5,-12 275.5,-12 275.5,-24 275.5,-24 275.5,-30 269.5,-36 263.5,-36"/>
<text text-anchor="middle" x="214.5" y="-21" font-family="DejaVu Sans" font-size="10.00">Hannah Guttenberger</text>
<text text-anchor="middle" x="214.5" y="-10" font-family="DejaVu Sans" font-size="10.00">*05.02.2006</text>
</g>
<!-- g3p05&#45;&gt;g3p06 -->
<!-- ped02 -->
<g id="P_ped02" class="node">
<title>ped02</title>
<path fill="#fde7ef" stroke="#333333" d="M1911.5,-210.5C1911.5,-210.5 1855.5,-210.5 1855.5,-210.5 1849.5,-210.5 1843.5,-204.5 1843.5,-198.5 1843.5,-198.5 1843.5,-186.5 1843.5,-186.5 1843.5,-180.5 1849.5,-174.5 1855.5,-174.5 1855.5,-174.5 1911.5,-174.5 1911.5,-174.5 1917.5,-174.5 1923.5,-180.5 1923.5,-186.5 1923.5,-186.5 1923.5,-198.5 1923.5,-198.5 1923.5,-204.5 1917.5,-210.5 1911.5,-210.5"/>
<text text-anchor="middle" x="1883.5" y="-195.5" font-family="DejaVu Sans" font-size="10.00">Pia Pedersen</text>
<text text-anchor="middle" x="1883.5" y="-184.5" font-family="DejaVu Sans" font-size="10.00">*10.04.1971</text>
</g>
<!-- pol16&#45;&gt;polS06 -->
<!-- pol16&#45;&gt;pol17 -->
<!-- pol16&#45;&gt;pol17 -->
<!-- pol16&#45;&gt;M_polF6 -->
<g id="edge3" class="edge">
<title>pol16&#45;&gt;M_polF6</title>
<path fill="none" stroke="#555555" d="M857.31,-355.7C848.31,-351.89 841.5,-349 841.5,-349 841.5,-349 577.5,-299 577.5,-299 577.5,-299 545.07,-292.28 521,-287.29"/>
</g>
<!-- g2p09 -->
<g id="P_g2p09" class="node">
<title>g2p09</title>
<path fill="#fde7ef" stroke="#333333" d="M828,-36C828,-36 755,-36 755,-36 749,-36 743,-30 743,-24 743,-24 743,-12 743,-12 743,-6 749,0 755,0 755,0 828,0 828,0 834,0 840,-6 840,-12 840,-12 840,-24 840,-24 840,-30 834,-36 828,-36"/>
<text text-anchor="middle" x="791.5" y="-21" font-family="DejaVu Sans" font-size="10.00">Johanna Polasek</text>
<text text-anchor="middle" x="791.5" y="-10" font-family="DejaVu Sans" font-size="10.00">*12.07.2006</text>
</g>
<!-- g3p07 -->
<g id="P_g3p07" class="node">
<title>g3p07</title>
<path fill="#dbeafe" stroke="#333333" d="M415,-36C415,-36 320,-36 320,-36 314,-36 308,-30 308,-24 308,-24 308,-12 308,-12 308,-6 314,0 320,0 320,0 415,0 415,0 421,0 427,-6 427,-12 427,-12 427,-24 427,-24 427,-30 421,-36 415,-36"/>
<text text-anchor="middle" x="367.5" y="-21" font-family="DejaVu Sans" font-size="10.00">Nathan Guttenberger</text>
<text text-anchor="middle" x="367.5" y="-10" font-family="DejaVu Sans" font-size="10.00">*19.11.2007</text>
</g>
<!-- g3p06&#45;&gt;g3p07 -->
<!-- pol20 -->
<g id="P_pol20" class="node">
<title>pol20</title>
<path fill="#fde7ef" stroke="#333333" d="M1054.5,-213C1054.5,-213 986.5,-213 986.5,-213 980.5,-213 974.5,-207 974.5,-201 974.5,-201 974.5,-184 974.5,-184 974.5,-178 980.5,-172 986.5,-172 986.5,-172 1054.5,-172 1054.5,-172 1060.5,-172 1066.5,-178 1066.5,-184 1066.5,-184 1066.5,-201 1066.5,-201 1066.5,-207 1060.5,-213 1054.5,-213"/>
<text text-anchor="middle" x="1020.5" y="-201" font-family="DejaVu Sans" font-size="10.00">Bettina Niklaus</text>
<text text-anchor="middle" x="1020.5" y="-190" font-family="DejaVu Sans" font-size="10.00">geb. Polasek</text>
<text text-anchor="middle" x="1020.5" y="-179" font-family="DejaVu Sans" font-size="10.00">*12.04.1983</text>
</g>
<!-- g2p10 -->
<g id="P_g2p10" class="node">
<title>g2p10</title>
<path fill="#dbeafe" stroke="#333333" d="M930,-210.5C930,-210.5 855,-210.5 855,-210.5 849,-210.5 843,-204.5 843,-198.5 843,-198.5 843,-186.5 843,-186.5 843,-180.5 849,-174.5 855,-174.5 855,-174.5 930,-174.5 930,-174.5 936,-174.5 942,-180.5 942,-186.5 942,-186.5 942,-198.5 942,-198.5 942,-204.5 936,-210.5 930,-210.5"/>
<text text-anchor="middle" x="892.5" y="-195.5" font-family="DejaVu Sans" font-size="10.00">Matthias Niklaus</text>
<text text-anchor="middle" x="892.5" y="-184.5" font-family="DejaVu Sans" font-size="10.00">*15.09.1981</text>
</g>
<!-- pol20&#45;&gt;g2p10 -->
<!-- pol20&#45;&gt;pol21 -->
<!-- pol20&#45;&gt;pol21 -->
<!-- M_g2F4 -->
<g id="M_g2F4" class="node">
<title>M_g2F4</title>
<ellipse fill="#fff3b0" stroke="#b08900" cx="1019.5" cy="-104" rx="27" ry="18"/>
<text text-anchor="middle" x="1019.5" y="-101.8" font-family="DejaVu Sans" font-size="9.00">oo</text>
</g>
<!-- pol20&#45;&gt;M_g2F4 -->
<g id="edge68" class="edge">
<title>pol20&#45;&gt;M_g2F4</title>
<path fill="none" stroke="#555555" d="M1020.27,-171.87C1020.1,-156.92 1019.86,-136.53 1019.7,-122.21"/>
</g>
<!-- g2p10&#45;&gt;pol20 -->
<!-- g2p10&#45;&gt;pol20 -->
<!-- g2p10&#45;&gt;pol20 -->
<!-- g2p10&#45;&gt;M_g2F4 -->
<g id="edge67" class="edge">
<title>g2p10&#45;&gt;M_g2F4</title>
<path fill="none" stroke="#555555" d="M917.59,-174.41C942.17,-157.67 979.04,-132.55 1001.05,-117.57"/>
</g>
<!-- ped01 -->
<g id="P_ped01" class="node">
<title>ped01</title>
<path fill="#dbeafe" stroke="#333333" d="M1987.5,-393C1987.5,-393 1925.5,-393 1925.5,-393 1919.5,-393 1913.5,-387 1913.5,-381 1913.5,-381 1913.5,-369 1913.5,-369 1913.5,-363 1919.5,-357 1925.5,-357 1925.5,-357 1987.5,-357 1987.5,-357 1993.5,-357 1999.5,-363 1999.5,-369 1999.5,-369 1999.5,-381 1999.5,-381 1999.5,-387 1993.5,-393 1987.5,-393"/>
<text text-anchor="middle" x="1956.5" y="-378" font-family="DejaVu Sans" font-size="10.00">John Pedersen</text>
<text text-anchor="middle" x="1956.5" y="-367" font-family="DejaVu Sans" font-size="10.00">*31.07.1938</text>
</g>
<!-- pol14 -->
<g id="P_pol14" class="node">
<title>pol14</title>
<path fill="#fde7ef" stroke="#333333" d="M1869,-395.5C1869,-395.5 1752,-395.5 1752,-395.5 1746,-395.5 1740,-389.5 1740,-383.5 1740,-383.5 1740,-366.5 1740,-366.5 1740,-360.5 1746,-354.5 1752,-354.5 1752,-354.5 1869,-354.5 1869,-354.5 1875,-354.5 1881,-360.5 1881,-366.5 1881,-366.5 1881,-383.5 1881,-383.5 1881,-389.5 1875,-395.5 1869,-395.5"/>
<text text-anchor="middle" x="1810.5" y="-383.5" font-family="DejaVu Sans" font-size="10.00">Gertrud (Traudl) Pedersen</text>
<text text-anchor="middle" x="1810.5" y="-372.5" font-family="DejaVu Sans" font-size="10.00">geb. Polasek</text>
<text text-anchor="middle" x="1810.5" y="-361.5" font-family="DejaVu Sans" font-size="10.00">*21.03.1944</text>
</g>
<!-- ped01&#45;&gt;pol14 -->
<!-- ped01&#45;&gt;pol14 -->
<!-- ped01&#45;&gt;pol14 -->
<!-- M_pedF1 -->
<g id="M_pedF1" class="node">
<title>M_pedF1</title>
<ellipse fill="#fff3b0" stroke="#b08900" cx="1883.5" cy="-281" rx="27" ry="18"/>
<text text-anchor="middle" x="1883.5" y="-278.8" font-family="DejaVu Sans" font-size="9.00">oo</text>
</g>
<!-- ped01&#45;&gt;M_pedF1 -->
<g id="edge38" class="edge">
<title>ped01&#45;&gt;M_pedF1</title>
<path fill="none" stroke="#555555" d="M1942.77,-356.7C1929.22,-339.62 1908.71,-313.77 1895.71,-297.39"/>
</g>
<!-- polS05 -->
<g id="P_polS05" class="node">
<title>polS05</title>
<path fill="#fde7ef" stroke="#333333" d="M1053,-395.5C1053,-395.5 988,-395.5 988,-395.5 982,-395.5 976,-389.5 976,-383.5 976,-383.5 976,-366.5 976,-366.5 976,-360.5 982,-354.5 988,-354.5 988,-354.5 1053,-354.5 1053,-354.5 1059,-354.5 1065,-360.5 1065,-366.5 1065,-366.5 1065,-383.5 1065,-383.5 1065,-389.5 1059,-395.5 1053,-395.5"/>
<text text-anchor="middle" x="1020.5" y="-383.5" font-family="DejaVu Sans" font-size="10.00">Hanka Polasek</text>
<text text-anchor="middle" x="1020.5" y="-372.5" font-family="DejaVu Sans" font-size="10.00">geb. Steindel</text>
<text text-anchor="middle" x="1020.5" y="-361.5" font-family="DejaVu Sans" font-size="10.00">*10.06.1951</text>
</g>
<!-- polS05&#45;&gt;pol15 -->
<!-- M_polF5 -->
<g id="M_polF5" class="node">
<title>M_polF5</title>
<ellipse fill="#fff3b0" stroke="#b08900" cx="1020.5" cy="-281" rx="27" ry="18"/>
<text text-anchor="middle" x="1020.5" y="-278.8" font-family="DejaVu Sans" font-size="9.00">oo</text>
</g>
<!-- polS05&#45;&gt;M_polF5 -->
<g id="edge76" class="edge">
<title>polS05&#45;&gt;M_polF5</title>
<path fill="none" stroke="#555555" d="M1020.5,-354.49C1020.5,-338.03 1020.5,-314.71 1020.5,-299.01"/>
</g>
<!-- pol23 -->
<g id="P_pol23" class="node">
<title>pol23</title>
<path fill="#fde7ef" stroke="#333333" d="M1299,-210.5C1299,-210.5 1232,-210.5 1232,-210.5 1226,-210.5 1220,-204.5 1220,-198.5 1220,-198.5 1220,-186.5 1220,-186.5 1220,-180.5 1226,-174.5 1232,-174.5 1232,-174.5 1299,-174.5 1299,-174.5 1305,-174.5 1311,-180.5 1311,-186.5 1311,-186.5 1311,-198.5 1311,-198.5 1311,-204.5 1305,-210.5 1299,-210.5"/>
<text text-anchor="middle" x="1265.5" y="-195.5" font-family="DejaVu Sans" font-size="10.00">Irene Schlosser</text>
<text text-anchor="middle" x="1265.5" y="-184.5" font-family="DejaVu Sans" font-size="10.00">*20.03.1975</text>
</g>
<!-- pol24 -->
<g id="P_pol24" class="node">
<title>pol24</title>
<path fill="#fde7ef" stroke="#333333" d="M1423.5,-210.5C1423.5,-210.5 1355.5,-210.5 1355.5,-210.5 1349.5,-210.5 1343.5,-204.5 1343.5,-198.5 1343.5,-198.5 1343.5,-186.5 1343.5,-186.5 1343.5,-180.5 1349.5,-174.5 1355.5,-174.5 1355.5,-174.5 1423.5,-174.5 1423.5,-174.5 1429.5,-174.5 1435.5,-180.5 1435.5,-186.5 1435.5,-186.5 1435.5,-198.5 1435.5,-198.5 1435.5,-204.5 1429.5,-210.5 1423.5,-210.5"/>
<text text-anchor="middle" x="1389.5" y="-195.5" font-family="DejaVu Sans" font-size="10.00">Karin Schlosser</text>
<text text-anchor="middle" x="1389.5" y="-184.5" font-family="DejaVu Sans" font-size="10.00">*23.11.1977</text>
</g>
<!-- pol23&#45;&gt;pol24 -->
<!-- pol11&#45;&gt;polS03 -->
<!-- pol11&#45;&gt;polS03 -->
<!-- polS02 -->
<g id="P_polS02" class="node">
<title>polS02</title>
<path fill="#fde7ef" stroke="#333333" d="M1507,-575.5C1507,-575.5 1430,-575.5 1430,-575.5 1424,-575.5 1418,-569.5 1418,-563.5 1418,-563.5 1418,-551.5 1418,-551.5 1418,-545.5 1424,-539.5 1430,-539.5 1430,-539.5 1507,-539.5 1507,-539.5 1513,-539.5 1519,-545.5 1519,-551.5 1519,-551.5 1519,-563.5 1519,-563.5 1519,-569.5 1513,-575.5 1507,-575.5"/>
<text text-anchor="middle" x="1468.5" y="-560.5" font-family="DejaVu Sans" font-size="10.00">Gertrude Polasek</text>
<text text-anchor="middle" x="1468.5" y="-549.5" font-family="DejaVu Sans" font-size="10.00">geb. Winkler</text>
</g>
<!-- pol11&#45;&gt;polS02 -->
<!-- pol11&#45;&gt;polS02 -->
<!-- M_polF2 -->
<g id="M_polF2" class="node">
<title>M_polF2</title>
<ellipse fill="#fff3b0" stroke="#b08900" cx="1468.5" cy="-469" rx="27" ry="18"/>
<text text-anchor="middle" x="1468.5" y="-466.8" font-family="DejaVu Sans" font-size="9.00">oo</text>
</g>
<!-- pol11&#45;&gt;M_polF2 -->
<g id="edge7" class="edge">
<title>pol11&#45;&gt;M_polF2</title>
<path fill="none" stroke="#555555" d="M1344.12,-539.41C1375,-522.18 1421.79,-496.07 1448.3,-481.27"/>
</g>
<!-- pol11&#45;&gt;M_polF3 -->
<g id="edge42" class="edge">
<title>pol11&#45;&gt;M_polF3</title>
<path fill="none" stroke="#555555" d="M1285.05,-539.41C1256.69,-522.37 1213.89,-496.67 1189.12,-481.79"/>
</g>
<!-- g2p16 -->
<g id="P_g2p16" class="node">
<title>g2p16</title>
<path fill="#dbeafe" stroke="#333333" d="M1648,-36C1648,-36 1547,-36 1547,-36 1541,-36 1535,-30 1535,-24 1535,-24 1535,-12 1535,-12 1535,-6 1541,0 1547,0 1547,0 1648,0 1648,0 1654,0 1660,-6 1660,-12 1660,-12 1660,-24 1660,-24 1660,-30 1654,-36 1648,-36"/>
<text text-anchor="middle" x="1597.5" y="-21" font-family="DejaVu Sans" font-size="10.00">Nelo&#45;Mika Schultheiss</text>
<text text-anchor="middle" x="1597.5" y="-10" font-family="DejaVu Sans" font-size="10.00">*15.08.2022</text>
</g>
<!-- pol14&#45;&gt;ped01 -->
<!-- pol14&#45;&gt;M_pedF1 -->
<g id="edge39" class="edge">
<title>pol14&#45;&gt;M_pedF1</title>
<path fill="none" stroke="#555555" d="M1825.98,-354.49C1839.54,-337.4 1858.97,-312.91 1871.41,-297.23"/>
</g>
<!-- g2p13 -->
<g id="P_g2p13" class="node">
<title>g2p13</title>
<path fill="#dbeafe" stroke="#333333" d="M1154.5,-36C1154.5,-36 1102.5,-36 1102.5,-36 1096.5,-36 1090.5,-30 1090.5,-24 1090.5,-24 1090.5,-12 1090.5,-12 1090.5,-6 1096.5,0 1102.5,0 1102.5,0 1154.5,0 1154.5,0 1160.5,0 1166.5,-6 1166.5,-12 1166.5,-12 1166.5,-24 1166.5,-24 1166.5,-30 1160.5,-36 1154.5,-36"/>
<text text-anchor="middle" x="1128.5" y="-21" font-family="DejaVu Sans" font-size="10.00">Ben Niklaus</text>
<text text-anchor="middle" x="1128.5" y="-10" font-family="DejaVu Sans" font-size="10.00">*14.10.2016</text>
</g>
<!-- pol22&#45;&gt;g3p04 -->
<!-- pol22&#45;&gt;g3p04 -->
<!-- pol22&#45;&gt;g3p04 -->
<!-- pol22&#45;&gt;M_g3F2 -->
<g id="edge28" class="edge">
<title>pol22&#45;&gt;M_g3F2</title>
<path fill="none" stroke="#555555" d="M470.21,-174.41C445.29,-157.57 407.84,-132.26 385.71,-117.31"/>
</g>
<!-- g2p11 -->
<g id="P_g2p11" class="node">
<title>g2p11</title>
<path fill="#dbeafe" stroke="#333333" d="M936.5,-36C936.5,-36 884.5,-36 884.5,-36 878.5,-36 872.5,-30 872.5,-24 872.5,-24 872.5,-12 872.5,-12 872.5,-6 878.5,0 884.5,0 884.5,0 936.5,0 936.5,0 942.5,0 948.5,-6 948.5,-12 948.5,-12 948.5,-24 948.5,-24 948.5,-30 942.5,-36 936.5,-36"/>
<text text-anchor="middle" x="910.5" y="-21" font-family="DejaVu Sans" font-size="10.00">Tim Niklaus</text>
<text text-anchor="middle" x="910.5" y="-10" font-family="DejaVu Sans" font-size="10.00">*23.10.2012</text>
</g>
<!-- g2p12 -->
<g id="P_g2p12" class="node">
<title>g2p12</title>
<path fill="#fde7ef" stroke="#333333" d="M1046,-36C1046,-36 993,-36 993,-36 987,-36 981,-30 981,-24 981,-24 981,-12 981,-12 981,-6 987,0 993,0 993,0 1046,0 1046,0 1052,0 1058,-6 1058,-12 1058,-12 1058,-24 1058,-24 1058,-30 1052,-36 1046,-36"/>
<text text-anchor="middle" x="1019.5" y="-21" font-family="DejaVu Sans" font-size="10.00">Lina Niklaus</text>
<text text-anchor="middle" x="1019.5" y="-10" font-family="DejaVu Sans" font-size="10.00">*24.08.2014</text>
</g>
<!-- g2p11&#45;&gt;g2p12 -->
<!-- g2p07 -->
<g id="P_g2p07" class="node">
<title>g2p07</title>
<path fill="#fde7ef" stroke="#333333" d="M791,-213C791,-213 712,-213 712,-213 706,-213 700,-207 700,-201 700,-201 700,-184 700,-184 700,-178 706,-172 712,-172 712,-172 791,-172 791,-172 797,-172 803,-178 803,-184 803,-184 803,-201 803,-201 803,-207 797,-213 791,-213"/>
<text text-anchor="middle" x="751.5" y="-201" font-family="DejaVu Sans" font-size="10.00">Elisabeth Polasek</text>
<text text-anchor="middle" x="751.5" y="-190" font-family="DejaVu Sans" font-size="10.00">geb. Lackner</text>
<text text-anchor="middle" x="751.5" y="-179" font-family="DejaVu Sans" font-size="10.00">*13.05.1973</text>
</g>
<!-- pol19 -->
<g id="P_pol19" class="node">
<title>pol19</title>
<path fill="#dbeafe" stroke="#333333" d="M656,-210.5C656,-210.5 585,-210.5 585,-210.5 579,-210.5 573,-204.5 573,-198.5 573,-198.5 573,-186.5 573,-186.5 573,-180.5 579,-174.5 585,-174.5 585,-174.5 656,-174.5 656,-174.5 662,-174.5 668,-180.5 668,-186.5 668,-186.5 668,-198.5 668,-198.5 668,-204.5 662,-210.5 656,-210.5"/>
<text text-anchor="middle" x="620.5" y="-195.5" font-family="DejaVu Sans" font-size="10.00">Richard Polasek</text>
<text text-anchor="middle" x="620.5" y="-184.5" font-family="DejaVu Sans" font-size="10.00">*06.01.1976</text>
</g>
<!-- g2p07&#45;&gt;pol19 -->
<!-- M_g2F3 -->
<g id="M_g2F3" class="node">
<title>M_g2F3</title>
<ellipse fill="#fff3b0" stroke="#b08900" cx="702.5" cy="-104" rx="27" ry="18"/>
<text text-anchor="middle" x="702.5" y="-101.8" font-family="DejaVu Sans" font-size="9.00">oo</text>
</g>
<!-- g2p07&#45;&gt;M_g2F3 -->
<g id="edge13" class="edge">
<title>g2p07&#45;&gt;M_g2F3</title>
<path fill="none" stroke="#555555" d="M740.38,-171.87C731.68,-156.52 719.74,-135.44 711.61,-121.08"/>
</g>
<!-- pol19&#45;&gt;g2p07 -->
<!-- pol19&#45;&gt;g2p07 -->
<!-- pol19&#45;&gt;g2p07 -->
<!-- pol19&#45;&gt;M_g2F3 -->
<g id="edge12" class="edge">
<title>pol19&#45;&gt;M_g2F3</title>
<path fill="none" stroke="#555555" d="M636.7,-174.41C651.82,-158.46 674.16,-134.9 688.52,-119.75"/>
</g>
<!-- g3p08 -->
<g id="P_g3p08" class="node">
<title>g3p08</title>
<path fill="#fde7ef" stroke="#333333" d="M553.5,-36C553.5,-36 471.5,-36 471.5,-36 465.5,-36 459.5,-30 459.5,-24 459.5,-24 459.5,-12 459.5,-12 459.5,-6 465.5,0 471.5,0 471.5,0 553.5,0 553.5,0 559.5,0 565.5,-6 565.5,-12 565.5,-12 565.5,-24 565.5,-24 565.5,-30 559.5,-36 553.5,-36"/>
<text text-anchor="middle" x="512.5" y="-21" font-family="DejaVu Sans" font-size="10.00">Sara Guttenberger</text>
<text text-anchor="middle" x="512.5" y="-10" font-family="DejaVu Sans" font-size="10.00">*16.09.2011</text>
</g>
<!-- g2p08 -->
<g id="P_g2p08" class="node">
<title>g2p08</title>
<path fill="#dbeafe" stroke="#333333" d="M699,-36C699,-36 610,-36 610,-36 604,-36 598,-30 598,-24 598,-24 598,-12 598,-12 598,-6 604,0 610,0 610,0 699,0 699,0 705,0 711,-6 711,-12 711,-12 711,-24 711,-24 711,-30 705,-36 699,-36"/>
<text text-anchor="middle" x="654.5" y="-21" font-family="DejaVu Sans" font-size="10.00">Maximilian Polasek</text>
<text text-anchor="middle" x="654.5" y="-10" font-family="DejaVu Sans" font-size="10.00">*09.12.2001</text>
</g>
<!-- g2p08&#45;&gt;g2p09 -->
<!-- pol25 -->
<g id="P_pol25" class="node">
<title>pol25</title>
<path fill="#dbeafe" stroke="#333333" d="M1537.5,-210.5C1537.5,-210.5 1479.5,-210.5 1479.5,-210.5 1473.5,-210.5 1467.5,-204.5 1467.5,-198.5 1467.5,-198.5 1467.5,-186.5 1467.5,-186.5 1467.5,-180.5 1473.5,-174.5 1479.5,-174.5 1479.5,-174.5 1537.5,-174.5 1537.5,-174.5 1543.5,-174.5 1549.5,-180.5 1549.5,-186.5 1549.5,-186.5 1549.5,-198.5 1549.5,-198.5 1549.5,-204.5 1543.5,-210.5 1537.5,-210.5"/>
<text text-anchor="middle" x="1508.5" y="-195.5" font-family="DejaVu Sans" font-size="10.00">Julian Kessler</text>
<text text-anchor="middle" x="1508.5" y="-184.5" font-family="DejaVu Sans" font-size="10.00">*28.01.1998</text>
</g>
<!-- g3p07&#45;&gt;g3p08 -->
<!-- polS02&#45;&gt;pol11 -->
<!-- polS02&#45;&gt;M_polF2 -->
<g id="edge8" class="edge">
<title>polS02&#45;&gt;M_polF2</title>
<path fill="none" stroke="#555555" d="M1468.5,-539.41C1468.5,-524.25 1468.5,-502.21 1468.5,-487.05"/>
</g>
<!-- g2p15 -->
<g id="P_g2p15" class="node">
<title>g2p15</title>
<path fill="#dbeafe" stroke="#333333" d="M1491,-36C1491,-36 1396,-36 1396,-36 1390,-36 1384,-30 1384,-24 1384,-24 1384,-12 1384,-12 1384,-6 1390,0 1396,0 1396,0 1491,0 1491,0 1497,0 1503,-6 1503,-12 1503,-12 1503,-24 1503,-24 1503,-30 1497,-36 1491,-36"/>
<text text-anchor="middle" x="1443.5" y="-21" font-family="DejaVu Sans" font-size="10.00">Koa&#45;Miro Schultheiss</text>
<text text-anchor="middle" x="1443.5" y="-10" font-family="DejaVu Sans" font-size="10.00">*29.08.2019</text>
</g>
<!-- g2p15&#45;&gt;g2p16 -->
<!-- pol21&#45;&gt;g2p14 -->
<!-- pol21&#45;&gt;g2p14 -->
<!-- pol21&#45;&gt;g2p14 -->
<!-- pol21&#45;&gt;M_g2F5 -->
<g id="edge18" class="edge">
<title>pol21&#45;&gt;M_g2F5</title>
<path fill="none" stroke="#555555" d="M1188.05,-177.02C1196.89,-174.15 1203.5,-172 1203.5,-172 1203.5,-172 1419.87,-126.27 1495.09,-110.37"/>
</g>
<!-- g2p12&#45;&gt;g2p13 -->
<!-- pol15&#45;&gt;polS04 -->
<!-- pol15&#45;&gt;polS04 -->
<!-- pol15&#45;&gt;polS04 -->
<!-- pol15&#45;&gt;pol16 -->
<!-- pol15&#45;&gt;polS05 -->
<!-- pol15&#45;&gt;polS05 -->
<!-- pol15&#45;&gt;M_polF4 -->
<g id="edge62" class="edge">
<title>pol15&#45;&gt;M_polF4</title>
<path fill="none" stroke="#555555" d="M728.8,-356.91C702.65,-338.83 662.02,-310.72 638.67,-294.57"/>
</g>
<!-- pol15&#45;&gt;M_polF5 -->
<g id="edge75" class="edge">
<title>pol15&#45;&gt;M_polF5</title>
<path fill="none" stroke="#555555" d="M803.09,-356.91C860.85,-337.01 953.85,-304.96 997.05,-290.08"/>
</g>
<!-- pol17&#45;&gt;pol18 -->
<!-- pol17&#45;&gt;pol18 -->
<!-- pol17&#45;&gt;polS07 -->
<!-- pol17&#45;&gt;M_polF7 -->
<g id="edge85" class="edge">
<title>pol17&#45;&gt;M_polF7</title>
<path fill="none" stroke="#555555" d="M1195.37,-354.49C1219.15,-336.56 1253.74,-310.47 1274.3,-294.97"/>
</g>
<!-- M_polF6&#45;&gt;pol22 -->
<g id="edge4" class="edge">
<title>M_polF6&#45;&gt;pol22</title>
<path fill="none" stroke="#555555" d="M495.5,-262.91C495.5,-250.94 495.5,-234.7 495.5,-220.93"/>
<polygon fill="#555555" stroke="#555555" points="499,-220.55 495.5,-210.55 492,-220.55 499,-220.55"/>
</g>
<!-- M_polF2&#45;&gt;pol14 -->
<g id="edge9" class="edge">
<title>M_polF2&#45;&gt;pol14</title>
<path fill="none" stroke="#555555" d="M1493.41,-461.45C1557.58,-444.59 1723.5,-401 1723.5,-401 1723.5,-401 1727.05,-399.98 1732.72,-398.35"/>
<polygon fill="#555555" stroke="#555555" points="1733.73,-401.7 1742.38,-395.58 1731.8,-394.97 1733.73,-401.7"/>
</g>
<!-- M_g2F3&#45;&gt;g2p09 -->
<g id="edge15" class="edge">
<title>M_g2F3&#45;&gt;g2p09</title>
<path fill="none" stroke="#555555" d="M717.6,-88.75C730.81,-76.28 750.28,-57.9 765.92,-43.14"/>
<polygon fill="#555555" stroke="#555555" points="768.38,-45.64 773.25,-36.23 763.57,-40.55 768.38,-45.64"/>
</g>
<!-- M_g2F3&#45;&gt;g2p08 -->
<g id="edge14" class="edge">
<title>M_g2F3&#45;&gt;g2p08</title>
<path fill="none" stroke="#555555" d="M693.25,-86.8C686.47,-74.95 677.14,-58.62 669.33,-44.96"/>
<polygon fill="#555555" stroke="#555555" points="672.22,-42.96 664.22,-36.01 666.14,-46.43 672.22,-42.96"/>
</g>
<!-- M_g2F5&#45;&gt;g2p16 -->
<g id="edge21" class="edge">
<title>M_g2F5&#45;&gt;g2p16</title>
<path fill="none" stroke="#555555" d="M1533.91,-88.37C1545.18,-76.07 1561.53,-58.24 1574.83,-43.73"/>
<polygon fill="#555555" stroke="#555555" points="1577.68,-45.8 1581.85,-36.07 1572.52,-41.07 1577.68,-45.8"/>
</g>
<!-- M_g2F5&#45;&gt;g2p15 -->
<g id="edge20" class="edge">
<title>M_g2F5&#45;&gt;g2p15</title>
<path fill="none" stroke="#555555" d="M1507.09,-88.37C1495.82,-76.07 1479.47,-58.24 1466.17,-43.73"/>
<polygon fill="#555555" stroke="#555555" points="1468.48,-41.07 1459.15,-36.07 1463.32,-45.8 1468.48,-41.07"/>
</g>
<!-- M_polF9&#45;&gt;pol25 -->
<g id="edge26" class="edge">
<title>M_polF9&#45;&gt;pol25</title>
<path fill="none" stroke="#555555" d="M1541.79,-263.73C1535.95,-251.4 1527.8,-234.21 1521.02,-219.92"/>
<polygon fill="#555555" stroke="#555555" points="1524.04,-218.12 1516.6,-210.58 1517.72,-221.12 1524.04,-218.12"/>
</g>
<!-- M_g3F2&#45;&gt;g3p05 -->
<g id="edge30" class="edge">
<title>M_g3F2&#45;&gt;g3p05</title>
<path fill="none" stroke="#555555" d="M342.9,-96.27C297.4,-83.82 198.58,-56.78 130.79,-38.23"/>
<polygon fill="#555555" stroke="#555555" points="131.59,-34.82 121.02,-35.56 129.74,-41.57 131.59,-34.82"/>
</g>
<!-- M_g3F2&#45;&gt;g3p06 -->
<g id="edge31" class="edge">
<title>M_g3F2&#45;&gt;g3p06</title>
<path fill="none" stroke="#555555" d="M347.18,-91.85C323.61,-78.9 284.17,-57.25 254.41,-40.91"/>
<polygon fill="#555555" stroke="#555555" points="255.96,-37.77 245.51,-36.02 252.59,-43.9 255.96,-37.77"/>
</g>
<!-- M_g3F2&#45;&gt;g3p08 -->
<g id="edge33" class="edge">
<title>M_g3F2&#45;&gt;g3p08</title>
<path fill="none" stroke="#555555" d="M387.36,-91.5C409.68,-78.56 446.46,-57.26 474.38,-41.08"/>
<polygon fill="#555555" stroke="#555555" points="476.21,-44.07 483.11,-36.03 472.7,-38.01 476.21,-44.07"/>
</g>
<!-- M_g3F2&#45;&gt;g3p07 -->
<g id="edge32" class="edge">
<title>M_g3F2&#45;&gt;g3p07</title>
<path fill="none" stroke="#555555" d="M367.5,-85.6C367.5,-74.26 367.5,-59.23 367.5,-46.32"/>
<polygon fill="#555555" stroke="#555555" points="371,-46.1 367.5,-36.1 364,-46.1 371,-46.1"/>
</g>
<!-- M_pedF1&#45;&gt;ped02 -->
<g id="edge40" class="edge">
<title>M_pedF1&#45;&gt;ped02</title>
<path fill="none" stroke="#555555" d="M1883.5,-262.91C1883.5,-250.94 1883.5,-234.7 1883.5,-220.93"/>
<polygon fill="#555555" stroke="#555555" points="1887,-220.55 1883.5,-210.55 1880,-220.55 1887,-220.55"/>
</g>
<!-- M_polF3&#45;&gt;pol18 -->
<g id="edge47" class="edge">
<title>M_polF3&#45;&gt;pol18</title>
<path fill="none" stroke="#555555" d="M1194.85,-462.74C1270.99,-446.95 1492.5,-401 1492.5,-401 1492.5,-401 1495.38,-399.74 1499.84,-397.78"/>
<polygon fill="#555555" stroke="#555555" points="1501.54,-400.86 1509.29,-393.63 1498.73,-394.45 1501.54,-400.86"/>
</g>
<!-- M_polF3&#45;&gt;pol16 -->
<g id="edge45" class="edge">
<title>M_polF3&#45;&gt;pol16</title>
<path fill="none" stroke="#555555" d="M1145.41,-460.31C1090.25,-442.72 959.5,-401 959.5,-401 959.5,-401 956.97,-399.93 952.96,-398.23"/>
<polygon fill="#555555" stroke="#555555" points="954.26,-394.98 943.69,-394.3 951.53,-401.42 954.26,-394.98"/>
</g>
<!-- M_polF3&#45;&gt;pol15 -->
<g id="edge44" class="edge">
<title>M_polF3&#45;&gt;pol15</title>
<path fill="none" stroke="#555555" d="M1144.04,-462.8C1066.97,-447.06 841.5,-401 841.5,-401 841.5,-401 834.1,-398.9 823.59,-395.91"/>
<polygon fill="#555555" stroke="#555555" points="824.23,-392.46 813.66,-393.09 822.32,-399.19 824.23,-392.46"/>
</g>
<!-- M_polF3&#45;&gt;pol17 -->
<g id="edge46" class="edge">
<title>M_polF3&#45;&gt;pol17</title>
<path fill="none" stroke="#555555" d="M1169.5,-450.7C1169.5,-438.13 1169.5,-420.81 1169.5,-406.01"/>
<polygon fill="#555555" stroke="#555555" points="1173,-405.78 1169.5,-395.78 1166,-405.78 1173,-405.78"/>
</g>
<!-- M_polF4&#45;&gt;pol19 -->
<g id="edge64" class="edge">
<title>M_polF4&#45;&gt;pol19</title>
<path fill="none" stroke="#555555" d="M620.5,-262.91C620.5,-250.94 620.5,-234.7 620.5,-220.93"/>
<polygon fill="#555555" stroke="#555555" points="624,-220.55 620.5,-210.55 617,-220.55 624,-220.55"/>
</g>
<!-- M_g2F4&#45;&gt;g2p13 -->
<g id="edge71" class="edge">
<title>M_g2F4&#45;&gt;g2p13</title>
<path fill="none" stroke="#555555" d="M1036.53,-89.88C1052.98,-77.2 1078.26,-57.72 1098.16,-42.38"/>
<polygon fill="#555555" stroke="#555555" points="1100.53,-44.98 1106.31,-36.1 1096.25,-39.43 1100.53,-44.98"/>
</g>
<!-- M_g2F4&#45;&gt;g2p11 -->
<g id="edge69" class="edge">
<title>M_g2F4&#45;&gt;g2p11</title>
<path fill="none" stroke="#555555" d="M1002.47,-89.88C986.02,-77.2 960.74,-57.72 940.84,-42.38"/>
<polygon fill="#555555" stroke="#555555" points="942.75,-39.43 932.69,-36.1 938.47,-44.98 942.75,-39.43"/>
</g>
<!-- M_g2F4&#45;&gt;g2p12 -->
<g id="edge70" class="edge">
<title>M_g2F4&#45;&gt;g2p12</title>
<path fill="none" stroke="#555555" d="M1019.5,-85.6C1019.5,-74.26 1019.5,-59.23 1019.5,-46.32"/>
<polygon fill="#555555" stroke="#555555" points="1023,-46.1 1019.5,-36.1 1016,-46.1 1023,-46.1"/>
</g>
<!-- M_polF5&#45;&gt;pol20 -->
<g id="edge77" class="edge">
<title>M_polF5&#45;&gt;pol20</title>
<path fill="none" stroke="#555555" d="M1020.5,-262.91C1020.5,-251.64 1020.5,-236.58 1020.5,-223.37"/>
<polygon fill="#555555" stroke="#555555" points="1024,-223.28 1020.5,-213.28 1017,-223.28 1024,-223.28"/>
</g>
<!-- M_polF5&#45;&gt;pol21 -->
<g id="edge78" class="edge">
<title>M_polF5&#45;&gt;pol21</title>
<path fill="none" stroke="#555555" d="M1038.39,-267.42C1057.37,-254.07 1087.79,-232.68 1111.03,-216.33"/>
<polygon fill="#555555" stroke="#555555" points="1113.07,-219.18 1119.24,-210.56 1109.04,-213.45 1113.07,-219.18"/>
</g>
<!-- M_polF7&#45;&gt;pol23 -->
<g id="edge86" class="edge">
<title>M_polF7&#45;&gt;pol23</title>
<path fill="none" stroke="#555555" d="M1286.36,-262.91C1282.73,-250.83 1277.79,-234.38 1273.62,-220.53"/>
<polygon fill="#555555" stroke="#555555" points="1276.86,-219.12 1270.63,-210.55 1270.15,-221.14 1276.86,-219.12"/>
</g>
<!-- M_polF7&#45;&gt;pol24 -->
<g id="edge87" class="edge">
<title>M_polF7&#45;&gt;pol24</title>
<path fill="none" stroke="#555555" d="M1307.25,-266.1C1322.07,-253.02 1344.59,-233.14 1362.32,-217.49"/>
<polygon fill="#555555" stroke="#555555" points="1364.9,-219.88 1370.08,-210.64 1360.27,-214.63 1364.9,-219.88"/>
</g>
</g>
</svg>
