<?xml version="1.0" encoding="UTF-8" standalone="no"?>
<!DOCTYPE svg PUBLIC "-//W3C//DTD SVG 1.1//EN"
 "http://www.w3.org/Graphics/SVG/1.1/DTD/svg11.dtd">
<!-- Generated by graphviz version 2.43.0 (0)
 -->
<!-- Title: %3 Pages: 1 -->
<svg width="2050pt" height="607pt"
 viewBox="0.00 0.00 2050.00 607.00" xmlns="http://www.w3.org/2000/svg" xmlns:xlink="http://www.w3.org/1999/xlink">
<style><![CDATA[
  g[id^="P_"], g[id^="M_"] { cursor: pointer; }
  .highlight ellipse, .highlight polygon, .highlight path, .highlight rect {
    stroke: #d00; stroke-width: 2.5;
  }
  @keyframes pulse { 0%,100%{opacity:1} 50%{opacity:.45} }
  .blink { animation: pulse 0.9s ease-in-out 3; }
]]></style>
<script><![CDATA[
(function(){
  var SPOUSE = {"P_polS06": ["P_pol16"], "P_pol16": ["P_polS06"], "P_pol21": ["P_g2p14"], "P_g2p14": ["P_pol21"], "P_polS07": ["P_pol17"], "P_pol17": ["P_polS07"], "P_g2p10": ["P_pol20"], "P_pol20": ["P_g2p10"], "P_pol15": ["P_polS05", "P_polS04"], "P_polS05": ["P_pol15"], "P_pol22": ["P_g3p04"], "P_g3p04": ["P_pol22"], "P_pol19": ["P_g2p07"], "P_g2p07": ["P_pol19"], "P_polS04": ["P_pol15"], "P_pol11": ["P_polS02", "P_polS03"], "P_polS02": ["P_pol11"], "P_polS03": ["P_pol11"], "P_ped01": ["P_pol14"], "P_pol14": ["P_ped01"], "P_polS08": ["P_pol18"], "P_pol18": ["P_polS08", "P_polS09"], "P_polS09": ["P_pol18"]};
  var FAMILY = {"M_polF6": ["P_polS06", "P_pol16", "P_pol22"], "M_g2F5": ["P_pol21", "P_g2p14", "P_g2p15", "P_g2p16"], "M_polF7": ["P_polS07", "P_pol17", "P_pol23", "P_pol24"], "M_g2F4": ["P_g2p10", "P_pol20", "P_g2p11", "P_g2p12", "P_g2p13"], "M_polF5": ["P_pol15", "P_polS05", "P_pol20", "P_pol21"], "M_g3F2": ["P_pol22", "P_g3p04", "P_g3p05", "P_g3p06", "P_g3p07", "P_g3p08"], "M_g2F3": ["P_pol19", "P_g2p07", "P_g2p08", "P_g2p09"], "M_polF4": ["P_pol15", "P_polS04", "P_pol19"], "M_polF2": ["P_pol11", "P_polS02", "P_pol14"], "M_polF3": ["P_pol11", "P_polS03", "P_pol15", "P_pol16", "P_pol17", "P_pol18"], "M_pedF1": ["P_ped01", "P_pol14", "P_ped02"], "M_polF8": ["P_polS08", "P_pol18"], "M_polF9": ["P_polS09", "P_pol18", "P_pol25"]};
  function clearHl(){ document.querySelectorAll('.blink').forEach(function(n){ n.classList.remove('blink'); n.classList.remove('highlight'); }); }
  function hl(id){ var el=document.getElementById(id); if(el){ el.classList.add('highlight'); el.classList.add('blink'); } }
  document.addEventListener('click', function(evt){
    var target = evt.target;
    var g = target.closest && target.closest('g[id^="P_"], g[id^="M_"]');
    if (!g) { while (target) { if (target.id && /^([PM]_)/.test(target.id) && target.tagName && target.tagName.toLowerCase() === 'g') { g = target; break; } target = target.parentNode; } }
    if (!g) return;
    var id = g.id; clearHl();
    if (/^P_/.test(id)) { (SPOUSE[id] || []).forEach(hl); }
    else if (/^M_/.test(id)) { hl(id); (FAMILY[id] || []).forEach(hl); }
  }, false);
})();
]]></script>

<g id="graph0" class="graph" transform="scale(1 1) rotate(0) translate(4 603)">
<title>%3</title>
<polygon fill="white" stroke="transparent" points="-4,4 -4,-603 2046,-603 2046,4 -4,4"/>
<text text-anchor="middle" x="1021" y="-585.4" font-family="DejaVu Sans" font-size="12.00">Otto</text>
<!-- pol17 -->
<g id="P_pol17" class="node">
<title>pol17</title>
<path fill="#fde7ef" stroke="#333333" d="M1391,-395.5C1391,-395.5 1271,-395.5 1271,-395.5 1265,-395.5 1259,-389.5 1259,-383.5 1259,-383.5 1259,-366.5 1259,-366.5 1259,-360.5 1265,-354.5 1271,-354.5 1271,-354.5 1391,-354.5 1391,-354.5 1397,-354.5 1403,-360.5 1403,-366.5 1403,-366.5 1403,-383.5 1403,-383.5 1403,-389.5 1397,-395.5 1391,-395.5"/>
<text text-anchor="middle" x="1331" y="-383.5" font-family="DejaVu Sans" font-size="10.00">Adele (Sissi) Schlosser</text>
<text text-anchor="middle" x="1331" y="-372.5" font-family="DejaVu Sans" font-size="10.00">geb. Polasek</text>
<text text-anchor="middle" x="1331" y="-361.5" font-family="DejaVu Sans" font-size="10.00">*21.02.1954 &#160;+31.12.2023</text>
</g>
<!-- polS07 -->
<g id="P_polS07" class="node">
<title>polS07</title>
<path fill="#dbeafe" stroke="#333333" d="M1215,-393C1215,-393 1153,-393 1153,-393 1147,-393 1141,-387 1141,-381 1141,-381 1141,-369 1141,-369 1141,-363 1147,-357 1153,-357 1153,-357 1215,-357 1215,-357 1221,-357 1227,-363 1227,-369 1227,-369 1227,-381 1227,-381 1227,-387 1221,-393 1215,-393"/>
<text text-anchor="middle" x="1184" y="-378" font-family="DejaVu Sans" font-size="10.00">Paul Schlosser</text>
<text text-anchor="middle" x="1184" y="-367" font-family="DejaVu Sans" font-size="10.00">*19.08.1943</text>
</g>
<!-- pol17&#45;&gt;polS07 -->
<!-- pol18 -->
<g id="P_pol18" class="node">
<title>pol18</title>
<path fill="#fde7ef" stroke="#333333" d="M1503,-401C1503,-401 1447,-401 1447,-401 1441,-401 1435,-395 1435,-389 1435,-389 1435,-361 1435,-361 1435,-355 1441,-349 1447,-349 1447,-349 1503,-349 1503,-349 1509,-349 1515,-355 1515,-361 1515,-361 1515,-389 1515,-389 1515,-395 1509,-401 1503,-401"/>
<text text-anchor="middle" x="1475" y="-389" font-family="DejaVu Sans" font-size="10.00">Doris Kessler</text>
<text text-anchor="middle" x="1475" y="-378" font-family="DejaVu Sans" font-size="10.00">geb. Polasek</text>
<text text-anchor="middle" x="1475" y="-367" font-family="DejaVu Sans" font-size="10.00">verh. Vogl</text>
<text text-anchor="middle" x="1475" y="-356" font-family="DejaVu Sans" font-size="10.00">*03.02.1959</text>
</g>
<!-- pol17&#45;&gt;pol18 -->
<!-- pol17&#45;&gt;pol18 -->
<!-- M_polF7 -->
<g id="M_polF7" class="node">
<title>M_polF7</title>
<ellipse fill="#fff3b0" stroke="#b08900" cx="1329" cy="-281" rx="27" ry="18"/>
<text text-anchor="middle" x="1329" y="-278.8" font-family="DejaVu Sans" font-size="9.00">oo</text>
</g>
<!-- pol17&#45;&gt;M_polF7 -->
<g id="edge14" class="edge">
<title>pol17&#45;&gt;M_polF7</title>
<path fill="none" stroke="#555555" d="M1330.58,-354.49C1330.22,-338.03 1329.71,-314.71 1329.37,-299.01"/>
</g>
<!-- polS07&#45;&gt;pol17 -->
<!-- polS07&#45;&gt;pol17 -->
<!-- polS07&#45;&gt;pol17 -->
<!-- polS07&#45;&gt;M_polF7 -->
<g id="edge13" class="edge">
<title>polS07&#45;&gt;M_polF7</title>
<path fill="none" stroke="#555555" d="M1210.93,-356.91C1239.76,-338.62 1284.76,-310.07 1310.06,-294.02"/>
</g>
<!-- polS08 -->
<g id="P_polS08" class="node">
<title>polS08</title>
<path fill="#dbeafe" stroke="#333333" d="M1738.5,-393C1738.5,-393 1677.5,-393 1677.5,-393 1671.5,-393 1665.5,-387 1665.5,-381 1665.5,-381 1665.5,-369 1665.5,-369 1665.5,-363 1671.5,-357 1677.5,-357 1677.5,-357 1738.5,-357 1738.5,-357 1744.5,-357 1750.5,-363 1750.5,-369 1750.5,-369 1750.5,-381 1750.5,-381 1750.5,-387 1744.5,-393 1738.5,-393"/>
<text text-anchor="middle" x="1708" y="-378" font-family="DejaVu Sans" font-size="10.00">Burkhard Vogl</text>
<text text-anchor="middle" x="1708" y="-367" font-family="DejaVu Sans" font-size="10.00">*11.01.1950</text>
</g>
<!-- polS08&#45;&gt;pol18 -->
<!-- polS08&#45;&gt;pol18 -->
<!-- polS08&#45;&gt;pol18 -->
<!-- M_polF8 -->
<g id="M_polF8" class="node">
<title>M_polF8</title>
<ellipse fill="#fff3b0" stroke="#b08900" cx="1692" cy="-281" rx="27" ry="18"/>
<text text-anchor="middle" x="1692" y="-278.8" font-family="DejaVu Sans" font-size="9.00">oo</text>
</g>
<!-- polS08&#45;&gt;M_polF8 -->
<g id="edge83" class="edge">
<title>polS08&#45;&gt;M_polF8</title>
<path fill="none" stroke="#555555" d="M1704.99,-356.7C1702.11,-340.14 1697.8,-315.34 1694.94,-298.92"/>
</g>
<!-- g2p07 -->
<g id="P_g2p07" class="node">
<title>g2p07</title>
<path fill="#fde7ef" stroke="#333333" d="M1234.5,-213C1234.5,-213 1155.5,-213 1155.5,-213 1149.5,-213 1143.5,-207 1143.5,-201 1143.5,-201 1143.5,-184 1143.5,-184 1143.5,-178 1149.5,-172 1155.5,-172 1155.5,-172 1234.5,-172 1234.5,-172 1240.5,-172 1246.5,-178 1246.5,-184 1246.5,-184 1246.5,-201 1246.5,-201 1246.5,-207 1240.5,-213 1234.5,-213"/>
<text text-anchor="middle" x="1195" y="-201" font-family="DejaVu Sans" font-size="10.00">Elisabeth Polasek</text>
<text text-anchor="middle" x="1195" y="-190" font-family="DejaVu Sans" font-size="10.00">geb. Lackner</text>
<text text-anchor="middle" x="1195" y="-179" font-family="DejaVu Sans" font-size="10.00">*13.05.1973</text>
</g>
<!-- pol19 -->
<g id="P_pol19" class="node">
<title>pol19</title>
<path fill="#dbeafe" stroke="#333333" d="M990.5,-210.5C990.5,-210.5 919.5,-210.5 919.5,-210.5 913.5,-210.5 907.5,-204.5 907.5,-198.5 907.5,-198.5 907.5,-186.5 907.5,-186.5 907.5,-180.5 913.5,-174.5 919.5,-174.5 919.5,-174.5 990.5,-174.5 990.5,-174.5 996.5,-174.5 1002.5,-180.5 1002.5,-186.5 1002.5,-186.5 1002.5,-198.5 1002.5,-198.5 1002.5,-204.5 996.5,-210.5 990.5,-210.5"/>
<text text-anchor="middle" x="955" y="-195.5" font-family="DejaVu Sans" font-size="10.00">Richard Polasek</text>
<text text-anchor="middle" x="955" y="-184.5" font-family="DejaVu Sans" font-size="10.00">*06.01.1976</text>
</g>
<!-- g2p07&#45;&gt;pol19 -->
<!-- M_g2F3 -->
<g id="M_g2F3" class="node">
<title>M_g2F3</title>
<ellipse fill="#fff3b0" stroke="#b08900" cx="1195" cy="-104" rx="27" ry="18"/>
<text text-anchor="middle" x="1195" y="-101.8" font-family="DejaVu Sans" font-size="9.00">oo</text>
</g>
<!-- g2p07&#45;&gt;M_g2F3 -->
<g id="edge47" class="edge">
<title>g2p07&#45;&gt;M_g2F3</title>
<path fill="none" stroke="#555555" d="M1195,-171.87C1195,-156.92 1195,-136.53 1195,-122.21"/>
</g>
<!-- g2p08 -->
<g id="P_g2p08" class="node">
<title>g2p08</title>
<path fill="#dbeafe" stroke="#333333" d="M1333.5,-36C1333.5,-36 1244.5,-36 1244.5,-36 1238.5,-36 1232.5,-30 1232.5,-24 1232.5,-24 1232.5,-12 1232.5,-12 1232.5,-6 1238.5,0 1244.5,0 1244.5,0 1333.5,0 1333.5,0 1339.5,0 1345.5,-6 1345.5,-12 1345.5,-12 1345.5,-24 1345.5,-24 1345.5,-30 1339.5,-36 1333.5,-36"/>
<text text-anchor="middle" x="1289" y="-21" font-family="DejaVu Sans" font-size="10.00">Maximilian Polasek</text>
<text text-anchor="middle" x="1289" y="-10" font-family="DejaVu Sans" font-size="10.00">*09.12.2001</text>
</g>
<!-- g2p09 -->
<g id="P_g2p09" class="node">
<title>g2p09</title>
<path fill="#fde7ef" stroke="#333333" d="M1462.5,-36C1462.5,-36 1389.5,-36 1389.5,-36 1383.5,-36 1377.5,-30 1377.5,-24 1377.5,-24 1377.5,-12 1377.5,-12 1377.5,-6 1383.5,0 1389.5,0 1389.5,0 1462.5,0 1462.5,0 1468.5,0 1474.5,-6 1474.5,-12 1474.5,-12 1474.5,-24 1474.5,-24 1474.5,-30 1468.5,-36 1462.5,-36"/>
<text text-anchor="middle" x="1426" y="-21" font-family="DejaVu Sans" font-size="10.00">Johanna Polasek</text>
<text text-anchor="middle" x="1426" y="-10" font-family="DejaVu Sans" font-size="10.00">*12.07.2006</text>
</g>
<!-- g2p08&#45;&gt;g2p09 -->
<!-- pol22 -->
<g id="P_pol22" class="node">
<title>pol22</title>
<path fill="#dbeafe" stroke="#333333" d="M1099,-210.5C1099,-210.5 1047,-210.5 1047,-210.5 1041,-210.5 1035,-204.5 1035,-198.5 1035,-198.5 1035,-186.5 1035,-186.5 1035,-180.5 1041,-174.5 1047,-174.5 1047,-174.5 1099,-174.5 1099,-174.5 1105,-174.5 1111,-180.5 1111,-186.5 1111,-186.5 1111,-198.5 1111,-198.5 1111,-204.5 1105,-210.5 1099,-210.5"/>
<text text-anchor="middle" x="1073" y="-195.5" font-family="DejaVu Sans" font-size="10.00">Oliver Koch</text>
<text text-anchor="middle" x="1073" y="-184.5" font-family="DejaVu Sans" font-size="10.00">*10.10.1974</text>
</g>
<!-- g3p04 -->
<g id="P_g3p04" class="node">
<title>g3p04</title>
<path fill="#fde7ef" stroke="#333333" d="M863,-210.5C863,-210.5 771,-210.5 771,-210.5 765,-210.5 759,-204.5 759,-198.5 759,-198.5 759,-186.5 759,-186.5 759,-180.5 765,-174.5 771,-174.5 771,-174.5 863,-174.5 863,-174.5 869,-174.5 875,-180.5 875,-186.5 875,-186.5 875,-198.5 875,-198.5 875,-204.5 869,-210.5 863,-210.5"/>
<text text-anchor="middle" x="817" y="-195.5" font-family="DejaVu Sans" font-size="10.00">Carina Guttenberger</text>
<text text-anchor="middle" x="817" y="-184.5" font-family="DejaVu Sans" font-size="10.00">*30.03.1982</text>
</g>
<!-- pol22&#45;&gt;g3p04 -->
<!-- pol22&#45;&gt;g3p04 -->
<!-- pol22&#45;&gt;g3p04 -->
<!-- M_g3F2 -->
<g id="M_g3F2" class="node">
<title>M_g3F2</title>
<ellipse fill="#fff3b0" stroke="#b08900" cx="925" cy="-104" rx="27" ry="18"/>
<text text-anchor="middle" x="925" y="-101.8" font-family="DejaVu Sans" font-size="9.00">oo</text>
</g>
<!-- pol22&#45;&gt;M_g3F2 -->
<g id="edge36" class="edge">
<title>pol22&#45;&gt;M_g3F2</title>
<path fill="none" stroke="#555555" d="M1043.76,-174.41C1014.44,-157.28 970.12,-131.37 944.72,-116.53"/>
</g>
<!-- g2p13 -->
<g id="P_g2p13" class="node">
<title>g2p13</title>
<path fill="#dbeafe" stroke="#333333" d="M282,-36C282,-36 230,-36 230,-36 224,-36 218,-30 218,-24 218,-24 218,-12 218,-12 218,-6 224,0 230,0 230,0 282,0 282,0 288,0 294,-6 294,-12 294,-12 294,-24 294,-24 294,-30 288,-36 282,-36"/>
<text text-anchor="middle" x="256" y="-21" font-family="DejaVu Sans" font-size="10.00">Ben Niklaus</text>
<text text-anchor="middle" x="256" y="-10" font-family="DejaVu Sans" font-size="10.00">*14.10.2016</text>
</g>
<!-- polS09 -->
<g id="P_polS09" class="node">
<title>polS09</title>
<path fill="#dbeafe" stroke="#333333" d="M1621,-393C1621,-393 1559,-393 1559,-393 1553,-393 1547,-387 1547,-381 1547,-381 1547,-369 1547,-369 1547,-363 1553,-357 1559,-357 1559,-357 1621,-357 1621,-357 1627,-357 1633,-363 1633,-369 1633,-369 1633,-381 1633,-381 1633,-387 1627,-393 1621,-393"/>
<text text-anchor="middle" x="1590" y="-378" font-family="DejaVu Sans" font-size="10.00">Jürgen Kessler</text>
<text text-anchor="middle" x="1590" y="-367" font-family="DejaVu Sans" font-size="10.00">*06.12.1946</text>
</g>
<!-- polS09&#45;&gt;pol18 -->
<!-- polS09&#45;&gt;pol18 -->
<!-- M_polF9 -->
<g id="M_polF9" class="node">
<title>M_polF9</title>
<ellipse fill="#fff3b0" stroke="#b08900" cx="1580" cy="-281" rx="27" ry="18"/>
<text text-anchor="middle" x="1580" y="-278.8" font-family="DejaVu Sans" font-size="9.00">oo</text>
</g>
<!-- polS09&#45;&gt;M_polF9 -->
<g id="edge86" class="edge">
<title>polS09&#45;&gt;M_polF9</title>
<path fill="none" stroke="#555555" d="M1588.12,-356.7C1586.33,-340.25 1583.66,-315.65 1581.87,-299.23"/>
</g>
<!-- pol16 -->
<g id="P_pol16" class="node">
<title>pol16</title>
<path fill="#fde7ef" stroke="#333333" d="M1097,-395.5C1097,-395.5 1035,-395.5 1035,-395.5 1029,-395.5 1023,-389.5 1023,-383.5 1023,-383.5 1023,-366.5 1023,-366.5 1023,-360.5 1029,-354.5 1035,-354.5 1035,-354.5 1097,-354.5 1097,-354.5 1103,-354.5 1109,-360.5 1109,-366.5 1109,-366.5 1109,-383.5 1109,-383.5 1109,-389.5 1103,-395.5 1097,-395.5"/>
<text text-anchor="middle" x="1066" y="-383.5" font-family="DejaVu Sans" font-size="10.00">Christine Koch</text>
<text text-anchor="middle" x="1066" y="-372.5" font-family="DejaVu Sans" font-size="10.00">geb. Polasek</text>
<text text-anchor="middle" x="1066" y="-361.5" font-family="DejaVu Sans" font-size="10.00">*19.07.1952</text>
</g>
<!-- pol16&#45;&gt;pol17 -->
<!-- pol16&#45;&gt;pol17 -->
<!-- polS06 -->
<g id="P_polS06" class="node">
<title>polS06</title>
<path fill="#dbeafe" stroke="#333333" d="M979,-393C979,-393 927,-393 927,-393 921,-393 915,-387 915,-381 915,-381 915,-369 915,-369 915,-363 921,-357 927,-357 927,-357 979,-357 979,-357 985,-357 991,-363 991,-369 991,-369 991,-381 991,-381 991,-387 985,-393 979,-393"/>
<text text-anchor="middle" x="953" y="-378" font-family="DejaVu Sans" font-size="10.00">Igo Koch</text>
<text text-anchor="middle" x="953" y="-367" font-family="DejaVu Sans" font-size="10.00">*29.07.1947</text>
</g>
<!-- pol16&#45;&gt;polS06 -->
<!-- M_polF6 -->
<g id="M_polF6" class="node">
<title>M_polF6</title>
<ellipse fill="#fff3b0" stroke="#b08900" cx="1066" cy="-281" rx="27" ry="18"/>
<text text-anchor="middle" x="1066" y="-278.8" font-family="DejaVu Sans" font-size="9.00">oo</text>
</g>
<!-- pol16&#45;&gt;M_polF6 -->
<g id="edge3" class="edge">
<title>pol16&#45;&gt;M_polF6</title>
<path fill="none" stroke="#555555" d="M1066,-354.49C1066,-338.03 1066,-314.71 1066,-299.01"/>
</g>
<!-- pol15 -->
<g id="P_pol15" class="node">
<title>pol15</title>
<path fill="#dbeafe" stroke="#333333" d="M755,-393C755,-393 635,-393 635,-393 629,-393 623,-387 623,-381 623,-381 623,-369 623,-369 623,-363 629,-357 635,-357 635,-357 755,-357 755,-357 761,-357 767,-363 767,-369 767,-369 767,-381 767,-381 767,-387 761,-393 755,-393"/>
<text text-anchor="middle" x="695" y="-378" font-family="DejaVu Sans" font-size="10.00">Wolfgang Polasek</text>
<text text-anchor="middle" x="695" y="-367" font-family="DejaVu Sans" font-size="10.00">*19.06.1951 &#160;+23.05.2013</text>
</g>
<!-- pol15&#45;&gt;pol16 -->
<!-- polS05 -->
<g id="P_polS05" class="node">
<title>polS05</title>
<path fill="#fde7ef" stroke="#333333" d="M578.5,-395.5C578.5,-395.5 513.5,-395.5 513.5,-395.5 507.5,-395.5 501.5,-389.5 501.5,-383.5 501.5,-383.5 501.5,-366.5 501.5,-366.5 501.5,-360.5 507.5,-354.5 513.5,-354.5 513.5,-354.5 578.5,-354.5 578.5,-354.5 584.5,-354.5 590.5,-360.5 590.5,-366.5 590.5,-366.5 590.5,-383.5 590.5,-383.5 590.5,-389.5 584.5,-395.5 578.5,-395.5"/>
<text text-anchor="middle" x="546" y="-383.5" font-family="DejaVu Sans" font-size="10.00">Hanka Polasek</text>
<text text-anchor="middle" x="546" y="-372.5" font-family="DejaVu Sans" font-size="10.00">geb. Steindel</text>
<text text-anchor="middle" x="546" y="-361.5" font-family="DejaVu Sans" font-size="10.00">*10.06.1951</text>
</g>
<!-- pol15&#45;&gt;polS05 -->
<!-- pol15&#45;&gt;polS05 -->
<!-- polS04 -->
<g id="P_polS04" class="node">
<title>polS04</title>
<path fill="#fde7ef" stroke="#333333" d="M870.5,-395.5C870.5,-395.5 811.5,-395.5 811.5,-395.5 805.5,-395.5 799.5,-389.5 799.5,-383.5 799.5,-383.5 799.5,-366.5 799.5,-366.5 799.5,-360.5 805.5,-354.5 811.5,-354.5 811.5,-354.5 870.5,-354.5 870.5,-354.5 876.5,-354.5 882.5,-360.5 882.5,-366.5 882.5,-366.5 882.5,-383.5 882.5,-383.5 882.5,-389.5 876.5,-395.5 870.5,-395.5"/>
<text text-anchor="middle" x="841" y="-383.5" font-family="DejaVu Sans" font-size="10.00">Edith Polasek</text>
<text text-anchor="middle" x="841" y="-372.5" font-family="DejaVu Sans" font-size="10.00">geb. Billich</text>
<text text-anchor="middle" x="841" y="-361.5" font-family="DejaVu Sans" font-size="10.00">*26.10.1947</text>
</g>
<!-- pol15&#45;&gt;polS04 -->
<!-- pol15&#45;&gt;polS04 -->
<!-- pol15&#45;&gt;polS04 -->
<!-- M_polF5 -->
<g id="M_polF5" class="node">
<title>M_polF5</title>
<ellipse fill="#fff3b0" stroke="#b08900" cx="546" cy="-281" rx="27" ry="18"/>
<text text-anchor="middle" x="546" y="-278.8" font-family="DejaVu Sans" font-size="9.00">oo</text>
</g>
<!-- pol15&#45;&gt;M_polF5 -->
<g id="edge27" class="edge">
<title>pol15&#45;&gt;M_polF5</title>
<path fill="none" stroke="#555555" d="M667.32,-356.91C637.7,-338.62 591.46,-310.07 565.46,-294.02"/>
</g>
<!-- M_polF4 -->
<g id="M_polF4" class="node">
<title>M_polF4</title>
<ellipse fill="#fff3b0" stroke="#b08900" cx="841" cy="-281" rx="27" ry="18"/>
<text text-anchor="middle" x="841" y="-278.8" font-family="DejaVu Sans" font-size="9.00">oo</text>
</g>
<!-- pol15&#45;&gt;M_polF4 -->
<g id="edge52" class="edge">
<title>pol15&#45;&gt;M_polF4</title>
<path fill="none" stroke="#555555" d="M722.12,-356.91C751.15,-338.62 796.45,-310.07 821.93,-294.02"/>
</g>
<!-- g2p12 -->
<g id="P_g2p12" class="node">
<title>g2p12</title>
<path fill="#fde7ef" stroke="#333333" d="M173.5,-36C173.5,-36 120.5,-36 120.5,-36 114.5,-36 108.5,-30 108.5,-24 108.5,-24 108.5,-12 108.5,-12 108.5,-6 114.5,0 120.5,0 120.5,0 173.5,0 173.5,0 179.5,0 185.5,-6 185.5,-12 185.5,-12 185.5,-24 185.5,-24 185.5,-30 179.5,-36 173.5,-36"/>
<text text-anchor="middle" x="147" y="-21" font-family="DejaVu Sans" font-size="10.00">Lina Niklaus</text>
<text text-anchor="middle" x="147" y="-10" font-family="DejaVu Sans" font-size="10.00">*24.08.2014</text>
</g>
<!-- g2p12&#45;&gt;g2p13 -->
<!-- pol20 -->
<g id="P_pol20" class="node">
<title>pol20</title>
<path fill="#fde7ef" stroke="#333333" d="M418,-213C418,-213 350,-213 350,-213 344,-213 338,-207 338,-201 338,-201 338,-184 338,-184 338,-178 344,-172 350,-172 350,-172 418,-172 418,-172 424,-172 430,-178 430,-184 430,-184 430,-201 430,-201 430,-207 424,-213 418,-213"/>
<text text-anchor="middle" x="384" y="-201" font-family="DejaVu Sans" font-size="10.00">Bettina Niklaus</text>
<text text-anchor="middle" x="384" y="-190" font-family="DejaVu Sans" font-size="10.00">geb. Polasek</text>
<text text-anchor="middle" x="384" y="-179" font-family="DejaVu Sans" font-size="10.00">*12.04.1983</text>
</g>
<!-- g2p10 -->
<g id="P_g2p10" class="node">
<title>g2p10</title>
<path fill="#dbeafe" stroke="#333333" d="M293.5,-210.5C293.5,-210.5 218.5,-210.5 218.5,-210.5 212.5,-210.5 206.5,-204.5 206.5,-198.5 206.5,-198.5 206.5,-186.5 206.5,-186.5 206.5,-180.5 212.5,-174.5 218.5,-174.5 218.5,-174.5 293.5,-174.5 293.5,-174.5 299.5,-174.5 305.5,-180.5 305.5,-186.5 305.5,-186.5 305.5,-198.5 305.5,-198.5 305.5,-204.5 299.5,-210.5 293.5,-210.5"/>
<text text-anchor="middle" x="256" y="-195.5" font-family="DejaVu Sans" font-size="10.00">Matthias Niklaus</text>
<text text-anchor="middle" x="256" y="-184.5" font-family="DejaVu Sans" font-size="10.00">*15.09.1981</text>
</g>
<!-- pol20&#45;&gt;g2p10 -->
<!-- pol21 -->
<g id="P_pol21" class="node">
<title>pol21</title>
<path fill="#dbeafe" stroke="#333333" d="M539.5,-210.5C539.5,-210.5 474.5,-210.5 474.5,-210.5 468.5,-210.5 462.5,-204.5 462.5,-198.5 462.5,-198.5 462.5,-186.5 462.5,-186.5 462.5,-180.5 468.5,-174.5 474.5,-174.5 474.5,-174.5 539.5,-174.5 539.5,-174.5 545.5,-174.5 551.5,-180.5 551.5,-186.5 551.5,-186.5 551.5,-198.5 551.5,-198.5 551.5,-204.5 545.5,-210.5 539.5,-210.5"/>
<text text-anchor="middle" x="507" y="-195.5" font-family="DejaVu Sans" font-size="10.00">Daniel Polasek</text>
<text text-anchor="middle" x="507" y="-184.5" font-family="DejaVu Sans" font-size="10.00">*15.05.1986</text>
</g>
<!-- pol20&#45;&gt;pol21 -->
<!-- pol20&#45;&gt;pol21 -->
<!-- M_g2F4 -->
<g id="M_g2F4" class="node">
<title>M_g2F4</title>
<ellipse fill="#fff3b0" stroke="#b08900" cx="256" cy="-104" rx="27" ry="18"/>
<text text-anchor="middle" x="256" y="-101.8" font-family="DejaVu Sans" font-size="9.00">oo</text>
</g>
<!-- pol20&#45;&gt;M_g2F4 -->
<g id="edge20" class="edge">
<title>pol20&#45;&gt;M_g2F4</title>
<path fill="none" stroke="#555555" d="M354.95,-171.87C330.17,-155.12 295.3,-131.56 274.25,-117.34"/>
</g>
<!-- polS03 -->
<g id="P_polS03" class="node">
<title>polS03</title>
<path fill="#fde7ef" stroke="#333333" d="M1359,-578C1359,-578 1303,-578 1303,-578 1297,-578 1291,-572 1291,-566 1291,-566 1291,-549 1291,-549 1291,-543 1297,-537 1303,-537 1303,-537 1359,-537 1359,-537 1365,-537 1371,-543 1371,-549 1371,-549 1371,-566 1371,-566 1371,-572 1365,-578 1359,-578"/>
<text text-anchor="middle" x="1331" y="-566" font-family="DejaVu Sans" font-size="10.00">Inge Polasek</text>
<text text-anchor="middle" x="1331" y="-555" font-family="DejaVu Sans" font-size="10.00">geb. Rokitzki</text>
<text text-anchor="middle" x="1331" y="-544" font-family="DejaVu Sans" font-size="10.00">*11.02.1928</text>
</g>
<!-- pol11 -->
<g id="P_pol11" class="node">
<title>pol11</title>
<path fill="#dbeafe" stroke="#111111" stroke-width="1.8" d="M1535,-575.5C1535,-575.5 1415,-575.5 1415,-575.5 1409,-575.5 1403,-569.5 1403,-563.5 1403,-563.5 1403,-551.5 1403,-551.5 1403,-545.5 1409,-539.5 1415,-539.5 1415,-539.5 1535,-539.5 1535,-539.5 1541,-539.5 1547,-545.5 1547,-551.5 1547,-551.5 1547,-563.5 1547,-563.5 1547,-569.5 1541,-575.5 1535,-575.5"/>
<text text-anchor="middle" x="1475" y="-560.5" font-family="DejaVu Sans" font-size="10.00">Otto Polasek</text>
<text text-anchor="middle" x="1475" y="-549.5" font-family="DejaVu Sans" font-size="10.00">*14.09.1912 &#160;+01.11.1994</text>
</g>
<!-- polS03&#45;&gt;pol11 -->
<!-- M_polF3 -->
<g id="M_polF3" class="node">
<title>M_polF3</title>
<ellipse fill="#fff3b0" stroke="#b08900" cx="1331" cy="-469" rx="27" ry="18"/>
<text text-anchor="middle" x="1331" y="-466.8" font-family="DejaVu Sans" font-size="9.00">oo</text>
</g>
<!-- polS03&#45;&gt;M_polF3 -->
<g id="edge63" class="edge">
<title>polS03&#45;&gt;M_polF3</title>
<path fill="none" stroke="#555555" d="M1331,-536.87C1331,-521.92 1331,-501.53 1331,-487.21"/>
</g>
<!-- ped01 -->
<g id="P_ped01" class="node">
<title>ped01</title>
<path fill="#dbeafe" stroke="#333333" d="M2030,-393C2030,-393 1968,-393 1968,-393 1962,-393 1956,-387 1956,-381 1956,-381 1956,-369 1956,-369 1956,-363 1962,-357 1968,-357 1968,-357 2030,-357 2030,-357 2036,-357 2042,-363 2042,-369 2042,-369 2042,-381 2042,-381 2042,-387 2036,-393 2030,-393"/>
<text text-anchor="middle" x="1999" y="-378" font-family="DejaVu Sans" font-size="10.00">John Pedersen</text>
<text text-anchor="middle" x="1999" y="-367" font-family="DejaVu Sans" font-size="10.00">*31.07.1938</text>
</g>
<!-- pol14 -->
<g id="P_pol14" class="node">
<title>pol14</title>
<path fill="#fde7ef" stroke="#333333" d="M1911.5,-395.5C1911.5,-395.5 1794.5,-395.5 1794.5,-395.5 1788.5,-395.5 1782.5,-389.5 1782.5,-383.5 1782.5,-383.5 1782.5,-366.5 1782.5,-366.5 1782.5,-360.5 1788.5,-354.5 1794.5,-354.5 1794.5,-354.5 1911.5,-354.5 1911.5,-354.5 1917.5,-354.5 1923.5,-360.5 1923.5,-366.5 1923.5,-366.5 1923.5,-383.5 1923.5,-383.5 1923.5,-389.5 1917.5,-395.5 1911.5,-395.5"/>
<text text-anchor="middle" x="1853" y="-383.5" font-family="DejaVu Sans" font-size="10.00">Gertrud (Traudl) Pedersen</text>
<text text-anchor="middle" x="1853" y="-372.5" font-family="DejaVu Sans" font-size="10.00">geb. Polasek</text>
<text text-anchor="middle" x="1853" y="-361.5" font-family="DejaVu Sans" font-size="10.00">*21.03.1944</text>
</g>
<!-- ped01&#45;&gt;pol14 -->
<!-- ped01&#45;&gt;pol14 -->
<!-- ped01&#45;&gt;pol14 -->
<!-- M_pedF1 -->
<g id="M_pedF1" class="node">
<title>M_pedF1</title>
<ellipse fill="#fff3b0" stroke="#b08900" cx="1926" cy="-281" rx="27" ry="18"/>
<text text-anchor="middle" x="1926" y="-278.8" font-family="DejaVu Sans" font-size="9.00">oo</text>
</g>
<!-- ped01&#45;&gt;M_pedF1 -->
<g id="edge79" class="edge">
<title>ped01&#45;&gt;M_pedF1</title>
<path fill="none" stroke="#555555" d="M1985.27,-356.7C1971.72,-339.62 1951.21,-313.77 1938.21,-297.39"/>
</g>
<!-- pol11&#45;&gt;polS03 -->
<!-- pol11&#45;&gt;polS03 -->
<!-- polS02 -->
<g id="P_polS02" class="node">
<title>polS02</title>
<path fill="#fde7ef" stroke="#333333" d="M1668.5,-575.5C1668.5,-575.5 1591.5,-575.5 1591.5,-575.5 1585.5,-575.5 1579.5,-569.5 1579.5,-563.5 1579.5,-563.5 1579.5,-551.5 1579.5,-551.5 1579.5,-545.5 1585.5,-539.5 1591.5,-539.5 1591.5,-539.5 1668.5,-539.5 1668.5,-539.5 1674.5,-539.5 1680.5,-545.5 1680.5,-551.5 1680.5,-551.5 1680.5,-563.5 1680.5,-563.5 1680.5,-569.5 1674.5,-575.5 1668.5,-575.5"/>
<text text-anchor="middle" x="1630" y="-560.5" font-family="DejaVu Sans" font-size="10.00">Gertrude Polasek</text>
<text text-anchor="middle" x="1630" y="-549.5" font-family="DejaVu Sans" font-size="10.00">geb. Winkler</text>
</g>
<!-- pol11&#45;&gt;polS02 -->
<!-- pol11&#45;&gt;polS02 -->
<!-- M_polF2 -->
<g id="M_polF2" class="node">
<title>M_polF2</title>
<ellipse fill="#fff3b0" stroke="#b08900" cx="1630" cy="-469" rx="27" ry="18"/>
<text text-anchor="middle" x="1630" y="-466.8" font-family="DejaVu Sans" font-size="9.00">oo</text>
</g>
<!-- pol11&#45;&gt;M_polF2 -->
<g id="edge57" class="edge">
<title>pol11&#45;&gt;M_polF2</title>
<path fill="none" stroke="#555555" d="M1505.62,-539.41C1536.5,-522.18 1583.29,-496.07 1609.8,-481.27"/>
</g>
<!-- pol11&#45;&gt;M_polF3 -->
<g id="edge62" class="edge">
<title>pol11&#45;&gt;M_polF3</title>
<path fill="none" stroke="#555555" d="M1446.55,-539.41C1418.19,-522.37 1375.39,-496.67 1350.62,-481.79"/>
</g>
<!-- polS05&#45;&gt;pol15 -->
<!-- polS05&#45;&gt;M_polF5 -->
<g id="edge28" class="edge">
<title>polS05&#45;&gt;M_polF5</title>
<path fill="none" stroke="#555555" d="M546,-354.49C546,-338.03 546,-314.71 546,-299.01"/>
</g>
<!-- pol18&#45;&gt;polS08 -->
<!-- pol18&#45;&gt;polS09 -->
<!-- pol18&#45;&gt;M_polF8 -->
<g id="edge84" class="edge">
<title>pol18&#45;&gt;M_polF8</title>
<path fill="none" stroke="#555555" d="M1515.1,-356.1C1524.08,-352.09 1531,-349 1531,-349 1531,-349 1625.38,-309.73 1669.61,-291.32"/>
</g>
<!-- pol18&#45;&gt;M_polF9 -->
<g id="edge87" class="edge">
<title>pol18&#45;&gt;M_polF9</title>
<path fill="none" stroke="#555555" d="M1503.69,-348.86C1523.24,-331.73 1548.38,-309.7 1564.35,-295.71"/>
</g>
<!-- g2p16 -->
<g id="P_g2p16" class="node">
<title>g2p16</title>
<path fill="#dbeafe" stroke="#333333" d="M590.5,-36C590.5,-36 489.5,-36 489.5,-36 483.5,-36 477.5,-30 477.5,-24 477.5,-24 477.5,-12 477.5,-12 477.5,-6 483.5,0 489.5,0 489.5,0 590.5,0 590.5,0 596.5,0 602.5,-6 602.5,-12 602.5,-12 602.5,-24 602.5,-24 602.5,-30 596.5,-36 590.5,-36"/>
<text text-anchor="middle" x="540" y="-21" font-family="DejaVu Sans" font-size="10.00">Nelo&#45;Mika Schultheiss</text>
<text text-anchor="middle" x="540" y="-10" font-family="DejaVu Sans" font-size="10.00">*15.08.2022</text>
</g>
<!-- g2p14 -->
<g id="P_g2p14" class="node">
<title>g2p14</title>
<path fill="#fde7ef" stroke="#333333" d="M668,-210.5C668,-210.5 596,-210.5 596,-210.5 590,-210.5 584,-204.5 584,-198.5 584,-198.5 584,-186.5 584,-186.5 584,-180.5 590,-174.5 596,-174.5 596,-174.5 668,-174.5 668,-174.5 674,-174.5 680,-180.5 680,-186.5 680,-186.5 680,-198.5 680,-198.5 680,-204.5 674,-210.5 668,-210.5"/>
<text text-anchor="middle" x="632" y="-195.5" font-family="DejaVu Sans" font-size="10.00">Julia Schultheiss</text>
<text text-anchor="middle" x="632" y="-184.5" font-family="DejaVu Sans" font-size="10.00">*29.04.1986</text>
</g>
<!-- g2p14&#45;&gt;pol21 -->
<!-- M_g2F5 -->
<g id="M_g2F5" class="node">
<title>M_g2F5</title>
<ellipse fill="#fff3b0" stroke="#b08900" cx="523" cy="-104" rx="27" ry="18"/>
<text text-anchor="middle" x="523" y="-101.8" font-family="DejaVu Sans" font-size="9.00">oo</text>
</g>
<!-- g2p14&#45;&gt;M_g2F5 -->
<g id="edge8" class="edge">
<title>g2p14&#45;&gt;M_g2F5</title>
<path fill="none" stroke="#555555" d="M610.47,-174.41C589.74,-157.97 558.84,-133.44 539.85,-118.37"/>
</g>
<!-- pol24 -->
<g id="P_pol24" class="node">
<title>pol24</title>
<path fill="#fde7ef" stroke="#333333" d="M1484,-210.5C1484,-210.5 1416,-210.5 1416,-210.5 1410,-210.5 1404,-204.5 1404,-198.5 1404,-198.5 1404,-186.5 1404,-186.5 1404,-180.5 1410,-174.5 1416,-174.5 1416,-174.5 1484,-174.5 1484,-174.5 1490,-174.5 1496,-180.5 1496,-186.5 1496,-186.5 1496,-198.5 1496,-198.5 1496,-204.5 1490,-210.5 1484,-210.5"/>
<text text-anchor="middle" x="1450" y="-195.5" font-family="DejaVu Sans" font-size="10.00">Karin Schlosser</text>
<text text-anchor="middle" x="1450" y="-184.5" font-family="DejaVu Sans" font-size="10.00">*23.11.1977</text>
</g>
<!-- pol25 -->
<g id="P_pol25" class="node">
<title>pol25</title>
<path fill="#dbeafe" stroke="#333333" d="M1609,-210.5C1609,-210.5 1551,-210.5 1551,-210.5 1545,-210.5 1539,-204.5 1539,-198.5 1539,-198.5 1539,-186.5 1539,-186.5 1539,-180.5 1545,-174.5 1551,-174.5 1551,-174.5 1609,-174.5 1609,-174.5 1615,-174.5 1621,-180.5 1621,-186.5 1621,-186.5 1621,-198.5 1621,-198.5 1621,-204.5 1615,-210.5 1609,-210.5"/>
<text text-anchor="middle" x="1580" y="-195.5" font-family="DejaVu Sans" font-size="10.00">Julian Kessler</text>
<text text-anchor="middle" x="1580" y="-184.5" font-family="DejaVu Sans" font-size="10.00">*28.01.1998</text>
</g>
<!-- g2p10&#45;&gt;pol20 -->
<!-- g2p10&#45;&gt;pol20 -->
<!-- g2p10&#45;&gt;pol20 -->
<!-- g2p10&#45;&gt;M_g2F4 -->
<g id="edge19" class="edge">
<title>g2p10&#45;&gt;M_g2F4</title>
<path fill="none" stroke="#555555" d="M256,-174.41C256,-159.25 256,-137.21 256,-122.05"/>
</g>
<!-- pol19&#45;&gt;g2p07 -->
<!-- pol19&#45;&gt;g2p07 -->
<!-- pol19&#45;&gt;g2p07 -->
<!-- pol19&#45;&gt;M_g2F3 -->
<g id="edge46" class="edge">
<title>pol19&#45;&gt;M_g2F3</title>
<path fill="none" stroke="#555555" d="M1002.42,-174.41C1053.51,-156 1132.72,-127.45 1171.7,-113.4"/>
</g>
<!-- g2p15 -->
<g id="P_g2p15" class="node">
<title>g2p15</title>
<path fill="#dbeafe" stroke="#333333" d="M433.5,-36C433.5,-36 338.5,-36 338.5,-36 332.5,-36 326.5,-30 326.5,-24 326.5,-24 326.5,-12 326.5,-12 326.5,-6 332.5,0 338.5,0 338.5,0 433.5,0 433.5,0 439.5,0 445.5,-6 445.5,-12 445.5,-12 445.5,-24 445.5,-24 445.5,-30 439.5,-36 433.5,-36"/>
<text text-anchor="middle" x="386" y="-21" font-family="DejaVu Sans" font-size="10.00">Koa&#45;Miro Schultheiss</text>
<text text-anchor="middle" x="386" y="-10" font-family="DejaVu Sans" font-size="10.00">*29.08.2019</text>
</g>
<!-- g2p15&#45;&gt;g2p16 -->
<!-- g3p05 -->
<g id="P_g3p05" class="node">
<title>g3p05</title>
<path fill="#dbeafe" stroke="#333333" d="M743.5,-36C743.5,-36 646.5,-36 646.5,-36 640.5,-36 634.5,-30 634.5,-24 634.5,-24 634.5,-12 634.5,-12 634.5,-6 640.5,0 646.5,0 646.5,0 743.5,0 743.5,0 749.5,0 755.5,-6 755.5,-12 755.5,-12 755.5,-24 755.5,-24 755.5,-30 749.5,-36 743.5,-36"/>
<text text-anchor="middle" x="695" y="-21" font-family="DejaVu Sans" font-size="10.00">Yannick Guttenberger</text>
<text text-anchor="middle" x="695" y="-10" font-family="DejaVu Sans" font-size="10.00">*13.09.2004</text>
</g>
<!-- g3p06 -->
<g id="P_g3p06" class="node">
<title>g3p06</title>
<path fill="#fde7ef" stroke="#333333" d="M898,-36C898,-36 800,-36 800,-36 794,-36 788,-30 788,-24 788,-24 788,-12 788,-12 788,-6 794,0 800,0 800,0 898,0 898,0 904,0 910,-6 910,-12 910,-12 910,-24 910,-24 910,-30 904,-36 898,-36"/>
<text text-anchor="middle" x="849" y="-21" font-family="DejaVu Sans" font-size="10.00">Hannah Guttenberger</text>
<text text-anchor="middle" x="849" y="-10" font-family="DejaVu Sans" font-size="10.00">*05.02.2006</text>
</g>
<!-- g3p05&#45;&gt;g3p06 -->
<!-- g3p04&#45;&gt;pol22 -->
<!-- g3p04&#45;&gt;M_g3F2 -->
<g id="edge37" class="edge">
<title>g3p04&#45;&gt;M_g3F2</title>
<path fill="none" stroke="#555555" d="M838.34,-174.41C858.87,-157.97 889.49,-133.44 908.3,-118.37"/>
</g>
<!-- polS06&#45;&gt;pol16 -->
<!-- polS06&#45;&gt;pol16 -->
<!-- polS06&#45;&gt;pol16 -->
<!-- polS06&#45;&gt;M_polF6 -->
<g id="edge2" class="edge">
<title>polS06&#45;&gt;M_polF6</title>
<path fill="none" stroke="#555555" d="M973.99,-356.91C995.82,-339.14 1029.54,-311.69 1049.52,-295.41"/>
</g>
<!-- g3p07 -->
<g id="P_g3p07" class="node">
<title>g3p07</title>
<path fill="#dbeafe" stroke="#333333" d="M1049.5,-36C1049.5,-36 954.5,-36 954.5,-36 948.5,-36 942.5,-30 942.5,-24 942.5,-24 942.5,-12 942.5,-12 942.5,-6 948.5,0 954.5,0 954.5,0 1049.5,0 1049.5,0 1055.5,0 1061.5,-6 1061.5,-12 1061.5,-12 1061.5,-24 1061.5,-24 1061.5,-30 1055.5,-36 1049.5,-36"/>
<text text-anchor="middle" x="1002" y="-21" font-family="DejaVu Sans" font-size="10.00">Nathan Guttenberger</text>
<text text-anchor="middle" x="1002" y="-10" font-family="DejaVu Sans" font-size="10.00">*19.11.2007</text>
</g>
<!-- g3p08 -->
<g id="P_g3p08" class="node">
<title>g3p08</title>
<path fill="#fde7ef" stroke="#333333" d="M1188,-36C1188,-36 1106,-36 1106,-36 1100,-36 1094,-30 1094,-24 1094,-24 1094,-12 1094,-12 1094,-6 1100,0 1106,0 1106,0 1188,0 1188,0 1194,0 1200,-6 1200,-12 1200,-12 1200,-24 1200,-24 1200,-30 1194,-36 1188,-36"/>
<text text-anchor="middle" x="1147" y="-21" font-family="DejaVu Sans" font-size="10.00">Sara Guttenberger</text>
<text text-anchor="middle" x="1147" y="-10" font-family="DejaVu Sans" font-size="10.00">*16.09.2011</text>
</g>
<!-- g3p07&#45;&gt;g3p08 -->
<!-- pol14&#45;&gt;ped01 -->
<!-- pol14&#45;&gt;M_pedF1 -->
<g id="edge80" class="edge">
<title>pol14&#45;&gt;M_pedF1</title>
<path fill="none" stroke="#555555" d="M1868.48,-354.49C1882.04,-337.4 1901.47,-312.91 1913.91,-297.23"/>
</g>
<!-- g2p11 -->
<g id="P_g2p11" class="node">
<title>g2p11</title>
<path fill="#dbeafe" stroke="#333333" d="M64,-36C64,-36 12,-36 12,-36 6,-36 0,-30 0,-24 0,-24 0,-12 0,-12 0,-6 6,0 12,0 12,0 64,0 64,0 70,0 76,-6 76,-12 76,-12 76,-24 76,-24 76,-30 70,-36 64,-36"/>
<text text-anchor="middle" x="38" y="-21" font-family="DejaVu Sans" font-size="10.00">Tim Niklaus</text>
<text text-anchor="middle" x="38" y="-10" font-family="DejaVu Sans" font-size="10.00">*23.10.2012</text>
</g>
<!-- g2p11&#45;&gt;g2p12 -->
<!-- g3p06&#45;&gt;g3p07 -->
<!-- pol21&#45;&gt;g2p14 -->
<!-- pol21&#45;&gt;g2p14 -->
<!-- pol21&#45;&gt;g2p14 -->
<!-- pol21&#45;&gt;M_g2F5 -->
<g id="edge7" class="edge">
<title>pol21&#45;&gt;M_g2F5</title>
<path fill="none" stroke="#555555" d="M510.16,-174.41C512.97,-159.25 517.04,-137.21 519.85,-122.05"/>
</g>
<!-- pol23 -->
<g id="P_pol23" class="node">
<title>pol23</title>
<path fill="#fde7ef" stroke="#333333" d="M1359.5,-210.5C1359.5,-210.5 1292.5,-210.5 1292.5,-210.5 1286.5,-210.5 1280.5,-204.5 1280.5,-198.5 1280.5,-198.5 1280.5,-186.5 1280.5,-186.5 1280.5,-180.5 1286.5,-174.5 1292.5,-174.5 1292.5,-174.5 1359.5,-174.5 1359.5,-174.5 1365.5,-174.5 1371.5,-180.5 1371.5,-186.5 1371.5,-186.5 1371.5,-198.5 1371.5,-198.5 1371.5,-204.5 1365.5,-210.5 1359.5,-210.5"/>
<text text-anchor="middle" x="1326" y="-195.5" font-family="DejaVu Sans" font-size="10.00">Irene Schlosser</text>
<text text-anchor="middle" x="1326" y="-184.5" font-family="DejaVu Sans" font-size="10.00">*20.03.1975</text>
</g>
<!-- pol23&#45;&gt;pol24 -->
<!-- polS04&#45;&gt;pol16 -->
<!-- polS04&#45;&gt;pol15 -->
<!-- polS04&#45;&gt;M_polF4 -->
<g id="edge53" class="edge">
<title>polS04&#45;&gt;M_polF4</title>
<path fill="none" stroke="#555555" d="M841,-354.49C841,-338.03 841,-314.71 841,-299.01"/>
</g>
<!-- polS02&#45;&gt;pol11 -->
<!-- polS02&#45;&gt;M_polF2 -->
<g id="edge58" class="edge">
<title>polS02&#45;&gt;M_polF2</title>
<path fill="none" stroke="#555555" d="M1630,-539.41C1630,-524.25 1630,-502.21 1630,-487.05"/>
</g>
<!-- ped02 -->
<g id="P_ped02" class="node">
<title>ped02</title>
<path fill="#fde7ef" stroke="#333333" d="M1954,-210.5C1954,-210.5 1898,-210.5 1898,-210.5 1892,-210.5 1886,-204.5 1886,-198.5 1886,-198.5 1886,-186.5 1886,-186.5 1886,-180.5 1892,-174.5 1898,-174.5 1898,-174.5 1954,-174.5 1954,-174.5 1960,-174.5 1966,-180.5 1966,-186.5 1966,-186.5 1966,-198.5 1966,-198.5 1966,-204.5 1960,-210.5 1954,-210.5"/>
<text text-anchor="middle" x="1926" y="-195.5" font-family="DejaVu Sans" font-size="10.00">Pia Pedersen</text>
<text text-anchor="middle" x="1926" y="-184.5" font-family="DejaVu Sans" font-size="10.00">*10.04.1971</text>
</g>
<!-- M_polF6&#45;&gt;pol22 -->
<g id="edge4" class="edge">
<title>M_polF6&#45;&gt;pol22</title>
<path fill="none" stroke="#555555" d="M1067.38,-262.91C1068.36,-250.83 1069.69,-234.38 1070.81,-220.53"/>
<polygon fill="#555555" stroke="#555555" points="1074.3,-220.8 1071.62,-210.55 1067.32,-220.24 1074.3,-220.8"/>
</g>
<!-- M_g2F5&#45;&gt;g2p16 -->
<g id="edge10" class="edge">
<title>M_g2F5&#45;&gt;g2p16</title>
<path fill="none" stroke="#555555" d="M526.44,-86C528.75,-74.58 531.85,-59.27 534.5,-46.18"/>
<polygon fill="#555555" stroke="#555555" points="537.95,-46.76 536.51,-36.26 531.09,-45.37 537.95,-46.76"/>
</g>
<!-- M_g2F5&#45;&gt;g2p15 -->
<g id="edge9" class="edge">
<title>M_g2F5&#45;&gt;g2p15</title>
<path fill="none" stroke="#555555" d="M503.66,-91.14C482.68,-78.28 448.69,-57.44 422.63,-41.46"/>
<polygon fill="#555555" stroke="#555555" points="424.13,-38.27 413.77,-36.03 420.47,-44.24 424.13,-38.27"/>
</g>
<!-- M_polF7&#45;&gt;pol24 -->
<g id="edge16" class="edge">
<title>M_polF7&#45;&gt;pol24</title>
<path fill="none" stroke="#555555" d="M1346.85,-267.24C1365.39,-253.99 1394.79,-232.96 1417.47,-216.75"/>
<polygon fill="#555555" stroke="#555555" points="1419.7,-219.46 1425.8,-210.8 1415.63,-213.77 1419.7,-219.46"/>
</g>
<!-- M_polF7&#45;&gt;pol23 -->
<g id="edge15" class="edge">
<title>M_polF7&#45;&gt;pol23</title>
<path fill="none" stroke="#555555" d="M1328.41,-262.91C1327.99,-250.94 1327.43,-234.7 1326.95,-220.93"/>
<polygon fill="#555555" stroke="#555555" points="1330.44,-220.43 1326.59,-210.55 1323.44,-220.67 1330.44,-220.43"/>
</g>
<!-- M_g2F4&#45;&gt;g2p13 -->
<g id="edge23" class="edge">
<title>M_g2F4&#45;&gt;g2p13</title>
<path fill="none" stroke="#555555" d="M256,-85.6C256,-74.26 256,-59.23 256,-46.32"/>
<polygon fill="#555555" stroke="#555555" points="259.5,-46.1 256,-36.1 252.5,-46.1 259.5,-46.1"/>
</g>
<!-- M_g2F4&#45;&gt;g2p12 -->
<g id="edge22" class="edge">
<title>M_g2F4&#45;&gt;g2p12</title>
<path fill="none" stroke="#555555" d="M238.97,-89.88C222.52,-77.2 197.24,-57.72 177.34,-42.38"/>
<polygon fill="#555555" stroke="#555555" points="179.25,-39.43 169.19,-36.1 174.97,-44.98 179.25,-39.43"/>
</g>
<!-- M_g2F4&#45;&gt;g2p11 -->
<g id="edge21" class="edge">
<title>M_g2F4&#45;&gt;g2p11</title>
<path fill="none" stroke="#555555" d="M233.08,-94.17C198.28,-80.76 131.33,-54.96 85.67,-37.37"/>
<polygon fill="#555555" stroke="#555555" points="86.86,-34.08 76.27,-33.75 84.34,-40.61 86.86,-34.08"/>
</g>
<!-- M_polF5&#45;&gt;pol20 -->
<g id="edge29" class="edge">
<title>M_polF5&#45;&gt;pol20</title>
<path fill="none" stroke="#555555" d="M525.48,-269.04C501.54,-256.26 461.21,-234.73 429.72,-217.91"/>
<polygon fill="#555555" stroke="#555555" points="431.15,-214.71 420.68,-213.09 427.85,-220.88 431.15,-214.71"/>
</g>
<!-- M_polF5&#45;&gt;pol21 -->
<g id="edge30" class="edge">
<title>M_polF5&#45;&gt;pol21</title>
<path fill="none" stroke="#555555" d="M538.48,-263.32C532.94,-251.04 525.3,-234.08 518.93,-219.95"/>
<polygon fill="#555555" stroke="#555555" points="522.06,-218.4 514.76,-210.72 515.68,-221.27 522.06,-218.4"/>
</g>
<!-- M_g3F2&#45;&gt;g3p05 -->
<g id="edge38" class="edge">
<title>M_g3F2&#45;&gt;g3p05</title>
<path fill="none" stroke="#555555" d="M901.68,-94.48C866.74,-81.72 799.77,-57.26 751.51,-39.64"/>
<polygon fill="#555555" stroke="#555555" points="752.42,-36.24 741.82,-36.1 750.02,-42.82 752.42,-36.24"/>
</g>
<!-- M_g3F2&#45;&gt;g3p07 -->
<g id="edge40" class="edge">
<title>M_g3F2&#45;&gt;g3p07</title>
<path fill="none" stroke="#555555" d="M938.41,-88.37C949.68,-76.07 966.03,-58.24 979.33,-43.73"/>
<polygon fill="#555555" stroke="#555555" points="982.18,-45.8 986.35,-36.07 977.02,-41.07 982.18,-45.8"/>
</g>
<!-- M_g3F2&#45;&gt;g3p06 -->
<g id="edge39" class="edge">
<title>M_g3F2&#45;&gt;g3p06</title>
<path fill="none" stroke="#555555" d="M911.41,-87.98C900.32,-75.72 884.41,-58.13 871.43,-43.79"/>
<polygon fill="#555555" stroke="#555555" points="873.87,-41.27 864.57,-36.2 868.68,-45.97 873.87,-41.27"/>
</g>
<!-- M_g3F2&#45;&gt;g3p08 -->
<g id="edge41" class="edge">
<title>M_g3F2&#45;&gt;g3p08</title>
<path fill="none" stroke="#555555" d="M947.92,-94.33C981.74,-81.53 1046.01,-57.21 1092.39,-39.66"/>
<polygon fill="#555555" stroke="#555555" points="1093.88,-42.84 1102,-36.03 1091.41,-36.29 1093.88,-42.84"/>
</g>
<!-- M_g2F3&#45;&gt;g2p08 -->
<g id="edge48" class="edge">
<title>M_g2F3&#45;&gt;g2p08</title>
<path fill="none" stroke="#555555" d="M1210.52,-89.13C1224.5,-76.63 1245.36,-57.99 1262.06,-43.07"/>
<polygon fill="#555555" stroke="#555555" points="1264.75,-45.36 1269.88,-36.09 1260.09,-40.14 1264.75,-45.36"/>
</g>
<!-- M_g2F3&#45;&gt;g2p09 -->
<g id="edge49" class="edge">
<title>M_g2F3&#45;&gt;g2p09</title>
<path fill="none" stroke="#555555" d="M1218.42,-94.48C1253.58,-81.7 1321.06,-57.16 1369.54,-39.53"/>
<polygon fill="#555555" stroke="#555555" points="1370.77,-42.81 1378.97,-36.1 1368.38,-36.23 1370.77,-42.81"/>
</g>
<!-- M_polF4&#45;&gt;pol19 -->
<g id="edge54" class="edge">
<title>M_polF4&#45;&gt;pol19</title>
<path fill="none" stroke="#555555" d="M858.31,-266.86C875.8,-253.59 903.18,-232.82 924.34,-216.76"/>
<polygon fill="#555555" stroke="#555555" points="926.56,-219.48 932.41,-210.64 922.33,-213.9 926.56,-219.48"/>
</g>
<!-- M_polF2&#45;&gt;pol14 -->
<g id="edge59" class="edge">
<title>M_polF2&#45;&gt;pol14</title>
<path fill="none" stroke="#555555" d="M1652.61,-458.67C1685.97,-444.91 1749.44,-418.72 1796.05,-399.5"/>
<polygon fill="#555555" stroke="#555555" points="1797.51,-402.68 1805.42,-395.63 1794.84,-396.21 1797.51,-402.68"/>
</g>
<!-- M_polF3&#45;&gt;pol17 -->
<g id="edge66" class="edge">
<title>M_polF3&#45;&gt;pol17</title>
<path fill="none" stroke="#555555" d="M1331,-450.7C1331,-438.13 1331,-420.81 1331,-406.01"/>
<polygon fill="#555555" stroke="#555555" points="1334.5,-405.78 1331,-395.78 1327.5,-405.78 1334.5,-405.78"/>
</g>
<!-- M_polF3&#45;&gt;pol16 -->
<g id="edge65" class="edge">
<title>M_polF3&#45;&gt;pol16</title>
<path fill="none" stroke="#555555" d="M1306.97,-460.18C1252.63,-442.51 1125,-401 1125,-401 1125,-401 1122.47,-399.93 1118.46,-398.23"/>
<polygon fill="#555555" stroke="#555555" points="1119.76,-394.98 1109.19,-394.3 1117.03,-401.42 1119.76,-394.98"/>
</g>
<!-- M_polF3&#45;&gt;pol15 -->
<g id="edge64" class="edge">
<title>M_polF3&#45;&gt;pol15</title>
<path fill="none" stroke="#555555" d="M1304.57,-464.77C1195.1,-451.38 783,-401 783,-401 783,-401 775.6,-398.9 765.09,-395.91"/>
<polygon fill="#555555" stroke="#555555" points="765.73,-392.46 755.16,-393.09 763.82,-399.19 765.73,-392.46"/>
</g>
<!-- M_polF3&#45;&gt;pol18 -->
<g id="edge67" class="edge">
<title>M_polF3&#45;&gt;pol18</title>
<path fill="none" stroke="#555555" d="M1349.83,-455.97C1369.35,-443.5 1400.65,-423.5 1427.07,-406.62"/>
<polygon fill="#555555" stroke="#555555" points="1429.27,-409.37 1435.81,-401.03 1425.5,-403.47 1429.27,-409.37"/>
</g>
<!-- M_pedF1&#45;&gt;ped02 -->
<g id="edge81" class="edge">
<title>M_pedF1&#45;&gt;ped02</title>
<path fill="none" stroke="#555555" d="M1926,-262.91C1926,-250.94 1926,-234.7 1926,-220.93"/>
<polygon fill="#555555" stroke="#555555" points="1929.5,-220.55 1926,-210.55 1922.5,-220.55 1929.5,-220.55"/>
</g>
<!-- M_polF9&#45;&gt;pol25 -->
<g id="edge88" class="edge">
<title>M_polF9&#45;&gt;pol25</title>
<path fill="none" stroke="#555555" d="M1580,-262.91C1580,-250.94 1580,-234.7 1580,-220.93"/>
<polygon fill="#555555" stroke="#555555" points="1583.5,-220.55 1580,-210.55 1576.5,-220.55 1583.5,-220.55"/>
</g>
</g>
</svg>
