<?xml version="1.0" encoding="UTF-8" standalone="no"?>
<!DOCTYPE svg PUBLIC "-//W3C//DTD SVG 1.1//EN"
 "http://www.w3.org/Graphics/SVG/1.1/DTD/svg11.dtd">
<!-- Generated by graphviz version 2.43.0 (0)
 -->
<!-- Title: %3 Pages: 1 -->
<svg width="1992pt" height="607pt"
 viewBox="0.00 0.00 1992.00 607.00" xmlns="http://www.w3.org/2000/svg" xmlns:xlink="http://www.w3.org/1999/xlink">
<style><![CDATA[
  g[id^="P_"], g[id^="M_"] { cursor: pointer; }
  .highlight ellipse, .highlight polygon, .highlight path, .highlight rect {
    stroke: #d00; stroke-width: 2.5;
  }
  @keyframes pulse { 0%,100%{opacity:1} 50%{opacity:.45} }
  .blink { animation: pulse 0.9s ease-in-out 3; }
]]></style>
<script><![CDATA[
(function(){
  var SPOUSE = {"P_pol21": ["P_g2p14"], "P_g2p14": ["P_pol21"], "P_pol19": ["P_g2p07"], "P_g2p07": ["P_pol19"], "P_pol11": ["P_polS03", "P_polS02"], "P_polS03": ["P_pol11"], "P_polS06": ["P_pol16"], "P_pol16": ["P_polS06"], "P_pol15": ["P_polS05", "P_polS04"], "P_polS05": ["P_pol15"], "P_polS07": ["P_pol17"], "P_pol17": ["P_polS07"], "P_polS08": ["P_pol18"], "P_pol18": ["P_polS08", "P_polS09"], "P_g2p10": ["P_pol20"], "P_pol20": ["P_g2p10"], "P_pol22": ["P_g3p04"], "P_g3p04": ["P_pol22"], "P_polS04": ["P_pol15"], "P_polS02": ["P_pol11"], "P_polS09": ["P_pol18"], "P_ped01": ["P_pol14"], "P_pol14": ["P_ped01"]};
  var FAMILY = {"M_g2F5": ["P_pol21", "P_g2p14", "P_g2p15", "P_g2p16"], "M_g2F3": ["P_pol19", "P_g2p07", "P_g2p08", "P_g2p09"], "M_polF3": ["P_pol11", "P_polS03", "P_pol15", "P_pol16", "P_pol17", "P_pol18"], "M_polF6": ["P_polS06", "P_pol16", "P_pol22"], "M_polF5": ["P_pol15", "P_polS05", "P_pol20", "P_pol21"], "M_polF7": ["P_polS07", "P_pol17", "P_pol23", "P_pol24"], "M_polF8": ["P_polS08", "P_pol18"], "M_g2F4": ["P_g2p10", "P_pol20", "P_g2p11", "P_g2p12", "P_g2p13"], "M_g3F2": ["P_pol22", "P_g3p04", "P_g3p05", "P_g3p06", "P_g3p07", "P_g3p08"], "M_polF4": ["P_pol15", "P_polS04", "P_pol19"], "M_polF2": ["P_pol11", "P_polS02", "P_pol14"], "M_polF9": ["P_polS09", "P_pol18", "P_pol25"], "M_pedF1": ["P_ped01", "P_pol14", "P_ped02"]};
  function clearHl(){ document.querySelectorAll('.blink').forEach(function(n){ n.classList.remove('blink'); n.classList.remove('highlight'); }); }
  function hl(id){ var el=document.getElementById(id); if(el){ el.classList.add('highlight'); el.classList.add('blink'); } }
  document.addEventListener('click', function(evt){
    var target = evt.target;
    var g = target.closest && target.closest('g[id^="P_"], g[id^="M_"]');
    if (!g) { while (target) { if (target.id && /^([PM]_)/.test(target.id) && target.tagName && target.tagName.toLowerCase() === 'g') { g = target; break; } target = target.parentNode; } }
    if (!g) return;
    var id = g.id; clearHl();
    if (/^P_/.test(id)) { (SPOUSE[id] || []).forEach(hl); }
    else if (/^M_/.test(id)) { hl(id); (FAMILY[id] || []).forEach(hl); }
  }, false);
})();
]]></script>

<g id="graph0" class="graph" transform="scale(1 1) rotate(0) translate(4 603)">
<title>%3</title>
<polygon fill="white" stroke="transparent" points="-4,4 -4,-603 1988,-603 1988,4 -4,4"/>
<text text-anchor="middle" x="992" y="-585.4" font-family="DejaVu Sans" font-size="12.00">Otto</text>
<!-- g3p04 -->
<g id="P_g3p04" class="node">
<title>g3p04</title>
<path fill="#fde7ef" stroke="#333333" d="M1217,-210.5C1217,-210.5 1125,-210.5 1125,-210.5 1119,-210.5 1113,-204.5 1113,-198.5 1113,-198.5 1113,-186.5 1113,-186.5 1113,-180.5 1119,-174.5 1125,-174.5 1125,-174.5 1217,-174.5 1217,-174.5 1223,-174.5 1229,-180.5 1229,-186.5 1229,-186.5 1229,-198.5 1229,-198.5 1229,-204.5 1223,-210.5 1217,-210.5"/>
<text text-anchor="middle" x="1171" y="-195.5" font-family="DejaVu Sans" font-size="10.00">Carina Guttenberger</text>
<text text-anchor="middle" x="1171" y="-184.5" font-family="DejaVu Sans" font-size="10.00">*30.03.1982</text>
</g>
<!-- pol22 -->
<g id="P_pol22" class="node">
<title>pol22</title>
<path fill="#dbeafe" stroke="#333333" d="M1325,-210.5C1325,-210.5 1273,-210.5 1273,-210.5 1267,-210.5 1261,-204.5 1261,-198.5 1261,-198.5 1261,-186.5 1261,-186.5 1261,-180.5 1267,-174.5 1273,-174.5 1273,-174.5 1325,-174.5 1325,-174.5 1331,-174.5 1337,-180.5 1337,-186.5 1337,-186.5 1337,-198.5 1337,-198.5 1337,-204.5 1331,-210.5 1325,-210.5"/>
<text text-anchor="middle" x="1299" y="-195.5" font-family="DejaVu Sans" font-size="10.00">Oliver Koch</text>
<text text-anchor="middle" x="1299" y="-184.5" font-family="DejaVu Sans" font-size="10.00">*10.10.1974</text>
</g>
<!-- g3p04&#45;&gt;pol22 -->
<!-- M_g3F2 -->
<g id="M_g3F2" class="node">
<title>M_g3F2</title>
<ellipse fill="#fff3b0" stroke="#b08900" cx="1194" cy="-104" rx="27" ry="18"/>
<text text-anchor="middle" x="1194" y="-101.8" font-family="DejaVu Sans" font-size="9.00">oo</text>
</g>
<!-- g3p04&#45;&gt;M_g3F2 -->
<g id="edge63" class="edge">
<title>g3p04&#45;&gt;M_g3F2</title>
<path fill="none" stroke="#555555" d="M1175.54,-174.41C1179.6,-159.15 1185.51,-136.92 1189.54,-121.76"/>
</g>
<!-- polS04 -->
<g id="P_polS04" class="node">
<title>polS04</title>
<path fill="#fde7ef" stroke="#333333" d="M811.5,-395.5C811.5,-395.5 752.5,-395.5 752.5,-395.5 746.5,-395.5 740.5,-389.5 740.5,-383.5 740.5,-383.5 740.5,-366.5 740.5,-366.5 740.5,-360.5 746.5,-354.5 752.5,-354.5 752.5,-354.5 811.5,-354.5 811.5,-354.5 817.5,-354.5 823.5,-360.5 823.5,-366.5 823.5,-366.5 823.5,-383.5 823.5,-383.5 823.5,-389.5 817.5,-395.5 811.5,-395.5"/>
<text text-anchor="middle" x="782" y="-383.5" font-family="DejaVu Sans" font-size="10.00">Edith Polasek</text>
<text text-anchor="middle" x="782" y="-372.5" font-family="DejaVu Sans" font-size="10.00">geb. Billich</text>
<text text-anchor="middle" x="782" y="-361.5" font-family="DejaVu Sans" font-size="10.00">*26.10.1947</text>
</g>
<!-- pol16 -->
<g id="P_pol16" class="node">
<title>pol16</title>
<path fill="#fde7ef" stroke="#333333" d="M1048,-395.5C1048,-395.5 986,-395.5 986,-395.5 980,-395.5 974,-389.5 974,-383.5 974,-383.5 974,-366.5 974,-366.5 974,-360.5 980,-354.5 986,-354.5 986,-354.5 1048,-354.5 1048,-354.5 1054,-354.5 1060,-360.5 1060,-366.5 1060,-366.5 1060,-383.5 1060,-383.5 1060,-389.5 1054,-395.5 1048,-395.5"/>
<text text-anchor="middle" x="1017" y="-383.5" font-family="DejaVu Sans" font-size="10.00">Christine Koch</text>
<text text-anchor="middle" x="1017" y="-372.5" font-family="DejaVu Sans" font-size="10.00">geb. Polasek</text>
<text text-anchor="middle" x="1017" y="-361.5" font-family="DejaVu Sans" font-size="10.00">*19.07.1952</text>
</g>
<!-- polS04&#45;&gt;pol16 -->
<!-- pol15 -->
<g id="P_pol15" class="node">
<title>pol15</title>
<path fill="#dbeafe" stroke="#333333" d="M696,-393C696,-393 576,-393 576,-393 570,-393 564,-387 564,-381 564,-381 564,-369 564,-369 564,-363 570,-357 576,-357 576,-357 696,-357 696,-357 702,-357 708,-363 708,-369 708,-369 708,-381 708,-381 708,-387 702,-393 696,-393"/>
<text text-anchor="middle" x="636" y="-378" font-family="DejaVu Sans" font-size="10.00">Wolfgang Polasek</text>
<text text-anchor="middle" x="636" y="-367" font-family="DejaVu Sans" font-size="10.00">*19.06.1951 &#160;+23.05.2013</text>
</g>
<!-- polS04&#45;&gt;pol15 -->
<!-- M_polF4 -->
<g id="M_polF4" class="node">
<title>M_polF4</title>
<ellipse fill="#fff3b0" stroke="#b08900" cx="778" cy="-281" rx="27" ry="18"/>
<text text-anchor="middle" x="778" y="-278.8" font-family="DejaVu Sans" font-size="9.00">oo</text>
</g>
<!-- polS04&#45;&gt;M_polF4 -->
<g id="edge73" class="edge">
<title>polS04&#45;&gt;M_polF4</title>
<path fill="none" stroke="#555555" d="M781.15,-354.49C780.44,-338.03 779.42,-314.71 778.74,-299.01"/>
</g>
<!-- g3p05 -->
<g id="P_g3p05" class="node">
<title>g3p05</title>
<path fill="#dbeafe" stroke="#333333" d="M1073.5,-36C1073.5,-36 976.5,-36 976.5,-36 970.5,-36 964.5,-30 964.5,-24 964.5,-24 964.5,-12 964.5,-12 964.5,-6 970.5,0 976.5,0 976.5,0 1073.5,0 1073.5,0 1079.5,0 1085.5,-6 1085.5,-12 1085.5,-12 1085.5,-24 1085.5,-24 1085.5,-30 1079.5,-36 1073.5,-36"/>
<text text-anchor="middle" x="1025" y="-21" font-family="DejaVu Sans" font-size="10.00">Yannick Guttenberger</text>
<text text-anchor="middle" x="1025" y="-10" font-family="DejaVu Sans" font-size="10.00">*13.09.2004</text>
</g>
<!-- g3p06 -->
<g id="P_g3p06" class="node">
<title>g3p06</title>
<path fill="#fde7ef" stroke="#333333" d="M1228,-36C1228,-36 1130,-36 1130,-36 1124,-36 1118,-30 1118,-24 1118,-24 1118,-12 1118,-12 1118,-6 1124,0 1130,0 1130,0 1228,0 1228,0 1234,0 1240,-6 1240,-12 1240,-12 1240,-24 1240,-24 1240,-30 1234,-36 1228,-36"/>
<text text-anchor="middle" x="1179" y="-21" font-family="DejaVu Sans" font-size="10.00">Hannah Guttenberger</text>
<text text-anchor="middle" x="1179" y="-10" font-family="DejaVu Sans" font-size="10.00">*05.02.2006</text>
</g>
<!-- g3p05&#45;&gt;g3p06 -->
<!-- pol23 -->
<g id="P_pol23" class="node">
<title>pol23</title>
<path fill="#fde7ef" stroke="#333333" d="M941.5,-210.5C941.5,-210.5 874.5,-210.5 874.5,-210.5 868.5,-210.5 862.5,-204.5 862.5,-198.5 862.5,-198.5 862.5,-186.5 862.5,-186.5 862.5,-180.5 868.5,-174.5 874.5,-174.5 874.5,-174.5 941.5,-174.5 941.5,-174.5 947.5,-174.5 953.5,-180.5 953.5,-186.5 953.5,-186.5 953.5,-198.5 953.5,-198.5 953.5,-204.5 947.5,-210.5 941.5,-210.5"/>
<text text-anchor="middle" x="908" y="-195.5" font-family="DejaVu Sans" font-size="10.00">Irene Schlosser</text>
<text text-anchor="middle" x="908" y="-184.5" font-family="DejaVu Sans" font-size="10.00">*20.03.1975</text>
</g>
<!-- pol24 -->
<g id="P_pol24" class="node">
<title>pol24</title>
<path fill="#fde7ef" stroke="#333333" d="M1066,-210.5C1066,-210.5 998,-210.5 998,-210.5 992,-210.5 986,-204.5 986,-198.5 986,-198.5 986,-186.5 986,-186.5 986,-180.5 992,-174.5 998,-174.5 998,-174.5 1066,-174.5 1066,-174.5 1072,-174.5 1078,-180.5 1078,-186.5 1078,-186.5 1078,-198.5 1078,-198.5 1078,-204.5 1072,-210.5 1066,-210.5"/>
<text text-anchor="middle" x="1032" y="-195.5" font-family="DejaVu Sans" font-size="10.00">Karin Schlosser</text>
<text text-anchor="middle" x="1032" y="-184.5" font-family="DejaVu Sans" font-size="10.00">*23.11.1977</text>
</g>
<!-- pol23&#45;&gt;pol24 -->
<!-- g3p08 -->
<g id="P_g3p08" class="node">
<title>g3p08</title>
<path fill="#fde7ef" stroke="#333333" d="M1518,-36C1518,-36 1436,-36 1436,-36 1430,-36 1424,-30 1424,-24 1424,-24 1424,-12 1424,-12 1424,-6 1430,0 1436,0 1436,0 1518,0 1518,0 1524,0 1530,-6 1530,-12 1530,-12 1530,-24 1530,-24 1530,-30 1524,-36 1518,-36"/>
<text text-anchor="middle" x="1477" y="-21" font-family="DejaVu Sans" font-size="10.00">Sara Guttenberger</text>
<text text-anchor="middle" x="1477" y="-10" font-family="DejaVu Sans" font-size="10.00">*16.09.2011</text>
</g>
<!-- pol18 -->
<g id="P_pol18" class="node">
<title>pol18</title>
<path fill="#fde7ef" stroke="#333333" d="M1562,-401C1562,-401 1506,-401 1506,-401 1500,-401 1494,-395 1494,-389 1494,-389 1494,-361 1494,-361 1494,-355 1500,-349 1506,-349 1506,-349 1562,-349 1562,-349 1568,-349 1574,-355 1574,-361 1574,-361 1574,-389 1574,-389 1574,-395 1568,-401 1562,-401"/>
<text text-anchor="middle" x="1534" y="-389" font-family="DejaVu Sans" font-size="10.00">Doris Kessler</text>
<text text-anchor="middle" x="1534" y="-378" font-family="DejaVu Sans" font-size="10.00">geb. Polasek</text>
<text text-anchor="middle" x="1534" y="-367" font-family="DejaVu Sans" font-size="10.00">verh. Vogl</text>
<text text-anchor="middle" x="1534" y="-356" font-family="DejaVu Sans" font-size="10.00">*03.02.1959</text>
</g>
<!-- polS09 -->
<g id="P_polS09" class="node">
<title>polS09</title>
<path fill="#dbeafe" stroke="#333333" d="M1680,-393C1680,-393 1618,-393 1618,-393 1612,-393 1606,-387 1606,-381 1606,-381 1606,-369 1606,-369 1606,-363 1612,-357 1618,-357 1618,-357 1680,-357 1680,-357 1686,-357 1692,-363 1692,-369 1692,-369 1692,-381 1692,-381 1692,-387 1686,-393 1680,-393"/>
<text text-anchor="middle" x="1649" y="-378" font-family="DejaVu Sans" font-size="10.00">Jürgen Kessler</text>
<text text-anchor="middle" x="1649" y="-367" font-family="DejaVu Sans" font-size="10.00">*06.12.1946</text>
</g>
<!-- pol18&#45;&gt;polS09 -->
<!-- polS08 -->
<g id="P_polS08" class="node">
<title>polS08</title>
<path fill="#dbeafe" stroke="#333333" d="M1449.5,-393C1449.5,-393 1388.5,-393 1388.5,-393 1382.5,-393 1376.5,-387 1376.5,-381 1376.5,-381 1376.5,-369 1376.5,-369 1376.5,-363 1382.5,-357 1388.5,-357 1388.5,-357 1449.5,-357 1449.5,-357 1455.5,-357 1461.5,-363 1461.5,-369 1461.5,-369 1461.5,-381 1461.5,-381 1461.5,-387 1455.5,-393 1449.5,-393"/>
<text text-anchor="middle" x="1419" y="-378" font-family="DejaVu Sans" font-size="10.00">Burkhard Vogl</text>
<text text-anchor="middle" x="1419" y="-367" font-family="DejaVu Sans" font-size="10.00">*11.01.1950</text>
</g>
<!-- pol18&#45;&gt;polS08 -->
<!-- M_polF8 -->
<g id="M_polF8" class="node">
<title>M_polF8</title>
<ellipse fill="#fff3b0" stroke="#b08900" cx="1462" cy="-281" rx="27" ry="18"/>
<text text-anchor="middle" x="1462" y="-278.8" font-family="DejaVu Sans" font-size="9.00">oo</text>
</g>
<!-- pol18&#45;&gt;M_polF8 -->
<g id="edge52" class="edge">
<title>pol18&#45;&gt;M_polF8</title>
<path fill="none" stroke="#555555" d="M1514.33,-348.86C1501.42,-332.37 1484.96,-311.34 1473.98,-297.31"/>
</g>
<!-- M_polF9 -->
<g id="M_polF9" class="node">
<title>M_polF9</title>
<ellipse fill="#fff3b0" stroke="#b08900" cx="1591" cy="-281" rx="27" ry="18"/>
<text text-anchor="middle" x="1591" y="-278.8" font-family="DejaVu Sans" font-size="9.00">oo</text>
</g>
<!-- pol18&#45;&gt;M_polF9 -->
<g id="edge83" class="edge">
<title>pol18&#45;&gt;M_polF9</title>
<path fill="none" stroke="#555555" d="M1549.58,-348.86C1559.66,-332.58 1572.49,-311.88 1581.18,-297.85"/>
</g>
<!-- g2p09 -->
<g id="P_g2p09" class="node">
<title>g2p09</title>
<path fill="#fde7ef" stroke="#333333" d="M912.5,-36C912.5,-36 839.5,-36 839.5,-36 833.5,-36 827.5,-30 827.5,-24 827.5,-24 827.5,-12 827.5,-12 827.5,-6 833.5,0 839.5,0 839.5,0 912.5,0 912.5,0 918.5,0 924.5,-6 924.5,-12 924.5,-12 924.5,-24 924.5,-24 924.5,-30 918.5,-36 912.5,-36"/>
<text text-anchor="middle" x="876" y="-21" font-family="DejaVu Sans" font-size="10.00">Johanna Polasek</text>
<text text-anchor="middle" x="876" y="-10" font-family="DejaVu Sans" font-size="10.00">*12.07.2006</text>
</g>
<!-- g3p07 -->
<g id="P_g3p07" class="node">
<title>g3p07</title>
<path fill="#dbeafe" stroke="#333333" d="M1379.5,-36C1379.5,-36 1284.5,-36 1284.5,-36 1278.5,-36 1272.5,-30 1272.5,-24 1272.5,-24 1272.5,-12 1272.5,-12 1272.5,-6 1278.5,0 1284.5,0 1284.5,0 1379.5,0 1379.5,0 1385.5,0 1391.5,-6 1391.5,-12 1391.5,-12 1391.5,-24 1391.5,-24 1391.5,-30 1385.5,-36 1379.5,-36"/>
<text text-anchor="middle" x="1332" y="-21" font-family="DejaVu Sans" font-size="10.00">Nathan Guttenberger</text>
<text text-anchor="middle" x="1332" y="-10" font-family="DejaVu Sans" font-size="10.00">*19.11.2007</text>
</g>
<!-- g3p07&#45;&gt;g3p08 -->
<!-- pol22&#45;&gt;g3p04 -->
<!-- pol22&#45;&gt;g3p04 -->
<!-- pol22&#45;&gt;g3p04 -->
<!-- pol22&#45;&gt;M_g3F2 -->
<g id="edge62" class="edge">
<title>pol22&#45;&gt;M_g3F2</title>
<path fill="none" stroke="#555555" d="M1278.26,-174.41C1258.41,-158.06 1228.88,-133.73 1210.56,-118.64"/>
</g>
<!-- g2p13 -->
<g id="P_g2p13" class="node">
<title>g2p13</title>
<path fill="#dbeafe" stroke="#333333" d="M282,-36C282,-36 230,-36 230,-36 224,-36 218,-30 218,-24 218,-24 218,-12 218,-12 218,-6 224,0 230,0 230,0 282,0 282,0 288,0 294,-6 294,-12 294,-12 294,-24 294,-24 294,-30 288,-36 282,-36"/>
<text text-anchor="middle" x="256" y="-21" font-family="DejaVu Sans" font-size="10.00">Ben Niklaus</text>
<text text-anchor="middle" x="256" y="-10" font-family="DejaVu Sans" font-size="10.00">*14.10.2016</text>
</g>
<!-- pol17 -->
<g id="P_pol17" class="node">
<title>pol17</title>
<path fill="#fde7ef" stroke="#333333" d="M1224,-395.5C1224,-395.5 1104,-395.5 1104,-395.5 1098,-395.5 1092,-389.5 1092,-383.5 1092,-383.5 1092,-366.5 1092,-366.5 1092,-360.5 1098,-354.5 1104,-354.5 1104,-354.5 1224,-354.5 1224,-354.5 1230,-354.5 1236,-360.5 1236,-366.5 1236,-366.5 1236,-383.5 1236,-383.5 1236,-389.5 1230,-395.5 1224,-395.5"/>
<text text-anchor="middle" x="1164" y="-383.5" font-family="DejaVu Sans" font-size="10.00">Adele (Sissi) Schlosser</text>
<text text-anchor="middle" x="1164" y="-372.5" font-family="DejaVu Sans" font-size="10.00">geb. Polasek</text>
<text text-anchor="middle" x="1164" y="-361.5" font-family="DejaVu Sans" font-size="10.00">*21.02.1954 &#160;+31.12.2023</text>
</g>
<!-- pol17&#45;&gt;pol18 -->
<!-- pol17&#45;&gt;pol18 -->
<!-- polS07 -->
<g id="P_polS07" class="node">
<title>polS07</title>
<path fill="#dbeafe" stroke="#333333" d="M930,-393C930,-393 868,-393 868,-393 862,-393 856,-387 856,-381 856,-381 856,-369 856,-369 856,-363 862,-357 868,-357 868,-357 930,-357 930,-357 936,-357 942,-363 942,-369 942,-369 942,-381 942,-381 942,-387 936,-393 930,-393"/>
<text text-anchor="middle" x="899" y="-378" font-family="DejaVu Sans" font-size="10.00">Paul Schlosser</text>
<text text-anchor="middle" x="899" y="-367" font-family="DejaVu Sans" font-size="10.00">*19.08.1943</text>
</g>
<!-- pol17&#45;&gt;polS07 -->
<!-- M_polF7 -->
<g id="M_polF7" class="node">
<title>M_polF7</title>
<ellipse fill="#fff3b0" stroke="#b08900" cx="970" cy="-281" rx="27" ry="18"/>
<text text-anchor="middle" x="970" y="-278.8" font-family="DejaVu Sans" font-size="9.00">oo</text>
</g>
<!-- pol17&#45;&gt;M_polF7 -->
<g id="edge46" class="edge">
<title>pol17&#45;&gt;M_polF7</title>
<path fill="none" stroke="#555555" d="M1122.86,-354.49C1082.59,-335.4 1022.85,-307.06 991.3,-292.1"/>
</g>
<!-- pol16&#45;&gt;pol17 -->
<!-- pol16&#45;&gt;pol17 -->
<!-- polS06 -->
<g id="P_polS06" class="node">
<title>polS06</title>
<path fill="#dbeafe" stroke="#333333" d="M1332,-393C1332,-393 1280,-393 1280,-393 1274,-393 1268,-387 1268,-381 1268,-381 1268,-369 1268,-369 1268,-363 1274,-357 1280,-357 1280,-357 1332,-357 1332,-357 1338,-357 1344,-363 1344,-369 1344,-369 1344,-381 1344,-381 1344,-387 1338,-393 1332,-393"/>
<text text-anchor="middle" x="1306" y="-378" font-family="DejaVu Sans" font-size="10.00">Igo Koch</text>
<text text-anchor="middle" x="1306" y="-367" font-family="DejaVu Sans" font-size="10.00">*29.07.1947</text>
</g>
<!-- pol16&#45;&gt;polS06 -->
<!-- M_polF6 -->
<g id="M_polF6" class="node">
<title>M_polF6</title>
<ellipse fill="#fff3b0" stroke="#b08900" cx="1299" cy="-281" rx="27" ry="18"/>
<text text-anchor="middle" x="1299" y="-278.8" font-family="DejaVu Sans" font-size="9.00">oo</text>
</g>
<!-- pol16&#45;&gt;M_polF6 -->
<g id="edge32" class="edge">
<title>pol16&#45;&gt;M_polF6</title>
<path fill="none" stroke="#555555" d="M1060.19,-355.7C1069.19,-351.89 1076,-349 1076,-349 1076,-349 1216.91,-306.66 1274.71,-289.3"/>
</g>
<!-- pol14 -->
<g id="P_pol14" class="node">
<title>pol14</title>
<path fill="#fde7ef" stroke="#333333" d="M1853.5,-395.5C1853.5,-395.5 1736.5,-395.5 1736.5,-395.5 1730.5,-395.5 1724.5,-389.5 1724.5,-383.5 1724.5,-383.5 1724.5,-366.5 1724.5,-366.5 1724.5,-360.5 1730.5,-354.5 1736.5,-354.5 1736.5,-354.5 1853.5,-354.5 1853.5,-354.5 1859.5,-354.5 1865.5,-360.5 1865.5,-366.5 1865.5,-366.5 1865.5,-383.5 1865.5,-383.5 1865.5,-389.5 1859.5,-395.5 1853.5,-395.5"/>
<text text-anchor="middle" x="1795" y="-383.5" font-family="DejaVu Sans" font-size="10.00">Gertrud (Traudl) Pedersen</text>
<text text-anchor="middle" x="1795" y="-372.5" font-family="DejaVu Sans" font-size="10.00">geb. Polasek</text>
<text text-anchor="middle" x="1795" y="-361.5" font-family="DejaVu Sans" font-size="10.00">*21.03.1944</text>
</g>
<!-- ped01 -->
<g id="P_ped01" class="node">
<title>ped01</title>
<path fill="#dbeafe" stroke="#333333" d="M1972,-393C1972,-393 1910,-393 1910,-393 1904,-393 1898,-387 1898,-381 1898,-381 1898,-369 1898,-369 1898,-363 1904,-357 1910,-357 1910,-357 1972,-357 1972,-357 1978,-357 1984,-363 1984,-369 1984,-369 1984,-381 1984,-381 1984,-387 1978,-393 1972,-393"/>
<text text-anchor="middle" x="1941" y="-378" font-family="DejaVu Sans" font-size="10.00">John Pedersen</text>
<text text-anchor="middle" x="1941" y="-367" font-family="DejaVu Sans" font-size="10.00">*31.07.1938</text>
</g>
<!-- pol14&#45;&gt;ped01 -->
<!-- M_pedF1 -->
<g id="M_pedF1" class="node">
<title>M_pedF1</title>
<ellipse fill="#fff3b0" stroke="#b08900" cx="1868" cy="-281" rx="27" ry="18"/>
<text text-anchor="middle" x="1868" y="-278.8" font-family="DejaVu Sans" font-size="9.00">oo</text>
</g>
<!-- pol14&#45;&gt;M_pedF1 -->
<g id="edge87" class="edge">
<title>pol14&#45;&gt;M_pedF1</title>
<path fill="none" stroke="#555555" d="M1810.48,-354.49C1824.04,-337.4 1843.47,-312.91 1855.91,-297.23"/>
</g>
<!-- pol15&#45;&gt;polS04 -->
<!-- pol15&#45;&gt;polS04 -->
<!-- pol15&#45;&gt;polS04 -->
<!-- pol15&#45;&gt;pol16 -->
<!-- polS05 -->
<g id="P_polS05" class="node">
<title>polS05</title>
<path fill="#fde7ef" stroke="#333333" d="M519.5,-395.5C519.5,-395.5 454.5,-395.5 454.5,-395.5 448.5,-395.5 442.5,-389.5 442.5,-383.5 442.5,-383.5 442.5,-366.5 442.5,-366.5 442.5,-360.5 448.5,-354.5 454.5,-354.5 454.5,-354.5 519.5,-354.5 519.5,-354.5 525.5,-354.5 531.5,-360.5 531.5,-366.5 531.5,-366.5 531.5,-383.5 531.5,-383.5 531.5,-389.5 525.5,-395.5 519.5,-395.5"/>
<text text-anchor="middle" x="487" y="-383.5" font-family="DejaVu Sans" font-size="10.00">Hanka Polasek</text>
<text text-anchor="middle" x="487" y="-372.5" font-family="DejaVu Sans" font-size="10.00">geb. Steindel</text>
<text text-anchor="middle" x="487" y="-361.5" font-family="DejaVu Sans" font-size="10.00">*10.06.1951</text>
</g>
<!-- pol15&#45;&gt;polS05 -->
<!-- pol15&#45;&gt;polS05 -->
<!-- M_polF5 -->
<g id="M_polF5" class="node">
<title>M_polF5</title>
<ellipse fill="#fff3b0" stroke="#b08900" cx="505" cy="-281" rx="27" ry="18"/>
<text text-anchor="middle" x="505" y="-278.8" font-family="DejaVu Sans" font-size="9.00">oo</text>
</g>
<!-- pol15&#45;&gt;M_polF5 -->
<g id="edge36" class="edge">
<title>pol15&#45;&gt;M_polF5</title>
<path fill="none" stroke="#555555" d="M611.67,-356.91C585.92,-338.83 545.89,-310.72 522.9,-294.57"/>
</g>
<!-- pol15&#45;&gt;M_polF4 -->
<g id="edge72" class="edge">
<title>pol15&#45;&gt;M_polF4</title>
<path fill="none" stroke="#555555" d="M662.38,-356.91C690.45,-338.72 734.17,-310.4 759.03,-294.29"/>
</g>
<!-- g2p14 -->
<g id="P_g2p14" class="node">
<title>g2p14</title>
<path fill="#fde7ef" stroke="#333333" d="M421,-210.5C421,-210.5 349,-210.5 349,-210.5 343,-210.5 337,-204.5 337,-198.5 337,-198.5 337,-186.5 337,-186.5 337,-180.5 343,-174.5 349,-174.5 349,-174.5 421,-174.5 421,-174.5 427,-174.5 433,-180.5 433,-186.5 433,-186.5 433,-198.5 433,-198.5 433,-204.5 427,-210.5 421,-210.5"/>
<text text-anchor="middle" x="385" y="-195.5" font-family="DejaVu Sans" font-size="10.00">Julia Schultheiss</text>
<text text-anchor="middle" x="385" y="-184.5" font-family="DejaVu Sans" font-size="10.00">*29.04.1986</text>
</g>
<!-- pol21 -->
<g id="P_pol21" class="node">
<title>pol21</title>
<path fill="#dbeafe" stroke="#333333" d="M542.5,-210.5C542.5,-210.5 477.5,-210.5 477.5,-210.5 471.5,-210.5 465.5,-204.5 465.5,-198.5 465.5,-198.5 465.5,-186.5 465.5,-186.5 465.5,-180.5 471.5,-174.5 477.5,-174.5 477.5,-174.5 542.5,-174.5 542.5,-174.5 548.5,-174.5 554.5,-180.5 554.5,-186.5 554.5,-186.5 554.5,-198.5 554.5,-198.5 554.5,-204.5 548.5,-210.5 542.5,-210.5"/>
<text text-anchor="middle" x="510" y="-195.5" font-family="DejaVu Sans" font-size="10.00">Daniel Polasek</text>
<text text-anchor="middle" x="510" y="-184.5" font-family="DejaVu Sans" font-size="10.00">*15.05.1986</text>
</g>
<!-- g2p14&#45;&gt;pol21 -->
<!-- M_g2F5 -->
<g id="M_g2F5" class="node">
<title>M_g2F5</title>
<ellipse fill="#fff3b0" stroke="#b08900" cx="464" cy="-104" rx="27" ry="18"/>
<text text-anchor="middle" x="464" y="-101.8" font-family="DejaVu Sans" font-size="9.00">oo</text>
</g>
<!-- g2p14&#45;&gt;M_g2F5 -->
<g id="edge3" class="edge">
<title>g2p14&#45;&gt;M_g2F5</title>
<path fill="none" stroke="#555555" d="M400.61,-174.41C415.18,-158.46 436.69,-134.9 450.53,-119.75"/>
</g>
<!-- pol11 -->
<g id="P_pol11" class="node">
<title>pol11</title>
<path fill="#dbeafe" stroke="#111111" stroke-width="1.8" d="M1368,-575.5C1368,-575.5 1248,-575.5 1248,-575.5 1242,-575.5 1236,-569.5 1236,-563.5 1236,-563.5 1236,-551.5 1236,-551.5 1236,-545.5 1242,-539.5 1248,-539.5 1248,-539.5 1368,-539.5 1368,-539.5 1374,-539.5 1380,-545.5 1380,-551.5 1380,-551.5 1380,-563.5 1380,-563.5 1380,-569.5 1374,-575.5 1368,-575.5"/>
<text text-anchor="middle" x="1308" y="-560.5" font-family="DejaVu Sans" font-size="10.00">Otto Polasek</text>
<text text-anchor="middle" x="1308" y="-549.5" font-family="DejaVu Sans" font-size="10.00">*14.09.1912 &#160;+01.11.1994</text>
</g>
<!-- polS02 -->
<g id="P_polS02" class="node">
<title>polS02</title>
<path fill="#fde7ef" stroke="#333333" d="M1501.5,-575.5C1501.5,-575.5 1424.5,-575.5 1424.5,-575.5 1418.5,-575.5 1412.5,-569.5 1412.5,-563.5 1412.5,-563.5 1412.5,-551.5 1412.5,-551.5 1412.5,-545.5 1418.5,-539.5 1424.5,-539.5 1424.5,-539.5 1501.5,-539.5 1501.5,-539.5 1507.5,-539.5 1513.5,-545.5 1513.5,-551.5 1513.5,-551.5 1513.5,-563.5 1513.5,-563.5 1513.5,-569.5 1507.5,-575.5 1501.5,-575.5"/>
<text text-anchor="middle" x="1463" y="-560.5" font-family="DejaVu Sans" font-size="10.00">Gertrude Polasek</text>
<text text-anchor="middle" x="1463" y="-549.5" font-family="DejaVu Sans" font-size="10.00">geb. Winkler</text>
</g>
<!-- pol11&#45;&gt;polS02 -->
<!-- pol11&#45;&gt;polS02 -->
<!-- polS03 -->
<g id="P_polS03" class="node">
<title>polS03</title>
<path fill="#fde7ef" stroke="#333333" d="M1192,-578C1192,-578 1136,-578 1136,-578 1130,-578 1124,-572 1124,-566 1124,-566 1124,-549 1124,-549 1124,-543 1130,-537 1136,-537 1136,-537 1192,-537 1192,-537 1198,-537 1204,-543 1204,-549 1204,-549 1204,-566 1204,-566 1204,-572 1198,-578 1192,-578"/>
<text text-anchor="middle" x="1164" y="-566" font-family="DejaVu Sans" font-size="10.00">Inge Polasek</text>
<text text-anchor="middle" x="1164" y="-555" font-family="DejaVu Sans" font-size="10.00">geb. Rokitzki</text>
<text text-anchor="middle" x="1164" y="-544" font-family="DejaVu Sans" font-size="10.00">*11.02.1928</text>
</g>
<!-- pol11&#45;&gt;polS03 -->
<!-- pol11&#45;&gt;polS03 -->
<!-- M_polF3 -->
<g id="M_polF3" class="node">
<title>M_polF3</title>
<ellipse fill="#fff3b0" stroke="#b08900" cx="1164" cy="-469" rx="27" ry="18"/>
<text text-anchor="middle" x="1164" y="-466.8" font-family="DejaVu Sans" font-size="9.00">oo</text>
</g>
<!-- pol11&#45;&gt;M_polF3 -->
<g id="edge14" class="edge">
<title>pol11&#45;&gt;M_polF3</title>
<path fill="none" stroke="#555555" d="M1279.55,-539.41C1251.19,-522.37 1208.39,-496.67 1183.62,-481.79"/>
</g>
<!-- M_polF2 -->
<g id="M_polF2" class="node">
<title>M_polF2</title>
<ellipse fill="#fff3b0" stroke="#b08900" cx="1463" cy="-469" rx="27" ry="18"/>
<text text-anchor="middle" x="1463" y="-466.8" font-family="DejaVu Sans" font-size="9.00">oo</text>
</g>
<!-- pol11&#45;&gt;M_polF2 -->
<g id="edge77" class="edge">
<title>pol11&#45;&gt;M_polF2</title>
<path fill="none" stroke="#555555" d="M1338.62,-539.41C1369.5,-522.18 1416.29,-496.07 1442.8,-481.27"/>
</g>
<!-- g2p15 -->
<g id="P_g2p15" class="node">
<title>g2p15</title>
<path fill="#dbeafe" stroke="#333333" d="M465.5,-36C465.5,-36 370.5,-36 370.5,-36 364.5,-36 358.5,-30 358.5,-24 358.5,-24 358.5,-12 358.5,-12 358.5,-6 364.5,0 370.5,0 370.5,0 465.5,0 465.5,0 471.5,0 477.5,-6 477.5,-12 477.5,-12 477.5,-24 477.5,-24 477.5,-30 471.5,-36 465.5,-36"/>
<text text-anchor="middle" x="418" y="-21" font-family="DejaVu Sans" font-size="10.00">Koa&#45;Miro Schultheiss</text>
<text text-anchor="middle" x="418" y="-10" font-family="DejaVu Sans" font-size="10.00">*29.08.2019</text>
</g>
<!-- g2p16 -->
<g id="P_g2p16" class="node">
<title>g2p16</title>
<path fill="#dbeafe" stroke="#333333" d="M622.5,-36C622.5,-36 521.5,-36 521.5,-36 515.5,-36 509.5,-30 509.5,-24 509.5,-24 509.5,-12 509.5,-12 509.5,-6 515.5,0 521.5,0 521.5,0 622.5,0 622.5,0 628.5,0 634.5,-6 634.5,-12 634.5,-12 634.5,-24 634.5,-24 634.5,-30 628.5,-36 622.5,-36"/>
<text text-anchor="middle" x="572" y="-21" font-family="DejaVu Sans" font-size="10.00">Nelo&#45;Mika Schultheiss</text>
<text text-anchor="middle" x="572" y="-10" font-family="DejaVu Sans" font-size="10.00">*15.08.2022</text>
</g>
<!-- g2p15&#45;&gt;g2p16 -->
<!-- polS09&#45;&gt;pol18 -->
<!-- polS09&#45;&gt;pol18 -->
<!-- polS09&#45;&gt;M_polF9 -->
<g id="edge82" class="edge">
<title>polS09&#45;&gt;M_polF9</title>
<path fill="none" stroke="#555555" d="M1638.09,-356.7C1627.46,-339.83 1611.43,-314.4 1601.08,-298"/>
</g>
<!-- pol25 -->
<g id="P_pol25" class="node">
<title>pol25</title>
<path fill="#dbeafe" stroke="#333333" d="M1620,-210.5C1620,-210.5 1562,-210.5 1562,-210.5 1556,-210.5 1550,-204.5 1550,-198.5 1550,-198.5 1550,-186.5 1550,-186.5 1550,-180.5 1556,-174.5 1562,-174.5 1562,-174.5 1620,-174.5 1620,-174.5 1626,-174.5 1632,-180.5 1632,-186.5 1632,-186.5 1632,-198.5 1632,-198.5 1632,-204.5 1626,-210.5 1620,-210.5"/>
<text text-anchor="middle" x="1591" y="-195.5" font-family="DejaVu Sans" font-size="10.00">Julian Kessler</text>
<text text-anchor="middle" x="1591" y="-184.5" font-family="DejaVu Sans" font-size="10.00">*28.01.1998</text>
</g>
<!-- g2p11 -->
<g id="P_g2p11" class="node">
<title>g2p11</title>
<path fill="#dbeafe" stroke="#333333" d="M64,-36C64,-36 12,-36 12,-36 6,-36 0,-30 0,-24 0,-24 0,-12 0,-12 0,-6 6,0 12,0 12,0 64,0 64,0 70,0 76,-6 76,-12 76,-12 76,-24 76,-24 76,-30 70,-36 64,-36"/>
<text text-anchor="middle" x="38" y="-21" font-family="DejaVu Sans" font-size="10.00">Tim Niklaus</text>
<text text-anchor="middle" x="38" y="-10" font-family="DejaVu Sans" font-size="10.00">*23.10.2012</text>
</g>
<!-- g2p12 -->
<g id="P_g2p12" class="node">
<title>g2p12</title>
<path fill="#fde7ef" stroke="#333333" d="M173.5,-36C173.5,-36 120.5,-36 120.5,-36 114.5,-36 108.5,-30 108.5,-24 108.5,-24 108.5,-12 108.5,-12 108.5,-6 114.5,0 120.5,0 120.5,0 173.5,0 173.5,0 179.5,0 185.5,-6 185.5,-12 185.5,-12 185.5,-24 185.5,-24 185.5,-30 179.5,-36 173.5,-36"/>
<text text-anchor="middle" x="147" y="-21" font-family="DejaVu Sans" font-size="10.00">Lina Niklaus</text>
<text text-anchor="middle" x="147" y="-10" font-family="DejaVu Sans" font-size="10.00">*24.08.2014</text>
</g>
<!-- g2p11&#45;&gt;g2p12 -->
<!-- pol21&#45;&gt;g2p14 -->
<!-- pol21&#45;&gt;g2p14 -->
<!-- pol21&#45;&gt;g2p14 -->
<!-- pol21&#45;&gt;M_g2F5 -->
<g id="edge2" class="edge">
<title>pol21&#45;&gt;M_g2F5</title>
<path fill="none" stroke="#555555" d="M500.91,-174.41C492.69,-158.95 480.67,-136.35 472.6,-121.18"/>
</g>
<!-- polS06&#45;&gt;pol16 -->
<!-- polS06&#45;&gt;pol16 -->
<!-- polS06&#45;&gt;pol16 -->
<!-- polS06&#45;&gt;M_polF6 -->
<g id="edge31" class="edge">
<title>polS06&#45;&gt;M_polF6</title>
<path fill="none" stroke="#555555" d="M1304.68,-356.7C1303.43,-340.25 1301.56,-315.65 1300.31,-299.23"/>
</g>
<!-- g2p10 -->
<g id="P_g2p10" class="node">
<title>g2p10</title>
<path fill="#dbeafe" stroke="#333333" d="M168.5,-210.5C168.5,-210.5 93.5,-210.5 93.5,-210.5 87.5,-210.5 81.5,-204.5 81.5,-198.5 81.5,-198.5 81.5,-186.5 81.5,-186.5 81.5,-180.5 87.5,-174.5 93.5,-174.5 93.5,-174.5 168.5,-174.5 168.5,-174.5 174.5,-174.5 180.5,-180.5 180.5,-186.5 180.5,-186.5 180.5,-198.5 180.5,-198.5 180.5,-204.5 174.5,-210.5 168.5,-210.5"/>
<text text-anchor="middle" x="131" y="-195.5" font-family="DejaVu Sans" font-size="10.00">Matthias Niklaus</text>
<text text-anchor="middle" x="131" y="-184.5" font-family="DejaVu Sans" font-size="10.00">*15.09.1981</text>
</g>
<!-- pol20 -->
<g id="P_pol20" class="node">
<title>pol20</title>
<path fill="#fde7ef" stroke="#333333" d="M293,-213C293,-213 225,-213 225,-213 219,-213 213,-207 213,-201 213,-201 213,-184 213,-184 213,-178 219,-172 225,-172 225,-172 293,-172 293,-172 299,-172 305,-178 305,-184 305,-184 305,-201 305,-201 305,-207 299,-213 293,-213"/>
<text text-anchor="middle" x="259" y="-201" font-family="DejaVu Sans" font-size="10.00">Bettina Niklaus</text>
<text text-anchor="middle" x="259" y="-190" font-family="DejaVu Sans" font-size="10.00">geb. Polasek</text>
<text text-anchor="middle" x="259" y="-179" font-family="DejaVu Sans" font-size="10.00">*12.04.1983</text>
</g>
<!-- g2p10&#45;&gt;pol20 -->
<!-- g2p10&#45;&gt;pol20 -->
<!-- g2p10&#45;&gt;pol20 -->
<!-- M_g2F4 -->
<g id="M_g2F4" class="node">
<title>M_g2F4</title>
<ellipse fill="#fff3b0" stroke="#b08900" cx="147" cy="-104" rx="27" ry="18"/>
<text text-anchor="middle" x="147" y="-101.8" font-family="DejaVu Sans" font-size="9.00">oo</text>
</g>
<!-- g2p10&#45;&gt;M_g2F4 -->
<g id="edge54" class="edge">
<title>g2p10&#45;&gt;M_g2F4</title>
<path fill="none" stroke="#555555" d="M134.16,-174.41C136.97,-159.25 141.04,-137.21 143.85,-122.05"/>
</g>
<!-- g3p06&#45;&gt;g3p07 -->
<!-- ped01&#45;&gt;pol14 -->
<!-- ped01&#45;&gt;pol14 -->
<!-- ped01&#45;&gt;pol14 -->
<!-- ped01&#45;&gt;M_pedF1 -->
<g id="edge86" class="edge">
<title>ped01&#45;&gt;M_pedF1</title>
<path fill="none" stroke="#555555" d="M1927.27,-356.7C1913.72,-339.62 1893.21,-313.77 1880.21,-297.39"/>
</g>
<!-- pol20&#45;&gt;pol21 -->
<!-- pol20&#45;&gt;pol21 -->
<!-- pol20&#45;&gt;g2p10 -->
<!-- pol20&#45;&gt;M_g2F4 -->
<g id="edge55" class="edge">
<title>pol20&#45;&gt;M_g2F4</title>
<path fill="none" stroke="#555555" d="M233.59,-171.87C212.29,-155.42 182.47,-132.4 163.97,-118.11"/>
</g>
<!-- polS05&#45;&gt;pol15 -->
<!-- polS05&#45;&gt;M_polF5 -->
<g id="edge37" class="edge">
<title>polS05&#45;&gt;M_polF5</title>
<path fill="none" stroke="#555555" d="M490.82,-354.49C494.04,-338.03 498.6,-314.71 501.67,-299.01"/>
</g>
<!-- pol19 -->
<g id="P_pol19" class="node">
<title>pol19</title>
<path fill="#dbeafe" stroke="#333333" d="M813.5,-210.5C813.5,-210.5 742.5,-210.5 742.5,-210.5 736.5,-210.5 730.5,-204.5 730.5,-198.5 730.5,-198.5 730.5,-186.5 730.5,-186.5 730.5,-180.5 736.5,-174.5 742.5,-174.5 742.5,-174.5 813.5,-174.5 813.5,-174.5 819.5,-174.5 825.5,-180.5 825.5,-186.5 825.5,-186.5 825.5,-198.5 825.5,-198.5 825.5,-204.5 819.5,-210.5 813.5,-210.5"/>
<text text-anchor="middle" x="778" y="-195.5" font-family="DejaVu Sans" font-size="10.00">Richard Polasek</text>
<text text-anchor="middle" x="778" y="-184.5" font-family="DejaVu Sans" font-size="10.00">*06.01.1976</text>
</g>
<!-- g2p07 -->
<g id="P_g2p07" class="node">
<title>g2p07</title>
<path fill="#fde7ef" stroke="#333333" d="M686.5,-213C686.5,-213 607.5,-213 607.5,-213 601.5,-213 595.5,-207 595.5,-201 595.5,-201 595.5,-184 595.5,-184 595.5,-178 601.5,-172 607.5,-172 607.5,-172 686.5,-172 686.5,-172 692.5,-172 698.5,-178 698.5,-184 698.5,-184 698.5,-201 698.5,-201 698.5,-207 692.5,-213 686.5,-213"/>
<text text-anchor="middle" x="647" y="-201" font-family="DejaVu Sans" font-size="10.00">Elisabeth Polasek</text>
<text text-anchor="middle" x="647" y="-190" font-family="DejaVu Sans" font-size="10.00">geb. Lackner</text>
<text text-anchor="middle" x="647" y="-179" font-family="DejaVu Sans" font-size="10.00">*13.05.1973</text>
</g>
<!-- pol19&#45;&gt;g2p07 -->
<!-- pol19&#45;&gt;g2p07 -->
<!-- pol19&#45;&gt;g2p07 -->
<!-- M_g2F3 -->
<g id="M_g2F3" class="node">
<title>M_g2F3</title>
<ellipse fill="#fff3b0" stroke="#b08900" cx="759" cy="-104" rx="27" ry="18"/>
<text text-anchor="middle" x="759" y="-101.8" font-family="DejaVu Sans" font-size="9.00">oo</text>
</g>
<!-- pol19&#45;&gt;M_g2F3 -->
<g id="edge8" class="edge">
<title>pol19&#45;&gt;M_g2F3</title>
<path fill="none" stroke="#555555" d="M774.25,-174.41C770.92,-159.25 766.07,-137.21 762.75,-122.05"/>
</g>
<!-- polS02&#45;&gt;pol11 -->
<!-- polS02&#45;&gt;M_polF2 -->
<g id="edge78" class="edge">
<title>polS02&#45;&gt;M_polF2</title>
<path fill="none" stroke="#555555" d="M1463,-539.41C1463,-524.25 1463,-502.21 1463,-487.05"/>
</g>
<!-- g2p08 -->
<g id="P_g2p08" class="node">
<title>g2p08</title>
<path fill="#dbeafe" stroke="#333333" d="M783.5,-36C783.5,-36 694.5,-36 694.5,-36 688.5,-36 682.5,-30 682.5,-24 682.5,-24 682.5,-12 682.5,-12 682.5,-6 688.5,0 694.5,0 694.5,0 783.5,0 783.5,0 789.5,0 795.5,-6 795.5,-12 795.5,-12 795.5,-24 795.5,-24 795.5,-30 789.5,-36 783.5,-36"/>
<text text-anchor="middle" x="739" y="-21" font-family="DejaVu Sans" font-size="10.00">Maximilian Polasek</text>
<text text-anchor="middle" x="739" y="-10" font-family="DejaVu Sans" font-size="10.00">*09.12.2001</text>
</g>
<!-- g2p08&#45;&gt;g2p09 -->
<!-- polS07&#45;&gt;pol17 -->
<!-- polS07&#45;&gt;pol17 -->
<!-- polS07&#45;&gt;pol17 -->
<!-- polS07&#45;&gt;M_polF7 -->
<g id="edge45" class="edge">
<title>polS07&#45;&gt;M_polF7</title>
<path fill="none" stroke="#555555" d="M912.35,-356.7C925.53,-339.62 945.48,-313.77 958.12,-297.39"/>
</g>
<!-- g2p12&#45;&gt;g2p13 -->
<!-- g2p07&#45;&gt;pol19 -->
<!-- g2p07&#45;&gt;M_g2F3 -->
<g id="edge9" class="edge">
<title>g2p07&#45;&gt;M_g2F3</title>
<path fill="none" stroke="#555555" d="M672.41,-171.87C693.71,-155.42 723.53,-132.4 742.03,-118.11"/>
</g>
<!-- polS08&#45;&gt;pol18 -->
<!-- polS08&#45;&gt;pol18 -->
<!-- polS08&#45;&gt;pol18 -->
<!-- polS08&#45;&gt;M_polF8 -->
<g id="edge51" class="edge">
<title>polS08&#45;&gt;M_polF8</title>
<path fill="none" stroke="#555555" d="M1427.09,-356.7C1434.92,-339.94 1446.71,-314.71 1454.38,-298.3"/>
</g>
<!-- ped02 -->
<g id="P_ped02" class="node">
<title>ped02</title>
<path fill="#fde7ef" stroke="#333333" d="M1896,-210.5C1896,-210.5 1840,-210.5 1840,-210.5 1834,-210.5 1828,-204.5 1828,-198.5 1828,-198.5 1828,-186.5 1828,-186.5 1828,-180.5 1834,-174.5 1840,-174.5 1840,-174.5 1896,-174.5 1896,-174.5 1902,-174.5 1908,-180.5 1908,-186.5 1908,-186.5 1908,-198.5 1908,-198.5 1908,-204.5 1902,-210.5 1896,-210.5"/>
<text text-anchor="middle" x="1868" y="-195.5" font-family="DejaVu Sans" font-size="10.00">Pia Pedersen</text>
<text text-anchor="middle" x="1868" y="-184.5" font-family="DejaVu Sans" font-size="10.00">*10.04.1971</text>
</g>
<!-- polS03&#45;&gt;pol11 -->
<!-- polS03&#45;&gt;M_polF3 -->
<g id="edge15" class="edge">
<title>polS03&#45;&gt;M_polF3</title>
<path fill="none" stroke="#555555" d="M1164,-536.87C1164,-521.92 1164,-501.53 1164,-487.21"/>
</g>
<!-- M_g2F5&#45;&gt;g2p15 -->
<g id="edge4" class="edge">
<title>M_g2F5&#45;&gt;g2p15</title>
<path fill="none" stroke="#555555" d="M455.13,-86.8C448.64,-74.95 439.7,-58.62 432.21,-44.96"/>
<polygon fill="#555555" stroke="#555555" points="435.19,-43.1 427.32,-36.01 429.05,-46.46 435.19,-43.1"/>
</g>
<!-- M_g2F5&#45;&gt;g2p16 -->
<g id="edge5" class="edge">
<title>M_g2F5&#45;&gt;g2p16</title>
<path fill="none" stroke="#555555" d="M480.88,-89.88C497.17,-77.2 522.22,-57.72 541.93,-42.38"/>
<polygon fill="#555555" stroke="#555555" points="544.27,-45 550.01,-36.1 539.97,-39.48 544.27,-45"/>
</g>
<!-- M_g2F3&#45;&gt;g2p09 -->
<g id="edge11" class="edge">
<title>M_g2F3&#45;&gt;g2p09</title>
<path fill="none" stroke="#555555" d="M776.77,-90.24C794.49,-77.52 822.11,-57.69 843.71,-42.18"/>
<polygon fill="#555555" stroke="#555555" points="845.88,-44.93 851.96,-36.26 841.8,-39.25 845.88,-44.93"/>
</g>
<!-- M_g2F3&#45;&gt;g2p08 -->
<g id="edge10" class="edge">
<title>M_g2F3&#45;&gt;g2p08</title>
<path fill="none" stroke="#555555" d="M754.95,-86C752.23,-74.58 748.59,-59.27 745.47,-46.18"/>
<polygon fill="#555555" stroke="#555555" points="748.83,-45.18 743.11,-36.26 742.02,-46.8 748.83,-45.18"/>
</g>
<!-- M_polF3&#45;&gt;pol18 -->
<g id="edge19" class="edge">
<title>M_polF3&#45;&gt;pol18</title>
<path fill="none" stroke="#555555" d="M1189.43,-462.57C1264.18,-446.62 1478,-401 1478,-401 1478,-401 1480.57,-399.85 1484.61,-398.05"/>
<polygon fill="#555555" stroke="#555555" points="1486.19,-401.18 1493.9,-393.9 1483.34,-394.78 1486.19,-401.18"/>
</g>
<!-- M_polF3&#45;&gt;pol17 -->
<g id="edge18" class="edge">
<title>M_polF3&#45;&gt;pol17</title>
<path fill="none" stroke="#555555" d="M1164,-450.7C1164,-438.13 1164,-420.81 1164,-406.01"/>
<polygon fill="#555555" stroke="#555555" points="1167.5,-405.78 1164,-395.78 1160.5,-405.78 1167.5,-405.78"/>
</g>
<!-- M_polF3&#45;&gt;pol16 -->
<g id="edge17" class="edge">
<title>M_polF3&#45;&gt;pol16</title>
<path fill="none" stroke="#555555" d="M1144.78,-455.97C1122.57,-442.07 1085.4,-418.81 1056.86,-400.95"/>
<polygon fill="#555555" stroke="#555555" points="1058.64,-397.93 1048.31,-395.59 1054.93,-403.87 1058.64,-397.93"/>
</g>
<!-- M_polF3&#45;&gt;pol15 -->
<g id="edge16" class="edge">
<title>M_polF3&#45;&gt;pol15</title>
<path fill="none" stroke="#555555" d="M1137.79,-464.01C1043.07,-449.59 724,-401 724,-401 724,-401 716.6,-398.9 706.09,-395.91"/>
<polygon fill="#555555" stroke="#555555" points="706.73,-392.46 696.16,-393.09 704.82,-399.19 706.73,-392.46"/>
</g>
<!-- M_polF6&#45;&gt;pol22 -->
<g id="edge33" class="edge">
<title>M_polF6&#45;&gt;pol22</title>
<path fill="none" stroke="#555555" d="M1299,-262.91C1299,-250.94 1299,-234.7 1299,-220.93"/>
<polygon fill="#555555" stroke="#555555" points="1302.5,-220.55 1299,-210.55 1295.5,-220.55 1302.5,-220.55"/>
</g>
<!-- M_polF5&#45;&gt;pol21 -->
<g id="edge39" class="edge">
<title>M_polF5&#45;&gt;pol21</title>
<path fill="none" stroke="#555555" d="M505.99,-262.91C506.68,-250.94 507.62,-234.7 508.41,-220.93"/>
<polygon fill="#555555" stroke="#555555" points="511.93,-220.74 509.01,-210.55 504.94,-220.34 511.93,-220.74"/>
</g>
<!-- M_polF5&#45;&gt;pol20 -->
<g id="edge38" class="edge">
<title>M_polF5&#45;&gt;pol20</title>
<path fill="none" stroke="#555555" d="M481.41,-271.71C443.37,-258.33 367.45,-231.63 314.96,-213.18"/>
<polygon fill="#555555" stroke="#555555" points="316.05,-209.85 305.45,-209.83 313.72,-216.45 316.05,-209.85"/>
</g>
<!-- M_polF7&#45;&gt;pol23 -->
<g id="edge47" class="edge">
<title>M_polF7&#45;&gt;pol23</title>
<path fill="none" stroke="#555555" d="M958.92,-264.54C949.83,-251.86 936.79,-233.67 926.18,-218.86"/>
<polygon fill="#555555" stroke="#555555" points="928.93,-216.7 920.26,-210.61 923.24,-220.78 928.93,-216.7"/>
</g>
<!-- M_polF7&#45;&gt;pol24 -->
<g id="edge48" class="edge">
<title>M_polF7&#45;&gt;pol24</title>
<path fill="none" stroke="#555555" d="M981.08,-264.54C990.17,-251.86 1003.21,-233.67 1013.82,-218.86"/>
<polygon fill="#555555" stroke="#555555" points="1016.76,-220.78 1019.74,-210.61 1011.07,-216.7 1016.76,-220.78"/>
</g>
<!-- M_g2F4&#45;&gt;g2p13 -->
<g id="edge58" class="edge">
<title>M_g2F4&#45;&gt;g2p13</title>
<path fill="none" stroke="#555555" d="M164.03,-89.88C180.48,-77.2 205.76,-57.72 225.66,-42.38"/>
<polygon fill="#555555" stroke="#555555" points="228.03,-44.98 233.81,-36.1 223.75,-39.43 228.03,-44.98"/>
</g>
<!-- M_g2F4&#45;&gt;g2p11 -->
<g id="edge56" class="edge">
<title>M_g2F4&#45;&gt;g2p11</title>
<path fill="none" stroke="#555555" d="M129.97,-89.88C113.52,-77.2 88.24,-57.72 68.34,-42.38"/>
<polygon fill="#555555" stroke="#555555" points="70.25,-39.43 60.19,-36.1 65.97,-44.98 70.25,-39.43"/>
</g>
<!-- M_g2F4&#45;&gt;g2p12 -->
<g id="edge57" class="edge">
<title>M_g2F4&#45;&gt;g2p12</title>
<path fill="none" stroke="#555555" d="M147,-85.6C147,-74.26 147,-59.23 147,-46.32"/>
<polygon fill="#555555" stroke="#555555" points="150.5,-46.1 147,-36.1 143.5,-46.1 150.5,-46.1"/>
</g>
<!-- M_g3F2&#45;&gt;g3p05 -->
<g id="edge64" class="edge">
<title>M_g3F2&#45;&gt;g3p05</title>
<path fill="none" stroke="#555555" d="M1172.94,-92.53C1146.89,-79.59 1101.91,-57.23 1068.36,-40.55"/>
<polygon fill="#555555" stroke="#555555" points="1069.74,-37.33 1059.23,-36.01 1066.62,-43.6 1069.74,-37.33"/>
</g>
<!-- M_g3F2&#45;&gt;g3p08 -->
<g id="edge67" class="edge">
<title>M_g3F2&#45;&gt;g3p08</title>
<path fill="none" stroke="#555555" d="M1218.13,-95.84C1261.14,-83.07 1352.34,-56 1414.17,-37.65"/>
<polygon fill="#555555" stroke="#555555" points="1415.24,-40.98 1423.83,-34.78 1413.24,-34.27 1415.24,-40.98"/>
</g>
<!-- M_g3F2&#45;&gt;g3p07 -->
<g id="edge66" class="edge">
<title>M_g3F2&#45;&gt;g3p07</title>
<path fill="none" stroke="#555555" d="M1213.19,-91.32C1234.35,-78.44 1268.89,-57.42 1295.29,-41.35"/>
<polygon fill="#555555" stroke="#555555" points="1297.17,-44.3 1303.9,-36.11 1293.54,-38.32 1297.17,-44.3"/>
</g>
<!-- M_g3F2&#45;&gt;g3p06 -->
<g id="edge65" class="edge">
<title>M_g3F2&#45;&gt;g3p06</title>
<path fill="none" stroke="#555555" d="M1190.96,-86C1188.92,-74.58 1186.19,-59.27 1183.85,-46.18"/>
<polygon fill="#555555" stroke="#555555" points="1187.29,-45.49 1182.08,-36.26 1180.39,-46.72 1187.29,-45.49"/>
</g>
<!-- M_polF4&#45;&gt;pol19 -->
<g id="edge74" class="edge">
<title>M_polF4&#45;&gt;pol19</title>
<path fill="none" stroke="#555555" d="M778,-262.91C778,-250.94 778,-234.7 778,-220.93"/>
<polygon fill="#555555" stroke="#555555" points="781.5,-220.55 778,-210.55 774.5,-220.55 781.5,-220.55"/>
</g>
<!-- M_polF2&#45;&gt;pol14 -->
<g id="edge79" class="edge">
<title>M_polF2&#45;&gt;pol14</title>
<path fill="none" stroke="#555555" d="M1487.84,-461.21C1550.13,-444.17 1708,-401 1708,-401 1708,-401 1711.55,-399.98 1717.22,-398.35"/>
<polygon fill="#555555" stroke="#555555" points="1718.23,-401.7 1726.88,-395.58 1716.3,-394.97 1718.23,-401.7"/>
</g>
<!-- M_polF9&#45;&gt;pol25 -->
<g id="edge84" class="edge">
<title>M_polF9&#45;&gt;pol25</title>
<path fill="none" stroke="#555555" d="M1591,-262.91C1591,-250.94 1591,-234.7 1591,-220.93"/>
<polygon fill="#555555" stroke="#555555" points="1594.5,-220.55 1591,-210.55 1587.5,-220.55 1594.5,-220.55"/>
</g>
<!-- M_pedF1&#45;&gt;ped02 -->
<g id="edge88" class="edge">
<title>M_pedF1&#45;&gt;ped02</title>
<path fill="none" stroke="#555555" d="M1868,-262.91C1868,-250.94 1868,-234.7 1868,-220.93"/>
<polygon fill="#555555" stroke="#555555" points="1871.5,-220.55 1868,-210.55 1864.5,-220.55 1871.5,-220.55"/>
</g>
</g>
</svg>
