<?xml version="1.0" encoding="UTF-8" standalone="no"?>
<!DOCTYPE svg PUBLIC "-//W3C//DTD SVG 1.1//EN"
 "http://www.w3.org/Graphics/SVG/1.1/DTD/svg11.dtd">
<!-- Generated by graphviz version 2.43.0 (0)
 -->
<!-- Title: %3 Pages: 1 -->
<svg width="2281pt" height="607pt"
 viewBox="0.00 0.00 2280.50 607.00" xmlns="http://www.w3.org/2000/svg" xmlns:xlink="http://www.w3.org/1999/xlink">
<style><![CDATA[
  g[id^="P_"], g[id^="M_"] { cursor: pointer; }
  .highlight ellipse, .highlight polygon, .highlight path, .highlight rect {
    stroke: #d00; stroke-width: 2.5;
  }
  @keyframes pulse { 0%,100%{opacity:1} 50%{opacity:.45} }
  .blink { animation: pulse 0.9s ease-in-out 3; }
]]></style>
<script><![CDATA[
(function(){
  var SPOUSE = {"P_polS07": ["P_pol17"], "P_pol17": ["P_polS07"], "P_pol19": ["P_g2p07"], "P_g2p07": ["P_pol19"], "P_polS06": ["P_pol16"], "P_pol16": ["P_polS06"], "P_polS09": ["P_pol18"], "P_pol18": ["P_polS09", "P_polS08"], "P_pol11": ["P_polS03", "P_polS02"], "P_polS03": ["P_pol11"], "P_polS02": ["P_pol11"], "P_pol15": ["P_polS05", "P_polS04"], "P_polS05": ["P_pol15"], "P_polS08": ["P_pol18"], "P_polS04": ["P_pol15"], "P_g2p10": ["P_pol20"], "P_pol20": ["P_g2p10"], "P_pol22": ["P_g3p04"], "P_g3p04": ["P_pol22"], "P_pol21": ["P_g2p14"], "P_g2p14": ["P_pol21"], "P_ped01": ["P_pol14"], "P_pol14": ["P_ped01"]};
  var FAMILY = {"M_polF7": ["P_polS07", "P_pol17", "P_pol23", "P_pol24"], "M_g2F3": ["P_pol19", "P_g2p07", "P_g2p08", "P_g2p09"], "M_polF6": ["P_polS06", "P_pol16", "P_pol22"], "M_polF9": ["P_polS09", "P_pol18", "P_pol25"], "M_polF3": ["P_pol11", "P_polS03", "P_pol15", "P_pol16", "P_pol17", "P_pol18"], "M_polF2": ["P_pol11", "P_polS02", "P_pol14"], "M_polF5": ["P_pol15", "P_polS05", "P_pol20", "P_pol21"], "M_polF8": ["P_polS08", "P_pol18"], "M_polF4": ["P_pol15", "P_polS04", "P_pol19"], "M_g2F4": ["P_g2p10", "P_pol20", "P_g2p11", "P_g2p12", "P_g2p13"], "M_g3F2": ["P_pol22", "P_g3p04", "P_g3p05", "P_g3p06", "P_g3p07", "P_g3p08"], "M_g2F5": ["P_pol21", "P_g2p14", "P_g2p15", "P_g2p16"], "M_pedF1": ["P_ped01", "P_pol14", "P_ped02"]};
  function clearHl(){ document.querySelectorAll('.blink').forEach(function(n){ n.classList.remove('blink'); n.classList.remove('highlight'); }); }
  function hl(id){ var el=document.getElementById(id); if(el){ el.classList.add('highlight'); el.classList.add('blink'); } }
  document.addEventListener('click', function(evt){
    var target = evt.target;
    var g = target.closest && target.closest('g[id^="P_"], g[id^="M_"]');
    if (!g) { while (target) { if (target.id && /^([PM]_)/.test(target.id) && target.tagName && target.tagName.toLowerCase() === 'g') { g = target; break; } target = target.parentNode; } }
    if (!g) return;
    var id = g.id; clearHl();
    if (/^P_/.test(id)) { (SPOUSE[id] || []).forEach(hl); }
    else if (/^M_/.test(id)) { hl(id); (FAMILY[id] || []).forEach(hl); }
  }, false);
})();
]]></script>

<g id="graph0" class="graph" transform="scale(1 1) rotate(0) translate(4 603)">
<title>%3</title>
<polygon fill="white" stroke="transparent" points="-4,4 -4,-603 2276.5,-603 2276.5,4 -4,4"/>
<text text-anchor="middle" x="1136.25" y="-585.4" font-family="DejaVu Sans" font-size="12.00">Otto</text>
<!-- polS06 -->
<g id="P_polS06" class="node">
<title>polS06</title>
<path fill="#dbeafe" stroke="#333333" d="M1209.5,-393C1209.5,-393 1157.5,-393 1157.5,-393 1151.5,-393 1145.5,-387 1145.5,-381 1145.5,-381 1145.5,-369 1145.5,-369 1145.5,-363 1151.5,-357 1157.5,-357 1157.5,-357 1209.5,-357 1209.5,-357 1215.5,-357 1221.5,-363 1221.5,-369 1221.5,-369 1221.5,-381 1221.5,-381 1221.5,-387 1215.5,-393 1209.5,-393"/>
<text text-anchor="middle" x="1183.5" y="-378" font-family="DejaVu Sans" font-size="10.00">Igo Koch</text>
<text text-anchor="middle" x="1183.5" y="-367" font-family="DejaVu Sans" font-size="10.00">*29.07.1947</text>
</g>
<!-- pol16 -->
<g id="P_pol16" class="node">
<title>pol16</title>
<path fill="#fde7ef" stroke="#333333" d="M1327.5,-395.5C1327.5,-395.5 1265.5,-395.5 1265.5,-395.5 1259.5,-395.5 1253.5,-389.5 1253.5,-383.5 1253.5,-383.5 1253.5,-366.5 1253.5,-366.5 1253.5,-360.5 1259.5,-354.5 1265.5,-354.5 1265.5,-354.5 1327.5,-354.5 1327.5,-354.5 1333.5,-354.5 1339.5,-360.5 1339.5,-366.5 1339.5,-366.5 1339.5,-383.5 1339.5,-383.5 1339.5,-389.5 1333.5,-395.5 1327.5,-395.5"/>
<text text-anchor="middle" x="1296.5" y="-383.5" font-family="DejaVu Sans" font-size="10.00">Christine Koch</text>
<text text-anchor="middle" x="1296.5" y="-372.5" font-family="DejaVu Sans" font-size="10.00">geb. Polasek</text>
<text text-anchor="middle" x="1296.5" y="-361.5" font-family="DejaVu Sans" font-size="10.00">*19.07.1952</text>
</g>
<!-- polS06&#45;&gt;pol16 -->
<!-- polS06&#45;&gt;pol16 -->
<!-- polS06&#45;&gt;pol16 -->
<!-- M_polF6 -->
<g id="M_polF6" class="node">
<title>M_polF6</title>
<ellipse fill="#fff3b0" stroke="#b08900" cx="1183.5" cy="-281" rx="27" ry="18"/>
<text text-anchor="middle" x="1183.5" y="-278.8" font-family="DejaVu Sans" font-size="9.00">oo</text>
</g>
<!-- polS06&#45;&gt;M_polF6 -->
<g id="edge14" class="edge">
<title>polS06&#45;&gt;M_polF6</title>
<path fill="none" stroke="#555555" d="M1183.5,-356.7C1183.5,-340.25 1183.5,-315.65 1183.5,-299.23"/>
</g>
<!-- g2p09 -->
<g id="P_g2p09" class="node">
<title>g2p09</title>
<path fill="#fde7ef" stroke="#333333" d="M1470,-36C1470,-36 1397,-36 1397,-36 1391,-36 1385,-30 1385,-24 1385,-24 1385,-12 1385,-12 1385,-6 1391,0 1397,0 1397,0 1470,0 1470,0 1476,0 1482,-6 1482,-12 1482,-12 1482,-24 1482,-24 1482,-30 1476,-36 1470,-36"/>
<text text-anchor="middle" x="1433.5" y="-21" font-family="DejaVu Sans" font-size="10.00">Johanna Polasek</text>
<text text-anchor="middle" x="1433.5" y="-10" font-family="DejaVu Sans" font-size="10.00">*12.07.2006</text>
</g>
<!-- g3p06 -->
<g id="P_g3p06" class="node">
<title>g3p06</title>
<path fill="#fde7ef" stroke="#333333" d="M263.5,-36C263.5,-36 165.5,-36 165.5,-36 159.5,-36 153.5,-30 153.5,-24 153.5,-24 153.5,-12 153.5,-12 153.5,-6 159.5,0 165.5,0 165.5,0 263.5,0 263.5,0 269.5,0 275.5,-6 275.5,-12 275.5,-12 275.5,-24 275.5,-24 275.5,-30 269.5,-36 263.5,-36"/>
<text text-anchor="middle" x="214.5" y="-21" font-family="DejaVu Sans" font-size="10.00">Hannah Guttenberger</text>
<text text-anchor="middle" x="214.5" y="-10" font-family="DejaVu Sans" font-size="10.00">*05.02.2006</text>
</g>
<!-- g3p07 -->
<g id="P_g3p07" class="node">
<title>g3p07</title>
<path fill="#dbeafe" stroke="#333333" d="M415,-36C415,-36 320,-36 320,-36 314,-36 308,-30 308,-24 308,-24 308,-12 308,-12 308,-6 314,0 320,0 320,0 415,0 415,0 421,0 427,-6 427,-12 427,-12 427,-24 427,-24 427,-30 421,-36 415,-36"/>
<text text-anchor="middle" x="367.5" y="-21" font-family="DejaVu Sans" font-size="10.00">Nathan Guttenberger</text>
<text text-anchor="middle" x="367.5" y="-10" font-family="DejaVu Sans" font-size="10.00">*19.11.2007</text>
</g>
<!-- g3p06&#45;&gt;g3p07 -->
<!-- ped01 -->
<g id="P_ped01" class="node">
<title>ped01</title>
<path fill="#dbeafe" stroke="#333333" d="M2260.5,-393C2260.5,-393 2198.5,-393 2198.5,-393 2192.5,-393 2186.5,-387 2186.5,-381 2186.5,-381 2186.5,-369 2186.5,-369 2186.5,-363 2192.5,-357 2198.5,-357 2198.5,-357 2260.5,-357 2260.5,-357 2266.5,-357 2272.5,-363 2272.5,-369 2272.5,-369 2272.5,-381 2272.5,-381 2272.5,-387 2266.5,-393 2260.5,-393"/>
<text text-anchor="middle" x="2229.5" y="-378" font-family="DejaVu Sans" font-size="10.00">John Pedersen</text>
<text text-anchor="middle" x="2229.5" y="-367" font-family="DejaVu Sans" font-size="10.00">*31.07.1938</text>
</g>
<!-- pol14 -->
<g id="P_pol14" class="node">
<title>pol14</title>
<path fill="#fde7ef" stroke="#333333" d="M2142,-395.5C2142,-395.5 2025,-395.5 2025,-395.5 2019,-395.5 2013,-389.5 2013,-383.5 2013,-383.5 2013,-366.5 2013,-366.5 2013,-360.5 2019,-354.5 2025,-354.5 2025,-354.5 2142,-354.5 2142,-354.5 2148,-354.5 2154,-360.5 2154,-366.5 2154,-366.5 2154,-383.5 2154,-383.5 2154,-389.5 2148,-395.5 2142,-395.5"/>
<text text-anchor="middle" x="2083.5" y="-383.5" font-family="DejaVu Sans" font-size="10.00">Gertrud (Traudl) Pedersen</text>
<text text-anchor="middle" x="2083.5" y="-372.5" font-family="DejaVu Sans" font-size="10.00">geb. Polasek</text>
<text text-anchor="middle" x="2083.5" y="-361.5" font-family="DejaVu Sans" font-size="10.00">*21.03.1944</text>
</g>
<!-- ped01&#45;&gt;pol14 -->
<!-- ped01&#45;&gt;pol14 -->
<!-- ped01&#45;&gt;pol14 -->
<!-- M_pedF1 -->
<g id="M_pedF1" class="node">
<title>M_pedF1</title>
<ellipse fill="#fff3b0" stroke="#b08900" cx="2156.5" cy="-281" rx="27" ry="18"/>
<text text-anchor="middle" x="2156.5" y="-278.8" font-family="DejaVu Sans" font-size="9.00">oo</text>
</g>
<!-- ped01&#45;&gt;M_pedF1 -->
<g id="edge86" class="edge">
<title>ped01&#45;&gt;M_pedF1</title>
<path fill="none" stroke="#555555" d="M2215.77,-356.7C2202.22,-339.62 2181.71,-313.77 2168.71,-297.39"/>
</g>
<!-- polS02 -->
<g id="P_polS02" class="node">
<title>polS02</title>
<path fill="#fde7ef" stroke="#333333" d="M1781,-575.5C1781,-575.5 1704,-575.5 1704,-575.5 1698,-575.5 1692,-569.5 1692,-563.5 1692,-563.5 1692,-551.5 1692,-551.5 1692,-545.5 1698,-539.5 1704,-539.5 1704,-539.5 1781,-539.5 1781,-539.5 1787,-539.5 1793,-545.5 1793,-551.5 1793,-551.5 1793,-563.5 1793,-563.5 1793,-569.5 1787,-575.5 1781,-575.5"/>
<text text-anchor="middle" x="1742.5" y="-560.5" font-family="DejaVu Sans" font-size="10.00">Gertrude Polasek</text>
<text text-anchor="middle" x="1742.5" y="-549.5" font-family="DejaVu Sans" font-size="10.00">geb. Winkler</text>
</g>
<!-- pol11 -->
<g id="P_pol11" class="node">
<title>pol11</title>
<path fill="#dbeafe" stroke="#111111" stroke-width="1.8" d="M1647.5,-575.5C1647.5,-575.5 1527.5,-575.5 1527.5,-575.5 1521.5,-575.5 1515.5,-569.5 1515.5,-563.5 1515.5,-563.5 1515.5,-551.5 1515.5,-551.5 1515.5,-545.5 1521.5,-539.5 1527.5,-539.5 1527.5,-539.5 1647.5,-539.5 1647.5,-539.5 1653.5,-539.5 1659.5,-545.5 1659.5,-551.5 1659.5,-551.5 1659.5,-563.5 1659.5,-563.5 1659.5,-569.5 1653.5,-575.5 1647.5,-575.5"/>
<text text-anchor="middle" x="1587.5" y="-560.5" font-family="DejaVu Sans" font-size="10.00">Otto Polasek</text>
<text text-anchor="middle" x="1587.5" y="-549.5" font-family="DejaVu Sans" font-size="10.00">*14.09.1912 &#160;+01.11.1994</text>
</g>
<!-- polS02&#45;&gt;pol11 -->
<!-- M_polF2 -->
<g id="M_polF2" class="node">
<title>M_polF2</title>
<ellipse fill="#fff3b0" stroke="#b08900" cx="1742.5" cy="-469" rx="27" ry="18"/>
<text text-anchor="middle" x="1742.5" y="-466.8" font-family="DejaVu Sans" font-size="9.00">oo</text>
</g>
<!-- polS02&#45;&gt;M_polF2 -->
<g id="edge41" class="edge">
<title>polS02&#45;&gt;M_polF2</title>
<path fill="none" stroke="#555555" d="M1742.5,-539.41C1742.5,-524.25 1742.5,-502.21 1742.5,-487.05"/>
</g>
<!-- g3p05 -->
<g id="P_g3p05" class="node">
<title>g3p05</title>
<path fill="#dbeafe" stroke="#333333" d="M109,-36C109,-36 12,-36 12,-36 6,-36 0,-30 0,-24 0,-24 0,-12 0,-12 0,-6 6,0 12,0 12,0 109,0 109,0 115,0 121,-6 121,-12 121,-12 121,-24 121,-24 121,-30 115,-36 109,-36"/>
<text text-anchor="middle" x="60.5" y="-21" font-family="DejaVu Sans" font-size="10.00">Yannick Guttenberger</text>
<text text-anchor="middle" x="60.5" y="-10" font-family="DejaVu Sans" font-size="10.00">*13.09.2004</text>
</g>
<!-- g3p05&#45;&gt;g3p06 -->
<!-- g2p16 -->
<g id="P_g2p16" class="node">
<title>g2p16</title>
<path fill="#dbeafe" stroke="#333333" d="M862,-36C862,-36 761,-36 761,-36 755,-36 749,-30 749,-24 749,-24 749,-12 749,-12 749,-6 755,0 761,0 761,0 862,0 862,0 868,0 874,-6 874,-12 874,-12 874,-24 874,-24 874,-30 868,-36 862,-36"/>
<text text-anchor="middle" x="811.5" y="-21" font-family="DejaVu Sans" font-size="10.00">Nelo&#45;Mika Schultheiss</text>
<text text-anchor="middle" x="811.5" y="-10" font-family="DejaVu Sans" font-size="10.00">*15.08.2022</text>
</g>
<!-- pol14&#45;&gt;ped01 -->
<!-- pol14&#45;&gt;M_pedF1 -->
<g id="edge87" class="edge">
<title>pol14&#45;&gt;M_pedF1</title>
<path fill="none" stroke="#555555" d="M2098.98,-354.49C2112.54,-337.4 2131.97,-312.91 2144.41,-297.23"/>
</g>
<!-- ped02 -->
<g id="P_ped02" class="node">
<title>ped02</title>
<path fill="#fde7ef" stroke="#333333" d="M2184.5,-210.5C2184.5,-210.5 2128.5,-210.5 2128.5,-210.5 2122.5,-210.5 2116.5,-204.5 2116.5,-198.5 2116.5,-198.5 2116.5,-186.5 2116.5,-186.5 2116.5,-180.5 2122.5,-174.5 2128.5,-174.5 2128.5,-174.5 2184.5,-174.5 2184.5,-174.5 2190.5,-174.5 2196.5,-180.5 2196.5,-186.5 2196.5,-186.5 2196.5,-198.5 2196.5,-198.5 2196.5,-204.5 2190.5,-210.5 2184.5,-210.5"/>
<text text-anchor="middle" x="2156.5" y="-195.5" font-family="DejaVu Sans" font-size="10.00">Pia Pedersen</text>
<text text-anchor="middle" x="2156.5" y="-184.5" font-family="DejaVu Sans" font-size="10.00">*10.04.1971</text>
</g>
<!-- g2p11 -->
<g id="P_g2p11" class="node">
<title>g2p11</title>
<path fill="#dbeafe" stroke="#333333" d="M970.5,-36C970.5,-36 918.5,-36 918.5,-36 912.5,-36 906.5,-30 906.5,-24 906.5,-24 906.5,-12 906.5,-12 906.5,-6 912.5,0 918.5,0 918.5,0 970.5,0 970.5,0 976.5,0 982.5,-6 982.5,-12 982.5,-12 982.5,-24 982.5,-24 982.5,-30 976.5,-36 970.5,-36"/>
<text text-anchor="middle" x="944.5" y="-21" font-family="DejaVu Sans" font-size="10.00">Tim Niklaus</text>
<text text-anchor="middle" x="944.5" y="-10" font-family="DejaVu Sans" font-size="10.00">*23.10.2012</text>
</g>
<!-- g2p12 -->
<g id="P_g2p12" class="node">
<title>g2p12</title>
<path fill="#fde7ef" stroke="#333333" d="M1080,-36C1080,-36 1027,-36 1027,-36 1021,-36 1015,-30 1015,-24 1015,-24 1015,-12 1015,-12 1015,-6 1021,0 1027,0 1027,0 1080,0 1080,0 1086,0 1092,-6 1092,-12 1092,-12 1092,-24 1092,-24 1092,-30 1086,-36 1080,-36"/>
<text text-anchor="middle" x="1053.5" y="-21" font-family="DejaVu Sans" font-size="10.00">Lina Niklaus</text>
<text text-anchor="middle" x="1053.5" y="-10" font-family="DejaVu Sans" font-size="10.00">*24.08.2014</text>
</g>
<!-- g2p11&#45;&gt;g2p12 -->
<!-- polS04 -->
<g id="P_polS04" class="node">
<title>polS04</title>
<path fill="#fde7ef" stroke="#333333" d="M1101,-395.5C1101,-395.5 1042,-395.5 1042,-395.5 1036,-395.5 1030,-389.5 1030,-383.5 1030,-383.5 1030,-366.5 1030,-366.5 1030,-360.5 1036,-354.5 1042,-354.5 1042,-354.5 1101,-354.5 1101,-354.5 1107,-354.5 1113,-360.5 1113,-366.5 1113,-366.5 1113,-383.5 1113,-383.5 1113,-389.5 1107,-395.5 1101,-395.5"/>
<text text-anchor="middle" x="1071.5" y="-383.5" font-family="DejaVu Sans" font-size="10.00">Edith Polasek</text>
<text text-anchor="middle" x="1071.5" y="-372.5" font-family="DejaVu Sans" font-size="10.00">geb. Billich</text>
<text text-anchor="middle" x="1071.5" y="-361.5" font-family="DejaVu Sans" font-size="10.00">*26.10.1947</text>
</g>
<!-- polS04&#45;&gt;pol16 -->
<!-- pol15 -->
<g id="P_pol15" class="node">
<title>pol15</title>
<path fill="#dbeafe" stroke="#333333" d="M985.5,-393C985.5,-393 865.5,-393 865.5,-393 859.5,-393 853.5,-387 853.5,-381 853.5,-381 853.5,-369 853.5,-369 853.5,-363 859.5,-357 865.5,-357 865.5,-357 985.5,-357 985.5,-357 991.5,-357 997.5,-363 997.5,-369 997.5,-369 997.5,-381 997.5,-381 997.5,-387 991.5,-393 985.5,-393"/>
<text text-anchor="middle" x="925.5" y="-378" font-family="DejaVu Sans" font-size="10.00">Wolfgang Polasek</text>
<text text-anchor="middle" x="925.5" y="-367" font-family="DejaVu Sans" font-size="10.00">*19.06.1951 &#160;+23.05.2013</text>
</g>
<!-- polS04&#45;&gt;pol15 -->
<!-- M_polF4 -->
<g id="M_polF4" class="node">
<title>M_polF4</title>
<ellipse fill="#fff3b0" stroke="#b08900" cx="1071.5" cy="-281" rx="27" ry="18"/>
<text text-anchor="middle" x="1071.5" y="-278.8" font-family="DejaVu Sans" font-size="9.00">oo</text>
</g>
<!-- polS04&#45;&gt;M_polF4 -->
<g id="edge58" class="edge">
<title>polS04&#45;&gt;M_polF4</title>
<path fill="none" stroke="#555555" d="M1071.5,-354.49C1071.5,-338.03 1071.5,-314.71 1071.5,-299.01"/>
</g>
<!-- pol24 -->
<g id="P_pol24" class="node">
<title>pol24</title>
<path fill="#fde7ef" stroke="#333333" d="M1679.5,-210.5C1679.5,-210.5 1611.5,-210.5 1611.5,-210.5 1605.5,-210.5 1599.5,-204.5 1599.5,-198.5 1599.5,-198.5 1599.5,-186.5 1599.5,-186.5 1599.5,-180.5 1605.5,-174.5 1611.5,-174.5 1611.5,-174.5 1679.5,-174.5 1679.5,-174.5 1685.5,-174.5 1691.5,-180.5 1691.5,-186.5 1691.5,-186.5 1691.5,-198.5 1691.5,-198.5 1691.5,-204.5 1685.5,-210.5 1679.5,-210.5"/>
<text text-anchor="middle" x="1645.5" y="-195.5" font-family="DejaVu Sans" font-size="10.00">Karin Schlosser</text>
<text text-anchor="middle" x="1645.5" y="-184.5" font-family="DejaVu Sans" font-size="10.00">*23.11.1977</text>
</g>
<!-- polS03 -->
<g id="P_polS03" class="node">
<title>polS03</title>
<path fill="#fde7ef" stroke="#333333" d="M1471.5,-578C1471.5,-578 1415.5,-578 1415.5,-578 1409.5,-578 1403.5,-572 1403.5,-566 1403.5,-566 1403.5,-549 1403.5,-549 1403.5,-543 1409.5,-537 1415.5,-537 1415.5,-537 1471.5,-537 1471.5,-537 1477.5,-537 1483.5,-543 1483.5,-549 1483.5,-549 1483.5,-566 1483.5,-566 1483.5,-572 1477.5,-578 1471.5,-578"/>
<text text-anchor="middle" x="1443.5" y="-566" font-family="DejaVu Sans" font-size="10.00">Inge Polasek</text>
<text text-anchor="middle" x="1443.5" y="-555" font-family="DejaVu Sans" font-size="10.00">geb. Rokitzki</text>
<text text-anchor="middle" x="1443.5" y="-544" font-family="DejaVu Sans" font-size="10.00">*11.02.1928</text>
</g>
<!-- polS03&#45;&gt;pol11 -->
<!-- M_polF3 -->
<g id="M_polF3" class="node">
<title>M_polF3</title>
<ellipse fill="#fff3b0" stroke="#b08900" cx="1443.5" cy="-469" rx="27" ry="18"/>
<text text-anchor="middle" x="1443.5" y="-466.8" font-family="DejaVu Sans" font-size="9.00">oo</text>
</g>
<!-- polS03&#45;&gt;M_polF3 -->
<g id="edge24" class="edge">
<title>polS03&#45;&gt;M_polF3</title>
<path fill="none" stroke="#555555" d="M1443.5,-536.87C1443.5,-521.92 1443.5,-501.53 1443.5,-487.21"/>
</g>
<!-- pol21 -->
<g id="P_pol21" class="node">
<title>pol21</title>
<path fill="#dbeafe" stroke="#333333" d="M946,-210.5C946,-210.5 881,-210.5 881,-210.5 875,-210.5 869,-204.5 869,-198.5 869,-198.5 869,-186.5 869,-186.5 869,-180.5 875,-174.5 881,-174.5 881,-174.5 946,-174.5 946,-174.5 952,-174.5 958,-180.5 958,-186.5 958,-186.5 958,-198.5 958,-198.5 958,-204.5 952,-210.5 946,-210.5"/>
<text text-anchor="middle" x="913.5" y="-195.5" font-family="DejaVu Sans" font-size="10.00">Daniel Polasek</text>
<text text-anchor="middle" x="913.5" y="-184.5" font-family="DejaVu Sans" font-size="10.00">*15.05.1986</text>
</g>
<!-- g2p14 -->
<g id="P_g2p14" class="node">
<title>g2p14</title>
<path fill="#fde7ef" stroke="#333333" d="M700.5,-210.5C700.5,-210.5 628.5,-210.5 628.5,-210.5 622.5,-210.5 616.5,-204.5 616.5,-198.5 616.5,-198.5 616.5,-186.5 616.5,-186.5 616.5,-180.5 622.5,-174.5 628.5,-174.5 628.5,-174.5 700.5,-174.5 700.5,-174.5 706.5,-174.5 712.5,-180.5 712.5,-186.5 712.5,-186.5 712.5,-198.5 712.5,-198.5 712.5,-204.5 706.5,-210.5 700.5,-210.5"/>
<text text-anchor="middle" x="664.5" y="-195.5" font-family="DejaVu Sans" font-size="10.00">Julia Schultheiss</text>
<text text-anchor="middle" x="664.5" y="-184.5" font-family="DejaVu Sans" font-size="10.00">*29.04.1986</text>
</g>
<!-- pol21&#45;&gt;g2p14 -->
<!-- pol21&#45;&gt;g2p14 -->
<!-- pol21&#45;&gt;g2p14 -->
<!-- M_g2F5 -->
<g id="M_g2F5" class="node">
<title>M_g2F5</title>
<ellipse fill="#fff3b0" stroke="#b08900" cx="738.5" cy="-104" rx="27" ry="18"/>
<text text-anchor="middle" x="738.5" y="-101.8" font-family="DejaVu Sans" font-size="9.00">oo</text>
</g>
<!-- pol21&#45;&gt;M_g2F5 -->
<g id="edge80" class="edge">
<title>pol21&#45;&gt;M_g2F5</title>
<path fill="none" stroke="#555555" d="M878.93,-174.41C843.46,-156.88 789.43,-130.17 759.79,-115.52"/>
</g>
<!-- g3p08 -->
<g id="P_g3p08" class="node">
<title>g3p08</title>
<path fill="#fde7ef" stroke="#333333" d="M553.5,-36C553.5,-36 471.5,-36 471.5,-36 465.5,-36 459.5,-30 459.5,-24 459.5,-24 459.5,-12 459.5,-12 459.5,-6 465.5,0 471.5,0 471.5,0 553.5,0 553.5,0 559.5,0 565.5,-6 565.5,-12 565.5,-12 565.5,-24 565.5,-24 565.5,-30 559.5,-36 553.5,-36"/>
<text text-anchor="middle" x="512.5" y="-21" font-family="DejaVu Sans" font-size="10.00">Sara Guttenberger</text>
<text text-anchor="middle" x="512.5" y="-10" font-family="DejaVu Sans" font-size="10.00">*16.09.2011</text>
</g>
<!-- g3p07&#45;&gt;g3p08 -->
<!-- pol16&#45;&gt;polS06 -->
<!-- pol17 -->
<g id="P_pol17" class="node">
<title>pol17</title>
<path fill="#fde7ef" stroke="#333333" d="M1503.5,-395.5C1503.5,-395.5 1383.5,-395.5 1383.5,-395.5 1377.5,-395.5 1371.5,-389.5 1371.5,-383.5 1371.5,-383.5 1371.5,-366.5 1371.5,-366.5 1371.5,-360.5 1377.5,-354.5 1383.5,-354.5 1383.5,-354.5 1503.5,-354.5 1503.5,-354.5 1509.5,-354.5 1515.5,-360.5 1515.5,-366.5 1515.5,-366.5 1515.5,-383.5 1515.5,-383.5 1515.5,-389.5 1509.5,-395.5 1503.5,-395.5"/>
<text text-anchor="middle" x="1443.5" y="-383.5" font-family="DejaVu Sans" font-size="10.00">Adele (Sissi) Schlosser</text>
<text text-anchor="middle" x="1443.5" y="-372.5" font-family="DejaVu Sans" font-size="10.00">geb. Polasek</text>
<text text-anchor="middle" x="1443.5" y="-361.5" font-family="DejaVu Sans" font-size="10.00">*21.02.1954 &#160;+31.12.2023</text>
</g>
<!-- pol16&#45;&gt;pol17 -->
<!-- pol16&#45;&gt;pol17 -->
<!-- pol16&#45;&gt;M_polF6 -->
<g id="edge15" class="edge">
<title>pol16&#45;&gt;M_polF6</title>
<path fill="none" stroke="#555555" d="M1272.54,-354.49C1250.77,-336.77 1219.23,-311.09 1200.11,-295.53"/>
</g>
<!-- polS08 -->
<g id="P_polS08" class="node">
<title>polS08</title>
<path fill="#dbeafe" stroke="#333333" d="M1969,-393C1969,-393 1908,-393 1908,-393 1902,-393 1896,-387 1896,-381 1896,-381 1896,-369 1896,-369 1896,-363 1902,-357 1908,-357 1908,-357 1969,-357 1969,-357 1975,-357 1981,-363 1981,-369 1981,-369 1981,-381 1981,-381 1981,-387 1975,-393 1969,-393"/>
<text text-anchor="middle" x="1938.5" y="-378" font-family="DejaVu Sans" font-size="10.00">Burkhard Vogl</text>
<text text-anchor="middle" x="1938.5" y="-367" font-family="DejaVu Sans" font-size="10.00">*11.01.1950</text>
</g>
<!-- pol18 -->
<g id="P_pol18" class="node">
<title>pol18</title>
<path fill="#fde7ef" stroke="#333333" d="M1733.5,-401C1733.5,-401 1677.5,-401 1677.5,-401 1671.5,-401 1665.5,-395 1665.5,-389 1665.5,-389 1665.5,-361 1665.5,-361 1665.5,-355 1671.5,-349 1677.5,-349 1677.5,-349 1733.5,-349 1733.5,-349 1739.5,-349 1745.5,-355 1745.5,-361 1745.5,-361 1745.5,-389 1745.5,-389 1745.5,-395 1739.5,-401 1733.5,-401"/>
<text text-anchor="middle" x="1705.5" y="-389" font-family="DejaVu Sans" font-size="10.00">Doris Kessler</text>
<text text-anchor="middle" x="1705.5" y="-378" font-family="DejaVu Sans" font-size="10.00">geb. Polasek</text>
<text text-anchor="middle" x="1705.5" y="-367" font-family="DejaVu Sans" font-size="10.00">verh. Vogl</text>
<text text-anchor="middle" x="1705.5" y="-356" font-family="DejaVu Sans" font-size="10.00">*03.02.1959</text>
</g>
<!-- polS08&#45;&gt;pol18 -->
<!-- polS08&#45;&gt;pol18 -->
<!-- polS08&#45;&gt;pol18 -->
<!-- M_polF8 -->
<g id="M_polF8" class="node">
<title>M_polF8</title>
<ellipse fill="#fff3b0" stroke="#b08900" cx="1922.5" cy="-281" rx="27" ry="18"/>
<text text-anchor="middle" x="1922.5" y="-278.8" font-family="DejaVu Sans" font-size="9.00">oo</text>
</g>
<!-- polS08&#45;&gt;M_polF8 -->
<g id="edge54" class="edge">
<title>polS08&#45;&gt;M_polF8</title>
<path fill="none" stroke="#555555" d="M1935.49,-356.7C1932.61,-340.14 1928.3,-315.34 1925.44,-298.92"/>
</g>
<!-- pol20 -->
<g id="P_pol20" class="node">
<title>pol20</title>
<path fill="#fde7ef" stroke="#333333" d="M824.5,-213C824.5,-213 756.5,-213 756.5,-213 750.5,-213 744.5,-207 744.5,-201 744.5,-201 744.5,-184 744.5,-184 744.5,-178 750.5,-172 756.5,-172 756.5,-172 824.5,-172 824.5,-172 830.5,-172 836.5,-178 836.5,-184 836.5,-184 836.5,-201 836.5,-201 836.5,-207 830.5,-213 824.5,-213"/>
<text text-anchor="middle" x="790.5" y="-201" font-family="DejaVu Sans" font-size="10.00">Bettina Niklaus</text>
<text text-anchor="middle" x="790.5" y="-190" font-family="DejaVu Sans" font-size="10.00">geb. Polasek</text>
<text text-anchor="middle" x="790.5" y="-179" font-family="DejaVu Sans" font-size="10.00">*12.04.1983</text>
</g>
<!-- pol20&#45;&gt;pol21 -->
<!-- pol20&#45;&gt;pol21 -->
<!-- g2p10 -->
<g id="P_g2p10" class="node">
<title>g2p10</title>
<path fill="#dbeafe" stroke="#333333" d="M1077,-210.5C1077,-210.5 1002,-210.5 1002,-210.5 996,-210.5 990,-204.5 990,-198.5 990,-198.5 990,-186.5 990,-186.5 990,-180.5 996,-174.5 1002,-174.5 1002,-174.5 1077,-174.5 1077,-174.5 1083,-174.5 1089,-180.5 1089,-186.5 1089,-186.5 1089,-198.5 1089,-198.5 1089,-204.5 1083,-210.5 1077,-210.5"/>
<text text-anchor="middle" x="1039.5" y="-195.5" font-family="DejaVu Sans" font-size="10.00">Matthias Niklaus</text>
<text text-anchor="middle" x="1039.5" y="-184.5" font-family="DejaVu Sans" font-size="10.00">*15.09.1981</text>
</g>
<!-- pol20&#45;&gt;g2p10 -->
<!-- M_g2F4 -->
<g id="M_g2F4" class="node">
<title>M_g2F4</title>
<ellipse fill="#fff3b0" stroke="#b08900" cx="1039.5" cy="-104" rx="27" ry="18"/>
<text text-anchor="middle" x="1039.5" y="-101.8" font-family="DejaVu Sans" font-size="9.00">oo</text>
</g>
<!-- pol20&#45;&gt;M_g2F4 -->
<g id="edge63" class="edge">
<title>pol20&#45;&gt;M_g2F4</title>
<path fill="none" stroke="#555555" d="M836.75,-175.43C889.91,-156.96 975.09,-127.38 1016.03,-113.15"/>
</g>
<!-- polS07 -->
<g id="P_polS07" class="node">
<title>polS07</title>
<path fill="#dbeafe" stroke="#333333" d="M1621.5,-393C1621.5,-393 1559.5,-393 1559.5,-393 1553.5,-393 1547.5,-387 1547.5,-381 1547.5,-381 1547.5,-369 1547.5,-369 1547.5,-363 1553.5,-357 1559.5,-357 1559.5,-357 1621.5,-357 1621.5,-357 1627.5,-357 1633.5,-363 1633.5,-369 1633.5,-369 1633.5,-381 1633.5,-381 1633.5,-387 1627.5,-393 1621.5,-393"/>
<text text-anchor="middle" x="1590.5" y="-378" font-family="DejaVu Sans" font-size="10.00">Paul Schlosser</text>
<text text-anchor="middle" x="1590.5" y="-367" font-family="DejaVu Sans" font-size="10.00">*19.08.1943</text>
</g>
<!-- polS07&#45;&gt;pol17 -->
<!-- polS07&#45;&gt;pol17 -->
<!-- polS07&#45;&gt;pol17 -->
<!-- M_polF7 -->
<g id="M_polF7" class="node">
<title>M_polF7</title>
<ellipse fill="#fff3b0" stroke="#b08900" cx="1555.5" cy="-281" rx="27" ry="18"/>
<text text-anchor="middle" x="1555.5" y="-278.8" font-family="DejaVu Sans" font-size="9.00">oo</text>
</g>
<!-- polS07&#45;&gt;M_polF7 -->
<g id="edge2" class="edge">
<title>polS07&#45;&gt;M_polF7</title>
<path fill="none" stroke="#555555" d="M1583.92,-356.7C1577.58,-340.04 1568.06,-315.03 1561.82,-298.61"/>
</g>
<!-- pol18&#45;&gt;polS08 -->
<!-- polS09 -->
<g id="P_polS09" class="node">
<title>polS09</title>
<path fill="#dbeafe" stroke="#333333" d="M1851.5,-393C1851.5,-393 1789.5,-393 1789.5,-393 1783.5,-393 1777.5,-387 1777.5,-381 1777.5,-381 1777.5,-369 1777.5,-369 1777.5,-363 1783.5,-357 1789.5,-357 1789.5,-357 1851.5,-357 1851.5,-357 1857.5,-357 1863.5,-363 1863.5,-369 1863.5,-369 1863.5,-381 1863.5,-381 1863.5,-387 1857.5,-393 1851.5,-393"/>
<text text-anchor="middle" x="1820.5" y="-378" font-family="DejaVu Sans" font-size="10.00">Jürgen Kessler</text>
<text text-anchor="middle" x="1820.5" y="-367" font-family="DejaVu Sans" font-size="10.00">*06.12.1946</text>
</g>
<!-- pol18&#45;&gt;polS09 -->
<!-- M_polF9 -->
<g id="M_polF9" class="node">
<title>M_polF9</title>
<ellipse fill="#fff3b0" stroke="#b08900" cx="1801.5" cy="-281" rx="27" ry="18"/>
<text text-anchor="middle" x="1801.5" y="-278.8" font-family="DejaVu Sans" font-size="9.00">oo</text>
</g>
<!-- pol18&#45;&gt;M_polF9 -->
<g id="edge20" class="edge">
<title>pol18&#45;&gt;M_polF9</title>
<path fill="none" stroke="#555555" d="M1731.73,-348.86C1749.39,-331.94 1772.02,-310.25 1786.64,-296.24"/>
</g>
<!-- pol18&#45;&gt;M_polF8 -->
<g id="edge55" class="edge">
<title>pol18&#45;&gt;M_polF8</title>
<path fill="none" stroke="#555555" d="M1745.6,-356.1C1754.58,-352.09 1761.5,-349 1761.5,-349 1761.5,-349 1855.88,-309.73 1900.11,-291.32"/>
</g>
<!-- g2p10&#45;&gt;pol20 -->
<!-- g2p10&#45;&gt;pol20 -->
<!-- g2p10&#45;&gt;pol20 -->
<!-- g2p10&#45;&gt;M_g2F4 -->
<g id="edge62" class="edge">
<title>g2p10&#45;&gt;M_g2F4</title>
<path fill="none" stroke="#555555" d="M1039.5,-174.41C1039.5,-159.25 1039.5,-137.21 1039.5,-122.05"/>
</g>
<!-- polS09&#45;&gt;pol18 -->
<!-- polS09&#45;&gt;pol18 -->
<!-- polS09&#45;&gt;M_polF9 -->
<g id="edge19" class="edge">
<title>polS09&#45;&gt;M_polF9</title>
<path fill="none" stroke="#555555" d="M1816.93,-356.7C1813.51,-340.14 1808.38,-315.34 1804.99,-298.92"/>
</g>
<!-- g2p07 -->
<g id="P_g2p07" class="node">
<title>g2p07</title>
<path fill="#fde7ef" stroke="#333333" d="M1212,-213C1212,-213 1133,-213 1133,-213 1127,-213 1121,-207 1121,-201 1121,-201 1121,-184 1121,-184 1121,-178 1127,-172 1133,-172 1133,-172 1212,-172 1212,-172 1218,-172 1224,-178 1224,-184 1224,-184 1224,-201 1224,-201 1224,-207 1218,-213 1212,-213"/>
<text text-anchor="middle" x="1172.5" y="-201" font-family="DejaVu Sans" font-size="10.00">Elisabeth Polasek</text>
<text text-anchor="middle" x="1172.5" y="-190" font-family="DejaVu Sans" font-size="10.00">geb. Lackner</text>
<text text-anchor="middle" x="1172.5" y="-179" font-family="DejaVu Sans" font-size="10.00">*13.05.1973</text>
</g>
<!-- pol19 -->
<g id="P_pol19" class="node">
<title>pol19</title>
<path fill="#dbeafe" stroke="#333333" d="M1339,-210.5C1339,-210.5 1268,-210.5 1268,-210.5 1262,-210.5 1256,-204.5 1256,-198.5 1256,-198.5 1256,-186.5 1256,-186.5 1256,-180.5 1262,-174.5 1268,-174.5 1268,-174.5 1339,-174.5 1339,-174.5 1345,-174.5 1351,-180.5 1351,-186.5 1351,-186.5 1351,-198.5 1351,-198.5 1351,-204.5 1345,-210.5 1339,-210.5"/>
<text text-anchor="middle" x="1303.5" y="-195.5" font-family="DejaVu Sans" font-size="10.00">Richard Polasek</text>
<text text-anchor="middle" x="1303.5" y="-184.5" font-family="DejaVu Sans" font-size="10.00">*06.01.1976</text>
</g>
<!-- g2p07&#45;&gt;pol19 -->
<!-- M_g2F3 -->
<g id="M_g2F3" class="node">
<title>M_g2F3</title>
<ellipse fill="#fff3b0" stroke="#b08900" cx="1299.5" cy="-104" rx="27" ry="18"/>
<text text-anchor="middle" x="1299.5" y="-101.8" font-family="DejaVu Sans" font-size="9.00">oo</text>
</g>
<!-- g2p07&#45;&gt;M_g2F3 -->
<g id="edge9" class="edge">
<title>g2p07&#45;&gt;M_g2F3</title>
<path fill="none" stroke="#555555" d="M1201.32,-171.87C1225.76,-155.22 1260.1,-131.84 1281.01,-117.59"/>
</g>
<!-- pol19&#45;&gt;g2p07 -->
<!-- pol19&#45;&gt;g2p07 -->
<!-- pol19&#45;&gt;g2p07 -->
<!-- pol19&#45;&gt;M_g2F3 -->
<g id="edge8" class="edge">
<title>pol19&#45;&gt;M_g2F3</title>
<path fill="none" stroke="#555555" d="M1302.71,-174.41C1302.01,-159.25 1300.99,-137.21 1300.29,-122.05"/>
</g>
<!-- pol23 -->
<g id="P_pol23" class="node">
<title>pol23</title>
<path fill="#fde7ef" stroke="#333333" d="M1555,-210.5C1555,-210.5 1488,-210.5 1488,-210.5 1482,-210.5 1476,-204.5 1476,-198.5 1476,-198.5 1476,-186.5 1476,-186.5 1476,-180.5 1482,-174.5 1488,-174.5 1488,-174.5 1555,-174.5 1555,-174.5 1561,-174.5 1567,-180.5 1567,-186.5 1567,-186.5 1567,-198.5 1567,-198.5 1567,-204.5 1561,-210.5 1555,-210.5"/>
<text text-anchor="middle" x="1521.5" y="-195.5" font-family="DejaVu Sans" font-size="10.00">Irene Schlosser</text>
<text text-anchor="middle" x="1521.5" y="-184.5" font-family="DejaVu Sans" font-size="10.00">*20.03.1975</text>
</g>
<!-- pol23&#45;&gt;pol24 -->
<!-- g2p13 -->
<g id="P_g2p13" class="node">
<title>g2p13</title>
<path fill="#dbeafe" stroke="#333333" d="M1188.5,-36C1188.5,-36 1136.5,-36 1136.5,-36 1130.5,-36 1124.5,-30 1124.5,-24 1124.5,-24 1124.5,-12 1124.5,-12 1124.5,-6 1130.5,0 1136.5,0 1136.5,0 1188.5,0 1188.5,0 1194.5,0 1200.5,-6 1200.5,-12 1200.5,-12 1200.5,-24 1200.5,-24 1200.5,-30 1194.5,-36 1188.5,-36"/>
<text text-anchor="middle" x="1162.5" y="-21" font-family="DejaVu Sans" font-size="10.00">Ben Niklaus</text>
<text text-anchor="middle" x="1162.5" y="-10" font-family="DejaVu Sans" font-size="10.00">*14.10.2016</text>
</g>
<!-- pol11&#45;&gt;polS02 -->
<!-- pol11&#45;&gt;polS02 -->
<!-- pol11&#45;&gt;polS03 -->
<!-- pol11&#45;&gt;polS03 -->
<!-- pol11&#45;&gt;M_polF3 -->
<g id="edge23" class="edge">
<title>pol11&#45;&gt;M_polF3</title>
<path fill="none" stroke="#555555" d="M1559.05,-539.41C1530.69,-522.37 1487.89,-496.67 1463.12,-481.79"/>
</g>
<!-- pol11&#45;&gt;M_polF2 -->
<g id="edge40" class="edge">
<title>pol11&#45;&gt;M_polF2</title>
<path fill="none" stroke="#555555" d="M1618.12,-539.41C1649,-522.18 1695.79,-496.07 1722.3,-481.27"/>
</g>
<!-- g3p04 -->
<g id="P_g3p04" class="node">
<title>g3p04</title>
<path fill="#fde7ef" stroke="#333333" d="M541.5,-210.5C541.5,-210.5 449.5,-210.5 449.5,-210.5 443.5,-210.5 437.5,-204.5 437.5,-198.5 437.5,-198.5 437.5,-186.5 437.5,-186.5 437.5,-180.5 443.5,-174.5 449.5,-174.5 449.5,-174.5 541.5,-174.5 541.5,-174.5 547.5,-174.5 553.5,-180.5 553.5,-186.5 553.5,-186.5 553.5,-198.5 553.5,-198.5 553.5,-204.5 547.5,-210.5 541.5,-210.5"/>
<text text-anchor="middle" x="495.5" y="-195.5" font-family="DejaVu Sans" font-size="10.00">Carina Guttenberger</text>
<text text-anchor="middle" x="495.5" y="-184.5" font-family="DejaVu Sans" font-size="10.00">*30.03.1982</text>
</g>
<!-- pol22 -->
<g id="P_pol22" class="node">
<title>pol22</title>
<path fill="#dbeafe" stroke="#333333" d="M393.5,-210.5C393.5,-210.5 341.5,-210.5 341.5,-210.5 335.5,-210.5 329.5,-204.5 329.5,-198.5 329.5,-198.5 329.5,-186.5 329.5,-186.5 329.5,-180.5 335.5,-174.5 341.5,-174.5 341.5,-174.5 393.5,-174.5 393.5,-174.5 399.5,-174.5 405.5,-180.5 405.5,-186.5 405.5,-186.5 405.5,-198.5 405.5,-198.5 405.5,-204.5 399.5,-210.5 393.5,-210.5"/>
<text text-anchor="middle" x="367.5" y="-195.5" font-family="DejaVu Sans" font-size="10.00">Oliver Koch</text>
<text text-anchor="middle" x="367.5" y="-184.5" font-family="DejaVu Sans" font-size="10.00">*10.10.1974</text>
</g>
<!-- g3p04&#45;&gt;pol22 -->
<!-- M_g3F2 -->
<g id="M_g3F2" class="node">
<title>M_g3F2</title>
<ellipse fill="#fff3b0" stroke="#b08900" cx="367.5" cy="-104" rx="27" ry="18"/>
<text text-anchor="middle" x="367.5" y="-101.8" font-family="DejaVu Sans" font-size="9.00">oo</text>
</g>
<!-- g3p04&#45;&gt;M_g3F2 -->
<g id="edge71" class="edge">
<title>g3p04&#45;&gt;M_g3F2</title>
<path fill="none" stroke="#555555" d="M470.21,-174.41C445.29,-157.57 407.84,-132.26 385.71,-117.31"/>
</g>
<!-- g2p15 -->
<g id="P_g2p15" class="node">
<title>g2p15</title>
<path fill="#dbeafe" stroke="#333333" d="M705,-36C705,-36 610,-36 610,-36 604,-36 598,-30 598,-24 598,-24 598,-12 598,-12 598,-6 604,0 610,0 610,0 705,0 705,0 711,0 717,-6 717,-12 717,-12 717,-24 717,-24 717,-30 711,-36 705,-36"/>
<text text-anchor="middle" x="657.5" y="-21" font-family="DejaVu Sans" font-size="10.00">Koa&#45;Miro Schultheiss</text>
<text text-anchor="middle" x="657.5" y="-10" font-family="DejaVu Sans" font-size="10.00">*29.08.2019</text>
</g>
<!-- g2p15&#45;&gt;g2p16 -->
<!-- pol15&#45;&gt;polS04 -->
<!-- pol15&#45;&gt;polS04 -->
<!-- pol15&#45;&gt;polS04 -->
<!-- pol15&#45;&gt;pol16 -->
<!-- polS05 -->
<g id="P_polS05" class="node">
<title>polS05</title>
<path fill="#fde7ef" stroke="#333333" d="M809,-395.5C809,-395.5 744,-395.5 744,-395.5 738,-395.5 732,-389.5 732,-383.5 732,-383.5 732,-366.5 732,-366.5 732,-360.5 738,-354.5 744,-354.5 744,-354.5 809,-354.5 809,-354.5 815,-354.5 821,-360.5 821,-366.5 821,-366.5 821,-383.5 821,-383.5 821,-389.5 815,-395.5 809,-395.5"/>
<text text-anchor="middle" x="776.5" y="-383.5" font-family="DejaVu Sans" font-size="10.00">Hanka Polasek</text>
<text text-anchor="middle" x="776.5" y="-372.5" font-family="DejaVu Sans" font-size="10.00">geb. Steindel</text>
<text text-anchor="middle" x="776.5" y="-361.5" font-family="DejaVu Sans" font-size="10.00">*10.06.1951</text>
</g>
<!-- pol15&#45;&gt;polS05 -->
<!-- pol15&#45;&gt;polS05 -->
<!-- M_polF5 -->
<g id="M_polF5" class="node">
<title>M_polF5</title>
<ellipse fill="#fff3b0" stroke="#b08900" cx="851.5" cy="-281" rx="27" ry="18"/>
<text text-anchor="middle" x="851.5" y="-278.8" font-family="DejaVu Sans" font-size="9.00">oo</text>
</g>
<!-- pol15&#45;&gt;M_polF5 -->
<g id="edge45" class="edge">
<title>pol15&#45;&gt;M_polF5</title>
<path fill="none" stroke="#555555" d="M911.58,-356.7C897.76,-339.52 876.8,-313.45 863.64,-297.09"/>
</g>
<!-- pol15&#45;&gt;M_polF4 -->
<g id="edge57" class="edge">
<title>pol15&#45;&gt;M_polF4</title>
<path fill="none" stroke="#555555" d="M952.62,-356.91C981.65,-338.62 1026.95,-310.07 1052.43,-294.02"/>
</g>
<!-- polS05&#45;&gt;pol15 -->
<!-- polS05&#45;&gt;M_polF5 -->
<g id="edge46" class="edge">
<title>polS05&#45;&gt;M_polF5</title>
<path fill="none" stroke="#555555" d="M792.41,-354.49C806.34,-337.4 826.3,-312.91 839.08,-297.23"/>
</g>
<!-- pol22&#45;&gt;g3p04 -->
<!-- pol22&#45;&gt;g3p04 -->
<!-- pol22&#45;&gt;g3p04 -->
<!-- pol22&#45;&gt;M_g3F2 -->
<g id="edge70" class="edge">
<title>pol22&#45;&gt;M_g3F2</title>
<path fill="none" stroke="#555555" d="M367.5,-174.41C367.5,-159.25 367.5,-137.21 367.5,-122.05"/>
</g>
<!-- pol25 -->
<g id="P_pol25" class="node">
<title>pol25</title>
<path fill="#dbeafe" stroke="#333333" d="M1830.5,-210.5C1830.5,-210.5 1772.5,-210.5 1772.5,-210.5 1766.5,-210.5 1760.5,-204.5 1760.5,-198.5 1760.5,-198.5 1760.5,-186.5 1760.5,-186.5 1760.5,-180.5 1766.5,-174.5 1772.5,-174.5 1772.5,-174.5 1830.5,-174.5 1830.5,-174.5 1836.5,-174.5 1842.5,-180.5 1842.5,-186.5 1842.5,-186.5 1842.5,-198.5 1842.5,-198.5 1842.5,-204.5 1836.5,-210.5 1830.5,-210.5"/>
<text text-anchor="middle" x="1801.5" y="-195.5" font-family="DejaVu Sans" font-size="10.00">Julian Kessler</text>
<text text-anchor="middle" x="1801.5" y="-184.5" font-family="DejaVu Sans" font-size="10.00">*28.01.1998</text>
</g>
<!-- g2p12&#45;&gt;g2p13 -->
<!-- pol17&#45;&gt;polS07 -->
<!-- pol17&#45;&gt;pol18 -->
<!-- pol17&#45;&gt;pol18 -->
<!-- pol17&#45;&gt;M_polF7 -->
<g id="edge3" class="edge">
<title>pol17&#45;&gt;M_polF7</title>
<path fill="none" stroke="#555555" d="M1467.25,-354.49C1488.83,-336.77 1520.09,-311.09 1539.03,-295.53"/>
</g>
<!-- g2p08 -->
<g id="P_g2p08" class="node">
<title>g2p08</title>
<path fill="#dbeafe" stroke="#333333" d="M1341,-36C1341,-36 1252,-36 1252,-36 1246,-36 1240,-30 1240,-24 1240,-24 1240,-12 1240,-12 1240,-6 1246,0 1252,0 1252,0 1341,0 1341,0 1347,0 1353,-6 1353,-12 1353,-12 1353,-24 1353,-24 1353,-30 1347,-36 1341,-36"/>
<text text-anchor="middle" x="1296.5" y="-21" font-family="DejaVu Sans" font-size="10.00">Maximilian Polasek</text>
<text text-anchor="middle" x="1296.5" y="-10" font-family="DejaVu Sans" font-size="10.00">*09.12.2001</text>
</g>
<!-- g2p08&#45;&gt;g2p09 -->
<!-- g2p14&#45;&gt;pol21 -->
<!-- g2p14&#45;&gt;M_g2F5 -->
<g id="edge81" class="edge">
<title>g2p14&#45;&gt;M_g2F5</title>
<path fill="none" stroke="#555555" d="M679.12,-174.41C692.68,-158.56 712.67,-135.19 725.64,-120.03"/>
</g>
<!-- M_polF7&#45;&gt;pol24 -->
<g id="edge5" class="edge">
<title>M_polF7&#45;&gt;pol24</title>
<path fill="none" stroke="#555555" d="M1570.36,-265.72C1583.83,-252.77 1603.98,-233.41 1620.02,-217.99"/>
<polygon fill="#555555" stroke="#555555" points="1622.73,-220.24 1627.51,-210.79 1617.88,-215.19 1622.73,-220.24"/>
</g>
<!-- M_polF7&#45;&gt;pol23 -->
<g id="edge4" class="edge">
<title>M_polF7&#45;&gt;pol23</title>
<path fill="none" stroke="#555555" d="M1548.94,-263.32C1544.16,-251.15 1537.58,-234.41 1532.06,-220.36"/>
<polygon fill="#555555" stroke="#555555" points="1535.18,-218.75 1528.27,-210.72 1528.67,-221.31 1535.18,-218.75"/>
</g>
<!-- M_g2F3&#45;&gt;g2p09 -->
<g id="edge11" class="edge">
<title>M_g2F3&#45;&gt;g2p09</title>
<path fill="none" stroke="#555555" d="M1318.41,-91.14C1338.94,-78.28 1372.18,-57.44 1397.67,-41.46"/>
<polygon fill="#555555" stroke="#555555" points="1399.72,-44.31 1406.33,-36.03 1396,-38.38 1399.72,-44.31"/>
</g>
<!-- M_g2F3&#45;&gt;g2p08 -->
<g id="edge10" class="edge">
<title>M_g2F3&#45;&gt;g2p08</title>
<path fill="none" stroke="#555555" d="M1298.89,-86C1298.49,-74.69 1297.95,-59.58 1297.48,-46.57"/>
<polygon fill="#555555" stroke="#555555" points="1300.97,-46.13 1297.12,-36.26 1293.98,-46.38 1300.97,-46.13"/>
</g>
<!-- M_polF6&#45;&gt;pol22 -->
<g id="edge16" class="edge">
<title>M_polF6&#45;&gt;pol22</title>
<path fill="none" stroke="#555555" d="M1158.59,-273.86C1138.83,-268.99 1114.5,-263 1114.5,-263 1114.5,-263 421.5,-213 421.5,-213 421.5,-213 419.04,-212.11 415.17,-210.72"/>
<polygon fill="#555555" stroke="#555555" points="416.18,-207.36 405.59,-207.25 413.81,-213.94 416.18,-207.36"/>
</g>
<!-- M_polF9&#45;&gt;pol25 -->
<g id="edge21" class="edge">
<title>M_polF9&#45;&gt;pol25</title>
<path fill="none" stroke="#555555" d="M1801.5,-262.91C1801.5,-250.94 1801.5,-234.7 1801.5,-220.93"/>
<polygon fill="#555555" stroke="#555555" points="1805,-220.55 1801.5,-210.55 1798,-220.55 1805,-220.55"/>
</g>
<!-- M_polF3&#45;&gt;pol16 -->
<g id="edge26" class="edge">
<title>M_polF3&#45;&gt;pol16</title>
<path fill="none" stroke="#555555" d="M1424.28,-455.97C1402.07,-442.07 1364.9,-418.81 1336.36,-400.95"/>
<polygon fill="#555555" stroke="#555555" points="1338.14,-397.93 1327.81,-395.59 1334.43,-403.87 1338.14,-397.93"/>
</g>
<!-- M_polF3&#45;&gt;pol18 -->
<g id="edge28" class="edge">
<title>M_polF3&#45;&gt;pol18</title>
<path fill="none" stroke="#555555" d="M1467.53,-460.18C1521.87,-442.51 1649.5,-401 1649.5,-401 1649.5,-401 1652.07,-399.85 1656.11,-398.05"/>
<polygon fill="#555555" stroke="#555555" points="1657.69,-401.18 1665.4,-393.9 1654.84,-394.78 1657.69,-401.18"/>
</g>
<!-- M_polF3&#45;&gt;pol15 -->
<g id="edge25" class="edge">
<title>M_polF3&#45;&gt;pol15</title>
<path fill="none" stroke="#555555" d="M1417.57,-463.96C1324.6,-449.47 1013.5,-401 1013.5,-401 1013.5,-401 1006.1,-398.9 995.59,-395.91"/>
<polygon fill="#555555" stroke="#555555" points="996.23,-392.46 985.66,-393.09 994.32,-399.19 996.23,-392.46"/>
</g>
<!-- M_polF3&#45;&gt;pol17 -->
<g id="edge27" class="edge">
<title>M_polF3&#45;&gt;pol17</title>
<path fill="none" stroke="#555555" d="M1443.5,-450.7C1443.5,-438.13 1443.5,-420.81 1443.5,-406.01"/>
<polygon fill="#555555" stroke="#555555" points="1447,-405.78 1443.5,-395.78 1440,-405.78 1447,-405.78"/>
</g>
<!-- M_polF2&#45;&gt;pol14 -->
<g id="edge42" class="edge">
<title>M_polF2&#45;&gt;pol14</title>
<path fill="none" stroke="#555555" d="M1767.32,-461.45C1831.23,-444.59 1996.5,-401 1996.5,-401 1996.5,-401 2000.05,-399.98 2005.72,-398.35"/>
<polygon fill="#555555" stroke="#555555" points="2006.73,-401.7 2015.38,-395.58 2004.8,-394.97 2006.73,-401.7"/>
</g>
<!-- M_polF5&#45;&gt;pol21 -->
<g id="edge48" class="edge">
<title>M_polF5&#45;&gt;pol21</title>
<path fill="none" stroke="#555555" d="M862.58,-264.54C871.67,-251.86 884.71,-233.67 895.32,-218.86"/>
<polygon fill="#555555" stroke="#555555" points="898.26,-220.78 901.24,-210.61 892.57,-216.7 898.26,-220.78"/>
</g>
<!-- M_polF5&#45;&gt;pol20 -->
<g id="edge47" class="edge">
<title>M_polF5&#45;&gt;pol20</title>
<path fill="none" stroke="#555555" d="M840.31,-264.13C831.94,-252.26 820.26,-235.71 810.32,-221.61"/>
<polygon fill="#555555" stroke="#555555" points="813.02,-219.37 804.4,-213.21 807.3,-223.4 813.02,-219.37"/>
</g>
<!-- M_polF4&#45;&gt;pol19 -->
<g id="edge59" class="edge">
<title>M_polF4&#45;&gt;pol19</title>
<path fill="none" stroke="#555555" d="M1094.59,-271.39C1130.16,-258.13 1199.35,-232.33 1248.35,-214.06"/>
<polygon fill="#555555" stroke="#555555" points="1249.71,-217.29 1257.86,-210.52 1247.27,-210.73 1249.71,-217.29"/>
</g>
<!-- M_g2F4&#45;&gt;g2p11 -->
<g id="edge64" class="edge">
<title>M_g2F4&#45;&gt;g2p11</title>
<path fill="none" stroke="#555555" d="M1023.81,-89.13C1009.68,-76.63 988.6,-57.99 971.72,-43.07"/>
<polygon fill="#555555" stroke="#555555" points="973.63,-40.09 963.82,-36.09 969,-45.33 973.63,-40.09"/>
</g>
<!-- M_g2F4&#45;&gt;g2p13 -->
<g id="edge66" class="edge">
<title>M_g2F4&#45;&gt;g2p13</title>
<path fill="none" stroke="#555555" d="M1057.65,-90.61C1076.37,-77.82 1106.01,-57.58 1129,-41.88"/>
<polygon fill="#555555" stroke="#555555" points="1131.17,-44.64 1137.45,-36.11 1127.22,-38.86 1131.17,-44.64"/>
</g>
<!-- M_g2F4&#45;&gt;g2p12 -->
<g id="edge65" class="edge">
<title>M_g2F4&#45;&gt;g2p12</title>
<path fill="none" stroke="#555555" d="M1042.33,-86C1044.24,-74.58 1046.79,-59.27 1048.97,-46.18"/>
<polygon fill="#555555" stroke="#555555" points="1052.43,-46.7 1050.62,-36.26 1045.53,-45.55 1052.43,-46.7"/>
</g>
<!-- M_g3F2&#45;&gt;g3p06 -->
<g id="edge73" class="edge">
<title>M_g3F2&#45;&gt;g3p06</title>
<path fill="none" stroke="#555555" d="M347.18,-91.85C323.61,-78.9 284.17,-57.25 254.41,-40.91"/>
<polygon fill="#555555" stroke="#555555" points="255.96,-37.77 245.51,-36.02 252.59,-43.9 255.96,-37.77"/>
</g>
<!-- M_g3F2&#45;&gt;g3p05 -->
<g id="edge72" class="edge">
<title>M_g3F2&#45;&gt;g3p05</title>
<path fill="none" stroke="#555555" d="M342.9,-96.27C297.4,-83.82 198.58,-56.78 130.79,-38.23"/>
<polygon fill="#555555" stroke="#555555" points="131.59,-34.82 121.02,-35.56 129.74,-41.57 131.59,-34.82"/>
</g>
<!-- M_g3F2&#45;&gt;g3p07 -->
<g id="edge74" class="edge">
<title>M_g3F2&#45;&gt;g3p07</title>
<path fill="none" stroke="#555555" d="M367.5,-85.6C367.5,-74.26 367.5,-59.23 367.5,-46.32"/>
<polygon fill="#555555" stroke="#555555" points="371,-46.1 367.5,-36.1 364,-46.1 371,-46.1"/>
</g>
<!-- M_g3F2&#45;&gt;g3p08 -->
<g id="edge75" class="edge">
<title>M_g3F2&#45;&gt;g3p08</title>
<path fill="none" stroke="#555555" d="M387.36,-91.5C409.68,-78.56 446.46,-57.26 474.38,-41.08"/>
<polygon fill="#555555" stroke="#555555" points="476.21,-44.07 483.11,-36.03 472.7,-38.01 476.21,-44.07"/>
</g>
<!-- M_g2F5&#45;&gt;g2p16 -->
<g id="edge83" class="edge">
<title>M_g2F5&#45;&gt;g2p16</title>
<path fill="none" stroke="#555555" d="M751.55,-87.98C762.21,-75.72 777.49,-58.13 789.96,-43.79"/>
<polygon fill="#555555" stroke="#555555" points="792.63,-46.05 796.55,-36.2 787.35,-41.46 792.63,-46.05"/>
</g>
<!-- M_g2F5&#45;&gt;g2p15 -->
<g id="edge82" class="edge">
<title>M_g2F5&#45;&gt;g2p15</title>
<path fill="none" stroke="#555555" d="M724.39,-88.37C712.43,-75.96 695.02,-57.91 680.96,-43.33"/>
<polygon fill="#555555" stroke="#555555" points="683.42,-40.84 673.96,-36.07 678.38,-45.7 683.42,-40.84"/>
</g>
<!-- M_pedF1&#45;&gt;ped02 -->
<g id="edge88" class="edge">
<title>M_pedF1&#45;&gt;ped02</title>
<path fill="none" stroke="#555555" d="M2156.5,-262.91C2156.5,-250.94 2156.5,-234.7 2156.5,-220.93"/>
<polygon fill="#555555" stroke="#555555" points="2160,-220.55 2156.5,-210.55 2153,-220.55 2160,-220.55"/>
</g>
</g>
</svg>
