<?xml version="1.0" encoding="UTF-8" standalone="no"?>
<!DOCTYPE svg PUBLIC "-//W3C//DTD SVG 1.1//EN"
 "http://www.w3.org/Graphics/SVG/1.1/DTD/svg11.dtd">
<!-- Generated by graphviz version 2.43.0 (0)
 -->
<!-- Title: %3 Pages: 1 -->
<svg width="1378pt" height="596pt"
 viewBox="0.00 0.00 1378.00 596.00" xmlns="http://www.w3.org/2000/svg" xmlns:xlink="http://www.w3.org/1999/xlink">
<style><![CDATA[
  g[id^="P_"], g[id^="M_"] { cursor: pointer; }
  .highlight ellipse, .highlight polygon, .highlight path, .highlight rect {
    stroke: #d00; stroke-width: 2.5;
  }
  @keyframes pulse { 0%,100%{opacity:1} 50%{opacity:.45} }
  .blink { animation: pulse 0.9s ease-in-out 3; }
]]></style>
<script><![CDATA[
(function(){
  var SPOUSE = {"P_geh08": ["P_gehS01", "P_g5p07"], "P_gehS01": ["P_geh08"], "P_geh07": ["P_g5p04"], "P_g5p04": ["P_geh07"], "P_geh09": ["P_att38"], "P_att38": ["P_geh09"], "P_geh05": ["P_g4p04", "P_g4p01"], "P_g4p04": ["P_geh05"], "P_geh01": ["P_geh02"], "P_geh02": ["P_geh01"], "P_geh03": ["P_geh04"], "P_geh04": ["P_geh03"], "P_g4p06": ["P_geh06"], "P_geh06": ["P_g4p06"], "P_g4p01": ["P_geh05"], "P_g5p07": ["P_geh08"]};
  var FAMILY = {"M_gehF4": ["P_geh08", "P_gehS01"], "M_g5F2": ["P_geh07", "P_g5p04"], "M_gehF3": ["P_geh09", "P_att38", "P_geh01", "P_geh03"], "M_g4F2": ["P_geh05", "P_g4p04", "P_g4p05"], "M_gehF1": ["P_geh01", "P_geh02", "P_geh05", "P_geh06"], "M_gehF2": ["P_geh03", "P_geh04", "P_geh07", "P_geh08"], "M_g4F3": ["P_g4p06", "P_geh06", "P_g4p07", "P_g4p08", "P_g4p09"], "M_g4F1": ["P_geh05", "P_g4p01", "P_g4p02", "P_g4p03"], "M_g5F4": ["P_geh08", "P_g5p07", "P_g5p08", "P_g5p09", "P_g5p10"]};
  function clearHl(){ document.querySelectorAll('.blink').forEach(function(n){ n.classList.remove('blink'); n.classList.remove('highlight'); }); }
  function hl(id){ var el=document.getElementById(id); if(el){ el.classList.add('highlight'); el.classList.add('blink'); } }
  document.addEventListener('click', function(evt){
    var target = evt.target;
    var g = target.closest && target.closest('g[id^="P_"], g[id^="M_"]');
    if (!g) { while (target) { if (target.id && /^([PM]_)/.test(target.id) && target.tagName && target.tagName.toLowerCase() === 'g') { g = target; break; } target = target.parentNode; } }
    if (!g) return;
    var id = g.id; clearHl();
    if (/^P_/.test(id)) { (SPOUSE[id] || []).forEach(hl); }
    else if (/^M_/.test(id)) { hl(id); (FAMILY[id] || []).forEach(hl); }
  }, false);
})();
]]></script>

<g id="graph0" class="graph" transform="scale(1 1) rotate(0) translate(4 592)">
<title>%3</title>
<polygon fill="white" stroke="transparent" points="-4,4 -4,-592 1374,-592 1374,4 -4,4"/>
<text text-anchor="middle" x="685" y="-574.4" font-family="DejaVu Sans" font-size="12.00">Rosi</text>
<!-- geh01 -->
<g id="P_geh01" class="node">
<title>geh01</title>
<path fill="#dbeafe" stroke="#333333" d="M624,-387.5C624,-387.5 504,-387.5 504,-387.5 498,-387.5 492,-381.5 492,-375.5 492,-375.5 492,-363.5 492,-363.5 492,-357.5 498,-351.5 504,-351.5 504,-351.5 624,-351.5 624,-351.5 630,-351.5 636,-357.5 636,-363.5 636,-363.5 636,-375.5 636,-375.5 636,-381.5 630,-387.5 624,-387.5"/>
<text text-anchor="middle" x="564" y="-372.5" font-family="DejaVu Sans" font-size="10.00">Horst Gehringer</text>
<text text-anchor="middle" x="564" y="-361.5" font-family="DejaVu Sans" font-size="10.00">*12.01.1941 &#160;+08.09.2008</text>
</g>
<!-- geh03 -->
<g id="P_geh03" class="node">
<title>geh03</title>
<path fill="#dbeafe" stroke="#333333" d="M800,-387.5C800,-387.5 680,-387.5 680,-387.5 674,-387.5 668,-381.5 668,-375.5 668,-375.5 668,-363.5 668,-363.5 668,-357.5 674,-351.5 680,-351.5 680,-351.5 800,-351.5 800,-351.5 806,-351.5 812,-357.5 812,-363.5 812,-363.5 812,-375.5 812,-375.5 812,-381.5 806,-387.5 800,-387.5"/>
<text text-anchor="middle" x="740" y="-372.5" font-family="DejaVu Sans" font-size="10.00">Rolf Gehringer</text>
<text text-anchor="middle" x="740" y="-361.5" font-family="DejaVu Sans" font-size="10.00">*23.04.1944 &#160;+26.06.2020</text>
</g>
<!-- geh01&#45;&gt;geh03 -->
<!-- geh02 -->
<g id="P_geh02" class="node">
<title>geh02</title>
<path fill="#fde7ef" stroke="#333333" d="M448,-390C448,-390 328,-390 328,-390 322,-390 316,-384 316,-378 316,-378 316,-361 316,-361 316,-355 322,-349 328,-349 328,-349 448,-349 448,-349 454,-349 460,-355 460,-361 460,-361 460,-378 460,-378 460,-384 454,-390 448,-390"/>
<text text-anchor="middle" x="388" y="-378" font-family="DejaVu Sans" font-size="10.00">Annemarie Gehringer</text>
<text text-anchor="middle" x="388" y="-367" font-family="DejaVu Sans" font-size="10.00">geb. Hermanek</text>
<text text-anchor="middle" x="388" y="-356" font-family="DejaVu Sans" font-size="10.00">*27.08.1944 &#160;+10.06.2014</text>
</g>
<!-- geh01&#45;&gt;geh02 -->
<!-- geh01&#45;&gt;geh02 -->
<!-- geh01&#45;&gt;geh02 -->
<!-- M_gehF1 -->
<g id="M_gehF1" class="node">
<title>M_gehF1</title>
<ellipse fill="#fff3b0" stroke="#b08900" cx="450" cy="-281" rx="27" ry="18"/>
<text text-anchor="middle" x="450" y="-278.8" font-family="DejaVu Sans" font-size="9.00">oo</text>
</g>
<!-- geh01&#45;&gt;M_gehF1 -->
<g id="edge21" class="edge">
<title>geh01&#45;&gt;M_gehF1</title>
<path fill="none" stroke="#555555" d="M541.48,-351.41C519.67,-334.87 487.09,-310.14 467.27,-295.1"/>
</g>
<!-- g4p01 -->
<g id="P_g4p01" class="node">
<title>g4p01</title>
<path fill="#fde7ef" stroke="#333333" d="M368,-213C368,-213 288,-213 288,-213 282,-213 276,-207 276,-201 276,-201 276,-184 276,-184 276,-178 282,-172 288,-172 288,-172 368,-172 368,-172 374,-172 380,-178 380,-184 380,-184 380,-201 380,-201 380,-207 374,-213 368,-213"/>
<text text-anchor="middle" x="328" y="-201" font-family="DejaVu Sans" font-size="10.00">Rosalia Gehringer</text>
<text text-anchor="middle" x="328" y="-190" font-family="DejaVu Sans" font-size="10.00">geb. Karsai</text>
<text text-anchor="middle" x="328" y="-179" font-family="DejaVu Sans" font-size="10.00">*18.05.1961</text>
</g>
<!-- geh05 -->
<g id="P_geh05" class="node">
<title>geh05</title>
<path fill="#dbeafe" stroke="#333333" d="M231.5,-210.5C231.5,-210.5 148.5,-210.5 148.5,-210.5 142.5,-210.5 136.5,-204.5 136.5,-198.5 136.5,-198.5 136.5,-186.5 136.5,-186.5 136.5,-180.5 142.5,-174.5 148.5,-174.5 148.5,-174.5 231.5,-174.5 231.5,-174.5 237.5,-174.5 243.5,-180.5 243.5,-186.5 243.5,-186.5 243.5,-198.5 243.5,-198.5 243.5,-204.5 237.5,-210.5 231.5,-210.5"/>
<text text-anchor="middle" x="190" y="-195.5" font-family="DejaVu Sans" font-size="10.00">Thomas Gehringer</text>
<text text-anchor="middle" x="190" y="-184.5" font-family="DejaVu Sans" font-size="10.00">*18.06.1966</text>
</g>
<!-- g4p01&#45;&gt;geh05 -->
<!-- geh06 -->
<g id="P_geh06" class="node">
<title>geh06</title>
<path fill="#fde7ef" stroke="#333333" d="M538,-213C538,-213 424,-213 424,-213 418,-213 412,-207 412,-201 412,-201 412,-184 412,-184 412,-178 418,-172 424,-172 424,-172 538,-172 538,-172 544,-172 550,-178 550,-184 550,-184 550,-201 550,-201 550,-207 544,-213 538,-213"/>
<text text-anchor="middle" x="481" y="-201" font-family="DejaVu Sans" font-size="10.00">Patricia Meyer&#45;Gehringer</text>
<text text-anchor="middle" x="481" y="-190" font-family="DejaVu Sans" font-size="10.00">geb. Gehringer</text>
<text text-anchor="middle" x="481" y="-179" font-family="DejaVu Sans" font-size="10.00">*02.08.1974</text>
</g>
<!-- g4p01&#45;&gt;geh06 -->
<!-- M_g4F1 -->
<g id="M_g4F1" class="node">
<title>M_g4F1</title>
<ellipse fill="#fff3b0" stroke="#b08900" cx="221" cy="-104" rx="27" ry="18"/>
<text text-anchor="middle" x="221" y="-101.8" font-family="DejaVu Sans" font-size="9.00">oo</text>
</g>
<!-- g4p01&#45;&gt;M_g4F1 -->
<g id="edge48" class="edge">
<title>g4p01&#45;&gt;M_g4F1</title>
<path fill="none" stroke="#555555" d="M303.72,-171.87C283.5,-155.52 255.24,-132.68 237.54,-118.37"/>
</g>
<!-- g4p03 -->
<g id="P_g4p03" class="node">
<title>g4p03</title>
<path fill="#dbeafe" stroke="#333333" d="M396.5,-36C396.5,-36 313.5,-36 313.5,-36 307.5,-36 301.5,-30 301.5,-24 301.5,-24 301.5,-12 301.5,-12 301.5,-6 307.5,0 313.5,0 313.5,0 396.5,0 396.5,0 402.5,0 408.5,-6 408.5,-12 408.5,-12 408.5,-24 408.5,-24 408.5,-30 402.5,-36 396.5,-36"/>
<text text-anchor="middle" x="355" y="-21" font-family="DejaVu Sans" font-size="10.00">Thomas Gehringer</text>
<text text-anchor="middle" x="355" y="-10" font-family="DejaVu Sans" font-size="10.00">*02.08.2002</text>
</g>
<!-- g4p08 -->
<g id="P_g4p08" class="node">
<title>g4p08</title>
<path fill="#fde7ef" stroke="#333333" d="M630,-36C630,-36 578,-36 578,-36 572,-36 566,-30 566,-24 566,-24 566,-12 566,-12 566,-6 572,0 578,0 578,0 630,0 630,0 636,0 642,-6 642,-12 642,-12 642,-24 642,-24 642,-30 636,-36 630,-36"/>
<text text-anchor="middle" x="604" y="-21" font-family="DejaVu Sans" font-size="10.00">Nora Meyer</text>
<text text-anchor="middle" x="604" y="-10" font-family="DejaVu Sans" font-size="10.00">*07.06.2003</text>
</g>
<!-- g4p09 -->
<g id="P_g4p09" class="node">
<title>g4p09</title>
<path fill="#fde7ef" stroke="#333333" d="M739.5,-36C739.5,-36 686.5,-36 686.5,-36 680.5,-36 674.5,-30 674.5,-24 674.5,-24 674.5,-12 674.5,-12 674.5,-6 680.5,0 686.5,0 686.5,0 739.5,0 739.5,0 745.5,0 751.5,-6 751.5,-12 751.5,-12 751.5,-24 751.5,-24 751.5,-30 745.5,-36 739.5,-36"/>
<text text-anchor="middle" x="713" y="-21" font-family="DejaVu Sans" font-size="10.00">Tessa Meyer</text>
<text text-anchor="middle" x="713" y="-10" font-family="DejaVu Sans" font-size="10.00">*27.03.2009</text>
</g>
<!-- g4p08&#45;&gt;g4p09 -->
<!-- geh07 -->
<g id="P_geh07" class="node">
<title>geh07</title>
<path fill="#dbeafe" stroke="#333333" d="M925.5,-210.5C925.5,-210.5 842.5,-210.5 842.5,-210.5 836.5,-210.5 830.5,-204.5 830.5,-198.5 830.5,-198.5 830.5,-186.5 830.5,-186.5 830.5,-180.5 836.5,-174.5 842.5,-174.5 842.5,-174.5 925.5,-174.5 925.5,-174.5 931.5,-174.5 937.5,-180.5 937.5,-186.5 937.5,-186.5 937.5,-198.5 937.5,-198.5 937.5,-204.5 931.5,-210.5 925.5,-210.5"/>
<text text-anchor="middle" x="884" y="-195.5" font-family="DejaVu Sans" font-size="10.00">Andreas Gehringer</text>
<text text-anchor="middle" x="884" y="-184.5" font-family="DejaVu Sans" font-size="10.00">*28.06.1966</text>
</g>
<!-- geh08 -->
<g id="P_geh08" class="node">
<title>geh08</title>
<path fill="#dbeafe" stroke="#333333" d="M1102,-210.5C1102,-210.5 982,-210.5 982,-210.5 976,-210.5 970,-204.5 970,-198.5 970,-198.5 970,-186.5 970,-186.5 970,-180.5 976,-174.5 982,-174.5 982,-174.5 1102,-174.5 1102,-174.5 1108,-174.5 1114,-180.5 1114,-186.5 1114,-186.5 1114,-198.5 1114,-198.5 1114,-204.5 1108,-210.5 1102,-210.5"/>
<text text-anchor="middle" x="1042" y="-195.5" font-family="DejaVu Sans" font-size="10.00">Raoul Gehringer</text>
<text text-anchor="middle" x="1042" y="-184.5" font-family="DejaVu Sans" font-size="10.00">*18.08.1971 &#160;+19.03.2018</text>
</g>
<!-- geh07&#45;&gt;geh08 -->
<!-- g5p04 -->
<g id="P_g5p04" class="node">
<title>g5p04</title>
<path fill="#fde7ef" stroke="#333333" d="M786,-210.5C786,-210.5 718,-210.5 718,-210.5 712,-210.5 706,-204.5 706,-198.5 706,-198.5 706,-186.5 706,-186.5 706,-180.5 712,-174.5 718,-174.5 718,-174.5 786,-174.5 786,-174.5 792,-174.5 798,-180.5 798,-186.5 798,-186.5 798,-198.5 798,-198.5 798,-204.5 792,-210.5 786,-210.5"/>
<text text-anchor="middle" x="752" y="-195.5" font-family="DejaVu Sans" font-size="10.00">Daniela Niehoff</text>
<text text-anchor="middle" x="752" y="-184.5" font-family="DejaVu Sans" font-size="10.00">*20.07.1969</text>
</g>
<!-- geh07&#45;&gt;g5p04 -->
<!-- geh07&#45;&gt;g5p04 -->
<!-- geh07&#45;&gt;g5p04 -->
<!-- M_g5F2 -->
<g id="M_g5F2" class="node">
<title>M_g5F2</title>
<ellipse fill="#fff3b0" stroke="#b08900" cx="818" cy="-104" rx="40.98" ry="18"/>
<text text-anchor="middle" x="818" y="-101.8" font-family="DejaVu Sans" font-size="9.00">28.06.2016</text>
</g>
<!-- geh07&#45;&gt;M_g5F2 -->
<g id="edge5" class="edge">
<title>geh07&#45;&gt;M_g5F2</title>
<path fill="none" stroke="#555555" d="M870.96,-174.41C859.16,-158.95 841.92,-136.35 830.34,-121.18"/>
</g>
<!-- gehS01 -->
<g id="P_gehS01" class="node">
<title>gehS01</title>
<path fill="#fde7ef" stroke="#333333" d="M1358,-213C1358,-213 1290,-213 1290,-213 1284,-213 1278,-207 1278,-201 1278,-201 1278,-184 1278,-184 1278,-178 1284,-172 1290,-172 1290,-172 1358,-172 1358,-172 1364,-172 1370,-178 1370,-184 1370,-184 1370,-201 1370,-201 1370,-207 1364,-213 1358,-213"/>
<text text-anchor="middle" x="1324" y="-201" font-family="DejaVu Sans" font-size="10.00">Edith Gehringer</text>
<text text-anchor="middle" x="1324" y="-190" font-family="DejaVu Sans" font-size="10.00">geb. Schmölz</text>
<text text-anchor="middle" x="1324" y="-179" font-family="DejaVu Sans" font-size="10.00">*23.02.1970</text>
</g>
<!-- geh08&#45;&gt;gehS01 -->
<!-- geh08&#45;&gt;gehS01 -->
<!-- geh08&#45;&gt;gehS01 -->
<!-- g5p07 -->
<g id="P_g5p07" class="node">
<title>g5p07</title>
<path fill="#fde7ef" stroke="#333333" d="M1233.5,-210.5C1233.5,-210.5 1158.5,-210.5 1158.5,-210.5 1152.5,-210.5 1146.5,-204.5 1146.5,-198.5 1146.5,-198.5 1146.5,-186.5 1146.5,-186.5 1146.5,-180.5 1152.5,-174.5 1158.5,-174.5 1158.5,-174.5 1233.5,-174.5 1233.5,-174.5 1239.5,-174.5 1245.5,-180.5 1245.5,-186.5 1245.5,-186.5 1245.5,-198.5 1245.5,-198.5 1245.5,-204.5 1239.5,-210.5 1233.5,-210.5"/>
<text text-anchor="middle" x="1196" y="-195.5" font-family="DejaVu Sans" font-size="10.00">Ulrike De_Bortoli</text>
<text text-anchor="middle" x="1196" y="-184.5" font-family="DejaVu Sans" font-size="10.00">*25.11.1967</text>
</g>
<!-- geh08&#45;&gt;g5p07 -->
<!-- geh08&#45;&gt;g5p07 -->
<!-- M_gehF4 -->
<g id="M_gehF4" class="node">
<title>M_gehF4</title>
<ellipse fill="#fff3b0" stroke="#b08900" cx="1275" cy="-104" rx="27" ry="18"/>
<text text-anchor="middle" x="1275" y="-101.8" font-family="DejaVu Sans" font-size="9.00">oo</text>
</g>
<!-- geh08&#45;&gt;M_gehF4 -->
<g id="edge2" class="edge">
<title>geh08&#45;&gt;M_gehF4</title>
<path fill="none" stroke="#555555" d="M1088.03,-174.41C1137.37,-156.09 1213.71,-127.75 1251.77,-113.62"/>
</g>
<!-- M_g5F4 -->
<g id="M_g5F4" class="node">
<title>M_g5F4</title>
<ellipse fill="#fff3b0" stroke="#b08900" cx="1091" cy="-104" rx="27" ry="18"/>
<text text-anchor="middle" x="1091" y="-101.8" font-family="DejaVu Sans" font-size="9.00">oo</text>
</g>
<!-- geh08&#45;&gt;M_g5F4 -->
<g id="edge53" class="edge">
<title>geh08&#45;&gt;M_g5F4</title>
<path fill="none" stroke="#555555" d="M1051.68,-174.41C1060.44,-158.95 1073.24,-136.35 1081.84,-121.18"/>
</g>
<!-- g5p09 -->
<g id="P_g5p09" class="node">
<title>g5p09</title>
<path fill="#fde7ef" stroke="#333333" d="M1121.5,-36C1121.5,-36 1060.5,-36 1060.5,-36 1054.5,-36 1048.5,-30 1048.5,-24 1048.5,-24 1048.5,-12 1048.5,-12 1048.5,-6 1054.5,0 1060.5,0 1060.5,0 1121.5,0 1121.5,0 1127.5,0 1133.5,-6 1133.5,-12 1133.5,-12 1133.5,-24 1133.5,-24 1133.5,-30 1127.5,-36 1121.5,-36"/>
<text text-anchor="middle" x="1091" y="-21" font-family="DejaVu Sans" font-size="10.00">Lea Gehringer</text>
<text text-anchor="middle" x="1091" y="-10" font-family="DejaVu Sans" font-size="10.00">*24.02.2005</text>
</g>
<!-- g5p10 -->
<g id="P_g5p10" class="node">
<title>g5p10</title>
<path fill="#fde7ef" stroke="#333333" d="M1248.5,-36C1248.5,-36 1177.5,-36 1177.5,-36 1171.5,-36 1165.5,-30 1165.5,-24 1165.5,-24 1165.5,-12 1165.5,-12 1165.5,-6 1171.5,0 1177.5,0 1177.5,0 1248.5,0 1248.5,0 1254.5,0 1260.5,-6 1260.5,-12 1260.5,-12 1260.5,-24 1260.5,-24 1260.5,-30 1254.5,-36 1248.5,-36"/>
<text text-anchor="middle" x="1213" y="-21" font-family="DejaVu Sans" font-size="10.00">Floria Gehringer</text>
<text text-anchor="middle" x="1213" y="-10" font-family="DejaVu Sans" font-size="10.00">*20.12.2007</text>
</g>
<!-- g5p09&#45;&gt;g5p10 -->
<!-- gehS01&#45;&gt;geh08 -->
<!-- gehS01&#45;&gt;M_gehF4 -->
<g id="edge3" class="edge">
<title>gehS01&#45;&gt;M_gehF4</title>
<path fill="none" stroke="#555555" d="M1312.88,-171.87C1304.18,-156.52 1292.24,-135.44 1284.11,-121.08"/>
</g>
<!-- g5p08 -->
<g id="P_g5p08" class="node">
<title>g5p08</title>
<path fill="#dbeafe" stroke="#333333" d="M1004,-36C1004,-36 934,-36 934,-36 928,-36 922,-30 922,-24 922,-24 922,-12 922,-12 922,-6 928,0 934,0 934,0 1004,0 1004,0 1010,0 1016,-6 1016,-12 1016,-12 1016,-24 1016,-24 1016,-30 1010,-36 1004,-36"/>
<text text-anchor="middle" x="969" y="-21" font-family="DejaVu Sans" font-size="10.00">Jacob Gehringer</text>
<text text-anchor="middle" x="969" y="-10" font-family="DejaVu Sans" font-size="10.00">*06.03.2003</text>
</g>
<!-- g5p08&#45;&gt;g5p09 -->
<!-- att38 -->
<g id="P_att38" class="node">
<title>att38</title>
<path fill="#fde7ef" stroke="#111111" stroke-width="1.8" d="M624,-567C624,-567 504,-567 504,-567 498,-567 492,-561 492,-555 492,-555 492,-538 492,-538 492,-532 498,-526 504,-526 504,-526 624,-526 624,-526 630,-526 636,-532 636,-538 636,-538 636,-555 636,-555 636,-561 630,-567 624,-567"/>
<text text-anchor="middle" x="564" y="-555" font-family="DejaVu Sans" font-size="10.00">Rosa (Rosi) Gehringer</text>
<text text-anchor="middle" x="564" y="-544" font-family="DejaVu Sans" font-size="10.00">geb. Polasek</text>
<text text-anchor="middle" x="564" y="-533" font-family="DejaVu Sans" font-size="10.00">*25.08.1914 &#160;+12.09.1996</text>
</g>
<!-- geh09 -->
<g id="P_geh09" class="node">
<title>geh09</title>
<path fill="#dbeafe" stroke="#333333" d="M800,-564.5C800,-564.5 680,-564.5 680,-564.5 674,-564.5 668,-558.5 668,-552.5 668,-552.5 668,-540.5 668,-540.5 668,-534.5 674,-528.5 680,-528.5 680,-528.5 800,-528.5 800,-528.5 806,-528.5 812,-534.5 812,-540.5 812,-540.5 812,-552.5 812,-552.5 812,-558.5 806,-564.5 800,-564.5"/>
<text text-anchor="middle" x="740" y="-549.5" font-family="DejaVu Sans" font-size="10.00">Karl Gehringer</text>
<text text-anchor="middle" x="740" y="-538.5" font-family="DejaVu Sans" font-size="10.00">*24.09.1910 &#160;+18.10.1975</text>
</g>
<!-- att38&#45;&gt;geh09 -->
<!-- M_gehF3 -->
<g id="M_gehF3" class="node">
<title>M_gehF3</title>
<ellipse fill="#fff3b0" stroke="#b08900" cx="652" cy="-458" rx="27" ry="18"/>
<text text-anchor="middle" x="652" y="-455.8" font-family="DejaVu Sans" font-size="9.00">oo</text>
</g>
<!-- att38&#45;&gt;M_gehF3 -->
<g id="edge9" class="edge">
<title>att38&#45;&gt;M_gehF3</title>
<path fill="none" stroke="#555555" d="M583.97,-525.87C600.2,-509.92 622.71,-487.79 637.32,-473.43"/>
</g>
<!-- g5p07&#45;&gt;geh08 -->
<!-- g5p07&#45;&gt;M_g5F4 -->
<g id="edge54" class="edge">
<title>g5p07&#45;&gt;M_g5F4</title>
<path fill="none" stroke="#555555" d="M1175.26,-174.41C1155.41,-158.06 1125.88,-133.73 1107.56,-118.64"/>
</g>
<!-- geh05&#45;&gt;g4p01 -->
<!-- geh05&#45;&gt;g4p01 -->
<!-- geh05&#45;&gt;g4p01 -->
<!-- g4p04 -->
<g id="P_g4p04" class="node">
<title>g4p04</title>
<path fill="#fde7ef" stroke="#333333" d="M92,-213C92,-213 12,-213 12,-213 6,-213 0,-207 0,-201 0,-201 0,-184 0,-184 0,-178 6,-172 12,-172 12,-172 92,-172 92,-172 98,-172 104,-178 104,-184 104,-184 104,-201 104,-201 104,-207 98,-213 92,-213"/>
<text text-anchor="middle" x="52" y="-201" font-family="DejaVu Sans" font-size="10.00">Eva Gehringer</text>
<text text-anchor="middle" x="52" y="-190" font-family="DejaVu Sans" font-size="10.00">geb. Wasserbauer</text>
<text text-anchor="middle" x="52" y="-179" font-family="DejaVu Sans" font-size="10.00">*01.05.1973</text>
</g>
<!-- geh05&#45;&gt;g4p04 -->
<!-- geh05&#45;&gt;g4p04 -->
<!-- geh05&#45;&gt;geh06 -->
<!-- M_g4F2 -->
<g id="M_g4F2" class="node">
<title>M_g4F2</title>
<ellipse fill="#fff3b0" stroke="#b08900" cx="85" cy="-104" rx="27" ry="18"/>
<text text-anchor="middle" x="85" y="-101.8" font-family="DejaVu Sans" font-size="9.00">oo</text>
</g>
<!-- geh05&#45;&gt;M_g4F2 -->
<g id="edge17" class="edge">
<title>geh05&#45;&gt;M_g4F2</title>
<path fill="none" stroke="#555555" d="M169.26,-174.41C149.41,-158.06 119.88,-133.73 101.56,-118.64"/>
</g>
<!-- geh05&#45;&gt;M_g4F1 -->
<g id="edge47" class="edge">
<title>geh05&#45;&gt;M_g4F1</title>
<path fill="none" stroke="#555555" d="M196.12,-174.41C201.59,-159.15 209.56,-136.92 214.99,-121.76"/>
</g>
<!-- g4p04&#45;&gt;geh05 -->
<!-- g4p04&#45;&gt;M_g4F2 -->
<g id="edge18" class="edge">
<title>g4p04&#45;&gt;M_g4F2</title>
<path fill="none" stroke="#555555" d="M59.49,-171.87C65.27,-156.72 73.18,-135.98 78.65,-121.64"/>
</g>
<!-- geh04 -->
<g id="P_geh04" class="node">
<title>geh04</title>
<path fill="#fde7ef" stroke="#333333" d="M944,-390C944,-390 856,-390 856,-390 850,-390 844,-384 844,-378 844,-378 844,-361 844,-361 844,-355 850,-349 856,-349 856,-349 944,-349 944,-349 950,-349 956,-355 956,-361 956,-361 956,-378 956,-378 956,-384 950,-390 944,-390"/>
<text text-anchor="middle" x="900" y="-378" font-family="DejaVu Sans" font-size="10.00">Michaela Gehringer</text>
<text text-anchor="middle" x="900" y="-367" font-family="DejaVu Sans" font-size="10.00">geb. Kaminski</text>
<text text-anchor="middle" x="900" y="-356" font-family="DejaVu Sans" font-size="10.00">*10.04.1944</text>
</g>
<!-- geh03&#45;&gt;geh04 -->
<!-- geh03&#45;&gt;geh04 -->
<!-- geh03&#45;&gt;geh04 -->
<!-- M_gehF2 -->
<g id="M_gehF2" class="node">
<title>M_gehF2</title>
<ellipse fill="#fff3b0" stroke="#b08900" cx="892" cy="-281" rx="27" ry="18"/>
<text text-anchor="middle" x="892" y="-278.8" font-family="DejaVu Sans" font-size="9.00">oo</text>
</g>
<!-- geh03&#45;&gt;M_gehF2 -->
<g id="edge30" class="edge">
<title>geh03&#45;&gt;M_gehF2</title>
<path fill="none" stroke="#555555" d="M770.03,-351.41C800.31,-334.18 846.19,-308.07 872.19,-293.27"/>
</g>
<!-- g4p06 -->
<g id="P_g4p06" class="node">
<title>g4p06</title>
<path fill="#dbeafe" stroke="#333333" d="M646,-210.5C646,-210.5 594,-210.5 594,-210.5 588,-210.5 582,-204.5 582,-198.5 582,-198.5 582,-186.5 582,-186.5 582,-180.5 588,-174.5 594,-174.5 594,-174.5 646,-174.5 646,-174.5 652,-174.5 658,-180.5 658,-186.5 658,-186.5 658,-198.5 658,-198.5 658,-204.5 652,-210.5 646,-210.5"/>
<text text-anchor="middle" x="620" y="-195.5" font-family="DejaVu Sans" font-size="10.00">Dirk Meyer</text>
<text text-anchor="middle" x="620" y="-184.5" font-family="DejaVu Sans" font-size="10.00">*17.04.1974</text>
</g>
<!-- g4p06&#45;&gt;geh06 -->
<!-- g4p06&#45;&gt;geh06 -->
<!-- g4p06&#45;&gt;geh06 -->
<!-- M_g4F3 -->
<g id="M_g4F3" class="node">
<title>M_g4F3</title>
<ellipse fill="#fff3b0" stroke="#b08900" cx="604" cy="-104" rx="27" ry="18"/>
<text text-anchor="middle" x="604" y="-101.8" font-family="DejaVu Sans" font-size="9.00">oo</text>
</g>
<!-- g4p06&#45;&gt;M_g4F3 -->
<g id="edge39" class="edge">
<title>g4p06&#45;&gt;M_g4F3</title>
<path fill="none" stroke="#555555" d="M616.84,-174.41C614.03,-159.25 609.96,-137.21 607.15,-122.05"/>
</g>
<!-- g5p04&#45;&gt;geh07 -->
<!-- g5p04&#45;&gt;geh08 -->
<!-- g5p04&#45;&gt;M_g5F2 -->
<g id="edge6" class="edge">
<title>g5p04&#45;&gt;M_g5F2</title>
<path fill="none" stroke="#555555" d="M765.04,-174.41C776.84,-158.95 794.08,-136.35 805.66,-121.18"/>
</g>
<!-- geh06&#45;&gt;g4p06 -->
<!-- geh06&#45;&gt;M_g4F3 -->
<g id="edge40" class="edge">
<title>geh06&#45;&gt;M_g4F3</title>
<path fill="none" stroke="#555555" d="M508.91,-171.87C532.58,-155.22 565.84,-131.84 586.1,-117.59"/>
</g>
<!-- geh04&#45;&gt;geh03 -->
<!-- geh04&#45;&gt;M_gehF2 -->
<g id="edge31" class="edge">
<title>geh04&#45;&gt;M_gehF2</title>
<path fill="none" stroke="#555555" d="M898.18,-348.87C896.8,-333.92 894.92,-313.53 893.59,-299.21"/>
</g>
<!-- g4p05 -->
<g id="P_g4p05" class="node">
<title>g4p05</title>
<path fill="#dbeafe" stroke="#333333" d="M118.5,-36C118.5,-36 51.5,-36 51.5,-36 45.5,-36 39.5,-30 39.5,-24 39.5,-24 39.5,-12 39.5,-12 39.5,-6 45.5,0 51.5,0 51.5,0 118.5,0 118.5,0 124.5,0 130.5,-6 130.5,-12 130.5,-12 130.5,-24 130.5,-24 130.5,-30 124.5,-36 118.5,-36"/>
<text text-anchor="middle" x="85" y="-21" font-family="DejaVu Sans" font-size="10.00">Felix Gehringer</text>
<text text-anchor="middle" x="85" y="-10" font-family="DejaVu Sans" font-size="10.00">*19.07.2005</text>
</g>
<!-- geh09&#45;&gt;att38 -->
<!-- geh09&#45;&gt;att38 -->
<!-- geh09&#45;&gt;M_gehF3 -->
<g id="edge8" class="edge">
<title>geh09&#45;&gt;M_gehF3</title>
<path fill="none" stroke="#555555" d="M722.61,-528.41C706.28,-512.36 682.12,-488.61 666.72,-473.47"/>
</g>
<!-- geh02&#45;&gt;geh01 -->
<!-- geh02&#45;&gt;geh03 -->
<!-- geh02&#45;&gt;M_gehF1 -->
<g id="edge22" class="edge">
<title>geh02&#45;&gt;M_gehF1</title>
<path fill="none" stroke="#555555" d="M402.07,-348.87C413.22,-333.32 428.58,-311.89 438.88,-297.52"/>
</g>
<!-- g4p02 -->
<g id="P_g4p02" class="node">
<title>g4p02</title>
<path fill="#fde7ef" stroke="#333333" d="M257,-36C257,-36 177,-36 177,-36 171,-36 165,-30 165,-24 165,-24 165,-12 165,-12 165,-6 171,0 177,0 177,0 257,0 257,0 263,0 269,-6 269,-12 269,-12 269,-24 269,-24 269,-30 263,-36 257,-36"/>
<text text-anchor="middle" x="217" y="-21" font-family="DejaVu Sans" font-size="10.00">Yvonne Gehringer</text>
<text text-anchor="middle" x="217" y="-10" font-family="DejaVu Sans" font-size="10.00">*18.01.1995</text>
</g>
<!-- g4p02&#45;&gt;g4p03 -->
<!-- g4p07 -->
<g id="P_g4p07" class="node">
<title>g4p07</title>
<path fill="#fde7ef" stroke="#333333" d="M521.5,-36C521.5,-36 468.5,-36 468.5,-36 462.5,-36 456.5,-30 456.5,-24 456.5,-24 456.5,-12 456.5,-12 456.5,-6 462.5,0 468.5,0 468.5,0 521.5,0 521.5,0 527.5,0 533.5,-6 533.5,-12 533.5,-12 533.5,-24 533.5,-24 533.5,-30 527.5,-36 521.5,-36"/>
<text text-anchor="middle" x="495" y="-21" font-family="DejaVu Sans" font-size="10.00">Laura Meyer</text>
<text text-anchor="middle" x="495" y="-10" font-family="DejaVu Sans" font-size="10.00">*06.09.2001</text>
</g>
<!-- g4p07&#45;&gt;g4p08 -->
<!-- M_gehF3&#45;&gt;geh01 -->
<g id="edge10" class="edge">
<title>M_gehF3&#45;&gt;geh01</title>
<path fill="none" stroke="#555555" d="M637.47,-442.72C624.3,-429.77 604.6,-410.41 588.92,-394.99"/>
<polygon fill="#555555" stroke="#555555" points="591.17,-392.3 581.59,-387.79 586.26,-397.29 591.17,-392.3"/>
</g>
<!-- M_gehF3&#45;&gt;geh03 -->
<g id="edge11" class="edge">
<title>M_gehF3&#45;&gt;geh03</title>
<path fill="none" stroke="#555555" d="M666.53,-442.72C679.7,-429.77 699.4,-410.41 715.08,-394.99"/>
<polygon fill="#555555" stroke="#555555" points="717.74,-397.29 722.41,-387.79 712.83,-392.3 717.74,-397.29"/>
</g>
<!-- M_g4F2&#45;&gt;g4p05 -->
<g id="edge19" class="edge">
<title>M_g4F2&#45;&gt;g4p05</title>
<path fill="none" stroke="#555555" d="M85,-85.6C85,-74.26 85,-59.23 85,-46.32"/>
<polygon fill="#555555" stroke="#555555" points="88.5,-46.1 85,-36.1 81.5,-46.1 88.5,-46.1"/>
</g>
<!-- M_gehF1&#45;&gt;geh05 -->
<g id="edge23" class="edge">
<title>M_gehF1&#45;&gt;geh05</title>
<path fill="none" stroke="#555555" d="M426.47,-272.17C387.2,-259.11 307.1,-232.46 251.06,-213.81"/>
<polygon fill="#555555" stroke="#555555" points="251.83,-210.38 241.24,-210.55 249.62,-217.02 251.83,-210.38"/>
</g>
<!-- M_gehF1&#45;&gt;geh06 -->
<g id="edge24" class="edge">
<title>M_gehF1&#45;&gt;geh06</title>
<path fill="none" stroke="#555555" d="M455.98,-263.32C460.11,-251.79 465.72,-236.13 470.58,-222.57"/>
<polygon fill="#555555" stroke="#555555" points="473.88,-223.75 473.96,-213.16 467.29,-221.39 473.88,-223.75"/>
</g>
<!-- M_gehF2&#45;&gt;geh07 -->
<g id="edge32" class="edge">
<title>M_gehF2&#45;&gt;geh07</title>
<path fill="none" stroke="#555555" d="M890.42,-262.91C889.3,-250.83 887.78,-234.38 886.5,-220.53"/>
<polygon fill="#555555" stroke="#555555" points="889.98,-220.19 885.58,-210.55 883.01,-220.83 889.98,-220.19"/>
</g>
<!-- M_gehF2&#45;&gt;geh08 -->
<g id="edge33" class="edge">
<title>M_gehF2&#45;&gt;geh08</title>
<path fill="none" stroke="#555555" d="M911.92,-268.51C935.25,-255.06 974.42,-232.47 1003.69,-215.59"/>
<polygon fill="#555555" stroke="#555555" points="1005.52,-218.58 1012.43,-210.55 1002.02,-212.51 1005.52,-218.58"/>
</g>
<!-- M_g4F3&#45;&gt;g4p08 -->
<g id="edge42" class="edge">
<title>M_g4F3&#45;&gt;g4p08</title>
<path fill="none" stroke="#555555" d="M604,-85.6C604,-74.26 604,-59.23 604,-46.32"/>
<polygon fill="#555555" stroke="#555555" points="607.5,-46.1 604,-36.1 600.5,-46.1 607.5,-46.1"/>
</g>
<!-- M_g4F3&#45;&gt;g4p09 -->
<g id="edge43" class="edge">
<title>M_g4F3&#45;&gt;g4p09</title>
<path fill="none" stroke="#555555" d="M621.03,-89.88C637.48,-77.2 662.76,-57.72 682.66,-42.38"/>
<polygon fill="#555555" stroke="#555555" points="685.03,-44.98 690.81,-36.1 680.75,-39.43 685.03,-44.98"/>
</g>
<!-- M_g4F3&#45;&gt;g4p07 -->
<g id="edge41" class="edge">
<title>M_g4F3&#45;&gt;g4p07</title>
<path fill="none" stroke="#555555" d="M586.97,-89.88C570.52,-77.2 545.24,-57.72 525.34,-42.38"/>
<polygon fill="#555555" stroke="#555555" points="527.25,-39.43 517.19,-36.1 522.97,-44.98 527.25,-39.43"/>
</g>
<!-- M_g4F1&#45;&gt;g4p03 -->
<g id="edge50" class="edge">
<title>M_g4F1&#45;&gt;g4p03</title>
<path fill="none" stroke="#555555" d="M239.91,-91.14C260.44,-78.28 293.68,-57.44 319.17,-41.46"/>
<polygon fill="#555555" stroke="#555555" points="321.22,-44.31 327.83,-36.03 317.5,-38.38 321.22,-44.31"/>
</g>
<!-- M_g4F1&#45;&gt;g4p02 -->
<g id="edge49" class="edge">
<title>M_g4F1&#45;&gt;g4p02</title>
<path fill="none" stroke="#555555" d="M220.19,-86C219.65,-74.69 218.93,-59.58 218.31,-46.57"/>
<polygon fill="#555555" stroke="#555555" points="221.79,-46.08 217.82,-36.26 214.8,-46.42 221.79,-46.08"/>
</g>
<!-- M_g5F4&#45;&gt;g5p09 -->
<g id="edge56" class="edge">
<title>M_g5F4&#45;&gt;g5p09</title>
<path fill="none" stroke="#555555" d="M1091,-85.6C1091,-74.26 1091,-59.23 1091,-46.32"/>
<polygon fill="#555555" stroke="#555555" points="1094.5,-46.1 1091,-36.1 1087.5,-46.1 1094.5,-46.1"/>
</g>
<!-- M_g5F4&#45;&gt;g5p08 -->
<g id="edge55" class="edge">
<title>M_g5F4&#45;&gt;g5p08</title>
<path fill="none" stroke="#555555" d="M1072.74,-90.42C1054.11,-77.6 1024.8,-57.42 1002.08,-41.78"/>
<polygon fill="#555555" stroke="#555555" points="1003.95,-38.82 993.73,-36.03 999.98,-44.58 1003.95,-38.82"/>
</g>
<!-- M_g5F4&#45;&gt;g5p10 -->
<g id="edge57" class="edge">
<title>M_g5F4&#45;&gt;g5p10</title>
<path fill="none" stroke="#555555" d="M1109.26,-90.42C1127.89,-77.6 1157.2,-57.42 1179.92,-41.78"/>
<polygon fill="#555555" stroke="#555555" points="1182.02,-44.58 1188.27,-36.03 1178.05,-38.82 1182.02,-44.58"/>
</g>
</g>
</svg>
