<?xml version="1.0" encoding="UTF-8" standalone="no"?>
<!DOCTYPE svg PUBLIC "-//W3C//DTD SVG 1.1//EN"
 "http://www.w3.org/Graphics/SVG/1.1/DTD/svg11.dtd">
<!-- Generated by graphviz version 2.43.0 (0)
 -->
<!-- Title: %3 Pages: 1 -->
<svg width="1367pt" height="596pt"
 viewBox="0.00 0.00 1367.00 596.00" xmlns="http://www.w3.org/2000/svg" xmlns:xlink="http://www.w3.org/1999/xlink">
<style><![CDATA[
  g[id^="P_"], g[id^="M_"] { cursor: pointer; }
  .highlight ellipse, .highlight polygon, .highlight path, .highlight rect {
    stroke: #d00; stroke-width: 2.5;
  }
  @keyframes pulse { 0%,100%{opacity:1} 50%{opacity:.45} }
  .blink { animation: pulse 0.9s ease-in-out 3; }
]]></style>
<script><![CDATA[
(function(){
  var SPOUSE = {"P_geh01": ["P_geh02"], "P_geh02": ["P_geh01"], "P_geh08": ["P_g5p07", "P_gehS01"], "P_g5p07": ["P_geh08"], "P_g4p06": ["P_geh06"], "P_geh06": ["P_g4p06"], "P_geh07": ["P_g5p04"], "P_g5p04": ["P_geh07"], "P_geh05": ["P_g4p01", "P_g4p04"], "P_g4p01": ["P_geh05"], "P_geh03": ["P_geh04"], "P_geh04": ["P_geh03"], "P_g4p04": ["P_geh05"], "P_gehS01": ["P_geh08"], "P_geh09": ["P_att38"], "P_att38": ["P_geh09"]};
  var FAMILY = {"M_gehF1": ["P_geh01", "P_geh02", "P_geh05", "P_geh06"], "M_g5F4": ["P_geh08", "P_g5p07", "P_g5p08", "P_g5p09", "P_g5p10"], "M_g4F3": ["P_g4p06", "P_geh06", "P_g4p07", "P_g4p08", "P_g4p09"], "M_g5F2": ["P_geh07", "P_g5p04"], "M_g4F1": ["P_geh05", "P_g4p01", "P_g4p02", "P_g4p03"], "M_gehF2": ["P_geh03", "P_geh04", "P_geh07", "P_geh08"], "M_g4F2": ["P_geh05", "P_g4p04", "P_g4p05"], "M_gehF4": ["P_geh08", "P_gehS01"], "M_gehF3": ["P_geh09", "P_att38", "P_geh01", "P_geh03"]};
  function clearHl(){ document.querySelectorAll('.blink').forEach(function(n){ n.classList.remove('blink'); n.classList.remove('highlight'); }); }
  function hl(id){ var el=document.getElementById(id); if(el){ el.classList.add('highlight'); el.classList.add('blink'); } }
  document.addEventListener('click', function(evt){
    var target = evt.target;
    var g = target.closest && target.closest('g[id^="P_"], g[id^="M_"]');
    if (!g) { while (target) { if (target.id && /^([PM]_)/.test(target.id) && target.tagName && target.tagName.toLowerCase() === 'g') { g = target; break; } target = target.parentNode; } }
    if (!g) return;
    var id = g.id; clearHl();
    if (/^P_/.test(id)) { (SPOUSE[id] || []).forEach(hl); }
    else if (/^M_/.test(id)) { hl(id); (FAMILY[id] || []).forEach(hl); }
  }, false);
})();
]]></script>

<g id="graph0" class="graph" transform="scale(1 1) rotate(0) translate(4 592)">
<title>%3</title>
<polygon fill="white" stroke="transparent" points="-4,4 -4,-592 1363,-592 1363,4 -4,4"/>
<text text-anchor="middle" x="679.5" y="-574.4" font-family="DejaVu Sans" font-size="12.00">Rosi</text>
<!-- att38 -->
<g id="P_att38" class="node">
<title>att38</title>
<path fill="#fde7ef" stroke="#111111" stroke-width="1.8" d="M494.5,-567C494.5,-567 374.5,-567 374.5,-567 368.5,-567 362.5,-561 362.5,-555 362.5,-555 362.5,-538 362.5,-538 362.5,-532 368.5,-526 374.5,-526 374.5,-526 494.5,-526 494.5,-526 500.5,-526 506.5,-532 506.5,-538 506.5,-538 506.5,-555 506.5,-555 506.5,-561 500.5,-567 494.5,-567"/>
<text text-anchor="middle" x="434.5" y="-555" font-family="DejaVu Sans" font-size="10.00">Rosa (Rosi) Gehringer</text>
<text text-anchor="middle" x="434.5" y="-544" font-family="DejaVu Sans" font-size="10.00">geb. Polasek</text>
<text text-anchor="middle" x="434.5" y="-533" font-family="DejaVu Sans" font-size="10.00">*25.08.1914 &#160;+12.09.1996</text>
</g>
<!-- geh09 -->
<g id="P_geh09" class="node">
<title>geh09</title>
<path fill="#dbeafe" stroke="#333333" d="M670.5,-564.5C670.5,-564.5 550.5,-564.5 550.5,-564.5 544.5,-564.5 538.5,-558.5 538.5,-552.5 538.5,-552.5 538.5,-540.5 538.5,-540.5 538.5,-534.5 544.5,-528.5 550.5,-528.5 550.5,-528.5 670.5,-528.5 670.5,-528.5 676.5,-528.5 682.5,-534.5 682.5,-540.5 682.5,-540.5 682.5,-552.5 682.5,-552.5 682.5,-558.5 676.5,-564.5 670.5,-564.5"/>
<text text-anchor="middle" x="610.5" y="-549.5" font-family="DejaVu Sans" font-size="10.00">Karl Gehringer</text>
<text text-anchor="middle" x="610.5" y="-538.5" font-family="DejaVu Sans" font-size="10.00">*24.09.1910 &#160;+18.10.1975</text>
</g>
<!-- att38&#45;&gt;geh09 -->
<!-- M_gehF3 -->
<g id="M_gehF3" class="node">
<title>M_gehF3</title>
<ellipse fill="#fff3b0" stroke="#b08900" cx="522.5" cy="-458" rx="27" ry="18"/>
<text text-anchor="middle" x="522.5" y="-455.8" font-family="DejaVu Sans" font-size="9.00">oo</text>
</g>
<!-- att38&#45;&gt;M_gehF3 -->
<g id="edge53" class="edge">
<title>att38&#45;&gt;M_gehF3</title>
<path fill="none" stroke="#555555" d="M454.47,-525.87C470.7,-509.92 493.21,-487.79 507.82,-473.43"/>
</g>
<!-- g4p08 -->
<g id="P_g4p08" class="node">
<title>g4p08</title>
<path fill="#fde7ef" stroke="#333333" d="M1237.5,-36C1237.5,-36 1185.5,-36 1185.5,-36 1179.5,-36 1173.5,-30 1173.5,-24 1173.5,-24 1173.5,-12 1173.5,-12 1173.5,-6 1179.5,0 1185.5,0 1185.5,0 1237.5,0 1237.5,0 1243.5,0 1249.5,-6 1249.5,-12 1249.5,-12 1249.5,-24 1249.5,-24 1249.5,-30 1243.5,-36 1237.5,-36"/>
<text text-anchor="middle" x="1211.5" y="-21" font-family="DejaVu Sans" font-size="10.00">Nora Meyer</text>
<text text-anchor="middle" x="1211.5" y="-10" font-family="DejaVu Sans" font-size="10.00">*07.06.2003</text>
</g>
<!-- g4p09 -->
<g id="P_g4p09" class="node">
<title>g4p09</title>
<path fill="#fde7ef" stroke="#333333" d="M1347,-36C1347,-36 1294,-36 1294,-36 1288,-36 1282,-30 1282,-24 1282,-24 1282,-12 1282,-12 1282,-6 1288,0 1294,0 1294,0 1347,0 1347,0 1353,0 1359,-6 1359,-12 1359,-12 1359,-24 1359,-24 1359,-30 1353,-36 1347,-36"/>
<text text-anchor="middle" x="1320.5" y="-21" font-family="DejaVu Sans" font-size="10.00">Tessa Meyer</text>
<text text-anchor="middle" x="1320.5" y="-10" font-family="DejaVu Sans" font-size="10.00">*27.03.2009</text>
</g>
<!-- g4p08&#45;&gt;g4p09 -->
<!-- geh04 -->
<g id="P_geh04" class="node">
<title>geh04</title>
<path fill="#fde7ef" stroke="#333333" d="M902.5,-390C902.5,-390 814.5,-390 814.5,-390 808.5,-390 802.5,-384 802.5,-378 802.5,-378 802.5,-361 802.5,-361 802.5,-355 808.5,-349 814.5,-349 814.5,-349 902.5,-349 902.5,-349 908.5,-349 914.5,-355 914.5,-361 914.5,-361 914.5,-378 914.5,-378 914.5,-384 908.5,-390 902.5,-390"/>
<text text-anchor="middle" x="858.5" y="-378" font-family="DejaVu Sans" font-size="10.00">Michaela Gehringer</text>
<text text-anchor="middle" x="858.5" y="-367" font-family="DejaVu Sans" font-size="10.00">geb. Kaminski</text>
<text text-anchor="middle" x="858.5" y="-356" font-family="DejaVu Sans" font-size="10.00">*10.04.1944</text>
</g>
<!-- geh03 -->
<g id="P_geh03" class="node">
<title>geh03</title>
<path fill="#dbeafe" stroke="#333333" d="M758.5,-387.5C758.5,-387.5 638.5,-387.5 638.5,-387.5 632.5,-387.5 626.5,-381.5 626.5,-375.5 626.5,-375.5 626.5,-363.5 626.5,-363.5 626.5,-357.5 632.5,-351.5 638.5,-351.5 638.5,-351.5 758.5,-351.5 758.5,-351.5 764.5,-351.5 770.5,-357.5 770.5,-363.5 770.5,-363.5 770.5,-375.5 770.5,-375.5 770.5,-381.5 764.5,-387.5 758.5,-387.5"/>
<text text-anchor="middle" x="698.5" y="-372.5" font-family="DejaVu Sans" font-size="10.00">Rolf Gehringer</text>
<text text-anchor="middle" x="698.5" y="-361.5" font-family="DejaVu Sans" font-size="10.00">*23.04.1944 &#160;+26.06.2020</text>
</g>
<!-- geh04&#45;&gt;geh03 -->
<!-- M_gehF2 -->
<g id="M_gehF2" class="node">
<title>M_gehF2</title>
<ellipse fill="#fff3b0" stroke="#b08900" cx="698.5" cy="-281" rx="40.98" ry="18"/>
<text text-anchor="middle" x="698.5" y="-278.8" font-family="DejaVu Sans" font-size="9.00">09.09.1966</text>
</g>
<!-- geh04&#45;&gt;M_gehF2 -->
<g id="edge37" class="edge">
<title>geh04&#45;&gt;M_gehF2</title>
<path fill="none" stroke="#555555" d="M822.19,-348.87C791.95,-332.52 749.69,-309.68 723.23,-295.37"/>
</g>
<!-- g4p04 -->
<g id="P_g4p04" class="node">
<title>g4p04</title>
<path fill="#fde7ef" stroke="#333333" d="M1063.5,-213C1063.5,-213 983.5,-213 983.5,-213 977.5,-213 971.5,-207 971.5,-201 971.5,-201 971.5,-184 971.5,-184 971.5,-178 977.5,-172 983.5,-172 983.5,-172 1063.5,-172 1063.5,-172 1069.5,-172 1075.5,-178 1075.5,-184 1075.5,-184 1075.5,-201 1075.5,-201 1075.5,-207 1069.5,-213 1063.5,-213"/>
<text text-anchor="middle" x="1023.5" y="-201" font-family="DejaVu Sans" font-size="10.00">Eva Gehringer</text>
<text text-anchor="middle" x="1023.5" y="-190" font-family="DejaVu Sans" font-size="10.00">geb. Wasserbauer</text>
<text text-anchor="middle" x="1023.5" y="-179" font-family="DejaVu Sans" font-size="10.00">*01.05.1973</text>
</g>
<!-- geh05 -->
<g id="P_geh05" class="node">
<title>geh05</title>
<path fill="#dbeafe" stroke="#333333" d="M927,-210.5C927,-210.5 844,-210.5 844,-210.5 838,-210.5 832,-204.5 832,-198.5 832,-198.5 832,-186.5 832,-186.5 832,-180.5 838,-174.5 844,-174.5 844,-174.5 927,-174.5 927,-174.5 933,-174.5 939,-180.5 939,-186.5 939,-186.5 939,-198.5 939,-198.5 939,-204.5 933,-210.5 927,-210.5"/>
<text text-anchor="middle" x="885.5" y="-195.5" font-family="DejaVu Sans" font-size="10.00">Thomas Gehringer</text>
<text text-anchor="middle" x="885.5" y="-184.5" font-family="DejaVu Sans" font-size="10.00">*18.06.1966</text>
</g>
<!-- g4p04&#45;&gt;geh05 -->
<!-- M_g4F2 -->
<g id="M_g4F2" class="node">
<title>M_g4F2</title>
<ellipse fill="#fff3b0" stroke="#b08900" cx="984.5" cy="-104" rx="27" ry="18"/>
<text text-anchor="middle" x="984.5" y="-101.8" font-family="DejaVu Sans" font-size="9.00">oo</text>
</g>
<!-- g4p04&#45;&gt;M_g4F2 -->
<g id="edge46" class="edge">
<title>g4p04&#45;&gt;M_g4F2</title>
<path fill="none" stroke="#555555" d="M1014.65,-171.87C1007.77,-156.62 998.35,-135.71 991.87,-121.36"/>
</g>
<!-- geh07 -->
<g id="P_geh07" class="node">
<title>geh07</title>
<path fill="#dbeafe" stroke="#333333" d="M95,-210.5C95,-210.5 12,-210.5 12,-210.5 6,-210.5 0,-204.5 0,-198.5 0,-198.5 0,-186.5 0,-186.5 0,-180.5 6,-174.5 12,-174.5 12,-174.5 95,-174.5 95,-174.5 101,-174.5 107,-180.5 107,-186.5 107,-186.5 107,-198.5 107,-198.5 107,-204.5 101,-210.5 95,-210.5"/>
<text text-anchor="middle" x="53.5" y="-195.5" font-family="DejaVu Sans" font-size="10.00">Andreas Gehringer</text>
<text text-anchor="middle" x="53.5" y="-184.5" font-family="DejaVu Sans" font-size="10.00">*28.06.1966</text>
</g>
<!-- geh08 -->
<g id="P_geh08" class="node">
<title>geh08</title>
<path fill="#dbeafe" stroke="#333333" d="M395.5,-210.5C395.5,-210.5 275.5,-210.5 275.5,-210.5 269.5,-210.5 263.5,-204.5 263.5,-198.5 263.5,-198.5 263.5,-186.5 263.5,-186.5 263.5,-180.5 269.5,-174.5 275.5,-174.5 275.5,-174.5 395.5,-174.5 395.5,-174.5 401.5,-174.5 407.5,-180.5 407.5,-186.5 407.5,-186.5 407.5,-198.5 407.5,-198.5 407.5,-204.5 401.5,-210.5 395.5,-210.5"/>
<text text-anchor="middle" x="335.5" y="-195.5" font-family="DejaVu Sans" font-size="10.00">Raoul Gehringer</text>
<text text-anchor="middle" x="335.5" y="-184.5" font-family="DejaVu Sans" font-size="10.00">*18.08.1971 &#160;+19.03.2018</text>
</g>
<!-- geh07&#45;&gt;geh08 -->
<!-- g5p04 -->
<g id="P_g5p04" class="node">
<title>g5p04</title>
<path fill="#fde7ef" stroke="#333333" d="M219.5,-210.5C219.5,-210.5 151.5,-210.5 151.5,-210.5 145.5,-210.5 139.5,-204.5 139.5,-198.5 139.5,-198.5 139.5,-186.5 139.5,-186.5 139.5,-180.5 145.5,-174.5 151.5,-174.5 151.5,-174.5 219.5,-174.5 219.5,-174.5 225.5,-174.5 231.5,-180.5 231.5,-186.5 231.5,-186.5 231.5,-198.5 231.5,-198.5 231.5,-204.5 225.5,-210.5 219.5,-210.5"/>
<text text-anchor="middle" x="185.5" y="-195.5" font-family="DejaVu Sans" font-size="10.00">Daniela Niehoff</text>
<text text-anchor="middle" x="185.5" y="-184.5" font-family="DejaVu Sans" font-size="10.00">*20.07.1969</text>
</g>
<!-- geh07&#45;&gt;g5p04 -->
<!-- geh07&#45;&gt;g5p04 -->
<!-- geh07&#45;&gt;g5p04 -->
<!-- M_g5F2 -->
<g id="M_g5F2" class="node">
<title>M_g5F2</title>
<ellipse fill="#fff3b0" stroke="#b08900" cx="119.5" cy="-104" rx="40.98" ry="18"/>
<text text-anchor="middle" x="119.5" y="-101.8" font-family="DejaVu Sans" font-size="9.00">28.06.2016</text>
</g>
<!-- geh07&#45;&gt;M_g5F2 -->
<g id="edge27" class="edge">
<title>geh07&#45;&gt;M_g5F2</title>
<path fill="none" stroke="#555555" d="M66.54,-174.41C78.34,-158.95 95.58,-136.35 107.16,-121.18"/>
</g>
<!-- g4p06 -->
<g id="P_g4p06" class="node">
<title>g4p06</title>
<path fill="#dbeafe" stroke="#333333" d="M1341.5,-210.5C1341.5,-210.5 1289.5,-210.5 1289.5,-210.5 1283.5,-210.5 1277.5,-204.5 1277.5,-198.5 1277.5,-198.5 1277.5,-186.5 1277.5,-186.5 1277.5,-180.5 1283.5,-174.5 1289.5,-174.5 1289.5,-174.5 1341.5,-174.5 1341.5,-174.5 1347.5,-174.5 1353.5,-180.5 1353.5,-186.5 1353.5,-186.5 1353.5,-198.5 1353.5,-198.5 1353.5,-204.5 1347.5,-210.5 1341.5,-210.5"/>
<text text-anchor="middle" x="1315.5" y="-195.5" font-family="DejaVu Sans" font-size="10.00">Dirk Meyer</text>
<text text-anchor="middle" x="1315.5" y="-184.5" font-family="DejaVu Sans" font-size="10.00">*17.04.1974</text>
</g>
<!-- geh06 -->
<g id="P_geh06" class="node">
<title>geh06</title>
<path fill="#fde7ef" stroke="#333333" d="M1233.5,-213C1233.5,-213 1119.5,-213 1119.5,-213 1113.5,-213 1107.5,-207 1107.5,-201 1107.5,-201 1107.5,-184 1107.5,-184 1107.5,-178 1113.5,-172 1119.5,-172 1119.5,-172 1233.5,-172 1233.5,-172 1239.5,-172 1245.5,-178 1245.5,-184 1245.5,-184 1245.5,-201 1245.5,-201 1245.5,-207 1239.5,-213 1233.5,-213"/>
<text text-anchor="middle" x="1176.5" y="-201" font-family="DejaVu Sans" font-size="10.00">Patricia Meyer&#45;Gehringer</text>
<text text-anchor="middle" x="1176.5" y="-190" font-family="DejaVu Sans" font-size="10.00">geb. Gehringer</text>
<text text-anchor="middle" x="1176.5" y="-179" font-family="DejaVu Sans" font-size="10.00">*02.08.1974</text>
</g>
<!-- g4p06&#45;&gt;geh06 -->
<!-- g4p06&#45;&gt;geh06 -->
<!-- g4p06&#45;&gt;geh06 -->
<!-- M_g4F3 -->
<g id="M_g4F3" class="node">
<title>M_g4F3</title>
<ellipse fill="#fff3b0" stroke="#b08900" cx="1211.5" cy="-104" rx="27" ry="18"/>
<text text-anchor="middle" x="1211.5" y="-101.8" font-family="DejaVu Sans" font-size="9.00">oo</text>
</g>
<!-- g4p06&#45;&gt;M_g4F3 -->
<g id="edge19" class="edge">
<title>g4p06&#45;&gt;M_g4F3</title>
<path fill="none" stroke="#555555" d="M1294.95,-174.41C1275.3,-158.06 1246.04,-133.73 1227.9,-118.64"/>
</g>
<!-- geh06&#45;&gt;g4p06 -->
<!-- geh06&#45;&gt;M_g4F3 -->
<g id="edge20" class="edge">
<title>geh06&#45;&gt;M_g4F3</title>
<path fill="none" stroke="#555555" d="M1184.44,-171.87C1190.57,-156.72 1198.96,-135.98 1204.77,-121.64"/>
</g>
<!-- geh02 -->
<g id="P_geh02" class="node">
<title>geh02</title>
<path fill="#fde7ef" stroke="#333333" d="M582.5,-390C582.5,-390 462.5,-390 462.5,-390 456.5,-390 450.5,-384 450.5,-378 450.5,-378 450.5,-361 450.5,-361 450.5,-355 456.5,-349 462.5,-349 462.5,-349 582.5,-349 582.5,-349 588.5,-349 594.5,-355 594.5,-361 594.5,-361 594.5,-378 594.5,-378 594.5,-384 588.5,-390 582.5,-390"/>
<text text-anchor="middle" x="522.5" y="-378" font-family="DejaVu Sans" font-size="10.00">Annemarie Gehringer</text>
<text text-anchor="middle" x="522.5" y="-367" font-family="DejaVu Sans" font-size="10.00">geb. Hermanek</text>
<text text-anchor="middle" x="522.5" y="-356" font-family="DejaVu Sans" font-size="10.00">*27.08.1944 &#160;+10.06.2014</text>
</g>
<!-- geh02&#45;&gt;geh03 -->
<!-- geh01 -->
<g id="P_geh01" class="node">
<title>geh01</title>
<path fill="#dbeafe" stroke="#333333" d="M406.5,-387.5C406.5,-387.5 286.5,-387.5 286.5,-387.5 280.5,-387.5 274.5,-381.5 274.5,-375.5 274.5,-375.5 274.5,-363.5 274.5,-363.5 274.5,-357.5 280.5,-351.5 286.5,-351.5 286.5,-351.5 406.5,-351.5 406.5,-351.5 412.5,-351.5 418.5,-357.5 418.5,-363.5 418.5,-363.5 418.5,-375.5 418.5,-375.5 418.5,-381.5 412.5,-387.5 406.5,-387.5"/>
<text text-anchor="middle" x="346.5" y="-372.5" font-family="DejaVu Sans" font-size="10.00">Horst Gehringer</text>
<text text-anchor="middle" x="346.5" y="-361.5" font-family="DejaVu Sans" font-size="10.00">*12.01.1941 &#160;+08.09.2008</text>
</g>
<!-- geh02&#45;&gt;geh01 -->
<!-- M_gehF1 -->
<g id="M_gehF1" class="node">
<title>M_gehF1</title>
<ellipse fill="#fff3b0" stroke="#b08900" cx="522.5" cy="-281" rx="27" ry="18"/>
<text text-anchor="middle" x="522.5" y="-278.8" font-family="DejaVu Sans" font-size="9.00">oo</text>
</g>
<!-- geh02&#45;&gt;M_gehF1 -->
<g id="edge3" class="edge">
<title>geh02&#45;&gt;M_gehF1</title>
<path fill="none" stroke="#555555" d="M522.5,-348.87C522.5,-333.92 522.5,-313.53 522.5,-299.21"/>
</g>
<!-- g5p07 -->
<g id="P_g5p07" class="node">
<title>g5p07</title>
<path fill="#fde7ef" stroke="#333333" d="M651,-210.5C651,-210.5 576,-210.5 576,-210.5 570,-210.5 564,-204.5 564,-198.5 564,-198.5 564,-186.5 564,-186.5 564,-180.5 570,-174.5 576,-174.5 576,-174.5 651,-174.5 651,-174.5 657,-174.5 663,-180.5 663,-186.5 663,-186.5 663,-198.5 663,-198.5 663,-204.5 657,-210.5 651,-210.5"/>
<text text-anchor="middle" x="613.5" y="-195.5" font-family="DejaVu Sans" font-size="10.00">Ulrike De_Bortoli</text>
<text text-anchor="middle" x="613.5" y="-184.5" font-family="DejaVu Sans" font-size="10.00">*25.11.1967</text>
</g>
<!-- geh08&#45;&gt;g5p07 -->
<!-- geh08&#45;&gt;g5p07 -->
<!-- gehS01 -->
<g id="P_gehS01" class="node">
<title>gehS01</title>
<path fill="#fde7ef" stroke="#333333" d="M519.5,-213C519.5,-213 451.5,-213 451.5,-213 445.5,-213 439.5,-207 439.5,-201 439.5,-201 439.5,-184 439.5,-184 439.5,-178 445.5,-172 451.5,-172 451.5,-172 519.5,-172 519.5,-172 525.5,-172 531.5,-178 531.5,-184 531.5,-184 531.5,-201 531.5,-201 531.5,-207 525.5,-213 519.5,-213"/>
<text text-anchor="middle" x="485.5" y="-201" font-family="DejaVu Sans" font-size="10.00">Edith Gehringer</text>
<text text-anchor="middle" x="485.5" y="-190" font-family="DejaVu Sans" font-size="10.00">geb. Schmölz</text>
<text text-anchor="middle" x="485.5" y="-179" font-family="DejaVu Sans" font-size="10.00">*23.02.1970</text>
</g>
<!-- geh08&#45;&gt;gehS01 -->
<!-- geh08&#45;&gt;gehS01 -->
<!-- geh08&#45;&gt;gehS01 -->
<!-- M_g5F4 -->
<g id="M_g5F4" class="node">
<title>M_g5F4</title>
<ellipse fill="#fff3b0" stroke="#b08900" cx="422.5" cy="-104" rx="27" ry="18"/>
<text text-anchor="middle" x="422.5" y="-101.8" font-family="DejaVu Sans" font-size="9.00">oo</text>
</g>
<!-- geh08&#45;&gt;M_g5F4 -->
<g id="edge11" class="edge">
<title>geh08&#45;&gt;M_g5F4</title>
<path fill="none" stroke="#555555" d="M352.69,-174.41C368.83,-158.36 392.72,-134.61 407.95,-119.47"/>
</g>
<!-- M_gehF4 -->
<g id="M_gehF4" class="node">
<title>M_gehF4</title>
<ellipse fill="#fff3b0" stroke="#b08900" cx="335.5" cy="-104" rx="27" ry="18"/>
<text text-anchor="middle" x="335.5" y="-101.8" font-family="DejaVu Sans" font-size="9.00">oo</text>
</g>
<!-- geh08&#45;&gt;M_gehF4 -->
<g id="edge49" class="edge">
<title>geh08&#45;&gt;M_gehF4</title>
<path fill="none" stroke="#555555" d="M335.5,-174.41C335.5,-159.25 335.5,-137.21 335.5,-122.05"/>
</g>
<!-- g5p10 -->
<g id="P_g5p10" class="node">
<title>g5p10</title>
<path fill="#fde7ef" stroke="#333333" d="M580,-36C580,-36 509,-36 509,-36 503,-36 497,-30 497,-24 497,-24 497,-12 497,-12 497,-6 503,0 509,0 509,0 580,0 580,0 586,0 592,-6 592,-12 592,-12 592,-24 592,-24 592,-30 586,-36 580,-36"/>
<text text-anchor="middle" x="544.5" y="-21" font-family="DejaVu Sans" font-size="10.00">Floria Gehringer</text>
<text text-anchor="middle" x="544.5" y="-10" font-family="DejaVu Sans" font-size="10.00">*20.12.2007</text>
</g>
<!-- g5p07&#45;&gt;geh08 -->
<!-- g5p07&#45;&gt;M_g5F4 -->
<g id="edge12" class="edge">
<title>g5p07&#45;&gt;M_g5F4</title>
<path fill="none" stroke="#555555" d="M575.76,-174.41C536.41,-156.59 476.09,-129.27 444.12,-114.79"/>
</g>
<!-- g4p02 -->
<g id="P_g4p02" class="node">
<title>g4p02</title>
<path fill="#fde7ef" stroke="#333333" d="M752.5,-36C752.5,-36 672.5,-36 672.5,-36 666.5,-36 660.5,-30 660.5,-24 660.5,-24 660.5,-12 660.5,-12 660.5,-6 666.5,0 672.5,0 672.5,0 752.5,0 752.5,0 758.5,0 764.5,-6 764.5,-12 764.5,-12 764.5,-24 764.5,-24 764.5,-30 758.5,-36 752.5,-36"/>
<text text-anchor="middle" x="712.5" y="-21" font-family="DejaVu Sans" font-size="10.00">Yvonne Gehringer</text>
<text text-anchor="middle" x="712.5" y="-10" font-family="DejaVu Sans" font-size="10.00">*18.01.1995</text>
</g>
<!-- g4p03 -->
<g id="P_g4p03" class="node">
<title>g4p03</title>
<path fill="#dbeafe" stroke="#333333" d="M892,-36C892,-36 809,-36 809,-36 803,-36 797,-30 797,-24 797,-24 797,-12 797,-12 797,-6 803,0 809,0 809,0 892,0 892,0 898,0 904,-6 904,-12 904,-12 904,-24 904,-24 904,-30 898,-36 892,-36"/>
<text text-anchor="middle" x="850.5" y="-21" font-family="DejaVu Sans" font-size="10.00">Thomas Gehringer</text>
<text text-anchor="middle" x="850.5" y="-10" font-family="DejaVu Sans" font-size="10.00">*02.08.2002</text>
</g>
<!-- g4p02&#45;&gt;g4p03 -->
<!-- g4p05 -->
<g id="P_g4p05" class="node">
<title>g4p05</title>
<path fill="#dbeafe" stroke="#333333" d="M1018,-36C1018,-36 951,-36 951,-36 945,-36 939,-30 939,-24 939,-24 939,-12 939,-12 939,-6 945,0 951,0 951,0 1018,0 1018,0 1024,0 1030,-6 1030,-12 1030,-12 1030,-24 1030,-24 1030,-30 1024,-36 1018,-36"/>
<text text-anchor="middle" x="984.5" y="-21" font-family="DejaVu Sans" font-size="10.00">Felix Gehringer</text>
<text text-anchor="middle" x="984.5" y="-10" font-family="DejaVu Sans" font-size="10.00">*19.07.2005</text>
</g>
<!-- geh05&#45;&gt;g4p04 -->
<!-- geh05&#45;&gt;g4p04 -->
<!-- geh05&#45;&gt;geh06 -->
<!-- g4p01 -->
<g id="P_g4p01" class="node">
<title>g4p01</title>
<path fill="#fde7ef" stroke="#333333" d="M787.5,-213C787.5,-213 707.5,-213 707.5,-213 701.5,-213 695.5,-207 695.5,-201 695.5,-201 695.5,-184 695.5,-184 695.5,-178 701.5,-172 707.5,-172 707.5,-172 787.5,-172 787.5,-172 793.5,-172 799.5,-178 799.5,-184 799.5,-184 799.5,-201 799.5,-201 799.5,-207 793.5,-213 787.5,-213"/>
<text text-anchor="middle" x="747.5" y="-201" font-family="DejaVu Sans" font-size="10.00">Rosalia Gehringer</text>
<text text-anchor="middle" x="747.5" y="-190" font-family="DejaVu Sans" font-size="10.00">geb. Karsai</text>
<text text-anchor="middle" x="747.5" y="-179" font-family="DejaVu Sans" font-size="10.00">*18.05.1961</text>
</g>
<!-- geh05&#45;&gt;g4p01 -->
<!-- geh05&#45;&gt;g4p01 -->
<!-- geh05&#45;&gt;g4p01 -->
<!-- M_g4F1 -->
<g id="M_g4F1" class="node">
<title>M_g4F1</title>
<ellipse fill="#fff3b0" stroke="#b08900" cx="798.5" cy="-104" rx="27" ry="18"/>
<text text-anchor="middle" x="798.5" y="-101.8" font-family="DejaVu Sans" font-size="9.00">oo</text>
</g>
<!-- geh05&#45;&gt;M_g4F1 -->
<g id="edge30" class="edge">
<title>geh05&#45;&gt;M_g4F1</title>
<path fill="none" stroke="#555555" d="M868.31,-174.41C852.17,-158.36 828.28,-134.61 813.05,-119.47"/>
</g>
<!-- geh05&#45;&gt;M_g4F2 -->
<g id="edge45" class="edge">
<title>geh05&#45;&gt;M_g4F2</title>
<path fill="none" stroke="#555555" d="M905.06,-174.41C923.65,-158.16 951.28,-134.02 968.57,-118.92"/>
</g>
<!-- g5p09 -->
<g id="P_g5p09" class="node">
<title>g5p09</title>
<path fill="#fde7ef" stroke="#333333" d="M453,-36C453,-36 392,-36 392,-36 386,-36 380,-30 380,-24 380,-24 380,-12 380,-12 380,-6 386,0 392,0 392,0 453,0 453,0 459,0 465,-6 465,-12 465,-12 465,-24 465,-24 465,-30 459,-36 453,-36"/>
<text text-anchor="middle" x="422.5" y="-21" font-family="DejaVu Sans" font-size="10.00">Lea Gehringer</text>
<text text-anchor="middle" x="422.5" y="-10" font-family="DejaVu Sans" font-size="10.00">*24.02.2005</text>
</g>
<!-- g5p09&#45;&gt;g5p10 -->
<!-- g4p01&#45;&gt;geh06 -->
<!-- g4p01&#45;&gt;geh05 -->
<!-- g4p01&#45;&gt;M_g4F1 -->
<g id="edge31" class="edge">
<title>g4p01&#45;&gt;M_g4F1</title>
<path fill="none" stroke="#555555" d="M759.07,-171.87C768.12,-156.52 780.55,-135.44 789.02,-121.08"/>
</g>
<!-- g4p07 -->
<g id="P_g4p07" class="node">
<title>g4p07</title>
<path fill="#fde7ef" stroke="#333333" d="M1129,-36C1129,-36 1076,-36 1076,-36 1070,-36 1064,-30 1064,-24 1064,-24 1064,-12 1064,-12 1064,-6 1070,0 1076,0 1076,0 1129,0 1129,0 1135,0 1141,-6 1141,-12 1141,-12 1141,-24 1141,-24 1141,-30 1135,-36 1129,-36"/>
<text text-anchor="middle" x="1102.5" y="-21" font-family="DejaVu Sans" font-size="10.00">Laura Meyer</text>
<text text-anchor="middle" x="1102.5" y="-10" font-family="DejaVu Sans" font-size="10.00">*06.09.2001</text>
</g>
<!-- g4p07&#45;&gt;g4p08 -->
<!-- geh03&#45;&gt;geh04 -->
<!-- geh03&#45;&gt;geh04 -->
<!-- geh03&#45;&gt;geh04 -->
<!-- geh03&#45;&gt;M_gehF2 -->
<g id="edge36" class="edge">
<title>geh03&#45;&gt;M_gehF2</title>
<path fill="none" stroke="#555555" d="M698.5,-351.41C698.5,-336.25 698.5,-314.21 698.5,-299.05"/>
</g>
<!-- g5p08 -->
<g id="P_g5p08" class="node">
<title>g5p08</title>
<path fill="#dbeafe" stroke="#333333" d="M335.5,-36C335.5,-36 265.5,-36 265.5,-36 259.5,-36 253.5,-30 253.5,-24 253.5,-24 253.5,-12 253.5,-12 253.5,-6 259.5,0 265.5,0 265.5,0 335.5,0 335.5,0 341.5,0 347.5,-6 347.5,-12 347.5,-12 347.5,-24 347.5,-24 347.5,-30 341.5,-36 335.5,-36"/>
<text text-anchor="middle" x="300.5" y="-21" font-family="DejaVu Sans" font-size="10.00">Jacob Gehringer</text>
<text text-anchor="middle" x="300.5" y="-10" font-family="DejaVu Sans" font-size="10.00">*06.03.2003</text>
</g>
<!-- g5p08&#45;&gt;g5p09 -->
<!-- g5p04&#45;&gt;geh07 -->
<!-- g5p04&#45;&gt;geh08 -->
<!-- g5p04&#45;&gt;M_g5F2 -->
<g id="edge28" class="edge">
<title>g5p04&#45;&gt;M_g5F2</title>
<path fill="none" stroke="#555555" d="M172.46,-174.41C160.66,-158.95 143.42,-136.35 131.84,-121.18"/>
</g>
<!-- geh01&#45;&gt;geh02 -->
<!-- geh01&#45;&gt;geh02 -->
<!-- geh01&#45;&gt;geh02 -->
<!-- geh01&#45;&gt;geh03 -->
<!-- geh01&#45;&gt;M_gehF1 -->
<g id="edge2" class="edge">
<title>geh01&#45;&gt;M_gehF1</title>
<path fill="none" stroke="#555555" d="M381.27,-351.41C417.04,-333.83 471.59,-307.02 501.34,-292.4"/>
</g>
<!-- gehS01&#45;&gt;geh08 -->
<!-- gehS01&#45;&gt;M_gehF4 -->
<g id="edge50" class="edge">
<title>gehS01&#45;&gt;M_gehF4</title>
<path fill="none" stroke="#555555" d="M451.46,-171.87C421.9,-154.82 380.09,-130.71 355.59,-116.58"/>
</g>
<!-- geh09&#45;&gt;att38 -->
<!-- geh09&#45;&gt;att38 -->
<!-- geh09&#45;&gt;M_gehF3 -->
<g id="edge52" class="edge">
<title>geh09&#45;&gt;M_gehF3</title>
<path fill="none" stroke="#555555" d="M593.11,-528.41C576.78,-512.36 552.62,-488.61 537.22,-473.47"/>
</g>
<!-- M_gehF1&#45;&gt;geh06 -->
<g id="edge5" class="edge">
<title>M_gehF1&#45;&gt;geh06</title>
<path fill="none" stroke="#555555" d="M548.62,-276.27C583.64,-271.27 641.5,-263 641.5,-263 641.5,-263 1091.5,-213 1091.5,-213 1091.5,-213 1093.8,-212.47 1097.66,-211.59"/>
<polygon fill="#555555" stroke="#555555" points="1098.52,-214.98 1107.49,-209.33 1096.96,-208.16 1098.52,-214.98"/>
</g>
<!-- M_gehF1&#45;&gt;geh05 -->
<g id="edge4" class="edge">
<title>M_gehF1&#45;&gt;geh05</title>
<path fill="none" stroke="#555555" d="M547.73,-274.23C618.81,-257.98 815.5,-213 815.5,-213 815.5,-213 817.91,-212.33 821.84,-211.24"/>
<polygon fill="#555555" stroke="#555555" points="823.04,-214.53 831.74,-208.48 821.16,-207.79 823.04,-214.53"/>
</g>
<!-- M_g5F4&#45;&gt;g5p10 -->
<g id="edge15" class="edge">
<title>M_g5F4&#45;&gt;g5p10</title>
<path fill="none" stroke="#555555" d="M440.76,-90.42C459.39,-77.6 488.7,-57.42 511.42,-41.78"/>
<polygon fill="#555555" stroke="#555555" points="513.52,-44.58 519.77,-36.03 509.55,-38.82 513.52,-44.58"/>
</g>
<!-- M_g5F4&#45;&gt;g5p09 -->
<g id="edge14" class="edge">
<title>M_g5F4&#45;&gt;g5p09</title>
<path fill="none" stroke="#555555" d="M422.5,-85.6C422.5,-74.26 422.5,-59.23 422.5,-46.32"/>
<polygon fill="#555555" stroke="#555555" points="426,-46.1 422.5,-36.1 419,-46.1 426,-46.1"/>
</g>
<!-- M_g5F4&#45;&gt;g5p08 -->
<g id="edge13" class="edge">
<title>M_g5F4&#45;&gt;g5p08</title>
<path fill="none" stroke="#555555" d="M404.24,-90.42C385.61,-77.6 356.3,-57.42 333.58,-41.78"/>
<polygon fill="#555555" stroke="#555555" points="335.45,-38.82 325.23,-36.03 331.48,-44.58 335.45,-38.82"/>
</g>
<!-- M_g4F3&#45;&gt;g4p08 -->
<g id="edge22" class="edge">
<title>M_g4F3&#45;&gt;g4p08</title>
<path fill="none" stroke="#555555" d="M1211.5,-85.6C1211.5,-74.26 1211.5,-59.23 1211.5,-46.32"/>
<polygon fill="#555555" stroke="#555555" points="1215,-46.1 1211.5,-36.1 1208,-46.1 1215,-46.1"/>
</g>
<!-- M_g4F3&#45;&gt;g4p09 -->
<g id="edge23" class="edge">
<title>M_g4F3&#45;&gt;g4p09</title>
<path fill="none" stroke="#555555" d="M1228.53,-89.88C1244.98,-77.2 1270.26,-57.72 1290.16,-42.38"/>
<polygon fill="#555555" stroke="#555555" points="1292.53,-44.98 1298.31,-36.1 1288.25,-39.43 1292.53,-44.98"/>
</g>
<!-- M_g4F3&#45;&gt;g4p07 -->
<g id="edge21" class="edge">
<title>M_g4F3&#45;&gt;g4p07</title>
<path fill="none" stroke="#555555" d="M1194.47,-89.88C1178.02,-77.2 1152.74,-57.72 1132.84,-42.38"/>
<polygon fill="#555555" stroke="#555555" points="1134.75,-39.43 1124.69,-36.1 1130.47,-44.98 1134.75,-39.43"/>
</g>
<!-- M_g4F1&#45;&gt;g4p02 -->
<g id="edge32" class="edge">
<title>M_g4F1&#45;&gt;g4p02</title>
<path fill="none" stroke="#555555" d="M783.91,-88.75C771.26,-76.39 752.67,-58.24 737.63,-43.55"/>
<polygon fill="#555555" stroke="#555555" points="739.74,-40.71 730.14,-36.23 734.85,-45.72 739.74,-40.71"/>
</g>
<!-- M_g4F1&#45;&gt;g4p03 -->
<g id="edge33" class="edge">
<title>M_g4F1&#45;&gt;g4p03</title>
<path fill="none" stroke="#555555" d="M808.28,-87.2C815.67,-75.27 825.96,-58.65 834.53,-44.8"/>
<polygon fill="#555555" stroke="#555555" points="837.58,-46.52 839.87,-36.17 831.63,-42.83 837.58,-46.52"/>
</g>
<!-- M_gehF2&#45;&gt;geh07 -->
<g id="edge38" class="edge">
<title>M_gehF2&#45;&gt;geh07</title>
<path fill="none" stroke="#555555" d="M659.67,-275.04C620.42,-270.02 565.5,-263 565.5,-263 565.5,-263 123.5,-213 123.5,-213 123.5,-213 121.09,-212.33 117.16,-211.24"/>
<polygon fill="#555555" stroke="#555555" points="117.84,-207.79 107.26,-208.48 115.96,-214.53 117.84,-207.79"/>
</g>
<!-- M_gehF2&#45;&gt;geh08 -->
<g id="edge39" class="edge">
<title>M_gehF2&#45;&gt;geh08</title>
<path fill="none" stroke="#555555" d="M663.36,-271.63C606.92,-258.18 494.54,-231.4 417.22,-212.97"/>
<polygon fill="#555555" stroke="#555555" points="417.56,-209.46 407.02,-210.54 415.94,-216.27 417.56,-209.46"/>
</g>
<!-- M_g4F2&#45;&gt;g4p05 -->
<g id="edge47" class="edge">
<title>M_g4F2&#45;&gt;g4p05</title>
<path fill="none" stroke="#555555" d="M984.5,-85.6C984.5,-74.26 984.5,-59.23 984.5,-46.32"/>
<polygon fill="#555555" stroke="#555555" points="988,-46.1 984.5,-36.1 981,-46.1 988,-46.1"/>
</g>
<!-- M_gehF3&#45;&gt;geh03 -->
<g id="edge55" class="edge">
<title>M_gehF3&#45;&gt;geh03</title>
<path fill="none" stroke="#555555" d="M543.73,-446.57C571.09,-433.12 619.34,-409.41 654.71,-392.02"/>
<polygon fill="#555555" stroke="#555555" points="656.43,-395.07 663.86,-387.52 653.35,-388.79 656.43,-395.07"/>
</g>
<!-- M_gehF3&#45;&gt;geh01 -->
<g id="edge54" class="edge">
<title>M_gehF3&#45;&gt;geh01</title>
<path fill="none" stroke="#555555" d="M501.27,-446.57C473.91,-433.12 425.66,-409.41 390.29,-392.02"/>
<polygon fill="#555555" stroke="#555555" points="391.65,-388.79 381.14,-387.52 388.57,-395.07 391.65,-388.79"/>
</g>
</g>
</svg>
