<?xml version="1.0" encoding="UTF-8" standalone="no"?>
<!DOCTYPE svg PUBLIC "-//W3C//DTD SVG 1.1//EN"
 "http://www.w3.org/Graphics/SVG/1.1/DTD/svg11.dtd">
<!-- Generated by graphviz version 2.43.0 (0)
 -->
<!-- Title: %3 Pages: 1 -->
<svg width="1362pt" height="596pt"
 viewBox="0.00 0.00 1362.00 596.00" xmlns="http://www.w3.org/2000/svg" xmlns:xlink="http://www.w3.org/1999/xlink">
<style><![CDATA[
  g[id^="P_"], g[id^="M_"] { cursor: pointer; }
  .highlight ellipse, .highlight polygon, .highlight path, .highlight rect {
    stroke: #d00; stroke-width: 2.5;
  }
  @keyframes pulse { 0%,100%{opacity:1} 50%{opacity:.45} }
  .blink { animation: pulse 0.9s ease-in-out 3; }
]]></style>
<script><![CDATA[
(function(){
  var SPOUSE = {"P_geh01": ["P_geh02"], "P_geh02": ["P_geh01"], "P_g4p06": ["P_geh06"], "P_geh06": ["P_g4p06"], "P_geh09": ["P_att38"], "P_att38": ["P_geh09"], "P_geh07": ["P_g5p04"], "P_g5p04": ["P_geh07"], "P_geh08": ["P_gehS01", "P_g5p07"], "P_gehS01": ["P_geh08"], "P_geh05": ["P_g4p04", "P_g4p01"], "P_g4p04": ["P_geh05"], "P_geh03": ["P_geh04"], "P_geh04": ["P_geh03"], "P_g5p07": ["P_geh08"], "P_g4p01": ["P_geh05"]};
  var FAMILY = {"M_gehF1": ["P_geh01", "P_geh02", "P_geh05", "P_geh06"], "M_g4F3": ["P_g4p06", "P_geh06", "P_g4p07", "P_g4p08", "P_g4p09"], "M_gehF3": ["P_geh09", "P_att38", "P_geh01", "P_geh03"], "M_g5F2": ["P_geh07", "P_g5p04"], "M_gehF4": ["P_geh08", "P_gehS01"], "M_g4F2": ["P_geh05", "P_g4p04", "P_g4p05"], "M_gehF2": ["P_geh03", "P_geh04", "P_geh07", "P_geh08"], "M_g5F4": ["P_geh08", "P_g5p07", "P_g5p08", "P_g5p09", "P_g5p10"], "M_g4F1": ["P_geh05", "P_g4p01", "P_g4p02", "P_g4p03"]};
  function clearHl(){ document.querySelectorAll('.blink').forEach(function(n){ n.classList.remove('blink'); n.classList.remove('highlight'); }); }
  function hl(id){ var el=document.getElementById(id); if(el){ el.classList.add('highlight'); el.classList.add('blink'); } }
  document.addEventListener('click', function(evt){
    var target = evt.target;
    var g = target.closest && target.closest('g[id^="P_"], g[id^="M_"]');
    if (!g) { while (target) { if (target.id && /^([PM]_)/.test(target.id) && target.tagName && target.tagName.toLowerCase() === 'g') { g = target; break; } target = target.parentNode; } }
    if (!g) return;
    var id = g.id; clearHl();
    if (/^P_/.test(id)) { (SPOUSE[id] || []).forEach(hl); }
    else if (/^M_/.test(id)) { hl(id); (FAMILY[id] || []).forEach(hl); }
  }, false);
})();
]]></script>

<g id="graph0" class="graph" transform="scale(1 1) rotate(0) translate(4 592)">
<title>%3</title>
<polygon fill="white" stroke="transparent" points="-4,4 -4,-592 1358,-592 1358,4 -4,4"/>
<text text-anchor="middle" x="677" y="-574.4" font-family="DejaVu Sans" font-size="12.00">Rosi</text>
<!-- geh08 -->
<g id="P_geh08" class="node">
<title>geh08</title>
<path fill="#dbeafe" stroke="#333333" d="M520,-210.5C520,-210.5 400,-210.5 400,-210.5 394,-210.5 388,-204.5 388,-198.5 388,-198.5 388,-186.5 388,-186.5 388,-180.5 394,-174.5 400,-174.5 400,-174.5 520,-174.5 520,-174.5 526,-174.5 532,-180.5 532,-186.5 532,-186.5 532,-198.5 532,-198.5 532,-204.5 526,-210.5 520,-210.5"/>
<text text-anchor="middle" x="460" y="-195.5" font-family="DejaVu Sans" font-size="10.00">Raoul Gehringer</text>
<text text-anchor="middle" x="460" y="-184.5" font-family="DejaVu Sans" font-size="10.00">*18.08.1971 &#160;+19.03.2018</text>
</g>
<!-- g5p07 -->
<g id="P_g5p07" class="node">
<title>g5p07</title>
<path fill="#fde7ef" stroke="#333333" d="M651.5,-210.5C651.5,-210.5 576.5,-210.5 576.5,-210.5 570.5,-210.5 564.5,-204.5 564.5,-198.5 564.5,-198.5 564.5,-186.5 564.5,-186.5 564.5,-180.5 570.5,-174.5 576.5,-174.5 576.5,-174.5 651.5,-174.5 651.5,-174.5 657.5,-174.5 663.5,-180.5 663.5,-186.5 663.5,-186.5 663.5,-198.5 663.5,-198.5 663.5,-204.5 657.5,-210.5 651.5,-210.5"/>
<text text-anchor="middle" x="614" y="-195.5" font-family="DejaVu Sans" font-size="10.00">Ulrike De_Bortoli</text>
<text text-anchor="middle" x="614" y="-184.5" font-family="DejaVu Sans" font-size="10.00">*25.11.1967</text>
</g>
<!-- geh08&#45;&gt;g5p07 -->
<!-- geh08&#45;&gt;g5p07 -->
<!-- gehS01 -->
<g id="P_gehS01" class="node">
<title>gehS01</title>
<path fill="#fde7ef" stroke="#333333" d="M344,-213C344,-213 276,-213 276,-213 270,-213 264,-207 264,-201 264,-201 264,-184 264,-184 264,-178 270,-172 276,-172 276,-172 344,-172 344,-172 350,-172 356,-178 356,-184 356,-184 356,-201 356,-201 356,-207 350,-213 344,-213"/>
<text text-anchor="middle" x="310" y="-201" font-family="DejaVu Sans" font-size="10.00">Edith Gehringer</text>
<text text-anchor="middle" x="310" y="-190" font-family="DejaVu Sans" font-size="10.00">geb. Schmölz</text>
<text text-anchor="middle" x="310" y="-179" font-family="DejaVu Sans" font-size="10.00">*23.02.1970</text>
</g>
<!-- geh08&#45;&gt;gehS01 -->
<!-- geh08&#45;&gt;gehS01 -->
<!-- geh08&#45;&gt;gehS01 -->
<!-- M_gehF4 -->
<g id="M_gehF4" class="node">
<title>M_gehF4</title>
<ellipse fill="#fff3b0" stroke="#b08900" cx="342" cy="-104" rx="27" ry="18"/>
<text text-anchor="middle" x="342" y="-101.8" font-family="DejaVu Sans" font-size="9.00">oo</text>
</g>
<!-- geh08&#45;&gt;M_gehF4 -->
<g id="edge31" class="edge">
<title>geh08&#45;&gt;M_gehF4</title>
<path fill="none" stroke="#555555" d="M436.69,-174.41C413.99,-157.77 379.99,-132.85 359.51,-117.83"/>
</g>
<!-- M_g5F4 -->
<g id="M_g5F4" class="node">
<title>M_g5F4</title>
<ellipse fill="#fff3b0" stroke="#b08900" cx="460" cy="-104" rx="27" ry="18"/>
<text text-anchor="middle" x="460" y="-101.8" font-family="DejaVu Sans" font-size="9.00">oo</text>
</g>
<!-- geh08&#45;&gt;M_g5F4 -->
<g id="edge47" class="edge">
<title>geh08&#45;&gt;M_g5F4</title>
<path fill="none" stroke="#555555" d="M460,-174.41C460,-159.25 460,-137.21 460,-122.05"/>
</g>
<!-- geh07 -->
<g id="P_geh07" class="node">
<title>geh07</title>
<path fill="#dbeafe" stroke="#333333" d="M219.5,-210.5C219.5,-210.5 136.5,-210.5 136.5,-210.5 130.5,-210.5 124.5,-204.5 124.5,-198.5 124.5,-198.5 124.5,-186.5 124.5,-186.5 124.5,-180.5 130.5,-174.5 136.5,-174.5 136.5,-174.5 219.5,-174.5 219.5,-174.5 225.5,-174.5 231.5,-180.5 231.5,-186.5 231.5,-186.5 231.5,-198.5 231.5,-198.5 231.5,-204.5 225.5,-210.5 219.5,-210.5"/>
<text text-anchor="middle" x="178" y="-195.5" font-family="DejaVu Sans" font-size="10.00">Andreas Gehringer</text>
<text text-anchor="middle" x="178" y="-184.5" font-family="DejaVu Sans" font-size="10.00">*28.06.1966</text>
</g>
<!-- geh07&#45;&gt;geh08 -->
<!-- g5p04 -->
<g id="P_g5p04" class="node">
<title>g5p04</title>
<path fill="#fde7ef" stroke="#333333" d="M80,-210.5C80,-210.5 12,-210.5 12,-210.5 6,-210.5 0,-204.5 0,-198.5 0,-198.5 0,-186.5 0,-186.5 0,-180.5 6,-174.5 12,-174.5 12,-174.5 80,-174.5 80,-174.5 86,-174.5 92,-180.5 92,-186.5 92,-186.5 92,-198.5 92,-198.5 92,-204.5 86,-210.5 80,-210.5"/>
<text text-anchor="middle" x="46" y="-195.5" font-family="DejaVu Sans" font-size="10.00">Daniela Niehoff</text>
<text text-anchor="middle" x="46" y="-184.5" font-family="DejaVu Sans" font-size="10.00">*20.07.1969</text>
</g>
<!-- geh07&#45;&gt;g5p04 -->
<!-- geh07&#45;&gt;g5p04 -->
<!-- geh07&#45;&gt;g5p04 -->
<!-- M_g5F2 -->
<g id="M_g5F2" class="node">
<title>M_g5F2</title>
<ellipse fill="#fff3b0" stroke="#b08900" cx="112" cy="-104" rx="40.98" ry="18"/>
<text text-anchor="middle" x="112" y="-101.8" font-family="DejaVu Sans" font-size="9.00">28.06.2016</text>
</g>
<!-- geh07&#45;&gt;M_g5F2 -->
<g id="edge28" class="edge">
<title>geh07&#45;&gt;M_g5F2</title>
<path fill="none" stroke="#555555" d="M164.96,-174.41C153.16,-158.95 135.92,-136.35 124.34,-121.18"/>
</g>
<!-- g4p03 -->
<g id="P_g4p03" class="node">
<title>g4p03</title>
<path fill="#dbeafe" stroke="#333333" d="M1327.5,-36C1327.5,-36 1244.5,-36 1244.5,-36 1238.5,-36 1232.5,-30 1232.5,-24 1232.5,-24 1232.5,-12 1232.5,-12 1232.5,-6 1238.5,0 1244.5,0 1244.5,0 1327.5,0 1327.5,0 1333.5,0 1339.5,-6 1339.5,-12 1339.5,-12 1339.5,-24 1339.5,-24 1339.5,-30 1333.5,-36 1327.5,-36"/>
<text text-anchor="middle" x="1286" y="-21" font-family="DejaVu Sans" font-size="10.00">Thomas Gehringer</text>
<text text-anchor="middle" x="1286" y="-10" font-family="DejaVu Sans" font-size="10.00">*02.08.2002</text>
</g>
<!-- g4p06 -->
<g id="P_g4p06" class="node">
<title>g4p06</title>
<path fill="#dbeafe" stroke="#333333" d="M896,-210.5C896,-210.5 844,-210.5 844,-210.5 838,-210.5 832,-204.5 832,-198.5 832,-198.5 832,-186.5 832,-186.5 832,-180.5 838,-174.5 844,-174.5 844,-174.5 896,-174.5 896,-174.5 902,-174.5 908,-180.5 908,-186.5 908,-186.5 908,-198.5 908,-198.5 908,-204.5 902,-210.5 896,-210.5"/>
<text text-anchor="middle" x="870" y="-195.5" font-family="DejaVu Sans" font-size="10.00">Dirk Meyer</text>
<text text-anchor="middle" x="870" y="-184.5" font-family="DejaVu Sans" font-size="10.00">*17.04.1974</text>
</g>
<!-- geh06 -->
<g id="P_geh06" class="node">
<title>geh06</title>
<path fill="#fde7ef" stroke="#333333" d="M1342,-213C1342,-213 1228,-213 1228,-213 1222,-213 1216,-207 1216,-201 1216,-201 1216,-184 1216,-184 1216,-178 1222,-172 1228,-172 1228,-172 1342,-172 1342,-172 1348,-172 1354,-178 1354,-184 1354,-184 1354,-201 1354,-201 1354,-207 1348,-213 1342,-213"/>
<text text-anchor="middle" x="1285" y="-201" font-family="DejaVu Sans" font-size="10.00">Patricia Meyer&#45;Gehringer</text>
<text text-anchor="middle" x="1285" y="-190" font-family="DejaVu Sans" font-size="10.00">geb. Gehringer</text>
<text text-anchor="middle" x="1285" y="-179" font-family="DejaVu Sans" font-size="10.00">*02.08.1974</text>
</g>
<!-- g4p06&#45;&gt;geh06 -->
<!-- g4p06&#45;&gt;geh06 -->
<!-- g4p06&#45;&gt;geh06 -->
<!-- M_g4F3 -->
<g id="M_g4F3" class="node">
<title>M_g4F3</title>
<ellipse fill="#fff3b0" stroke="#b08900" cx="916" cy="-104" rx="27" ry="18"/>
<text text-anchor="middle" x="916" y="-101.8" font-family="DejaVu Sans" font-size="9.00">oo</text>
</g>
<!-- g4p06&#45;&gt;M_g4F3 -->
<g id="edge11" class="edge">
<title>g4p06&#45;&gt;M_g4F3</title>
<path fill="none" stroke="#555555" d="M879.09,-174.41C887.31,-158.95 899.33,-136.35 907.4,-121.18"/>
</g>
<!-- g5p08 -->
<g id="P_g5p08" class="node">
<title>g5p08</title>
<path fill="#dbeafe" stroke="#333333" d="M357,-36C357,-36 287,-36 287,-36 281,-36 275,-30 275,-24 275,-24 275,-12 275,-12 275,-6 281,0 287,0 287,0 357,0 357,0 363,0 369,-6 369,-12 369,-12 369,-24 369,-24 369,-30 363,-36 357,-36"/>
<text text-anchor="middle" x="322" y="-21" font-family="DejaVu Sans" font-size="10.00">Jacob Gehringer</text>
<text text-anchor="middle" x="322" y="-10" font-family="DejaVu Sans" font-size="10.00">*06.03.2003</text>
</g>
<!-- g5p09 -->
<g id="P_g5p09" class="node">
<title>g5p09</title>
<path fill="#fde7ef" stroke="#333333" d="M474.5,-36C474.5,-36 413.5,-36 413.5,-36 407.5,-36 401.5,-30 401.5,-24 401.5,-24 401.5,-12 401.5,-12 401.5,-6 407.5,0 413.5,0 413.5,0 474.5,0 474.5,0 480.5,0 486.5,-6 486.5,-12 486.5,-12 486.5,-24 486.5,-24 486.5,-30 480.5,-36 474.5,-36"/>
<text text-anchor="middle" x="444" y="-21" font-family="DejaVu Sans" font-size="10.00">Lea Gehringer</text>
<text text-anchor="middle" x="444" y="-10" font-family="DejaVu Sans" font-size="10.00">*24.02.2005</text>
</g>
<!-- g5p08&#45;&gt;g5p09 -->
<!-- g4p05 -->
<g id="P_g4p05" class="node">
<title>g4p05</title>
<path fill="#dbeafe" stroke="#333333" d="M724.5,-36C724.5,-36 657.5,-36 657.5,-36 651.5,-36 645.5,-30 645.5,-24 645.5,-24 645.5,-12 645.5,-12 645.5,-6 651.5,0 657.5,0 657.5,0 724.5,0 724.5,0 730.5,0 736.5,-6 736.5,-12 736.5,-12 736.5,-24 736.5,-24 736.5,-30 730.5,-36 724.5,-36"/>
<text text-anchor="middle" x="691" y="-21" font-family="DejaVu Sans" font-size="10.00">Felix Gehringer</text>
<text text-anchor="middle" x="691" y="-10" font-family="DejaVu Sans" font-size="10.00">*19.07.2005</text>
</g>
<!-- geh01 -->
<g id="P_geh01" class="node">
<title>geh01</title>
<path fill="#dbeafe" stroke="#333333" d="M699,-387.5C699,-387.5 579,-387.5 579,-387.5 573,-387.5 567,-381.5 567,-375.5 567,-375.5 567,-363.5 567,-363.5 567,-357.5 573,-351.5 579,-351.5 579,-351.5 699,-351.5 699,-351.5 705,-351.5 711,-357.5 711,-363.5 711,-363.5 711,-375.5 711,-375.5 711,-381.5 705,-387.5 699,-387.5"/>
<text text-anchor="middle" x="639" y="-372.5" font-family="DejaVu Sans" font-size="10.00">Horst Gehringer</text>
<text text-anchor="middle" x="639" y="-361.5" font-family="DejaVu Sans" font-size="10.00">*12.01.1941 &#160;+08.09.2008</text>
</g>
<!-- geh02 -->
<g id="P_geh02" class="node">
<title>geh02</title>
<path fill="#fde7ef" stroke="#333333" d="M523,-390C523,-390 403,-390 403,-390 397,-390 391,-384 391,-378 391,-378 391,-361 391,-361 391,-355 397,-349 403,-349 403,-349 523,-349 523,-349 529,-349 535,-355 535,-361 535,-361 535,-378 535,-378 535,-384 529,-390 523,-390"/>
<text text-anchor="middle" x="463" y="-378" font-family="DejaVu Sans" font-size="10.00">Annemarie Gehringer</text>
<text text-anchor="middle" x="463" y="-367" font-family="DejaVu Sans" font-size="10.00">geb. Hermanek</text>
<text text-anchor="middle" x="463" y="-356" font-family="DejaVu Sans" font-size="10.00">*27.08.1944 &#160;+10.06.2014</text>
</g>
<!-- geh01&#45;&gt;geh02 -->
<!-- geh01&#45;&gt;geh02 -->
<!-- geh01&#45;&gt;geh02 -->
<!-- geh03 -->
<g id="P_geh03" class="node">
<title>geh03</title>
<path fill="#dbeafe" stroke="#333333" d="M875,-387.5C875,-387.5 755,-387.5 755,-387.5 749,-387.5 743,-381.5 743,-375.5 743,-375.5 743,-363.5 743,-363.5 743,-357.5 749,-351.5 755,-351.5 755,-351.5 875,-351.5 875,-351.5 881,-351.5 887,-357.5 887,-363.5 887,-363.5 887,-375.5 887,-375.5 887,-381.5 881,-387.5 875,-387.5"/>
<text text-anchor="middle" x="815" y="-372.5" font-family="DejaVu Sans" font-size="10.00">Rolf Gehringer</text>
<text text-anchor="middle" x="815" y="-361.5" font-family="DejaVu Sans" font-size="10.00">*23.04.1944 &#160;+26.06.2020</text>
</g>
<!-- geh01&#45;&gt;geh03 -->
<!-- M_gehF1 -->
<g id="M_gehF1" class="node">
<title>M_gehF1</title>
<ellipse fill="#fff3b0" stroke="#b08900" cx="639" cy="-281" rx="27" ry="18"/>
<text text-anchor="middle" x="639" y="-278.8" font-family="DejaVu Sans" font-size="9.00">oo</text>
</g>
<!-- geh01&#45;&gt;M_gehF1 -->
<g id="edge2" class="edge">
<title>geh01&#45;&gt;M_gehF1</title>
<path fill="none" stroke="#555555" d="M639,-351.41C639,-336.25 639,-314.21 639,-299.05"/>
</g>
<!-- geh02&#45;&gt;geh01 -->
<!-- geh02&#45;&gt;geh03 -->
<!-- geh02&#45;&gt;M_gehF1 -->
<g id="edge3" class="edge">
<title>geh02&#45;&gt;M_gehF1</title>
<path fill="none" stroke="#555555" d="M502.94,-348.87C538.64,-331.33 589.56,-306.3 617.9,-292.37"/>
</g>
<!-- g4p07 -->
<g id="P_g4p07" class="node">
<title>g4p07</title>
<path fill="#fde7ef" stroke="#333333" d="M833.5,-36C833.5,-36 780.5,-36 780.5,-36 774.5,-36 768.5,-30 768.5,-24 768.5,-24 768.5,-12 768.5,-12 768.5,-6 774.5,0 780.5,0 780.5,0 833.5,0 833.5,0 839.5,0 845.5,-6 845.5,-12 845.5,-12 845.5,-24 845.5,-24 845.5,-30 839.5,-36 833.5,-36"/>
<text text-anchor="middle" x="807" y="-21" font-family="DejaVu Sans" font-size="10.00">Laura Meyer</text>
<text text-anchor="middle" x="807" y="-10" font-family="DejaVu Sans" font-size="10.00">*06.09.2001</text>
</g>
<!-- g4p08 -->
<g id="P_g4p08" class="node">
<title>g4p08</title>
<path fill="#fde7ef" stroke="#333333" d="M942,-36C942,-36 890,-36 890,-36 884,-36 878,-30 878,-24 878,-24 878,-12 878,-12 878,-6 884,0 890,0 890,0 942,0 942,0 948,0 954,-6 954,-12 954,-12 954,-24 954,-24 954,-30 948,-36 942,-36"/>
<text text-anchor="middle" x="916" y="-21" font-family="DejaVu Sans" font-size="10.00">Nora Meyer</text>
<text text-anchor="middle" x="916" y="-10" font-family="DejaVu Sans" font-size="10.00">*07.06.2003</text>
</g>
<!-- g4p07&#45;&gt;g4p08 -->
<!-- geh04 -->
<g id="P_geh04" class="node">
<title>geh04</title>
<path fill="#fde7ef" stroke="#333333" d="M1019,-390C1019,-390 931,-390 931,-390 925,-390 919,-384 919,-378 919,-378 919,-361 919,-361 919,-355 925,-349 931,-349 931,-349 1019,-349 1019,-349 1025,-349 1031,-355 1031,-361 1031,-361 1031,-378 1031,-378 1031,-384 1025,-390 1019,-390"/>
<text text-anchor="middle" x="975" y="-378" font-family="DejaVu Sans" font-size="10.00">Michaela Gehringer</text>
<text text-anchor="middle" x="975" y="-367" font-family="DejaVu Sans" font-size="10.00">geb. Kaminski</text>
<text text-anchor="middle" x="975" y="-356" font-family="DejaVu Sans" font-size="10.00">*10.04.1944</text>
</g>
<!-- geh03&#45;&gt;geh04 -->
<!-- geh03&#45;&gt;geh04 -->
<!-- geh03&#45;&gt;geh04 -->
<!-- M_gehF2 -->
<g id="M_gehF2" class="node">
<title>M_gehF2</title>
<ellipse fill="#fff3b0" stroke="#b08900" cx="815" cy="-281" rx="40.98" ry="18"/>
<text text-anchor="middle" x="815" y="-278.8" font-family="DejaVu Sans" font-size="9.00">09.09.1966</text>
</g>
<!-- geh03&#45;&gt;M_gehF2 -->
<g id="edge38" class="edge">
<title>geh03&#45;&gt;M_gehF2</title>
<path fill="none" stroke="#555555" d="M815,-351.41C815,-336.25 815,-314.21 815,-299.05"/>
</g>
<!-- g4p04 -->
<g id="P_g4p04" class="node">
<title>g4p04</title>
<path fill="#fde7ef" stroke="#333333" d="M788,-213C788,-213 708,-213 708,-213 702,-213 696,-207 696,-201 696,-201 696,-184 696,-184 696,-178 702,-172 708,-172 708,-172 788,-172 788,-172 794,-172 800,-178 800,-184 800,-184 800,-201 800,-201 800,-207 794,-213 788,-213"/>
<text text-anchor="middle" x="748" y="-201" font-family="DejaVu Sans" font-size="10.00">Eva Gehringer</text>
<text text-anchor="middle" x="748" y="-190" font-family="DejaVu Sans" font-size="10.00">geb. Wasserbauer</text>
<text text-anchor="middle" x="748" y="-179" font-family="DejaVu Sans" font-size="10.00">*01.05.1973</text>
</g>
<!-- geh05 -->
<g id="P_geh05" class="node">
<title>geh05</title>
<path fill="#dbeafe" stroke="#333333" d="M1035.5,-210.5C1035.5,-210.5 952.5,-210.5 952.5,-210.5 946.5,-210.5 940.5,-204.5 940.5,-198.5 940.5,-198.5 940.5,-186.5 940.5,-186.5 940.5,-180.5 946.5,-174.5 952.5,-174.5 952.5,-174.5 1035.5,-174.5 1035.5,-174.5 1041.5,-174.5 1047.5,-180.5 1047.5,-186.5 1047.5,-186.5 1047.5,-198.5 1047.5,-198.5 1047.5,-204.5 1041.5,-210.5 1035.5,-210.5"/>
<text text-anchor="middle" x="994" y="-195.5" font-family="DejaVu Sans" font-size="10.00">Thomas Gehringer</text>
<text text-anchor="middle" x="994" y="-184.5" font-family="DejaVu Sans" font-size="10.00">*18.06.1966</text>
</g>
<!-- g4p04&#45;&gt;geh05 -->
<!-- M_g4F2 -->
<g id="M_g4F2" class="node">
<title>M_g4F2</title>
<ellipse fill="#fff3b0" stroke="#b08900" cx="748" cy="-104" rx="27" ry="18"/>
<text text-anchor="middle" x="748" y="-101.8" font-family="DejaVu Sans" font-size="9.00">oo</text>
</g>
<!-- g4p04&#45;&gt;M_g4F2 -->
<g id="edge35" class="edge">
<title>g4p04&#45;&gt;M_g4F2</title>
<path fill="none" stroke="#555555" d="M748,-171.87C748,-156.92 748,-136.53 748,-122.21"/>
</g>
<!-- geh06&#45;&gt;g4p06 -->
<!-- geh06&#45;&gt;M_g4F3 -->
<g id="edge12" class="edge">
<title>geh06&#45;&gt;M_g4F3</title>
<path fill="none" stroke="#555555" d="M1215.59,-175.23C1132.29,-155.7 996.88,-123.96 941.17,-110.9"/>
</g>
<!-- g4p02 -->
<g id="P_g4p02" class="node">
<title>g4p02</title>
<path fill="#fde7ef" stroke="#333333" d="M1188,-36C1188,-36 1108,-36 1108,-36 1102,-36 1096,-30 1096,-24 1096,-24 1096,-12 1096,-12 1096,-6 1102,0 1108,0 1108,0 1188,0 1188,0 1194,0 1200,-6 1200,-12 1200,-12 1200,-24 1200,-24 1200,-30 1194,-36 1188,-36"/>
<text text-anchor="middle" x="1148" y="-21" font-family="DejaVu Sans" font-size="10.00">Yvonne Gehringer</text>
<text text-anchor="middle" x="1148" y="-10" font-family="DejaVu Sans" font-size="10.00">*18.01.1995</text>
</g>
<!-- g4p02&#45;&gt;g4p03 -->
<!-- g5p07&#45;&gt;geh08 -->
<!-- g5p07&#45;&gt;M_g5F4 -->
<g id="edge48" class="edge">
<title>g5p07&#45;&gt;M_g5F4</title>
<path fill="none" stroke="#555555" d="M583.57,-174.41C552.89,-157.18 506.41,-131.07 480.07,-116.27"/>
</g>
<!-- geh05&#45;&gt;g4p04 -->
<!-- geh05&#45;&gt;g4p04 -->
<!-- geh05&#45;&gt;geh06 -->
<!-- g4p01 -->
<g id="P_g4p01" class="node">
<title>g4p01</title>
<path fill="#fde7ef" stroke="#333333" d="M1172,-213C1172,-213 1092,-213 1092,-213 1086,-213 1080,-207 1080,-201 1080,-201 1080,-184 1080,-184 1080,-178 1086,-172 1092,-172 1092,-172 1172,-172 1172,-172 1178,-172 1184,-178 1184,-184 1184,-184 1184,-201 1184,-201 1184,-207 1178,-213 1172,-213"/>
<text text-anchor="middle" x="1132" y="-201" font-family="DejaVu Sans" font-size="10.00">Rosalia Gehringer</text>
<text text-anchor="middle" x="1132" y="-190" font-family="DejaVu Sans" font-size="10.00">geb. Karsai</text>
<text text-anchor="middle" x="1132" y="-179" font-family="DejaVu Sans" font-size="10.00">*18.05.1961</text>
</g>
<!-- geh05&#45;&gt;g4p01 -->
<!-- geh05&#45;&gt;g4p01 -->
<!-- geh05&#45;&gt;g4p01 -->
<!-- geh05&#45;&gt;M_g4F2 -->
<g id="edge34" class="edge">
<title>geh05&#45;&gt;M_g4F2</title>
<path fill="none" stroke="#555555" d="M945.4,-174.41C892.75,-155.9 810.97,-127.14 771.24,-113.17"/>
</g>
<!-- M_g4F1 -->
<g id="M_g4F1" class="node">
<title>M_g4F1</title>
<ellipse fill="#fff3b0" stroke="#b08900" cx="1132" cy="-104" rx="27" ry="18"/>
<text text-anchor="middle" x="1132" y="-101.8" font-family="DejaVu Sans" font-size="9.00">oo</text>
</g>
<!-- geh05&#45;&gt;M_g4F1 -->
<g id="edge55" class="edge">
<title>geh05&#45;&gt;M_g4F1</title>
<path fill="none" stroke="#555555" d="M1021.26,-174.41C1048.29,-157.47 1088.98,-131.96 1112.78,-117.04"/>
</g>
<!-- g4p09 -->
<g id="P_g4p09" class="node">
<title>g4p09</title>
<path fill="#fde7ef" stroke="#333333" d="M1051.5,-36C1051.5,-36 998.5,-36 998.5,-36 992.5,-36 986.5,-30 986.5,-24 986.5,-24 986.5,-12 986.5,-12 986.5,-6 992.5,0 998.5,0 998.5,0 1051.5,0 1051.5,0 1057.5,0 1063.5,-6 1063.5,-12 1063.5,-12 1063.5,-24 1063.5,-24 1063.5,-30 1057.5,-36 1051.5,-36"/>
<text text-anchor="middle" x="1025" y="-21" font-family="DejaVu Sans" font-size="10.00">Tessa Meyer</text>
<text text-anchor="middle" x="1025" y="-10" font-family="DejaVu Sans" font-size="10.00">*27.03.2009</text>
</g>
<!-- g4p08&#45;&gt;g4p09 -->
<!-- g5p04&#45;&gt;geh08 -->
<!-- g5p04&#45;&gt;geh07 -->
<!-- g5p04&#45;&gt;M_g5F2 -->
<g id="edge29" class="edge">
<title>g5p04&#45;&gt;M_g5F2</title>
<path fill="none" stroke="#555555" d="M59.04,-174.41C70.84,-158.95 88.08,-136.35 99.66,-121.18"/>
</g>
<!-- geh09 -->
<g id="P_geh09" class="node">
<title>geh09</title>
<path fill="#dbeafe" stroke="#333333" d="M699,-564.5C699,-564.5 579,-564.5 579,-564.5 573,-564.5 567,-558.5 567,-552.5 567,-552.5 567,-540.5 567,-540.5 567,-534.5 573,-528.5 579,-528.5 579,-528.5 699,-528.5 699,-528.5 705,-528.5 711,-534.5 711,-540.5 711,-540.5 711,-552.5 711,-552.5 711,-558.5 705,-564.5 699,-564.5"/>
<text text-anchor="middle" x="639" y="-549.5" font-family="DejaVu Sans" font-size="10.00">Karl Gehringer</text>
<text text-anchor="middle" x="639" y="-538.5" font-family="DejaVu Sans" font-size="10.00">*24.09.1910 &#160;+18.10.1975</text>
</g>
<!-- att38 -->
<g id="P_att38" class="node">
<title>att38</title>
<path fill="#fde7ef" stroke="#111111" stroke-width="1.8" d="M875,-567C875,-567 755,-567 755,-567 749,-567 743,-561 743,-555 743,-555 743,-538 743,-538 743,-532 749,-526 755,-526 755,-526 875,-526 875,-526 881,-526 887,-532 887,-538 887,-538 887,-555 887,-555 887,-561 881,-567 875,-567"/>
<text text-anchor="middle" x="815" y="-555" font-family="DejaVu Sans" font-size="10.00">Rosa (Rosi) Gehringer</text>
<text text-anchor="middle" x="815" y="-544" font-family="DejaVu Sans" font-size="10.00">geb. Polasek</text>
<text text-anchor="middle" x="815" y="-533" font-family="DejaVu Sans" font-size="10.00">*25.08.1914 &#160;+12.09.1996</text>
</g>
<!-- geh09&#45;&gt;att38 -->
<!-- geh09&#45;&gt;att38 -->
<!-- M_gehF3 -->
<g id="M_gehF3" class="node">
<title>M_gehF3</title>
<ellipse fill="#fff3b0" stroke="#b08900" cx="727" cy="-458" rx="27" ry="18"/>
<text text-anchor="middle" x="727" y="-455.8" font-family="DejaVu Sans" font-size="9.00">oo</text>
</g>
<!-- geh09&#45;&gt;M_gehF3 -->
<g id="edge19" class="edge">
<title>geh09&#45;&gt;M_gehF3</title>
<path fill="none" stroke="#555555" d="M656.39,-528.41C672.72,-512.36 696.88,-488.61 712.28,-473.47"/>
</g>
<!-- g5p10 -->
<g id="P_g5p10" class="node">
<title>g5p10</title>
<path fill="#fde7ef" stroke="#333333" d="M601.5,-36C601.5,-36 530.5,-36 530.5,-36 524.5,-36 518.5,-30 518.5,-24 518.5,-24 518.5,-12 518.5,-12 518.5,-6 524.5,0 530.5,0 530.5,0 601.5,0 601.5,0 607.5,0 613.5,-6 613.5,-12 613.5,-12 613.5,-24 613.5,-24 613.5,-30 607.5,-36 601.5,-36"/>
<text text-anchor="middle" x="566" y="-21" font-family="DejaVu Sans" font-size="10.00">Floria Gehringer</text>
<text text-anchor="middle" x="566" y="-10" font-family="DejaVu Sans" font-size="10.00">*20.12.2007</text>
</g>
<!-- g4p01&#45;&gt;geh06 -->
<!-- g4p01&#45;&gt;geh05 -->
<!-- g4p01&#45;&gt;M_g4F1 -->
<g id="edge56" class="edge">
<title>g4p01&#45;&gt;M_g4F1</title>
<path fill="none" stroke="#555555" d="M1132,-171.87C1132,-156.92 1132,-136.53 1132,-122.21"/>
</g>
<!-- g5p09&#45;&gt;g5p10 -->
<!-- geh04&#45;&gt;geh03 -->
<!-- geh04&#45;&gt;M_gehF2 -->
<g id="edge39" class="edge">
<title>geh04&#45;&gt;M_gehF2</title>
<path fill="none" stroke="#555555" d="M938.69,-348.87C908.45,-332.52 866.19,-309.68 839.73,-295.37"/>
</g>
<!-- att38&#45;&gt;geh09 -->
<!-- att38&#45;&gt;M_gehF3 -->
<g id="edge20" class="edge">
<title>att38&#45;&gt;M_gehF3</title>
<path fill="none" stroke="#555555" d="M795.03,-525.87C778.8,-509.92 756.29,-487.79 741.68,-473.43"/>
</g>
<!-- gehS01&#45;&gt;geh08 -->
<!-- gehS01&#45;&gt;M_gehF4 -->
<g id="edge32" class="edge">
<title>gehS01&#45;&gt;M_gehF4</title>
<path fill="none" stroke="#555555" d="M317.26,-171.87C322.87,-156.72 330.54,-135.98 335.84,-121.64"/>
</g>
<!-- M_gehF1&#45;&gt;geh06 -->
<g id="edge5" class="edge">
<title>M_gehF1&#45;&gt;geh06</title>
<path fill="none" stroke="#555555" d="M665.12,-276.27C700.14,-271.27 758,-263 758,-263 758,-263 1200,-213 1200,-213 1200,-213 1202.3,-212.47 1206.16,-211.59"/>
<polygon fill="#555555" stroke="#555555" points="1207.02,-214.98 1215.99,-209.33 1205.46,-208.16 1207.02,-214.98"/>
</g>
<!-- M_gehF1&#45;&gt;geh05 -->
<g id="edge4" class="edge">
<title>M_gehF1&#45;&gt;geh05</title>
<path fill="none" stroke="#555555" d="M664.29,-274.05C734.04,-257.66 924,-213 924,-213 924,-213 926.41,-212.33 930.34,-211.24"/>
<polygon fill="#555555" stroke="#555555" points="931.54,-214.53 940.24,-208.48 929.66,-207.79 931.54,-214.53"/>
</g>
<!-- M_g4F3&#45;&gt;g4p07 -->
<g id="edge13" class="edge">
<title>M_g4F3&#45;&gt;g4p07</title>
<path fill="none" stroke="#555555" d="M898.97,-89.88C882.52,-77.2 857.24,-57.72 837.34,-42.38"/>
<polygon fill="#555555" stroke="#555555" points="839.25,-39.43 829.19,-36.1 834.97,-44.98 839.25,-39.43"/>
</g>
<!-- M_g4F3&#45;&gt;g4p08 -->
<g id="edge14" class="edge">
<title>M_g4F3&#45;&gt;g4p08</title>
<path fill="none" stroke="#555555" d="M916,-85.6C916,-74.26 916,-59.23 916,-46.32"/>
<polygon fill="#555555" stroke="#555555" points="919.5,-46.1 916,-36.1 912.5,-46.1 919.5,-46.1"/>
</g>
<!-- M_g4F3&#45;&gt;g4p09 -->
<g id="edge15" class="edge">
<title>M_g4F3&#45;&gt;g4p09</title>
<path fill="none" stroke="#555555" d="M933.03,-89.88C949.48,-77.2 974.76,-57.72 994.66,-42.38"/>
<polygon fill="#555555" stroke="#555555" points="997.03,-44.98 1002.81,-36.1 992.75,-39.43 997.03,-44.98"/>
</g>
<!-- M_gehF3&#45;&gt;geh01 -->
<g id="edge21" class="edge">
<title>M_gehF3&#45;&gt;geh01</title>
<path fill="none" stroke="#555555" d="M712.47,-442.72C699.3,-429.77 679.6,-410.41 663.92,-394.99"/>
<polygon fill="#555555" stroke="#555555" points="666.17,-392.3 656.59,-387.79 661.26,-397.29 666.17,-392.3"/>
</g>
<!-- M_gehF3&#45;&gt;geh03 -->
<g id="edge22" class="edge">
<title>M_gehF3&#45;&gt;geh03</title>
<path fill="none" stroke="#555555" d="M741.53,-442.72C754.7,-429.77 774.4,-410.41 790.08,-394.99"/>
<polygon fill="#555555" stroke="#555555" points="792.74,-397.29 797.41,-387.79 787.83,-392.3 792.74,-397.29"/>
</g>
<!-- M_g4F2&#45;&gt;g4p05 -->
<g id="edge36" class="edge">
<title>M_g4F2&#45;&gt;g4p05</title>
<path fill="none" stroke="#555555" d="M737.28,-87.2C729.18,-75.27 717.9,-58.65 708.51,-44.8"/>
<polygon fill="#555555" stroke="#555555" points="711.17,-42.48 702.65,-36.17 705.37,-46.41 711.17,-42.48"/>
</g>
<!-- M_gehF2&#45;&gt;geh08 -->
<g id="edge41" class="edge">
<title>M_gehF2&#45;&gt;geh08</title>
<path fill="none" stroke="#555555" d="M779.99,-271.47C724.58,-257.97 615.24,-231.33 539.92,-212.97"/>
<polygon fill="#555555" stroke="#555555" points="540.53,-209.52 529.99,-210.55 538.88,-216.32 540.53,-209.52"/>
</g>
<!-- M_gehF2&#45;&gt;geh07 -->
<g id="edge40" class="edge">
<title>M_gehF2&#45;&gt;geh07</title>
<path fill="none" stroke="#555555" d="M776.17,-275.04C736.92,-270.02 682,-263 682,-263 682,-263 248,-213 248,-213 248,-213 245.59,-212.33 241.66,-211.24"/>
<polygon fill="#555555" stroke="#555555" points="242.34,-207.79 231.76,-208.48 240.46,-214.53 242.34,-207.79"/>
</g>
<!-- M_g5F4&#45;&gt;g5p08 -->
<g id="edge49" class="edge">
<title>M_g5F4&#45;&gt;g5p08</title>
<path fill="none" stroke="#555555" d="M440.81,-91.32C419.65,-78.44 385.11,-57.42 358.71,-41.35"/>
<polygon fill="#555555" stroke="#555555" points="360.46,-38.32 350.1,-36.11 356.83,-44.3 360.46,-38.32"/>
</g>
<!-- M_g5F4&#45;&gt;g5p10 -->
<g id="edge51" class="edge">
<title>M_g5F4&#45;&gt;g5p10</title>
<path fill="none" stroke="#555555" d="M477.03,-89.5C493.01,-76.84 517.24,-57.64 536.38,-42.47"/>
<polygon fill="#555555" stroke="#555555" points="538.57,-45.2 544.24,-36.25 534.23,-39.71 538.57,-45.2"/>
</g>
<!-- M_g5F4&#45;&gt;g5p09 -->
<g id="edge50" class="edge">
<title>M_g5F4&#45;&gt;g5p09</title>
<path fill="none" stroke="#555555" d="M456.76,-86C454.59,-74.58 451.67,-59.27 449.18,-46.18"/>
<polygon fill="#555555" stroke="#555555" points="452.6,-45.43 447.29,-36.26 445.72,-46.74 452.6,-45.43"/>
</g>
<!-- M_g4F1&#45;&gt;g4p03 -->
<g id="edge58" class="edge">
<title>M_g4F1&#45;&gt;g4p03</title>
<path fill="none" stroke="#555555" d="M1152.45,-91.85C1176.18,-78.9 1215.87,-57.25 1245.83,-40.91"/>
<polygon fill="#555555" stroke="#555555" points="1247.69,-43.89 1254.79,-36.02 1244.33,-37.74 1247.69,-43.89"/>
</g>
<!-- M_g4F1&#45;&gt;g4p02 -->
<g id="edge57" class="edge">
<title>M_g4F1&#45;&gt;g4p02</title>
<path fill="none" stroke="#555555" d="M1135.24,-86C1137.41,-74.58 1140.33,-59.27 1142.82,-46.18"/>
<polygon fill="#555555" stroke="#555555" points="1146.28,-46.74 1144.71,-36.26 1139.4,-45.43 1146.28,-46.74"/>
</g>
</g>
</svg>
