<?xml version="1.0" encoding="UTF-8" standalone="no"?>
<!DOCTYPE svg PUBLIC "-//W3C//DTD SVG 1.1//EN"
 "http://www.w3.org/Graphics/SVG/1.1/DTD/svg11.dtd">
<!-- Generated by graphviz version 2.43.0 (0)
 -->
<!-- Title: %3 Pages: 1 -->
<svg width="1361pt" height="596pt"
 viewBox="0.00 0.00 1361.00 596.00" xmlns="http://www.w3.org/2000/svg" xmlns:xlink="http://www.w3.org/1999/xlink">
<style><![CDATA[
  g[id^="P_"], g[id^="M_"] { cursor: pointer; }
  .highlight ellipse, .highlight polygon, .highlight path, .highlight rect {
    stroke: #d00; stroke-width: 2.5;
  }
  @keyframes pulse { 0%,100%{opacity:1} 50%{opacity:.45} }
  .blink { animation: pulse 0.9s ease-in-out 3; }
]]></style>
<script><![CDATA[
(function(){
  var SPOUSE = {"P_geh01": ["P_geh02"], "P_geh02": ["P_geh01"], "P_geh05": ["P_g4p01", "P_g4p04"], "P_g4p01": ["P_geh05"], "P_geh08": ["P_gehS01", "P_g5p07"], "P_gehS01": ["P_geh08"], "P_geh09": ["P_att38"], "P_att38": ["P_geh09"], "P_geh03": ["P_geh04"], "P_geh04": ["P_geh03"], "P_g5p07": ["P_geh08"], "P_geh07": ["P_g5p04"], "P_g5p04": ["P_geh07"], "P_g4p04": ["P_geh05"], "P_g4p06": ["P_geh06"], "P_geh06": ["P_g4p06"]};
  var FAMILY = {"M_gehF1": ["P_geh01", "P_geh02", "P_geh05", "P_geh06"], "M_g4F1": ["P_geh05", "P_g4p01", "P_g4p02", "P_g4p03"], "M_gehF4": ["P_geh08", "P_gehS01"], "M_gehF3": ["P_geh09", "P_att38", "P_geh01", "P_geh03"], "M_gehF2": ["P_geh03", "P_geh04", "P_geh07", "P_geh08"], "M_g5F4": ["P_geh08", "P_g5p07", "P_g5p08", "P_g5p09", "P_g5p10"], "M_g5F2": ["P_geh07", "P_g5p04"], "M_g4F2": ["P_geh05", "P_g4p04", "P_g4p05"], "M_g4F3": ["P_g4p06", "P_geh06", "P_g4p07", "P_g4p08", "P_g4p09"]};
  function clearHl(){ document.querySelectorAll('.blink').forEach(function(n){ n.classList.remove('blink'); n.classList.remove('highlight'); }); }
  function hl(id){ var el=document.getElementById(id); if(el){ el.classList.add('highlight'); el.classList.add('blink'); } }
  document.addEventListener('click', function(evt){
    var target = evt.target;
    var g = target.closest && target.closest('g[id^="P_"], g[id^="M_"]');
    if (!g) { while (target) { if (target.id && /^([PM]_)/.test(target.id) && target.tagName && target.tagName.toLowerCase() === 'g') { g = target; break; } target = target.parentNode; } }
    if (!g) return;
    var id = g.id; clearHl();
    if (/^P_/.test(id)) { (SPOUSE[id] || []).forEach(hl); }
    else if (/^M_/.test(id)) { hl(id); (FAMILY[id] || []).forEach(hl); }
  }, false);
})();
]]></script>

<g id="graph0" class="graph" transform="scale(1 1) rotate(0) translate(4 592)">
<title>%3</title>
<polygon fill="white" stroke="transparent" points="-4,4 -4,-592 1357,-592 1357,4 -4,4"/>
<text text-anchor="middle" x="676.5" y="-574.4" font-family="DejaVu Sans" font-size="12.00">Rosi</text>
<!-- g5p09 -->
<g id="P_g5p09" class="node">
<title>g5p09</title>
<path fill="#fde7ef" stroke="#333333" d="M364.5,-36C364.5,-36 303.5,-36 303.5,-36 297.5,-36 291.5,-30 291.5,-24 291.5,-24 291.5,-12 291.5,-12 291.5,-6 297.5,0 303.5,0 303.5,0 364.5,0 364.5,0 370.5,0 376.5,-6 376.5,-12 376.5,-12 376.5,-24 376.5,-24 376.5,-30 370.5,-36 364.5,-36"/>
<text text-anchor="middle" x="334" y="-21" font-family="DejaVu Sans" font-size="10.00">Lea Gehringer</text>
<text text-anchor="middle" x="334" y="-10" font-family="DejaVu Sans" font-size="10.00">*24.02.2005</text>
</g>
<!-- g5p10 -->
<g id="P_g5p10" class="node">
<title>g5p10</title>
<path fill="#fde7ef" stroke="#333333" d="M491.5,-36C491.5,-36 420.5,-36 420.5,-36 414.5,-36 408.5,-30 408.5,-24 408.5,-24 408.5,-12 408.5,-12 408.5,-6 414.5,0 420.5,0 420.5,0 491.5,0 491.5,0 497.5,0 503.5,-6 503.5,-12 503.5,-12 503.5,-24 503.5,-24 503.5,-30 497.5,-36 491.5,-36"/>
<text text-anchor="middle" x="456" y="-21" font-family="DejaVu Sans" font-size="10.00">Floria Gehringer</text>
<text text-anchor="middle" x="456" y="-10" font-family="DejaVu Sans" font-size="10.00">*20.12.2007</text>
</g>
<!-- g5p09&#45;&gt;g5p10 -->
<!-- g4p03 -->
<g id="P_g4p03" class="node">
<title>g4p03</title>
<path fill="#dbeafe" stroke="#333333" d="M833.5,-36C833.5,-36 750.5,-36 750.5,-36 744.5,-36 738.5,-30 738.5,-24 738.5,-24 738.5,-12 738.5,-12 738.5,-6 744.5,0 750.5,0 750.5,0 833.5,0 833.5,0 839.5,0 845.5,-6 845.5,-12 845.5,-12 845.5,-24 845.5,-24 845.5,-30 839.5,-36 833.5,-36"/>
<text text-anchor="middle" x="792" y="-21" font-family="DejaVu Sans" font-size="10.00">Thomas Gehringer</text>
<text text-anchor="middle" x="792" y="-10" font-family="DejaVu Sans" font-size="10.00">*02.08.2002</text>
</g>
<!-- gehS01 -->
<g id="P_gehS01" class="node">
<title>gehS01</title>
<path fill="#fde7ef" stroke="#333333" d="M651,-213C651,-213 583,-213 583,-213 577,-213 571,-207 571,-201 571,-201 571,-184 571,-184 571,-178 577,-172 583,-172 583,-172 651,-172 651,-172 657,-172 663,-178 663,-184 663,-184 663,-201 663,-201 663,-207 657,-213 651,-213"/>
<text text-anchor="middle" x="617" y="-201" font-family="DejaVu Sans" font-size="10.00">Edith Gehringer</text>
<text text-anchor="middle" x="617" y="-190" font-family="DejaVu Sans" font-size="10.00">geb. Schmölz</text>
<text text-anchor="middle" x="617" y="-179" font-family="DejaVu Sans" font-size="10.00">*23.02.1970</text>
</g>
<!-- geh08 -->
<g id="P_geh08" class="node">
<title>geh08</title>
<path fill="#dbeafe" stroke="#333333" d="M527,-210.5C527,-210.5 407,-210.5 407,-210.5 401,-210.5 395,-204.5 395,-198.5 395,-198.5 395,-186.5 395,-186.5 395,-180.5 401,-174.5 407,-174.5 407,-174.5 527,-174.5 527,-174.5 533,-174.5 539,-180.5 539,-186.5 539,-186.5 539,-198.5 539,-198.5 539,-204.5 533,-210.5 527,-210.5"/>
<text text-anchor="middle" x="467" y="-195.5" font-family="DejaVu Sans" font-size="10.00">Raoul Gehringer</text>
<text text-anchor="middle" x="467" y="-184.5" font-family="DejaVu Sans" font-size="10.00">*18.08.1971 &#160;+19.03.2018</text>
</g>
<!-- gehS01&#45;&gt;geh08 -->
<!-- M_gehF4 -->
<g id="M_gehF4" class="node">
<title>M_gehF4</title>
<ellipse fill="#fff3b0" stroke="#b08900" cx="542" cy="-104" rx="27" ry="18"/>
<text text-anchor="middle" x="542" y="-101.8" font-family="DejaVu Sans" font-size="9.00">oo</text>
</g>
<!-- gehS01&#45;&gt;M_gehF4 -->
<g id="edge18" class="edge">
<title>gehS01&#45;&gt;M_gehF4</title>
<path fill="none" stroke="#555555" d="M599.98,-171.87C586.32,-156.12 567.44,-134.34 554.98,-119.97"/>
</g>
<!-- geh07 -->
<g id="P_geh07" class="node">
<title>geh07</title>
<path fill="#dbeafe" stroke="#333333" d="M219.5,-210.5C219.5,-210.5 136.5,-210.5 136.5,-210.5 130.5,-210.5 124.5,-204.5 124.5,-198.5 124.5,-198.5 124.5,-186.5 124.5,-186.5 124.5,-180.5 130.5,-174.5 136.5,-174.5 136.5,-174.5 219.5,-174.5 219.5,-174.5 225.5,-174.5 231.5,-180.5 231.5,-186.5 231.5,-186.5 231.5,-198.5 231.5,-198.5 231.5,-204.5 225.5,-210.5 219.5,-210.5"/>
<text text-anchor="middle" x="178" y="-195.5" font-family="DejaVu Sans" font-size="10.00">Andreas Gehringer</text>
<text text-anchor="middle" x="178" y="-184.5" font-family="DejaVu Sans" font-size="10.00">*28.06.1966</text>
</g>
<!-- geh07&#45;&gt;geh08 -->
<!-- g5p04 -->
<g id="P_g5p04" class="node">
<title>g5p04</title>
<path fill="#fde7ef" stroke="#333333" d="M80,-210.5C80,-210.5 12,-210.5 12,-210.5 6,-210.5 0,-204.5 0,-198.5 0,-198.5 0,-186.5 0,-186.5 0,-180.5 6,-174.5 12,-174.5 12,-174.5 80,-174.5 80,-174.5 86,-174.5 92,-180.5 92,-186.5 92,-186.5 92,-198.5 92,-198.5 92,-204.5 86,-210.5 80,-210.5"/>
<text text-anchor="middle" x="46" y="-195.5" font-family="DejaVu Sans" font-size="10.00">Daniela Niehoff</text>
<text text-anchor="middle" x="46" y="-184.5" font-family="DejaVu Sans" font-size="10.00">*20.07.1969</text>
</g>
<!-- geh07&#45;&gt;g5p04 -->
<!-- geh07&#45;&gt;g5p04 -->
<!-- geh07&#45;&gt;g5p04 -->
<!-- M_g5F2 -->
<g id="M_g5F2" class="node">
<title>M_g5F2</title>
<ellipse fill="#fff3b0" stroke="#b08900" cx="112" cy="-104" rx="40.98" ry="18"/>
<text text-anchor="middle" x="112" y="-101.8" font-family="DejaVu Sans" font-size="9.00">28.06.2016</text>
</g>
<!-- geh07&#45;&gt;M_g5F2 -->
<g id="edge46" class="edge">
<title>geh07&#45;&gt;M_g5F2</title>
<path fill="none" stroke="#555555" d="M164.96,-174.41C153.16,-158.95 135.92,-136.35 124.34,-121.18"/>
</g>
<!-- g5p07 -->
<g id="P_g5p07" class="node">
<title>g5p07</title>
<path fill="#fde7ef" stroke="#333333" d="M350.5,-210.5C350.5,-210.5 275.5,-210.5 275.5,-210.5 269.5,-210.5 263.5,-204.5 263.5,-198.5 263.5,-198.5 263.5,-186.5 263.5,-186.5 263.5,-180.5 269.5,-174.5 275.5,-174.5 275.5,-174.5 350.5,-174.5 350.5,-174.5 356.5,-174.5 362.5,-180.5 362.5,-186.5 362.5,-186.5 362.5,-198.5 362.5,-198.5 362.5,-204.5 356.5,-210.5 350.5,-210.5"/>
<text text-anchor="middle" x="313" y="-195.5" font-family="DejaVu Sans" font-size="10.00">Ulrike De_Bortoli</text>
<text text-anchor="middle" x="313" y="-184.5" font-family="DejaVu Sans" font-size="10.00">*25.11.1967</text>
</g>
<!-- g5p07&#45;&gt;geh08 -->
<!-- M_g5F4 -->
<g id="M_g5F4" class="node">
<title>M_g5F4</title>
<ellipse fill="#fff3b0" stroke="#b08900" cx="334" cy="-104" rx="27" ry="18"/>
<text text-anchor="middle" x="334" y="-101.8" font-family="DejaVu Sans" font-size="9.00">oo</text>
</g>
<!-- g5p07&#45;&gt;M_g5F4 -->
<g id="edge39" class="edge">
<title>g5p07&#45;&gt;M_g5F4</title>
<path fill="none" stroke="#555555" d="M317.15,-174.41C320.83,-159.25 326.18,-137.21 329.86,-122.05"/>
</g>
<!-- g4p04 -->
<g id="P_g4p04" class="node">
<title>g4p04</title>
<path fill="#fde7ef" stroke="#333333" d="M1341,-213C1341,-213 1261,-213 1261,-213 1255,-213 1249,-207 1249,-201 1249,-201 1249,-184 1249,-184 1249,-178 1255,-172 1261,-172 1261,-172 1341,-172 1341,-172 1347,-172 1353,-178 1353,-184 1353,-184 1353,-201 1353,-201 1353,-207 1347,-213 1341,-213"/>
<text text-anchor="middle" x="1301" y="-201" font-family="DejaVu Sans" font-size="10.00">Eva Gehringer</text>
<text text-anchor="middle" x="1301" y="-190" font-family="DejaVu Sans" font-size="10.00">geb. Wasserbauer</text>
<text text-anchor="middle" x="1301" y="-179" font-family="DejaVu Sans" font-size="10.00">*01.05.1973</text>
</g>
<!-- geh05 -->
<g id="P_geh05" class="node">
<title>geh05</title>
<path fill="#dbeafe" stroke="#333333" d="M926.5,-210.5C926.5,-210.5 843.5,-210.5 843.5,-210.5 837.5,-210.5 831.5,-204.5 831.5,-198.5 831.5,-198.5 831.5,-186.5 831.5,-186.5 831.5,-180.5 837.5,-174.5 843.5,-174.5 843.5,-174.5 926.5,-174.5 926.5,-174.5 932.5,-174.5 938.5,-180.5 938.5,-186.5 938.5,-186.5 938.5,-198.5 938.5,-198.5 938.5,-204.5 932.5,-210.5 926.5,-210.5"/>
<text text-anchor="middle" x="885" y="-195.5" font-family="DejaVu Sans" font-size="10.00">Thomas Gehringer</text>
<text text-anchor="middle" x="885" y="-184.5" font-family="DejaVu Sans" font-size="10.00">*18.06.1966</text>
</g>
<!-- g4p04&#45;&gt;geh05 -->
<!-- M_g4F2 -->
<g id="M_g4F2" class="node">
<title>M_g4F2</title>
<ellipse fill="#fff3b0" stroke="#b08900" cx="1292" cy="-104" rx="27" ry="18"/>
<text text-anchor="middle" x="1292" y="-101.8" font-family="DejaVu Sans" font-size="9.00">oo</text>
</g>
<!-- g4p04&#45;&gt;M_g4F2 -->
<g id="edge50" class="edge">
<title>g4p04&#45;&gt;M_g4F2</title>
<path fill="none" stroke="#555555" d="M1298.96,-171.87C1297.4,-156.92 1295.28,-136.53 1293.79,-122.21"/>
</g>
<!-- geh05&#45;&gt;g4p04 -->
<!-- geh05&#45;&gt;g4p04 -->
<!-- geh06 -->
<g id="P_geh06" class="node">
<title>geh06</title>
<path fill="#fde7ef" stroke="#333333" d="M1097,-213C1097,-213 983,-213 983,-213 977,-213 971,-207 971,-201 971,-201 971,-184 971,-184 971,-178 977,-172 983,-172 983,-172 1097,-172 1097,-172 1103,-172 1109,-178 1109,-184 1109,-184 1109,-201 1109,-201 1109,-207 1103,-213 1097,-213"/>
<text text-anchor="middle" x="1040" y="-201" font-family="DejaVu Sans" font-size="10.00">Patricia Meyer&#45;Gehringer</text>
<text text-anchor="middle" x="1040" y="-190" font-family="DejaVu Sans" font-size="10.00">geb. Gehringer</text>
<text text-anchor="middle" x="1040" y="-179" font-family="DejaVu Sans" font-size="10.00">*02.08.1974</text>
</g>
<!-- geh05&#45;&gt;geh06 -->
<!-- g4p01 -->
<g id="P_g4p01" class="node">
<title>g4p01</title>
<path fill="#fde7ef" stroke="#333333" d="M787,-213C787,-213 707,-213 707,-213 701,-213 695,-207 695,-201 695,-201 695,-184 695,-184 695,-178 701,-172 707,-172 707,-172 787,-172 787,-172 793,-172 799,-178 799,-184 799,-184 799,-201 799,-201 799,-207 793,-213 787,-213"/>
<text text-anchor="middle" x="747" y="-201" font-family="DejaVu Sans" font-size="10.00">Rosalia Gehringer</text>
<text text-anchor="middle" x="747" y="-190" font-family="DejaVu Sans" font-size="10.00">geb. Karsai</text>
<text text-anchor="middle" x="747" y="-179" font-family="DejaVu Sans" font-size="10.00">*18.05.1961</text>
</g>
<!-- geh05&#45;&gt;g4p01 -->
<!-- geh05&#45;&gt;g4p01 -->
<!-- geh05&#45;&gt;g4p01 -->
<!-- M_g4F1 -->
<g id="M_g4F1" class="node">
<title>M_g4F1</title>
<ellipse fill="#fff3b0" stroke="#b08900" cx="762" cy="-104" rx="27" ry="18"/>
<text text-anchor="middle" x="762" y="-101.8" font-family="DejaVu Sans" font-size="9.00">oo</text>
</g>
<!-- geh05&#45;&gt;M_g4F1 -->
<g id="edge11" class="edge">
<title>geh05&#45;&gt;M_g4F1</title>
<path fill="none" stroke="#555555" d="M860.7,-174.41C836.9,-157.67 801.18,-132.55 779.87,-117.57"/>
</g>
<!-- geh05&#45;&gt;M_g4F2 -->
<g id="edge49" class="edge">
<title>geh05&#45;&gt;M_g4F2</title>
<path fill="none" stroke="#555555" d="M938.76,-176.52C948.16,-173.9 955,-172 955,-172 955,-172 1187.75,-125.73 1266.39,-110.09"/>
</g>
<!-- geh04 -->
<g id="P_geh04" class="node">
<title>geh04</title>
<path fill="#fde7ef" stroke="#333333" d="M552,-390C552,-390 464,-390 464,-390 458,-390 452,-384 452,-378 452,-378 452,-361 452,-361 452,-355 458,-349 464,-349 464,-349 552,-349 552,-349 558,-349 564,-355 564,-361 564,-361 564,-378 564,-378 564,-384 558,-390 552,-390"/>
<text text-anchor="middle" x="508" y="-378" font-family="DejaVu Sans" font-size="10.00">Michaela Gehringer</text>
<text text-anchor="middle" x="508" y="-367" font-family="DejaVu Sans" font-size="10.00">geb. Kaminski</text>
<text text-anchor="middle" x="508" y="-356" font-family="DejaVu Sans" font-size="10.00">*10.04.1944</text>
</g>
<!-- geh03 -->
<g id="P_geh03" class="node">
<title>geh03</title>
<path fill="#dbeafe" stroke="#333333" d="M1080,-387.5C1080,-387.5 960,-387.5 960,-387.5 954,-387.5 948,-381.5 948,-375.5 948,-375.5 948,-363.5 948,-363.5 948,-357.5 954,-351.5 960,-351.5 960,-351.5 1080,-351.5 1080,-351.5 1086,-351.5 1092,-357.5 1092,-363.5 1092,-363.5 1092,-375.5 1092,-375.5 1092,-381.5 1086,-387.5 1080,-387.5"/>
<text text-anchor="middle" x="1020" y="-372.5" font-family="DejaVu Sans" font-size="10.00">Rolf Gehringer</text>
<text text-anchor="middle" x="1020" y="-361.5" font-family="DejaVu Sans" font-size="10.00">*23.04.1944 &#160;+26.06.2020</text>
</g>
<!-- geh04&#45;&gt;geh03 -->
<!-- M_gehF2 -->
<g id="M_gehF2" class="node">
<title>M_gehF2</title>
<ellipse fill="#fff3b0" stroke="#b08900" cx="508" cy="-281" rx="27" ry="18"/>
<text text-anchor="middle" x="508" y="-278.8" font-family="DejaVu Sans" font-size="9.00">oo</text>
</g>
<!-- geh04&#45;&gt;M_gehF2 -->
<g id="edge30" class="edge">
<title>geh04&#45;&gt;M_gehF2</title>
<path fill="none" stroke="#555555" d="M508,-348.87C508,-333.92 508,-313.53 508,-299.21"/>
</g>
<!-- g4p05 -->
<g id="P_g4p05" class="node">
<title>g4p05</title>
<path fill="#dbeafe" stroke="#333333" d="M1325.5,-36C1325.5,-36 1258.5,-36 1258.5,-36 1252.5,-36 1246.5,-30 1246.5,-24 1246.5,-24 1246.5,-12 1246.5,-12 1246.5,-6 1252.5,0 1258.5,0 1258.5,0 1325.5,0 1325.5,0 1331.5,0 1337.5,-6 1337.5,-12 1337.5,-12 1337.5,-24 1337.5,-24 1337.5,-30 1331.5,-36 1325.5,-36"/>
<text text-anchor="middle" x="1292" y="-21" font-family="DejaVu Sans" font-size="10.00">Felix Gehringer</text>
<text text-anchor="middle" x="1292" y="-10" font-family="DejaVu Sans" font-size="10.00">*19.07.2005</text>
</g>
<!-- geh08&#45;&gt;gehS01 -->
<!-- geh08&#45;&gt;gehS01 -->
<!-- geh08&#45;&gt;gehS01 -->
<!-- geh08&#45;&gt;g5p07 -->
<!-- geh08&#45;&gt;g5p07 -->
<!-- geh08&#45;&gt;M_gehF4 -->
<g id="edge17" class="edge">
<title>geh08&#45;&gt;M_gehF4</title>
<path fill="none" stroke="#555555" d="M481.82,-174.41C495.56,-158.56 515.82,-135.19 528.97,-120.03"/>
</g>
<!-- geh08&#45;&gt;M_g5F4 -->
<g id="edge38" class="edge">
<title>geh08&#45;&gt;M_g5F4</title>
<path fill="none" stroke="#555555" d="M440.72,-174.41C414.83,-157.57 375.91,-132.26 352.92,-117.31"/>
</g>
<!-- g4p06 -->
<g id="P_g4p06" class="node">
<title>g4p06</title>
<path fill="#dbeafe" stroke="#333333" d="M1205,-210.5C1205,-210.5 1153,-210.5 1153,-210.5 1147,-210.5 1141,-204.5 1141,-198.5 1141,-198.5 1141,-186.5 1141,-186.5 1141,-180.5 1147,-174.5 1153,-174.5 1153,-174.5 1205,-174.5 1205,-174.5 1211,-174.5 1217,-180.5 1217,-186.5 1217,-186.5 1217,-198.5 1217,-198.5 1217,-204.5 1211,-210.5 1205,-210.5"/>
<text text-anchor="middle" x="1179" y="-195.5" font-family="DejaVu Sans" font-size="10.00">Dirk Meyer</text>
<text text-anchor="middle" x="1179" y="-184.5" font-family="DejaVu Sans" font-size="10.00">*17.04.1974</text>
</g>
<!-- geh06&#45;&gt;g4p06 -->
<!-- M_g4F3 -->
<g id="M_g4F3" class="node">
<title>M_g4F3</title>
<ellipse fill="#fff3b0" stroke="#b08900" cx="1049" cy="-104" rx="27" ry="18"/>
<text text-anchor="middle" x="1049" y="-101.8" font-family="DejaVu Sans" font-size="9.00">oo</text>
</g>
<!-- geh06&#45;&gt;M_g4F3 -->
<g id="edge54" class="edge">
<title>geh06&#45;&gt;M_g4F3</title>
<path fill="none" stroke="#555555" d="M1042.04,-171.87C1043.6,-156.92 1045.72,-136.53 1047.21,-122.21"/>
</g>
<!-- g4p01&#45;&gt;geh05 -->
<!-- g4p01&#45;&gt;geh06 -->
<!-- g4p01&#45;&gt;M_g4F1 -->
<g id="edge12" class="edge">
<title>g4p01&#45;&gt;M_g4F1</title>
<path fill="none" stroke="#555555" d="M750.4,-171.87C753.01,-156.82 756.58,-136.26 759.07,-121.92"/>
</g>
<!-- geh09 -->
<g id="P_geh09" class="node">
<title>geh09</title>
<path fill="#dbeafe" stroke="#333333" d="M904,-564.5C904,-564.5 784,-564.5 784,-564.5 778,-564.5 772,-558.5 772,-552.5 772,-552.5 772,-540.5 772,-540.5 772,-534.5 778,-528.5 784,-528.5 784,-528.5 904,-528.5 904,-528.5 910,-528.5 916,-534.5 916,-540.5 916,-540.5 916,-552.5 916,-552.5 916,-558.5 910,-564.5 904,-564.5"/>
<text text-anchor="middle" x="844" y="-549.5" font-family="DejaVu Sans" font-size="10.00">Karl Gehringer</text>
<text text-anchor="middle" x="844" y="-538.5" font-family="DejaVu Sans" font-size="10.00">*24.09.1910 &#160;+18.10.1975</text>
</g>
<!-- att38 -->
<g id="P_att38" class="node">
<title>att38</title>
<path fill="#fde7ef" stroke="#111111" stroke-width="1.8" d="M1080,-567C1080,-567 960,-567 960,-567 954,-567 948,-561 948,-555 948,-555 948,-538 948,-538 948,-532 954,-526 960,-526 960,-526 1080,-526 1080,-526 1086,-526 1092,-532 1092,-538 1092,-538 1092,-555 1092,-555 1092,-561 1086,-567 1080,-567"/>
<text text-anchor="middle" x="1020" y="-555" font-family="DejaVu Sans" font-size="10.00">Rosa (Rosi) Gehringer</text>
<text text-anchor="middle" x="1020" y="-544" font-family="DejaVu Sans" font-size="10.00">geb. Polasek</text>
<text text-anchor="middle" x="1020" y="-533" font-family="DejaVu Sans" font-size="10.00">*25.08.1914 &#160;+12.09.1996</text>
</g>
<!-- geh09&#45;&gt;att38 -->
<!-- geh09&#45;&gt;att38 -->
<!-- M_gehF3 -->
<g id="M_gehF3" class="node">
<title>M_gehF3</title>
<ellipse fill="#fff3b0" stroke="#b08900" cx="932" cy="-458" rx="27" ry="18"/>
<text text-anchor="middle" x="932" y="-455.8" font-family="DejaVu Sans" font-size="9.00">oo</text>
</g>
<!-- geh09&#45;&gt;M_gehF3 -->
<g id="edge20" class="edge">
<title>geh09&#45;&gt;M_gehF3</title>
<path fill="none" stroke="#555555" d="M861.39,-528.41C877.72,-512.36 901.88,-488.61 917.28,-473.47"/>
</g>
<!-- g5p04&#45;&gt;geh07 -->
<!-- g5p04&#45;&gt;geh08 -->
<!-- g5p04&#45;&gt;M_g5F2 -->
<g id="edge47" class="edge">
<title>g5p04&#45;&gt;M_g5F2</title>
<path fill="none" stroke="#555555" d="M59.04,-174.41C70.84,-158.95 88.08,-136.35 99.66,-121.18"/>
</g>
<!-- g4p06&#45;&gt;geh06 -->
<!-- g4p06&#45;&gt;geh06 -->
<!-- g4p06&#45;&gt;geh06 -->
<!-- g4p06&#45;&gt;M_g4F3 -->
<g id="edge53" class="edge">
<title>g4p06&#45;&gt;M_g4F3</title>
<path fill="none" stroke="#555555" d="M1153.32,-174.41C1128.01,-157.57 1089.97,-132.26 1067.49,-117.31"/>
</g>
<!-- geh01 -->
<g id="P_geh01" class="node">
<title>geh01</title>
<path fill="#dbeafe" stroke="#333333" d="M904,-387.5C904,-387.5 784,-387.5 784,-387.5 778,-387.5 772,-381.5 772,-375.5 772,-375.5 772,-363.5 772,-363.5 772,-357.5 778,-351.5 784,-351.5 784,-351.5 904,-351.5 904,-351.5 910,-351.5 916,-357.5 916,-363.5 916,-363.5 916,-375.5 916,-375.5 916,-381.5 910,-387.5 904,-387.5"/>
<text text-anchor="middle" x="844" y="-372.5" font-family="DejaVu Sans" font-size="10.00">Horst Gehringer</text>
<text text-anchor="middle" x="844" y="-361.5" font-family="DejaVu Sans" font-size="10.00">*12.01.1941 &#160;+08.09.2008</text>
</g>
<!-- geh01&#45;&gt;geh03 -->
<!-- geh02 -->
<g id="P_geh02" class="node">
<title>geh02</title>
<path fill="#fde7ef" stroke="#333333" d="M728,-390C728,-390 608,-390 608,-390 602,-390 596,-384 596,-378 596,-378 596,-361 596,-361 596,-355 602,-349 608,-349 608,-349 728,-349 728,-349 734,-349 740,-355 740,-361 740,-361 740,-378 740,-378 740,-384 734,-390 728,-390"/>
<text text-anchor="middle" x="668" y="-378" font-family="DejaVu Sans" font-size="10.00">Annemarie Gehringer</text>
<text text-anchor="middle" x="668" y="-367" font-family="DejaVu Sans" font-size="10.00">geb. Hermanek</text>
<text text-anchor="middle" x="668" y="-356" font-family="DejaVu Sans" font-size="10.00">*27.08.1944 &#160;+10.06.2014</text>
</g>
<!-- geh01&#45;&gt;geh02 -->
<!-- geh01&#45;&gt;geh02 -->
<!-- geh01&#45;&gt;geh02 -->
<!-- M_gehF1 -->
<g id="M_gehF1" class="node">
<title>M_gehF1</title>
<ellipse fill="#fff3b0" stroke="#b08900" cx="844" cy="-281" rx="27" ry="18"/>
<text text-anchor="middle" x="844" y="-278.8" font-family="DejaVu Sans" font-size="9.00">oo</text>
</g>
<!-- geh01&#45;&gt;M_gehF1 -->
<g id="edge2" class="edge">
<title>geh01&#45;&gt;M_gehF1</title>
<path fill="none" stroke="#555555" d="M844,-351.41C844,-336.25 844,-314.21 844,-299.05"/>
</g>
<!-- g4p08 -->
<g id="P_g4p08" class="node">
<title>g4p08</title>
<path fill="#fde7ef" stroke="#333333" d="M1075,-36C1075,-36 1023,-36 1023,-36 1017,-36 1011,-30 1011,-24 1011,-24 1011,-12 1011,-12 1011,-6 1017,0 1023,0 1023,0 1075,0 1075,0 1081,0 1087,-6 1087,-12 1087,-12 1087,-24 1087,-24 1087,-30 1081,-36 1075,-36"/>
<text text-anchor="middle" x="1049" y="-21" font-family="DejaVu Sans" font-size="10.00">Nora Meyer</text>
<text text-anchor="middle" x="1049" y="-10" font-family="DejaVu Sans" font-size="10.00">*07.06.2003</text>
</g>
<!-- g4p09 -->
<g id="P_g4p09" class="node">
<title>g4p09</title>
<path fill="#fde7ef" stroke="#333333" d="M1184.5,-36C1184.5,-36 1131.5,-36 1131.5,-36 1125.5,-36 1119.5,-30 1119.5,-24 1119.5,-24 1119.5,-12 1119.5,-12 1119.5,-6 1125.5,0 1131.5,0 1131.5,0 1184.5,0 1184.5,0 1190.5,0 1196.5,-6 1196.5,-12 1196.5,-12 1196.5,-24 1196.5,-24 1196.5,-30 1190.5,-36 1184.5,-36"/>
<text text-anchor="middle" x="1158" y="-21" font-family="DejaVu Sans" font-size="10.00">Tessa Meyer</text>
<text text-anchor="middle" x="1158" y="-10" font-family="DejaVu Sans" font-size="10.00">*27.03.2009</text>
</g>
<!-- g4p08&#45;&gt;g4p09 -->
<!-- att38&#45;&gt;geh09 -->
<!-- att38&#45;&gt;M_gehF3 -->
<g id="edge21" class="edge">
<title>att38&#45;&gt;M_gehF3</title>
<path fill="none" stroke="#555555" d="M1000.03,-525.87C983.8,-509.92 961.29,-487.79 946.68,-473.43"/>
</g>
<!-- geh03&#45;&gt;geh04 -->
<!-- geh03&#45;&gt;geh04 -->
<!-- geh03&#45;&gt;geh04 -->
<!-- geh03&#45;&gt;M_gehF2 -->
<g id="edge29" class="edge">
<title>geh03&#45;&gt;M_gehF2</title>
<path fill="none" stroke="#555555" d="M947.73,-352.49C938.39,-350.42 932,-349 932,-349 932,-349 626.64,-300.75 534.2,-286.14"/>
</g>
<!-- g4p07 -->
<g id="P_g4p07" class="node">
<title>g4p07</title>
<path fill="#fde7ef" stroke="#333333" d="M966.5,-36C966.5,-36 913.5,-36 913.5,-36 907.5,-36 901.5,-30 901.5,-24 901.5,-24 901.5,-12 901.5,-12 901.5,-6 907.5,0 913.5,0 913.5,0 966.5,0 966.5,0 972.5,0 978.5,-6 978.5,-12 978.5,-12 978.5,-24 978.5,-24 978.5,-30 972.5,-36 966.5,-36"/>
<text text-anchor="middle" x="940" y="-21" font-family="DejaVu Sans" font-size="10.00">Laura Meyer</text>
<text text-anchor="middle" x="940" y="-10" font-family="DejaVu Sans" font-size="10.00">*06.09.2001</text>
</g>
<!-- g4p07&#45;&gt;g4p08 -->
<!-- g5p08 -->
<g id="P_g5p08" class="node">
<title>g5p08</title>
<path fill="#dbeafe" stroke="#333333" d="M247,-36C247,-36 177,-36 177,-36 171,-36 165,-30 165,-24 165,-24 165,-12 165,-12 165,-6 171,0 177,0 177,0 247,0 247,0 253,0 259,-6 259,-12 259,-12 259,-24 259,-24 259,-30 253,-36 247,-36"/>
<text text-anchor="middle" x="212" y="-21" font-family="DejaVu Sans" font-size="10.00">Jacob Gehringer</text>
<text text-anchor="middle" x="212" y="-10" font-family="DejaVu Sans" font-size="10.00">*06.03.2003</text>
</g>
<!-- g5p08&#45;&gt;g5p09 -->
<!-- g4p02 -->
<g id="P_g4p02" class="node">
<title>g4p02</title>
<path fill="#fde7ef" stroke="#333333" d="M694,-36C694,-36 614,-36 614,-36 608,-36 602,-30 602,-24 602,-24 602,-12 602,-12 602,-6 608,0 614,0 614,0 694,0 694,0 700,0 706,-6 706,-12 706,-12 706,-24 706,-24 706,-30 700,-36 694,-36"/>
<text text-anchor="middle" x="654" y="-21" font-family="DejaVu Sans" font-size="10.00">Yvonne Gehringer</text>
<text text-anchor="middle" x="654" y="-10" font-family="DejaVu Sans" font-size="10.00">*18.01.1995</text>
</g>
<!-- g4p02&#45;&gt;g4p03 -->
<!-- geh02&#45;&gt;geh01 -->
<!-- geh02&#45;&gt;geh03 -->
<!-- geh02&#45;&gt;M_gehF1 -->
<g id="edge3" class="edge">
<title>geh02&#45;&gt;M_gehF1</title>
<path fill="none" stroke="#555555" d="M707.94,-348.87C743.64,-331.33 794.56,-306.3 822.9,-292.37"/>
</g>
<!-- M_gehF1&#45;&gt;geh05 -->
<g id="edge4" class="edge">
<title>M_gehF1&#45;&gt;geh05</title>
<path fill="none" stroke="#555555" d="M851.71,-263.73C857.55,-251.4 865.7,-234.21 872.48,-219.92"/>
<polygon fill="#555555" stroke="#555555" points="875.78,-221.12 876.9,-210.58 869.46,-218.12 875.78,-221.12"/>
</g>
<!-- M_gehF1&#45;&gt;geh06 -->
<g id="edge5" class="edge">
<title>M_gehF1&#45;&gt;geh06</title>
<path fill="none" stroke="#555555" d="M866.1,-270.25C895.11,-257.44 946.99,-234.55 986.55,-217.09"/>
<polygon fill="#555555" stroke="#555555" points="988.08,-220.24 995.81,-213 985.25,-213.84 988.08,-220.24"/>
</g>
<!-- M_g4F1&#45;&gt;g4p03 -->
<g id="edge14" class="edge">
<title>M_g4F1&#45;&gt;g4p03</title>
<path fill="none" stroke="#555555" d="M767.93,-86.4C772.06,-74.82 777.67,-59.11 782.44,-45.77"/>
<polygon fill="#555555" stroke="#555555" points="785.81,-46.73 785.88,-36.14 779.22,-44.38 785.81,-46.73"/>
</g>
<!-- M_g4F1&#45;&gt;g4p02 -->
<g id="edge13" class="edge">
<title>M_g4F1&#45;&gt;g4p02</title>
<path fill="none" stroke="#555555" d="M745.12,-89.88C728.83,-77.2 703.78,-57.72 684.07,-42.38"/>
<polygon fill="#555555" stroke="#555555" points="686.03,-39.48 675.99,-36.1 681.73,-45 686.03,-39.48"/>
</g>
<!-- M_gehF3&#45;&gt;geh01 -->
<g id="edge22" class="edge">
<title>M_gehF3&#45;&gt;geh01</title>
<path fill="none" stroke="#555555" d="M917.47,-442.72C904.3,-429.77 884.6,-410.41 868.92,-394.99"/>
<polygon fill="#555555" stroke="#555555" points="871.17,-392.3 861.59,-387.79 866.26,-397.29 871.17,-392.3"/>
</g>
<!-- M_gehF3&#45;&gt;geh03 -->
<g id="edge23" class="edge">
<title>M_gehF3&#45;&gt;geh03</title>
<path fill="none" stroke="#555555" d="M946.53,-442.72C959.7,-429.77 979.4,-410.41 995.08,-394.99"/>
<polygon fill="#555555" stroke="#555555" points="997.74,-397.29 1002.41,-387.79 992.83,-392.3 997.74,-397.29"/>
</g>
<!-- M_gehF2&#45;&gt;geh07 -->
<g id="edge31" class="edge">
<title>M_gehF2&#45;&gt;geh07</title>
<path fill="none" stroke="#555555" d="M482.97,-273.58C417.65,-256.81 247,-213 247,-213 247,-213 244.86,-212.39 241.33,-211.4"/>
<polygon fill="#555555" stroke="#555555" points="242.26,-208.02 231.69,-208.67 240.36,-214.76 242.26,-208.02"/>
</g>
<!-- M_gehF2&#45;&gt;geh08 -->
<g id="edge32" class="edge">
<title>M_gehF2&#45;&gt;geh08</title>
<path fill="none" stroke="#555555" d="M500.29,-263.73C494.45,-251.4 486.3,-234.21 479.52,-219.92"/>
<polygon fill="#555555" stroke="#555555" points="482.54,-218.12 475.1,-210.58 476.22,-221.12 482.54,-218.12"/>
</g>
<!-- M_g5F4&#45;&gt;g5p09 -->
<g id="edge41" class="edge">
<title>M_g5F4&#45;&gt;g5p09</title>
<path fill="none" stroke="#555555" d="M334,-85.6C334,-74.26 334,-59.23 334,-46.32"/>
<polygon fill="#555555" stroke="#555555" points="337.5,-46.1 334,-36.1 330.5,-46.1 337.5,-46.1"/>
</g>
<!-- M_g5F4&#45;&gt;g5p10 -->
<g id="edge42" class="edge">
<title>M_g5F4&#45;&gt;g5p10</title>
<path fill="none" stroke="#555555" d="M352.26,-90.42C370.89,-77.6 400.2,-57.42 422.92,-41.78"/>
<polygon fill="#555555" stroke="#555555" points="425.02,-44.58 431.27,-36.03 421.05,-38.82 425.02,-44.58"/>
</g>
<!-- M_g5F4&#45;&gt;g5p08 -->
<g id="edge40" class="edge">
<title>M_g5F4&#45;&gt;g5p08</title>
<path fill="none" stroke="#555555" d="M315.74,-90.42C297.11,-77.6 267.8,-57.42 245.08,-41.78"/>
<polygon fill="#555555" stroke="#555555" points="246.95,-38.82 236.73,-36.03 242.98,-44.58 246.95,-38.82"/>
</g>
<!-- M_g4F2&#45;&gt;g4p05 -->
<g id="edge51" class="edge">
<title>M_g4F2&#45;&gt;g4p05</title>
<path fill="none" stroke="#555555" d="M1292,-85.6C1292,-74.26 1292,-59.23 1292,-46.32"/>
<polygon fill="#555555" stroke="#555555" points="1295.5,-46.1 1292,-36.1 1288.5,-46.1 1295.5,-46.1"/>
</g>
<!-- M_g4F3&#45;&gt;g4p08 -->
<g id="edge56" class="edge">
<title>M_g4F3&#45;&gt;g4p08</title>
<path fill="none" stroke="#555555" d="M1049,-85.6C1049,-74.26 1049,-59.23 1049,-46.32"/>
<polygon fill="#555555" stroke="#555555" points="1052.5,-46.1 1049,-36.1 1045.5,-46.1 1052.5,-46.1"/>
</g>
<!-- M_g4F3&#45;&gt;g4p07 -->
<g id="edge55" class="edge">
<title>M_g4F3&#45;&gt;g4p07</title>
<path fill="none" stroke="#555555" d="M1031.97,-89.88C1015.52,-77.2 990.24,-57.72 970.34,-42.38"/>
<polygon fill="#555555" stroke="#555555" points="972.25,-39.43 962.19,-36.1 967.97,-44.98 972.25,-39.43"/>
</g>
<!-- M_g4F3&#45;&gt;g4p09 -->
<g id="edge57" class="edge">
<title>M_g4F3&#45;&gt;g4p09</title>
<path fill="none" stroke="#555555" d="M1066.03,-89.88C1082.48,-77.2 1107.76,-57.72 1127.66,-42.38"/>
<polygon fill="#555555" stroke="#555555" points="1130.03,-44.98 1135.81,-36.1 1125.75,-39.43 1130.03,-44.98"/>
</g>
</g>
</svg>
