<?xml version="1.0" encoding="UTF-8" standalone="no"?>
<!DOCTYPE svg PUBLIC "-//W3C//DTD SVG 1.1//EN"
 "http://www.w3.org/Graphics/SVG/1.1/DTD/svg11.dtd">
<!-- Generated by graphviz version 2.43.0 (0)
 -->
<!-- Title: %3 Pages: 1 -->
<svg width="1362pt" height="596pt"
 viewBox="0.00 0.00 1362.00 596.00" xmlns="http://www.w3.org/2000/svg" xmlns:xlink="http://www.w3.org/1999/xlink">
<style><![CDATA[
  g[id^="P_"], g[id^="M_"] { cursor: pointer; }
  .highlight ellipse, .highlight polygon, .highlight path, .highlight rect {
    stroke: #d00; stroke-width: 2.5;
  }
  @keyframes pulse { 0%,100%{opacity:1} 50%{opacity:.45} }
  .blink { animation: pulse 0.9s ease-in-out 3; }
]]></style>
<script><![CDATA[
(function(){
  var SPOUSE = {"P_geh08": ["P_gehS01", "P_g5p07"], "P_gehS01": ["P_geh08"], "P_geh03": ["P_geh04"], "P_geh04": ["P_geh03"], "P_geh05": ["P_g4p01", "P_g4p04"], "P_g4p01": ["P_geh05"], "P_g4p04": ["P_geh05"], "P_geh01": ["P_geh02"], "P_geh02": ["P_geh01"], "P_geh09": ["P_att38"], "P_att38": ["P_geh09"], "P_g4p06": ["P_geh06"], "P_geh06": ["P_g4p06"], "P_g5p07": ["P_geh08"], "P_geh07": ["P_g5p04"], "P_g5p04": ["P_geh07"]};
  var FAMILY = {"M_gehF4": ["P_geh08", "P_gehS01"], "M_gehF2": ["P_geh03", "P_geh04", "P_geh07", "P_geh08"], "M_g4F1": ["P_geh05", "P_g4p01", "P_g4p02", "P_g4p03"], "M_g4F2": ["P_geh05", "P_g4p04", "P_g4p05"], "M_gehF1": ["P_geh01", "P_geh02", "P_geh05", "P_geh06"], "M_gehF3": ["P_geh09", "P_att38", "P_geh01", "P_geh03"], "M_g4F3": ["P_g4p06", "P_geh06", "P_g4p07", "P_g4p08", "P_g4p09"], "M_g5F4": ["P_geh08", "P_g5p07", "P_g5p08", "P_g5p09", "P_g5p10"], "M_g5F2": ["P_geh07", "P_g5p04"]};
  function clearHl(){ document.querySelectorAll('.blink').forEach(function(n){ n.classList.remove('blink'); n.classList.remove('highlight'); }); }
  function hl(id){ var el=document.getElementById(id); if(el){ el.classList.add('highlight'); el.classList.add('blink'); } }
  document.addEventListener('click', function(evt){
    var target = evt.target;
    var g = target.closest && target.closest('g[id^="P_"], g[id^="M_"]');
    if (!g) { while (target) { if (target.id && /^([PM]_)/.test(target.id) && target.tagName && target.tagName.toLowerCase() === 'g') { g = target; break; } target = target.parentNode; } }
    if (!g) return;
    var id = g.id; clearHl();
    if (/^P_/.test(id)) { (SPOUSE[id] || []).forEach(hl); }
    else if (/^M_/.test(id)) { hl(id); (FAMILY[id] || []).forEach(hl); }
  }, false);
})();
]]></script>

<g id="graph0" class="graph" transform="scale(1 1) rotate(0) translate(4 592)">
<title>%3</title>
<polygon fill="white" stroke="transparent" points="-4,4 -4,-592 1358,-592 1358,4 -4,4"/>
<text text-anchor="middle" x="677" y="-574.4" font-family="DejaVu Sans" font-size="12.00">Rosi</text>
<!-- gehS01 -->
<g id="P_gehS01" class="node">
<title>gehS01</title>
<path fill="#fde7ef" stroke="#333333" d="M344,-213C344,-213 276,-213 276,-213 270,-213 264,-207 264,-201 264,-201 264,-184 264,-184 264,-178 270,-172 276,-172 276,-172 344,-172 344,-172 350,-172 356,-178 356,-184 356,-184 356,-201 356,-201 356,-207 350,-213 344,-213"/>
<text text-anchor="middle" x="310" y="-201" font-family="DejaVu Sans" font-size="10.00">Edith Gehringer</text>
<text text-anchor="middle" x="310" y="-190" font-family="DejaVu Sans" font-size="10.00">geb. Schmölz</text>
<text text-anchor="middle" x="310" y="-179" font-family="DejaVu Sans" font-size="10.00">*23.02.1970</text>
</g>
<!-- geh08 -->
<g id="P_geh08" class="node">
<title>geh08</title>
<path fill="#dbeafe" stroke="#333333" d="M520,-210.5C520,-210.5 400,-210.5 400,-210.5 394,-210.5 388,-204.5 388,-198.5 388,-198.5 388,-186.5 388,-186.5 388,-180.5 394,-174.5 400,-174.5 400,-174.5 520,-174.5 520,-174.5 526,-174.5 532,-180.5 532,-186.5 532,-186.5 532,-198.5 532,-198.5 532,-204.5 526,-210.5 520,-210.5"/>
<text text-anchor="middle" x="460" y="-195.5" font-family="DejaVu Sans" font-size="10.00">Raoul Gehringer</text>
<text text-anchor="middle" x="460" y="-184.5" font-family="DejaVu Sans" font-size="10.00">*18.08.1971 &#160;+19.03.2018</text>
</g>
<!-- gehS01&#45;&gt;geh08 -->
<!-- M_gehF4 -->
<g id="M_gehF4" class="node">
<title>M_gehF4</title>
<ellipse fill="#fff3b0" stroke="#b08900" cx="342" cy="-104" rx="27" ry="18"/>
<text text-anchor="middle" x="342" y="-101.8" font-family="DejaVu Sans" font-size="9.00">oo</text>
</g>
<!-- gehS01&#45;&gt;M_gehF4 -->
<g id="edge3" class="edge">
<title>gehS01&#45;&gt;M_gehF4</title>
<path fill="none" stroke="#555555" d="M317.26,-171.87C322.87,-156.72 330.54,-135.98 335.84,-121.64"/>
</g>
<!-- g5p08 -->
<g id="P_g5p08" class="node">
<title>g5p08</title>
<path fill="#dbeafe" stroke="#333333" d="M369,-36C369,-36 299,-36 299,-36 293,-36 287,-30 287,-24 287,-24 287,-12 287,-12 287,-6 293,0 299,0 299,0 369,0 369,0 375,0 381,-6 381,-12 381,-12 381,-24 381,-24 381,-30 375,-36 369,-36"/>
<text text-anchor="middle" x="334" y="-21" font-family="DejaVu Sans" font-size="10.00">Jacob Gehringer</text>
<text text-anchor="middle" x="334" y="-10" font-family="DejaVu Sans" font-size="10.00">*06.03.2003</text>
</g>
<!-- g5p09 -->
<g id="P_g5p09" class="node">
<title>g5p09</title>
<path fill="#fde7ef" stroke="#333333" d="M486.5,-36C486.5,-36 425.5,-36 425.5,-36 419.5,-36 413.5,-30 413.5,-24 413.5,-24 413.5,-12 413.5,-12 413.5,-6 419.5,0 425.5,0 425.5,0 486.5,0 486.5,0 492.5,0 498.5,-6 498.5,-12 498.5,-12 498.5,-24 498.5,-24 498.5,-30 492.5,-36 486.5,-36"/>
<text text-anchor="middle" x="456" y="-21" font-family="DejaVu Sans" font-size="10.00">Lea Gehringer</text>
<text text-anchor="middle" x="456" y="-10" font-family="DejaVu Sans" font-size="10.00">*24.02.2005</text>
</g>
<!-- g5p08&#45;&gt;g5p09 -->
<!-- att38 -->
<g id="P_att38" class="node">
<title>att38</title>
<path fill="#fde7ef" stroke="#111111" stroke-width="1.8" d="M645,-567C645,-567 525,-567 525,-567 519,-567 513,-561 513,-555 513,-555 513,-538 513,-538 513,-532 519,-526 525,-526 525,-526 645,-526 645,-526 651,-526 657,-532 657,-538 657,-538 657,-555 657,-555 657,-561 651,-567 645,-567"/>
<text text-anchor="middle" x="585" y="-555" font-family="DejaVu Sans" font-size="10.00">Rosa (Rosi) Gehringer</text>
<text text-anchor="middle" x="585" y="-544" font-family="DejaVu Sans" font-size="10.00">geb. Polasek</text>
<text text-anchor="middle" x="585" y="-533" font-family="DejaVu Sans" font-size="10.00">*25.08.1914 &#160;+12.09.1996</text>
</g>
<!-- geh09 -->
<g id="P_geh09" class="node">
<title>geh09</title>
<path fill="#dbeafe" stroke="#333333" d="M821,-564.5C821,-564.5 701,-564.5 701,-564.5 695,-564.5 689,-558.5 689,-552.5 689,-552.5 689,-540.5 689,-540.5 689,-534.5 695,-528.5 701,-528.5 701,-528.5 821,-528.5 821,-528.5 827,-528.5 833,-534.5 833,-540.5 833,-540.5 833,-552.5 833,-552.5 833,-558.5 827,-564.5 821,-564.5"/>
<text text-anchor="middle" x="761" y="-549.5" font-family="DejaVu Sans" font-size="10.00">Karl Gehringer</text>
<text text-anchor="middle" x="761" y="-538.5" font-family="DejaVu Sans" font-size="10.00">*24.09.1910 &#160;+18.10.1975</text>
</g>
<!-- att38&#45;&gt;geh09 -->
<!-- M_gehF3 -->
<g id="M_gehF3" class="node">
<title>M_gehF3</title>
<ellipse fill="#fff3b0" stroke="#b08900" cx="673" cy="-458" rx="27" ry="18"/>
<text text-anchor="middle" x="673" y="-455.8" font-family="DejaVu Sans" font-size="9.00">oo</text>
</g>
<!-- att38&#45;&gt;M_gehF3 -->
<g id="edge34" class="edge">
<title>att38&#45;&gt;M_gehF3</title>
<path fill="none" stroke="#555555" d="M604.97,-525.87C621.2,-509.92 643.71,-487.79 658.32,-473.43"/>
</g>
<!-- g5p07 -->
<g id="P_g5p07" class="node">
<title>g5p07</title>
<path fill="#fde7ef" stroke="#333333" d="M651.5,-210.5C651.5,-210.5 576.5,-210.5 576.5,-210.5 570.5,-210.5 564.5,-204.5 564.5,-198.5 564.5,-198.5 564.5,-186.5 564.5,-186.5 564.5,-180.5 570.5,-174.5 576.5,-174.5 576.5,-174.5 651.5,-174.5 651.5,-174.5 657.5,-174.5 663.5,-180.5 663.5,-186.5 663.5,-186.5 663.5,-198.5 663.5,-198.5 663.5,-204.5 657.5,-210.5 651.5,-210.5"/>
<text text-anchor="middle" x="614" y="-195.5" font-family="DejaVu Sans" font-size="10.00">Ulrike De_Bortoli</text>
<text text-anchor="middle" x="614" y="-184.5" font-family="DejaVu Sans" font-size="10.00">*25.11.1967</text>
</g>
<!-- g5p07&#45;&gt;geh08 -->
<!-- M_g5F4 -->
<g id="M_g5F4" class="node">
<title>M_g5F4</title>
<ellipse fill="#fff3b0" stroke="#b08900" cx="460" cy="-104" rx="27" ry="18"/>
<text text-anchor="middle" x="460" y="-101.8" font-family="DejaVu Sans" font-size="9.00">oo</text>
</g>
<!-- g5p07&#45;&gt;M_g5F4 -->
<g id="edge51" class="edge">
<title>g5p07&#45;&gt;M_g5F4</title>
<path fill="none" stroke="#555555" d="M583.57,-174.41C552.89,-157.18 506.41,-131.07 480.07,-116.27"/>
</g>
<!-- geh03 -->
<g id="P_geh03" class="node">
<title>geh03</title>
<path fill="#dbeafe" stroke="#333333" d="M821,-387.5C821,-387.5 701,-387.5 701,-387.5 695,-387.5 689,-381.5 689,-375.5 689,-375.5 689,-363.5 689,-363.5 689,-357.5 695,-351.5 701,-351.5 701,-351.5 821,-351.5 821,-351.5 827,-351.5 833,-357.5 833,-363.5 833,-363.5 833,-375.5 833,-375.5 833,-381.5 827,-387.5 821,-387.5"/>
<text text-anchor="middle" x="761" y="-372.5" font-family="DejaVu Sans" font-size="10.00">Rolf Gehringer</text>
<text text-anchor="middle" x="761" y="-361.5" font-family="DejaVu Sans" font-size="10.00">*23.04.1944 &#160;+26.06.2020</text>
</g>
<!-- geh04 -->
<g id="P_geh04" class="node">
<title>geh04</title>
<path fill="#fde7ef" stroke="#333333" d="M965,-390C965,-390 877,-390 877,-390 871,-390 865,-384 865,-378 865,-378 865,-361 865,-361 865,-355 871,-349 877,-349 877,-349 965,-349 965,-349 971,-349 977,-355 977,-361 977,-361 977,-378 977,-378 977,-384 971,-390 965,-390"/>
<text text-anchor="middle" x="921" y="-378" font-family="DejaVu Sans" font-size="10.00">Michaela Gehringer</text>
<text text-anchor="middle" x="921" y="-367" font-family="DejaVu Sans" font-size="10.00">geb. Kaminski</text>
<text text-anchor="middle" x="921" y="-356" font-family="DejaVu Sans" font-size="10.00">*10.04.1944</text>
</g>
<!-- geh03&#45;&gt;geh04 -->
<!-- geh03&#45;&gt;geh04 -->
<!-- geh03&#45;&gt;geh04 -->
<!-- M_gehF2 -->
<g id="M_gehF2" class="node">
<title>M_gehF2</title>
<ellipse fill="#fff3b0" stroke="#b08900" cx="761" cy="-281" rx="40.98" ry="18"/>
<text text-anchor="middle" x="761" y="-278.8" font-family="DejaVu Sans" font-size="9.00">09.09.1966</text>
</g>
<!-- geh03&#45;&gt;M_gehF2 -->
<g id="edge5" class="edge">
<title>geh03&#45;&gt;M_gehF2</title>
<path fill="none" stroke="#555555" d="M761,-351.41C761,-336.25 761,-314.21 761,-299.05"/>
</g>
<!-- geh01 -->
<g id="P_geh01" class="node">
<title>geh01</title>
<path fill="#dbeafe" stroke="#333333" d="M645,-387.5C645,-387.5 525,-387.5 525,-387.5 519,-387.5 513,-381.5 513,-375.5 513,-375.5 513,-363.5 513,-363.5 513,-357.5 519,-351.5 525,-351.5 525,-351.5 645,-351.5 645,-351.5 651,-351.5 657,-357.5 657,-363.5 657,-363.5 657,-375.5 657,-375.5 657,-381.5 651,-387.5 645,-387.5"/>
<text text-anchor="middle" x="585" y="-372.5" font-family="DejaVu Sans" font-size="10.00">Horst Gehringer</text>
<text text-anchor="middle" x="585" y="-361.5" font-family="DejaVu Sans" font-size="10.00">*12.01.1941 &#160;+08.09.2008</text>
</g>
<!-- geh01&#45;&gt;geh03 -->
<!-- geh02 -->
<g id="P_geh02" class="node">
<title>geh02</title>
<path fill="#fde7ef" stroke="#333333" d="M469,-390C469,-390 349,-390 349,-390 343,-390 337,-384 337,-378 337,-378 337,-361 337,-361 337,-355 343,-349 349,-349 349,-349 469,-349 469,-349 475,-349 481,-355 481,-361 481,-361 481,-378 481,-378 481,-384 475,-390 469,-390"/>
<text text-anchor="middle" x="409" y="-378" font-family="DejaVu Sans" font-size="10.00">Annemarie Gehringer</text>
<text text-anchor="middle" x="409" y="-367" font-family="DejaVu Sans" font-size="10.00">geb. Hermanek</text>
<text text-anchor="middle" x="409" y="-356" font-family="DejaVu Sans" font-size="10.00">*27.08.1944 &#160;+10.06.2014</text>
</g>
<!-- geh01&#45;&gt;geh02 -->
<!-- geh01&#45;&gt;geh02 -->
<!-- geh01&#45;&gt;geh02 -->
<!-- M_gehF1 -->
<g id="M_gehF1" class="node">
<title>M_gehF1</title>
<ellipse fill="#fff3b0" stroke="#b08900" cx="585" cy="-281" rx="27" ry="18"/>
<text text-anchor="middle" x="585" y="-278.8" font-family="DejaVu Sans" font-size="9.00">oo</text>
</g>
<!-- geh01&#45;&gt;M_gehF1 -->
<g id="edge24" class="edge">
<title>geh01&#45;&gt;M_gehF1</title>
<path fill="none" stroke="#555555" d="M585,-351.41C585,-336.25 585,-314.21 585,-299.05"/>
</g>
<!-- g4p01 -->
<g id="P_g4p01" class="node">
<title>g4p01</title>
<path fill="#fde7ef" stroke="#333333" d="M788,-213C788,-213 708,-213 708,-213 702,-213 696,-207 696,-201 696,-201 696,-184 696,-184 696,-178 702,-172 708,-172 708,-172 788,-172 788,-172 794,-172 800,-178 800,-184 800,-184 800,-201 800,-201 800,-207 794,-213 788,-213"/>
<text text-anchor="middle" x="748" y="-201" font-family="DejaVu Sans" font-size="10.00">Rosalia Gehringer</text>
<text text-anchor="middle" x="748" y="-190" font-family="DejaVu Sans" font-size="10.00">geb. Karsai</text>
<text text-anchor="middle" x="748" y="-179" font-family="DejaVu Sans" font-size="10.00">*18.05.1961</text>
</g>
<!-- geh05 -->
<g id="P_geh05" class="node">
<title>geh05</title>
<path fill="#dbeafe" stroke="#333333" d="M927.5,-210.5C927.5,-210.5 844.5,-210.5 844.5,-210.5 838.5,-210.5 832.5,-204.5 832.5,-198.5 832.5,-198.5 832.5,-186.5 832.5,-186.5 832.5,-180.5 838.5,-174.5 844.5,-174.5 844.5,-174.5 927.5,-174.5 927.5,-174.5 933.5,-174.5 939.5,-180.5 939.5,-186.5 939.5,-186.5 939.5,-198.5 939.5,-198.5 939.5,-204.5 933.5,-210.5 927.5,-210.5"/>
<text text-anchor="middle" x="886" y="-195.5" font-family="DejaVu Sans" font-size="10.00">Thomas Gehringer</text>
<text text-anchor="middle" x="886" y="-184.5" font-family="DejaVu Sans" font-size="10.00">*18.06.1966</text>
</g>
<!-- g4p01&#45;&gt;geh05 -->
<!-- geh06 -->
<g id="P_geh06" class="node">
<title>geh06</title>
<path fill="#fde7ef" stroke="#333333" d="M1098,-213C1098,-213 984,-213 984,-213 978,-213 972,-207 972,-201 972,-201 972,-184 972,-184 972,-178 978,-172 984,-172 984,-172 1098,-172 1098,-172 1104,-172 1110,-178 1110,-184 1110,-184 1110,-201 1110,-201 1110,-207 1104,-213 1098,-213"/>
<text text-anchor="middle" x="1041" y="-201" font-family="DejaVu Sans" font-size="10.00">Patricia Meyer&#45;Gehringer</text>
<text text-anchor="middle" x="1041" y="-190" font-family="DejaVu Sans" font-size="10.00">geb. Gehringer</text>
<text text-anchor="middle" x="1041" y="-179" font-family="DejaVu Sans" font-size="10.00">*02.08.1974</text>
</g>
<!-- g4p01&#45;&gt;geh06 -->
<!-- M_g4F1 -->
<g id="M_g4F1" class="node">
<title>M_g4F1</title>
<ellipse fill="#fff3b0" stroke="#b08900" cx="798" cy="-104" rx="27" ry="18"/>
<text text-anchor="middle" x="798" y="-101.8" font-family="DejaVu Sans" font-size="9.00">oo</text>
</g>
<!-- g4p01&#45;&gt;M_g4F1 -->
<g id="edge15" class="edge">
<title>g4p01&#45;&gt;M_g4F1</title>
<path fill="none" stroke="#555555" d="M759.35,-171.87C768.22,-156.52 780.41,-135.44 788.71,-121.08"/>
</g>
<!-- g5p04 -->
<g id="P_g5p04" class="node">
<title>g5p04</title>
<path fill="#fde7ef" stroke="#333333" d="M80,-210.5C80,-210.5 12,-210.5 12,-210.5 6,-210.5 0,-204.5 0,-198.5 0,-198.5 0,-186.5 0,-186.5 0,-180.5 6,-174.5 12,-174.5 12,-174.5 80,-174.5 80,-174.5 86,-174.5 92,-180.5 92,-186.5 92,-186.5 92,-198.5 92,-198.5 92,-204.5 86,-210.5 80,-210.5"/>
<text text-anchor="middle" x="46" y="-195.5" font-family="DejaVu Sans" font-size="10.00">Daniela Niehoff</text>
<text text-anchor="middle" x="46" y="-184.5" font-family="DejaVu Sans" font-size="10.00">*20.07.1969</text>
</g>
<!-- g5p04&#45;&gt;geh08 -->
<!-- geh07 -->
<g id="P_geh07" class="node">
<title>geh07</title>
<path fill="#dbeafe" stroke="#333333" d="M219.5,-210.5C219.5,-210.5 136.5,-210.5 136.5,-210.5 130.5,-210.5 124.5,-204.5 124.5,-198.5 124.5,-198.5 124.5,-186.5 124.5,-186.5 124.5,-180.5 130.5,-174.5 136.5,-174.5 136.5,-174.5 219.5,-174.5 219.5,-174.5 225.5,-174.5 231.5,-180.5 231.5,-186.5 231.5,-186.5 231.5,-198.5 231.5,-198.5 231.5,-204.5 225.5,-210.5 219.5,-210.5"/>
<text text-anchor="middle" x="178" y="-195.5" font-family="DejaVu Sans" font-size="10.00">Andreas Gehringer</text>
<text text-anchor="middle" x="178" y="-184.5" font-family="DejaVu Sans" font-size="10.00">*28.06.1966</text>
</g>
<!-- g5p04&#45;&gt;geh07 -->
<!-- M_g5F2 -->
<g id="M_g5F2" class="node">
<title>M_g5F2</title>
<ellipse fill="#fff3b0" stroke="#b08900" cx="112" cy="-104" rx="40.98" ry="18"/>
<text text-anchor="middle" x="112" y="-101.8" font-family="DejaVu Sans" font-size="9.00">28.06.2016</text>
</g>
<!-- g5p04&#45;&gt;M_g5F2 -->
<g id="edge59" class="edge">
<title>g5p04&#45;&gt;M_g5F2</title>
<path fill="none" stroke="#555555" d="M59.04,-174.41C70.84,-158.95 88.08,-136.35 99.66,-121.18"/>
</g>
<!-- geh04&#45;&gt;geh03 -->
<!-- geh04&#45;&gt;M_gehF2 -->
<g id="edge6" class="edge">
<title>geh04&#45;&gt;M_gehF2</title>
<path fill="none" stroke="#555555" d="M884.69,-348.87C854.45,-332.52 812.19,-309.68 785.73,-295.37"/>
</g>
<!-- g4p03 -->
<g id="P_g4p03" class="node">
<title>g4p03</title>
<path fill="#dbeafe" stroke="#333333" d="M889.5,-36C889.5,-36 806.5,-36 806.5,-36 800.5,-36 794.5,-30 794.5,-24 794.5,-24 794.5,-12 794.5,-12 794.5,-6 800.5,0 806.5,0 806.5,0 889.5,0 889.5,0 895.5,0 901.5,-6 901.5,-12 901.5,-12 901.5,-24 901.5,-24 901.5,-30 895.5,-36 889.5,-36"/>
<text text-anchor="middle" x="848" y="-21" font-family="DejaVu Sans" font-size="10.00">Thomas Gehringer</text>
<text text-anchor="middle" x="848" y="-10" font-family="DejaVu Sans" font-size="10.00">*02.08.2002</text>
</g>
<!-- geh08&#45;&gt;gehS01 -->
<!-- geh08&#45;&gt;gehS01 -->
<!-- geh08&#45;&gt;gehS01 -->
<!-- geh08&#45;&gt;g5p07 -->
<!-- geh08&#45;&gt;g5p07 -->
<!-- geh08&#45;&gt;M_gehF4 -->
<g id="edge2" class="edge">
<title>geh08&#45;&gt;M_gehF4</title>
<path fill="none" stroke="#555555" d="M436.69,-174.41C413.99,-157.77 379.99,-132.85 359.51,-117.83"/>
</g>
<!-- geh08&#45;&gt;M_g5F4 -->
<g id="edge50" class="edge">
<title>geh08&#45;&gt;M_g5F4</title>
<path fill="none" stroke="#555555" d="M460,-174.41C460,-159.25 460,-137.21 460,-122.05"/>
</g>
<!-- g4p09 -->
<g id="P_g4p09" class="node">
<title>g4p09</title>
<path fill="#fde7ef" stroke="#333333" d="M1216.5,-36C1216.5,-36 1163.5,-36 1163.5,-36 1157.5,-36 1151.5,-30 1151.5,-24 1151.5,-24 1151.5,-12 1151.5,-12 1151.5,-6 1157.5,0 1163.5,0 1163.5,0 1216.5,0 1216.5,0 1222.5,0 1228.5,-6 1228.5,-12 1228.5,-12 1228.5,-24 1228.5,-24 1228.5,-30 1222.5,-36 1216.5,-36"/>
<text text-anchor="middle" x="1190" y="-21" font-family="DejaVu Sans" font-size="10.00">Tessa Meyer</text>
<text text-anchor="middle" x="1190" y="-10" font-family="DejaVu Sans" font-size="10.00">*27.03.2009</text>
</g>
<!-- geh09&#45;&gt;att38 -->
<!-- geh09&#45;&gt;att38 -->
<!-- geh09&#45;&gt;M_gehF3 -->
<g id="edge33" class="edge">
<title>geh09&#45;&gt;M_gehF3</title>
<path fill="none" stroke="#555555" d="M743.61,-528.41C727.28,-512.36 703.12,-488.61 687.72,-473.47"/>
</g>
<!-- geh05&#45;&gt;g4p01 -->
<!-- geh05&#45;&gt;g4p01 -->
<!-- geh05&#45;&gt;g4p01 -->
<!-- geh05&#45;&gt;geh06 -->
<!-- g4p04 -->
<g id="P_g4p04" class="node">
<title>g4p04</title>
<path fill="#fde7ef" stroke="#333333" d="M1342,-213C1342,-213 1262,-213 1262,-213 1256,-213 1250,-207 1250,-201 1250,-201 1250,-184 1250,-184 1250,-178 1256,-172 1262,-172 1262,-172 1342,-172 1342,-172 1348,-172 1354,-178 1354,-184 1354,-184 1354,-201 1354,-201 1354,-207 1348,-213 1342,-213"/>
<text text-anchor="middle" x="1302" y="-201" font-family="DejaVu Sans" font-size="10.00">Eva Gehringer</text>
<text text-anchor="middle" x="1302" y="-190" font-family="DejaVu Sans" font-size="10.00">geb. Wasserbauer</text>
<text text-anchor="middle" x="1302" y="-179" font-family="DejaVu Sans" font-size="10.00">*01.05.1973</text>
</g>
<!-- geh05&#45;&gt;g4p04 -->
<!-- geh05&#45;&gt;g4p04 -->
<!-- geh05&#45;&gt;M_g4F1 -->
<g id="edge14" class="edge">
<title>geh05&#45;&gt;M_g4F1</title>
<path fill="none" stroke="#555555" d="M868.61,-174.41C852.28,-158.36 828.12,-134.61 812.72,-119.47"/>
</g>
<!-- M_g4F2 -->
<g id="M_g4F2" class="node">
<title>M_g4F2</title>
<ellipse fill="#fff3b0" stroke="#b08900" cx="1302" cy="-104" rx="27" ry="18"/>
<text text-anchor="middle" x="1302" y="-101.8" font-family="DejaVu Sans" font-size="9.00">oo</text>
</g>
<!-- geh05&#45;&gt;M_g4F2 -->
<g id="edge20" class="edge">
<title>geh05&#45;&gt;M_g4F2</title>
<path fill="none" stroke="#555555" d="M939.76,-176.52C949.16,-173.9 956,-172 956,-172 956,-172 1196.09,-125.51 1276.28,-109.98"/>
</g>
<!-- g5p10 -->
<g id="P_g5p10" class="node">
<title>g5p10</title>
<path fill="#fde7ef" stroke="#333333" d="M613.5,-36C613.5,-36 542.5,-36 542.5,-36 536.5,-36 530.5,-30 530.5,-24 530.5,-24 530.5,-12 530.5,-12 530.5,-6 536.5,0 542.5,0 542.5,0 613.5,0 613.5,0 619.5,0 625.5,-6 625.5,-12 625.5,-12 625.5,-24 625.5,-24 625.5,-30 619.5,-36 613.5,-36"/>
<text text-anchor="middle" x="578" y="-21" font-family="DejaVu Sans" font-size="10.00">Floria Gehringer</text>
<text text-anchor="middle" x="578" y="-10" font-family="DejaVu Sans" font-size="10.00">*20.12.2007</text>
</g>
<!-- g4p07 -->
<g id="P_g4p07" class="node">
<title>g4p07</title>
<path fill="#fde7ef" stroke="#333333" d="M998.5,-36C998.5,-36 945.5,-36 945.5,-36 939.5,-36 933.5,-30 933.5,-24 933.5,-24 933.5,-12 933.5,-12 933.5,-6 939.5,0 945.5,0 945.5,0 998.5,0 998.5,0 1004.5,0 1010.5,-6 1010.5,-12 1010.5,-12 1010.5,-24 1010.5,-24 1010.5,-30 1004.5,-36 998.5,-36"/>
<text text-anchor="middle" x="972" y="-21" font-family="DejaVu Sans" font-size="10.00">Laura Meyer</text>
<text text-anchor="middle" x="972" y="-10" font-family="DejaVu Sans" font-size="10.00">*06.09.2001</text>
</g>
<!-- g4p08 -->
<g id="P_g4p08" class="node">
<title>g4p08</title>
<path fill="#fde7ef" stroke="#333333" d="M1107,-36C1107,-36 1055,-36 1055,-36 1049,-36 1043,-30 1043,-24 1043,-24 1043,-12 1043,-12 1043,-6 1049,0 1055,0 1055,0 1107,0 1107,0 1113,0 1119,-6 1119,-12 1119,-12 1119,-24 1119,-24 1119,-30 1113,-36 1107,-36"/>
<text text-anchor="middle" x="1081" y="-21" font-family="DejaVu Sans" font-size="10.00">Nora Meyer</text>
<text text-anchor="middle" x="1081" y="-10" font-family="DejaVu Sans" font-size="10.00">*07.06.2003</text>
</g>
<!-- g4p07&#45;&gt;g4p08 -->
<!-- geh02&#45;&gt;geh03 -->
<!-- geh02&#45;&gt;geh01 -->
<!-- geh02&#45;&gt;M_gehF1 -->
<g id="edge25" class="edge">
<title>geh02&#45;&gt;M_gehF1</title>
<path fill="none" stroke="#555555" d="M448.94,-348.87C484.64,-331.33 535.56,-306.3 563.9,-292.37"/>
</g>
<!-- geh07&#45;&gt;g5p04 -->
<!-- geh07&#45;&gt;g5p04 -->
<!-- geh07&#45;&gt;g5p04 -->
<!-- geh07&#45;&gt;geh08 -->
<!-- geh07&#45;&gt;M_g5F2 -->
<g id="edge58" class="edge">
<title>geh07&#45;&gt;M_g5F2</title>
<path fill="none" stroke="#555555" d="M164.96,-174.41C153.16,-158.95 135.92,-136.35 124.34,-121.18"/>
</g>
<!-- g4p05 -->
<g id="P_g4p05" class="node">
<title>g4p05</title>
<path fill="#dbeafe" stroke="#333333" d="M1339.5,-36C1339.5,-36 1272.5,-36 1272.5,-36 1266.5,-36 1260.5,-30 1260.5,-24 1260.5,-24 1260.5,-12 1260.5,-12 1260.5,-6 1266.5,0 1272.5,0 1272.5,0 1339.5,0 1339.5,0 1345.5,0 1351.5,-6 1351.5,-12 1351.5,-12 1351.5,-24 1351.5,-24 1351.5,-30 1345.5,-36 1339.5,-36"/>
<text text-anchor="middle" x="1306" y="-21" font-family="DejaVu Sans" font-size="10.00">Felix Gehringer</text>
<text text-anchor="middle" x="1306" y="-10" font-family="DejaVu Sans" font-size="10.00">*19.07.2005</text>
</g>
<!-- g5p09&#45;&gt;g5p10 -->
<!-- g4p02 -->
<g id="P_g4p02" class="node">
<title>g4p02</title>
<path fill="#fde7ef" stroke="#333333" d="M750,-36C750,-36 670,-36 670,-36 664,-36 658,-30 658,-24 658,-24 658,-12 658,-12 658,-6 664,0 670,0 670,0 750,0 750,0 756,0 762,-6 762,-12 762,-12 762,-24 762,-24 762,-30 756,-36 750,-36"/>
<text text-anchor="middle" x="710" y="-21" font-family="DejaVu Sans" font-size="10.00">Yvonne Gehringer</text>
<text text-anchor="middle" x="710" y="-10" font-family="DejaVu Sans" font-size="10.00">*18.01.1995</text>
</g>
<!-- g4p02&#45;&gt;g4p03 -->
<!-- g4p06 -->
<g id="P_g4p06" class="node">
<title>g4p06</title>
<path fill="#dbeafe" stroke="#333333" d="M1206,-210.5C1206,-210.5 1154,-210.5 1154,-210.5 1148,-210.5 1142,-204.5 1142,-198.5 1142,-198.5 1142,-186.5 1142,-186.5 1142,-180.5 1148,-174.5 1154,-174.5 1154,-174.5 1206,-174.5 1206,-174.5 1212,-174.5 1218,-180.5 1218,-186.5 1218,-186.5 1218,-198.5 1218,-198.5 1218,-204.5 1212,-210.5 1206,-210.5"/>
<text text-anchor="middle" x="1180" y="-195.5" font-family="DejaVu Sans" font-size="10.00">Dirk Meyer</text>
<text text-anchor="middle" x="1180" y="-184.5" font-family="DejaVu Sans" font-size="10.00">*17.04.1974</text>
</g>
<!-- geh06&#45;&gt;g4p06 -->
<!-- M_g4F3 -->
<g id="M_g4F3" class="node">
<title>M_g4F3</title>
<ellipse fill="#fff3b0" stroke="#b08900" cx="1081" cy="-104" rx="27" ry="18"/>
<text text-anchor="middle" x="1081" y="-101.8" font-family="DejaVu Sans" font-size="9.00">oo</text>
</g>
<!-- geh06&#45;&gt;M_g4F3 -->
<g id="edge43" class="edge">
<title>geh06&#45;&gt;M_g4F3</title>
<path fill="none" stroke="#555555" d="M1050.08,-171.87C1057.13,-156.62 1066.8,-135.71 1073.44,-121.36"/>
</g>
<!-- g4p06&#45;&gt;geh06 -->
<!-- g4p06&#45;&gt;geh06 -->
<!-- g4p06&#45;&gt;geh06 -->
<!-- g4p06&#45;&gt;M_g4F3 -->
<g id="edge42" class="edge">
<title>g4p06&#45;&gt;M_g4F3</title>
<path fill="none" stroke="#555555" d="M1160.44,-174.41C1141.85,-158.16 1114.22,-134.02 1096.93,-118.92"/>
</g>
<!-- g4p04&#45;&gt;geh05 -->
<!-- g4p04&#45;&gt;M_g4F2 -->
<g id="edge21" class="edge">
<title>g4p04&#45;&gt;M_g4F2</title>
<path fill="none" stroke="#555555" d="M1302,-171.87C1302,-156.92 1302,-136.53 1302,-122.21"/>
</g>
<!-- g4p08&#45;&gt;g4p09 -->
<!-- M_gehF2&#45;&gt;geh08 -->
<g id="edge8" class="edge">
<title>M_gehF2&#45;&gt;geh08</title>
<path fill="none" stroke="#555555" d="M727.64,-270.41C679.98,-256.72 591.32,-231.24 529.14,-213.37"/>
<polygon fill="#555555" stroke="#555555" points="529.98,-209.97 519.4,-210.57 528.04,-216.7 529.98,-209.97"/>
</g>
<!-- M_gehF2&#45;&gt;geh07 -->
<g id="edge7" class="edge">
<title>M_gehF2&#45;&gt;geh07</title>
<path fill="none" stroke="#555555" d="M722.02,-274.91C602.3,-259.27 248,-213 248,-213 248,-213 245.59,-212.33 241.66,-211.24"/>
<polygon fill="#555555" stroke="#555555" points="242.34,-207.79 231.76,-208.48 240.46,-214.53 242.34,-207.79"/>
</g>
<!-- M_g4F1&#45;&gt;g4p03 -->
<g id="edge17" class="edge">
<title>M_g4F1&#45;&gt;g4p03</title>
<path fill="none" stroke="#555555" d="M807.64,-86.8C814.7,-74.95 824.42,-58.62 832.55,-44.96"/>
<polygon fill="#555555" stroke="#555555" points="835.77,-46.39 837.87,-36.01 829.75,-42.81 835.77,-46.39"/>
</g>
<!-- M_g4F1&#45;&gt;g4p02 -->
<g id="edge16" class="edge">
<title>M_g4F1&#45;&gt;g4p02</title>
<path fill="none" stroke="#555555" d="M783.07,-88.75C770.01,-76.28 750.76,-57.9 735.29,-43.14"/>
<polygon fill="#555555" stroke="#555555" points="737.7,-40.6 728.05,-36.23 732.87,-45.66 737.7,-40.6"/>
</g>
<!-- M_g4F2&#45;&gt;g4p05 -->
<g id="edge22" class="edge">
<title>M_g4F2&#45;&gt;g4p05</title>
<path fill="none" stroke="#555555" d="M1302.81,-86C1303.35,-74.69 1304.07,-59.58 1304.69,-46.57"/>
<polygon fill="#555555" stroke="#555555" points="1308.2,-46.42 1305.18,-36.26 1301.21,-46.08 1308.2,-46.42"/>
</g>
<!-- M_gehF1&#45;&gt;geh05 -->
<g id="edge26" class="edge">
<title>M_gehF1&#45;&gt;geh05</title>
<path fill="none" stroke="#555555" d="M609.38,-272.99C655.3,-259.8 755.99,-230.86 822.38,-211.78"/>
<polygon fill="#555555" stroke="#555555" points="823.68,-215.05 832.32,-208.93 821.74,-208.32 823.68,-215.05"/>
</g>
<!-- M_gehF1&#45;&gt;geh06 -->
<g id="edge27" class="edge">
<title>M_gehF1&#45;&gt;geh06</title>
<path fill="none" stroke="#555555" d="M610.79,-275.34C694.93,-260.15 956,-213 956,-213 956,-213 958.3,-212.47 962.16,-211.59"/>
<polygon fill="#555555" stroke="#555555" points="963.02,-214.98 971.99,-209.33 961.46,-208.16 963.02,-214.98"/>
</g>
<!-- M_gehF3&#45;&gt;geh03 -->
<g id="edge36" class="edge">
<title>M_gehF3&#45;&gt;geh03</title>
<path fill="none" stroke="#555555" d="M687.53,-442.72C700.7,-429.77 720.4,-410.41 736.08,-394.99"/>
<polygon fill="#555555" stroke="#555555" points="738.74,-397.29 743.41,-387.79 733.83,-392.3 738.74,-397.29"/>
</g>
<!-- M_gehF3&#45;&gt;geh01 -->
<g id="edge35" class="edge">
<title>M_gehF3&#45;&gt;geh01</title>
<path fill="none" stroke="#555555" d="M658.47,-442.72C645.3,-429.77 625.6,-410.41 609.92,-394.99"/>
<polygon fill="#555555" stroke="#555555" points="612.17,-392.3 602.59,-387.79 607.26,-397.29 612.17,-392.3"/>
</g>
<!-- M_g4F3&#45;&gt;g4p09 -->
<g id="edge46" class="edge">
<title>M_g4F3&#45;&gt;g4p09</title>
<path fill="none" stroke="#555555" d="M1098.03,-89.88C1114.48,-77.2 1139.76,-57.72 1159.66,-42.38"/>
<polygon fill="#555555" stroke="#555555" points="1162.03,-44.98 1167.81,-36.1 1157.75,-39.43 1162.03,-44.98"/>
</g>
<!-- M_g4F3&#45;&gt;g4p07 -->
<g id="edge44" class="edge">
<title>M_g4F3&#45;&gt;g4p07</title>
<path fill="none" stroke="#555555" d="M1063.97,-89.88C1047.52,-77.2 1022.24,-57.72 1002.34,-42.38"/>
<polygon fill="#555555" stroke="#555555" points="1004.25,-39.43 994.19,-36.1 999.97,-44.98 1004.25,-39.43"/>
</g>
<!-- M_g4F3&#45;&gt;g4p08 -->
<g id="edge45" class="edge">
<title>M_g4F3&#45;&gt;g4p08</title>
<path fill="none" stroke="#555555" d="M1081,-85.6C1081,-74.26 1081,-59.23 1081,-46.32"/>
<polygon fill="#555555" stroke="#555555" points="1084.5,-46.1 1081,-36.1 1077.5,-46.1 1084.5,-46.1"/>
</g>
<!-- M_g5F4&#45;&gt;g5p08 -->
<g id="edge52" class="edge">
<title>M_g5F4&#45;&gt;g5p08</title>
<path fill="none" stroke="#555555" d="M441.41,-90.61C422.14,-77.76 391.6,-57.4 368.01,-41.67"/>
<polygon fill="#555555" stroke="#555555" points="369.92,-38.74 359.66,-36.11 366.04,-44.57 369.92,-38.74"/>
</g>
<!-- M_g5F4&#45;&gt;g5p10 -->
<g id="edge54" class="edge">
<title>M_g5F4&#45;&gt;g5p10</title>
<path fill="none" stroke="#555555" d="M477.92,-90.24C495.79,-77.52 523.65,-57.69 545.44,-42.18"/>
<polygon fill="#555555" stroke="#555555" points="547.64,-44.91 553.76,-36.26 543.58,-39.2 547.64,-44.91"/>
</g>
<!-- M_g5F4&#45;&gt;g5p09 -->
<g id="edge53" class="edge">
<title>M_g5F4&#45;&gt;g5p09</title>
<path fill="none" stroke="#555555" d="M459.19,-86C458.65,-74.69 457.93,-59.58 457.31,-46.57"/>
<polygon fill="#555555" stroke="#555555" points="460.79,-46.08 456.82,-36.26 453.8,-46.42 460.79,-46.08"/>
</g>
</g>
</svg>
