<?xml version="1.0" encoding="UTF-8" standalone="no"?>
<!DOCTYPE svg PUBLIC "-//W3C//DTD SVG 1.1//EN"
 "http://www.w3.org/Graphics/SVG/1.1/DTD/svg11.dtd">
<!-- Generated by graphviz version 2.43.0 (0)
 -->
<!-- Title: %3 Pages: 1 -->
<svg width="1481pt" height="596pt"
 viewBox="0.00 0.00 1480.50 596.00" xmlns="http://www.w3.org/2000/svg" xmlns:xlink="http://www.w3.org/1999/xlink">
<style><![CDATA[
  g[id^="P_"], g[id^="M_"] { cursor: pointer; }
  .highlight ellipse, .highlight polygon, .highlight path, .highlight rect {
    stroke: #d00; stroke-width: 2.5;
  }
  @keyframes pulse { 0%,100%{opacity:1} 50%{opacity:.45} }
  .blink { animation: pulse 0.9s ease-in-out 3; }
]]></style>
<script><![CDATA[
(function(){
  var SPOUSE = {"P_geh05": ["P_g4p01", "P_g4p04"], "P_g4p01": ["P_geh05"], "P_geh03": ["P_geh04"], "P_geh04": ["P_geh03"], "P_g4p06": ["P_geh06"], "P_geh06": ["P_g4p06"], "P_geh01": ["P_geh02"], "P_geh02": ["P_geh01"], "P_geh09": ["P_att38"], "P_att38": ["P_geh09"], "P_g4p04": ["P_geh05"], "P_geh07": ["P_g5p04"], "P_g5p04": ["P_geh07"], "P_geh08": ["P_gehS01", "P_g5p07"], "P_gehS01": ["P_geh08"], "P_g5p07": ["P_geh08"]};
  var FAMILY = {"M_g4F1": ["P_geh05", "P_g4p01", "P_g4p02", "P_g4p03"], "M_gehF2": ["P_geh03", "P_geh04", "P_geh07", "P_geh08"], "M_g4F3": ["P_g4p06", "P_geh06", "P_g4p07", "P_g4p08", "P_g4p09"], "M_gehF1": ["P_geh01", "P_geh02", "P_geh05", "P_geh06"], "M_gehF3": ["P_geh09", "P_att38", "P_geh01", "P_geh03"], "M_g4F2": ["P_geh05", "P_g4p04", "P_g4p05"], "M_g5F2": ["P_geh07", "P_g5p04"], "M_gehF4": ["P_geh08", "P_gehS01"], "M_g5F4": ["P_geh08", "P_g5p07", "P_g5p08", "P_g5p09", "P_g5p10"]};
  function clearHl(){ document.querySelectorAll('.blink').forEach(function(n){ n.classList.remove('blink'); n.classList.remove('highlight'); }); }
  function hl(id){ var el=document.getElementById(id); if(el){ el.classList.add('highlight'); el.classList.add('blink'); } }
  document.addEventListener('click', function(evt){
    var target = evt.target;
    var g = target.closest && target.closest('g[id^="P_"], g[id^="M_"]');
    if (!g) { while (target) { if (target.id && /^([PM]_)/.test(target.id) && target.tagName && target.tagName.toLowerCase() === 'g') { g = target; break; } target = target.parentNode; } }
    if (!g) return;
    var id = g.id; clearHl();
    if (/^P_/.test(id)) { (SPOUSE[id] || []).forEach(hl); }
    else if (/^M_/.test(id)) { hl(id); (FAMILY[id] || []).forEach(hl); }
  }, false);
})();
]]></script>

<g id="graph0" class="graph" transform="scale(1 1) rotate(0) translate(4 592)">
<title>%3</title>
<polygon fill="white" stroke="transparent" points="-4,4 -4,-592 1476.5,-592 1476.5,4 -4,4"/>
<text text-anchor="middle" x="736.25" y="-574.4" font-family="DejaVu Sans" font-size="12.00">Rosi</text>
<!-- geh01 -->
<g id="P_geh01" class="node">
<title>geh01</title>
<path fill="#dbeafe" stroke="#333333" d="M655,-387.5C655,-387.5 535,-387.5 535,-387.5 529,-387.5 523,-381.5 523,-375.5 523,-375.5 523,-363.5 523,-363.5 523,-357.5 529,-351.5 535,-351.5 535,-351.5 655,-351.5 655,-351.5 661,-351.5 667,-357.5 667,-363.5 667,-363.5 667,-375.5 667,-375.5 667,-381.5 661,-387.5 655,-387.5"/>
<text text-anchor="middle" x="595" y="-372.5" font-family="DejaVu Sans" font-size="10.00">Horst Gehringer</text>
<text text-anchor="middle" x="595" y="-361.5" font-family="DejaVu Sans" font-size="10.00">*12.01.1941 &#160;+08.09.2008</text>
</g>
<!-- geh03 -->
<g id="P_geh03" class="node">
<title>geh03</title>
<path fill="#dbeafe" stroke="#333333" d="M831,-387.5C831,-387.5 711,-387.5 711,-387.5 705,-387.5 699,-381.5 699,-375.5 699,-375.5 699,-363.5 699,-363.5 699,-357.5 705,-351.5 711,-351.5 711,-351.5 831,-351.5 831,-351.5 837,-351.5 843,-357.5 843,-363.5 843,-363.5 843,-375.5 843,-375.5 843,-381.5 837,-387.5 831,-387.5"/>
<text text-anchor="middle" x="771" y="-372.5" font-family="DejaVu Sans" font-size="10.00">Rolf Gehringer</text>
<text text-anchor="middle" x="771" y="-361.5" font-family="DejaVu Sans" font-size="10.00">*23.04.1944 &#160;+26.06.2020</text>
</g>
<!-- geh01&#45;&gt;geh03 -->
<!-- geh02 -->
<g id="P_geh02" class="node">
<title>geh02</title>
<path fill="#fde7ef" stroke="#333333" d="M479,-390C479,-390 359,-390 359,-390 353,-390 347,-384 347,-378 347,-378 347,-361 347,-361 347,-355 353,-349 359,-349 359,-349 479,-349 479,-349 485,-349 491,-355 491,-361 491,-361 491,-378 491,-378 491,-384 485,-390 479,-390"/>
<text text-anchor="middle" x="419" y="-378" font-family="DejaVu Sans" font-size="10.00">Annemarie Gehringer</text>
<text text-anchor="middle" x="419" y="-367" font-family="DejaVu Sans" font-size="10.00">geb. Hermanek</text>
<text text-anchor="middle" x="419" y="-356" font-family="DejaVu Sans" font-size="10.00">*27.08.1944 &#160;+10.06.2014</text>
</g>
<!-- geh01&#45;&gt;geh02 -->
<!-- geh01&#45;&gt;geh02 -->
<!-- geh01&#45;&gt;geh02 -->
<!-- M_gehF1 -->
<g id="M_gehF1" class="node">
<title>M_gehF1</title>
<ellipse fill="#fff3b0" stroke="#b08900" cx="481" cy="-281" rx="27" ry="18"/>
<text text-anchor="middle" x="481" y="-278.8" font-family="DejaVu Sans" font-size="9.00">oo</text>
</g>
<!-- geh01&#45;&gt;M_gehF1 -->
<g id="edge25" class="edge">
<title>geh01&#45;&gt;M_gehF1</title>
<path fill="none" stroke="#555555" d="M572.48,-351.41C550.67,-334.87 518.09,-310.14 498.27,-295.1"/>
</g>
<!-- g4p02 -->
<g id="P_g4p02" class="node">
<title>g4p02</title>
<path fill="#fde7ef" stroke="#333333" d="M92,-36C92,-36 12,-36 12,-36 6,-36 0,-30 0,-24 0,-24 0,-12 0,-12 0,-6 6,0 12,0 12,0 92,0 92,0 98,0 104,-6 104,-12 104,-12 104,-24 104,-24 104,-30 98,-36 92,-36"/>
<text text-anchor="middle" x="52" y="-21" font-family="DejaVu Sans" font-size="10.00">Yvonne Gehringer</text>
<text text-anchor="middle" x="52" y="-10" font-family="DejaVu Sans" font-size="10.00">*18.01.1995</text>
</g>
<!-- g4p03 -->
<g id="P_g4p03" class="node">
<title>g4p03</title>
<path fill="#dbeafe" stroke="#333333" d="M231.5,-36C231.5,-36 148.5,-36 148.5,-36 142.5,-36 136.5,-30 136.5,-24 136.5,-24 136.5,-12 136.5,-12 136.5,-6 142.5,0 148.5,0 148.5,0 231.5,0 231.5,0 237.5,0 243.5,-6 243.5,-12 243.5,-12 243.5,-24 243.5,-24 243.5,-30 237.5,-36 231.5,-36"/>
<text text-anchor="middle" x="190" y="-21" font-family="DejaVu Sans" font-size="10.00">Thomas Gehringer</text>
<text text-anchor="middle" x="190" y="-10" font-family="DejaVu Sans" font-size="10.00">*02.08.2002</text>
</g>
<!-- g4p02&#45;&gt;g4p03 -->
<!-- g5p08 -->
<g id="P_g5p08" class="node">
<title>g5p08</title>
<path fill="#dbeafe" stroke="#333333" d="M1216,-36C1216,-36 1146,-36 1146,-36 1140,-36 1134,-30 1134,-24 1134,-24 1134,-12 1134,-12 1134,-6 1140,0 1146,0 1146,0 1216,0 1216,0 1222,0 1228,-6 1228,-12 1228,-12 1228,-24 1228,-24 1228,-30 1222,-36 1216,-36"/>
<text text-anchor="middle" x="1181" y="-21" font-family="DejaVu Sans" font-size="10.00">Jacob Gehringer</text>
<text text-anchor="middle" x="1181" y="-10" font-family="DejaVu Sans" font-size="10.00">*06.03.2003</text>
</g>
<!-- g5p09 -->
<g id="P_g5p09" class="node">
<title>g5p09</title>
<path fill="#fde7ef" stroke="#333333" d="M1333.5,-36C1333.5,-36 1272.5,-36 1272.5,-36 1266.5,-36 1260.5,-30 1260.5,-24 1260.5,-24 1260.5,-12 1260.5,-12 1260.5,-6 1266.5,0 1272.5,0 1272.5,0 1333.5,0 1333.5,0 1339.5,0 1345.5,-6 1345.5,-12 1345.5,-12 1345.5,-24 1345.5,-24 1345.5,-30 1339.5,-36 1333.5,-36"/>
<text text-anchor="middle" x="1303" y="-21" font-family="DejaVu Sans" font-size="10.00">Lea Gehringer</text>
<text text-anchor="middle" x="1303" y="-10" font-family="DejaVu Sans" font-size="10.00">*24.02.2005</text>
</g>
<!-- g5p08&#45;&gt;g5p09 -->
<!-- g4p07 -->
<g id="P_g4p07" class="node">
<title>g4p07</title>
<path fill="#fde7ef" stroke="#333333" d="M533.5,-36C533.5,-36 480.5,-36 480.5,-36 474.5,-36 468.5,-30 468.5,-24 468.5,-24 468.5,-12 468.5,-12 468.5,-6 474.5,0 480.5,0 480.5,0 533.5,0 533.5,0 539.5,0 545.5,-6 545.5,-12 545.5,-12 545.5,-24 545.5,-24 545.5,-30 539.5,-36 533.5,-36"/>
<text text-anchor="middle" x="507" y="-21" font-family="DejaVu Sans" font-size="10.00">Laura Meyer</text>
<text text-anchor="middle" x="507" y="-10" font-family="DejaVu Sans" font-size="10.00">*06.09.2001</text>
</g>
<!-- g4p08 -->
<g id="P_g4p08" class="node">
<title>g4p08</title>
<path fill="#fde7ef" stroke="#333333" d="M642,-36C642,-36 590,-36 590,-36 584,-36 578,-30 578,-24 578,-24 578,-12 578,-12 578,-6 584,0 590,0 590,0 642,0 642,0 648,0 654,-6 654,-12 654,-12 654,-24 654,-24 654,-30 648,-36 642,-36"/>
<text text-anchor="middle" x="616" y="-21" font-family="DejaVu Sans" font-size="10.00">Nora Meyer</text>
<text text-anchor="middle" x="616" y="-10" font-family="DejaVu Sans" font-size="10.00">*07.06.2003</text>
</g>
<!-- g4p07&#45;&gt;g4p08 -->
<!-- geh05 -->
<g id="P_geh05" class="node">
<title>geh05</title>
<path fill="#dbeafe" stroke="#333333" d="M262.5,-210.5C262.5,-210.5 179.5,-210.5 179.5,-210.5 173.5,-210.5 167.5,-204.5 167.5,-198.5 167.5,-198.5 167.5,-186.5 167.5,-186.5 167.5,-180.5 173.5,-174.5 179.5,-174.5 179.5,-174.5 262.5,-174.5 262.5,-174.5 268.5,-174.5 274.5,-180.5 274.5,-186.5 274.5,-186.5 274.5,-198.5 274.5,-198.5 274.5,-204.5 268.5,-210.5 262.5,-210.5"/>
<text text-anchor="middle" x="221" y="-195.5" font-family="DejaVu Sans" font-size="10.00">Thomas Gehringer</text>
<text text-anchor="middle" x="221" y="-184.5" font-family="DejaVu Sans" font-size="10.00">*18.06.1966</text>
</g>
<!-- g4p01 -->
<g id="P_g4p01" class="node">
<title>g4p01</title>
<path fill="#fde7ef" stroke="#333333" d="M123,-213C123,-213 43,-213 43,-213 37,-213 31,-207 31,-201 31,-201 31,-184 31,-184 31,-178 37,-172 43,-172 43,-172 123,-172 123,-172 129,-172 135,-178 135,-184 135,-184 135,-201 135,-201 135,-207 129,-213 123,-213"/>
<text text-anchor="middle" x="83" y="-201" font-family="DejaVu Sans" font-size="10.00">Rosalia Gehringer</text>
<text text-anchor="middle" x="83" y="-190" font-family="DejaVu Sans" font-size="10.00">geb. Karsai</text>
<text text-anchor="middle" x="83" y="-179" font-family="DejaVu Sans" font-size="10.00">*18.05.1961</text>
</g>
<!-- geh05&#45;&gt;g4p01 -->
<!-- geh05&#45;&gt;g4p01 -->
<!-- geh05&#45;&gt;g4p01 -->
<!-- g4p04 -->
<g id="P_g4p04" class="node">
<title>g4p04</title>
<path fill="#fde7ef" stroke="#333333" d="M399,-213C399,-213 319,-213 319,-213 313,-213 307,-207 307,-201 307,-201 307,-184 307,-184 307,-178 313,-172 319,-172 319,-172 399,-172 399,-172 405,-172 411,-178 411,-184 411,-184 411,-201 411,-201 411,-207 405,-213 399,-213"/>
<text text-anchor="middle" x="359" y="-201" font-family="DejaVu Sans" font-size="10.00">Eva Gehringer</text>
<text text-anchor="middle" x="359" y="-190" font-family="DejaVu Sans" font-size="10.00">geb. Wasserbauer</text>
<text text-anchor="middle" x="359" y="-179" font-family="DejaVu Sans" font-size="10.00">*01.05.1973</text>
</g>
<!-- geh05&#45;&gt;g4p04 -->
<!-- geh05&#45;&gt;g4p04 -->
<!-- geh06 -->
<g id="P_geh06" class="node">
<title>geh06</title>
<path fill="#fde7ef" stroke="#333333" d="M569,-213C569,-213 455,-213 455,-213 449,-213 443,-207 443,-201 443,-201 443,-184 443,-184 443,-178 449,-172 455,-172 455,-172 569,-172 569,-172 575,-172 581,-178 581,-184 581,-184 581,-201 581,-201 581,-207 575,-213 569,-213"/>
<text text-anchor="middle" x="512" y="-201" font-family="DejaVu Sans" font-size="10.00">Patricia Meyer&#45;Gehringer</text>
<text text-anchor="middle" x="512" y="-190" font-family="DejaVu Sans" font-size="10.00">geb. Gehringer</text>
<text text-anchor="middle" x="512" y="-179" font-family="DejaVu Sans" font-size="10.00">*02.08.1974</text>
</g>
<!-- geh05&#45;&gt;geh06 -->
<!-- M_g4F1 -->
<g id="M_g4F1" class="node">
<title>M_g4F1</title>
<ellipse fill="#fff3b0" stroke="#b08900" cx="119" cy="-104" rx="27" ry="18"/>
<text text-anchor="middle" x="119" y="-101.8" font-family="DejaVu Sans" font-size="9.00">oo</text>
</g>
<!-- geh05&#45;&gt;M_g4F1 -->
<g id="edge2" class="edge">
<title>geh05&#45;&gt;M_g4F1</title>
<path fill="none" stroke="#555555" d="M200.85,-174.41C181.57,-158.06 152.88,-133.73 135.09,-118.64"/>
</g>
<!-- M_g4F2 -->
<g id="M_g4F2" class="node">
<title>M_g4F2</title>
<ellipse fill="#fff3b0" stroke="#b08900" cx="356" cy="-104" rx="27" ry="18"/>
<text text-anchor="middle" x="356" y="-101.8" font-family="DejaVu Sans" font-size="9.00">oo</text>
</g>
<!-- geh05&#45;&gt;M_g4F2 -->
<g id="edge43" class="edge">
<title>geh05&#45;&gt;M_g4F2</title>
<path fill="none" stroke="#555555" d="M247.67,-174.41C274.11,-157.47 313.92,-131.96 337.2,-117.04"/>
</g>
<!-- g4p09 -->
<g id="P_g4p09" class="node">
<title>g4p09</title>
<path fill="#fde7ef" stroke="#333333" d="M751.5,-36C751.5,-36 698.5,-36 698.5,-36 692.5,-36 686.5,-30 686.5,-24 686.5,-24 686.5,-12 686.5,-12 686.5,-6 692.5,0 698.5,0 698.5,0 751.5,0 751.5,0 757.5,0 763.5,-6 763.5,-12 763.5,-12 763.5,-24 763.5,-24 763.5,-30 757.5,-36 751.5,-36"/>
<text text-anchor="middle" x="725" y="-21" font-family="DejaVu Sans" font-size="10.00">Tessa Meyer</text>
<text text-anchor="middle" x="725" y="-10" font-family="DejaVu Sans" font-size="10.00">*27.03.2009</text>
</g>
<!-- g4p08&#45;&gt;g4p09 -->
<!-- g4p05 -->
<g id="P_g4p05" class="node">
<title>g4p05</title>
<path fill="#dbeafe" stroke="#333333" d="M389.5,-36C389.5,-36 322.5,-36 322.5,-36 316.5,-36 310.5,-30 310.5,-24 310.5,-24 310.5,-12 310.5,-12 310.5,-6 316.5,0 322.5,0 322.5,0 389.5,0 389.5,0 395.5,0 401.5,-6 401.5,-12 401.5,-12 401.5,-24 401.5,-24 401.5,-30 395.5,-36 389.5,-36"/>
<text text-anchor="middle" x="356" y="-21" font-family="DejaVu Sans" font-size="10.00">Felix Gehringer</text>
<text text-anchor="middle" x="356" y="-10" font-family="DejaVu Sans" font-size="10.00">*19.07.2005</text>
</g>
<!-- g5p10 -->
<g id="P_g5p10" class="node">
<title>g5p10</title>
<path fill="#fde7ef" stroke="#333333" d="M1460.5,-36C1460.5,-36 1389.5,-36 1389.5,-36 1383.5,-36 1377.5,-30 1377.5,-24 1377.5,-24 1377.5,-12 1377.5,-12 1377.5,-6 1383.5,0 1389.5,0 1389.5,0 1460.5,0 1460.5,0 1466.5,0 1472.5,-6 1472.5,-12 1472.5,-12 1472.5,-24 1472.5,-24 1472.5,-30 1466.5,-36 1460.5,-36"/>
<text text-anchor="middle" x="1425" y="-21" font-family="DejaVu Sans" font-size="10.00">Floria Gehringer</text>
<text text-anchor="middle" x="1425" y="-10" font-family="DejaVu Sans" font-size="10.00">*20.12.2007</text>
</g>
<!-- g5p09&#45;&gt;g5p10 -->
<!-- geh09 -->
<g id="P_geh09" class="node">
<title>geh09</title>
<path fill="#dbeafe" stroke="#333333" d="M655,-564.5C655,-564.5 535,-564.5 535,-564.5 529,-564.5 523,-558.5 523,-552.5 523,-552.5 523,-540.5 523,-540.5 523,-534.5 529,-528.5 535,-528.5 535,-528.5 655,-528.5 655,-528.5 661,-528.5 667,-534.5 667,-540.5 667,-540.5 667,-552.5 667,-552.5 667,-558.5 661,-564.5 655,-564.5"/>
<text text-anchor="middle" x="595" y="-549.5" font-family="DejaVu Sans" font-size="10.00">Karl Gehringer</text>
<text text-anchor="middle" x="595" y="-538.5" font-family="DejaVu Sans" font-size="10.00">*24.09.1910 &#160;+18.10.1975</text>
</g>
<!-- att38 -->
<g id="P_att38" class="node">
<title>att38</title>
<path fill="#fde7ef" stroke="#111111" stroke-width="1.8" d="M831,-567C831,-567 711,-567 711,-567 705,-567 699,-561 699,-555 699,-555 699,-538 699,-538 699,-532 705,-526 711,-526 711,-526 831,-526 831,-526 837,-526 843,-532 843,-538 843,-538 843,-555 843,-555 843,-561 837,-567 831,-567"/>
<text text-anchor="middle" x="771" y="-555" font-family="DejaVu Sans" font-size="10.00">Rosa (Rosi) Gehringer</text>
<text text-anchor="middle" x="771" y="-544" font-family="DejaVu Sans" font-size="10.00">geb. Polasek</text>
<text text-anchor="middle" x="771" y="-533" font-family="DejaVu Sans" font-size="10.00">*25.08.1914 &#160;+12.09.1996</text>
</g>
<!-- geh09&#45;&gt;att38 -->
<!-- geh09&#45;&gt;att38 -->
<!-- M_gehF3 -->
<g id="M_gehF3" class="node">
<title>M_gehF3</title>
<ellipse fill="#fff3b0" stroke="#b08900" cx="683" cy="-458" rx="27" ry="18"/>
<text text-anchor="middle" x="683" y="-455.8" font-family="DejaVu Sans" font-size="9.00">oo</text>
</g>
<!-- geh09&#45;&gt;M_gehF3 -->
<g id="edge34" class="edge">
<title>geh09&#45;&gt;M_gehF3</title>
<path fill="none" stroke="#555555" d="M612.39,-528.41C628.72,-512.36 652.88,-488.61 668.28,-473.47"/>
</g>
<!-- g4p01&#45;&gt;geh05 -->
<!-- g4p01&#45;&gt;geh06 -->
<!-- g4p01&#45;&gt;M_g4F1 -->
<g id="edge3" class="edge">
<title>g4p01&#45;&gt;M_g4F1</title>
<path fill="none" stroke="#555555" d="M91.17,-171.87C97.48,-156.72 106.1,-135.98 112.07,-121.64"/>
</g>
<!-- geh04 -->
<g id="P_geh04" class="node">
<title>geh04</title>
<path fill="#fde7ef" stroke="#333333" d="M975,-390C975,-390 887,-390 887,-390 881,-390 875,-384 875,-378 875,-378 875,-361 875,-361 875,-355 881,-349 887,-349 887,-349 975,-349 975,-349 981,-349 987,-355 987,-361 987,-361 987,-378 987,-378 987,-384 981,-390 975,-390"/>
<text text-anchor="middle" x="931" y="-378" font-family="DejaVu Sans" font-size="10.00">Michaela Gehringer</text>
<text text-anchor="middle" x="931" y="-367" font-family="DejaVu Sans" font-size="10.00">geb. Kaminski</text>
<text text-anchor="middle" x="931" y="-356" font-family="DejaVu Sans" font-size="10.00">*10.04.1944</text>
</g>
<!-- geh04&#45;&gt;geh03 -->
<!-- M_gehF2 -->
<g id="M_gehF2" class="node">
<title>M_gehF2</title>
<ellipse fill="#fff3b0" stroke="#b08900" cx="923" cy="-281" rx="40.98" ry="18"/>
<text text-anchor="middle" x="923" y="-278.8" font-family="DejaVu Sans" font-size="9.00">09.09.1966</text>
</g>
<!-- geh04&#45;&gt;M_gehF2 -->
<g id="edge9" class="edge">
<title>geh04&#45;&gt;M_gehF2</title>
<path fill="none" stroke="#555555" d="M929.18,-348.87C927.8,-333.92 925.92,-313.53 924.59,-299.21"/>
</g>
<!-- geh03&#45;&gt;geh04 -->
<!-- geh03&#45;&gt;geh04 -->
<!-- geh03&#45;&gt;geh04 -->
<!-- geh03&#45;&gt;M_gehF2 -->
<g id="edge8" class="edge">
<title>geh03&#45;&gt;M_gehF2</title>
<path fill="none" stroke="#555555" d="M801.03,-351.41C829.75,-335.06 872.51,-310.73 899.03,-295.64"/>
</g>
<!-- g4p04&#45;&gt;geh05 -->
<!-- g4p04&#45;&gt;M_g4F2 -->
<g id="edge44" class="edge">
<title>g4p04&#45;&gt;M_g4F2</title>
<path fill="none" stroke="#555555" d="M358.32,-171.87C357.8,-156.92 357.09,-136.53 356.6,-122.21"/>
</g>
<!-- g5p07 -->
<g id="P_g5p07" class="node">
<title>g5p07</title>
<path fill="#fde7ef" stroke="#333333" d="M1388.5,-210.5C1388.5,-210.5 1313.5,-210.5 1313.5,-210.5 1307.5,-210.5 1301.5,-204.5 1301.5,-198.5 1301.5,-198.5 1301.5,-186.5 1301.5,-186.5 1301.5,-180.5 1307.5,-174.5 1313.5,-174.5 1313.5,-174.5 1388.5,-174.5 1388.5,-174.5 1394.5,-174.5 1400.5,-180.5 1400.5,-186.5 1400.5,-186.5 1400.5,-198.5 1400.5,-198.5 1400.5,-204.5 1394.5,-210.5 1388.5,-210.5"/>
<text text-anchor="middle" x="1351" y="-195.5" font-family="DejaVu Sans" font-size="10.00">Ulrike De_Bortoli</text>
<text text-anchor="middle" x="1351" y="-184.5" font-family="DejaVu Sans" font-size="10.00">*25.11.1967</text>
</g>
<!-- geh08 -->
<g id="P_geh08" class="node">
<title>geh08</title>
<path fill="#dbeafe" stroke="#333333" d="M1133,-210.5C1133,-210.5 1013,-210.5 1013,-210.5 1007,-210.5 1001,-204.5 1001,-198.5 1001,-198.5 1001,-186.5 1001,-186.5 1001,-180.5 1007,-174.5 1013,-174.5 1013,-174.5 1133,-174.5 1133,-174.5 1139,-174.5 1145,-180.5 1145,-186.5 1145,-186.5 1145,-198.5 1145,-198.5 1145,-204.5 1139,-210.5 1133,-210.5"/>
<text text-anchor="middle" x="1073" y="-195.5" font-family="DejaVu Sans" font-size="10.00">Raoul Gehringer</text>
<text text-anchor="middle" x="1073" y="-184.5" font-family="DejaVu Sans" font-size="10.00">*18.08.1971 &#160;+19.03.2018</text>
</g>
<!-- g5p07&#45;&gt;geh08 -->
<!-- M_g5F4 -->
<g id="M_g5F4" class="node">
<title>M_g5F4</title>
<ellipse fill="#fff3b0" stroke="#b08900" cx="1303" cy="-104" rx="27" ry="18"/>
<text text-anchor="middle" x="1303" y="-101.8" font-family="DejaVu Sans" font-size="9.00">oo</text>
</g>
<!-- g5p07&#45;&gt;M_g5F4 -->
<g id="edge54" class="edge">
<title>g5p07&#45;&gt;M_g5F4</title>
<path fill="none" stroke="#555555" d="M1341.52,-174.41C1332.94,-158.95 1320.39,-136.35 1311.98,-121.18"/>
</g>
<!-- g4p06 -->
<g id="P_g4p06" class="node">
<title>g4p06</title>
<path fill="#dbeafe" stroke="#333333" d="M677,-210.5C677,-210.5 625,-210.5 625,-210.5 619,-210.5 613,-204.5 613,-198.5 613,-198.5 613,-186.5 613,-186.5 613,-180.5 619,-174.5 625,-174.5 625,-174.5 677,-174.5 677,-174.5 683,-174.5 689,-180.5 689,-186.5 689,-186.5 689,-198.5 689,-198.5 689,-204.5 683,-210.5 677,-210.5"/>
<text text-anchor="middle" x="651" y="-195.5" font-family="DejaVu Sans" font-size="10.00">Dirk Meyer</text>
<text text-anchor="middle" x="651" y="-184.5" font-family="DejaVu Sans" font-size="10.00">*17.04.1974</text>
</g>
<!-- geh06&#45;&gt;g4p06 -->
<!-- M_g4F3 -->
<g id="M_g4F3" class="node">
<title>M_g4F3</title>
<ellipse fill="#fff3b0" stroke="#b08900" cx="616" cy="-104" rx="27" ry="18"/>
<text text-anchor="middle" x="616" y="-101.8" font-family="DejaVu Sans" font-size="9.00">oo</text>
</g>
<!-- geh06&#45;&gt;M_g4F3 -->
<g id="edge18" class="edge">
<title>geh06&#45;&gt;M_g4F3</title>
<path fill="none" stroke="#555555" d="M535.6,-171.87C555.14,-155.62 582.39,-132.95 599.61,-118.63"/>
</g>
<!-- gehS01 -->
<g id="P_gehS01" class="node">
<title>gehS01</title>
<path fill="#fde7ef" stroke="#333333" d="M1257,-213C1257,-213 1189,-213 1189,-213 1183,-213 1177,-207 1177,-201 1177,-201 1177,-184 1177,-184 1177,-178 1183,-172 1189,-172 1189,-172 1257,-172 1257,-172 1263,-172 1269,-178 1269,-184 1269,-184 1269,-201 1269,-201 1269,-207 1263,-213 1257,-213"/>
<text text-anchor="middle" x="1223" y="-201" font-family="DejaVu Sans" font-size="10.00">Edith Gehringer</text>
<text text-anchor="middle" x="1223" y="-190" font-family="DejaVu Sans" font-size="10.00">geb. Schmölz</text>
<text text-anchor="middle" x="1223" y="-179" font-family="DejaVu Sans" font-size="10.00">*23.02.1970</text>
</g>
<!-- gehS01&#45;&gt;geh08 -->
<!-- M_gehF4 -->
<g id="M_gehF4" class="node">
<title>M_gehF4</title>
<ellipse fill="#fff3b0" stroke="#b08900" cx="1121" cy="-104" rx="27" ry="18"/>
<text text-anchor="middle" x="1121" y="-101.8" font-family="DejaVu Sans" font-size="9.00">oo</text>
</g>
<!-- gehS01&#45;&gt;M_gehF4 -->
<g id="edge51" class="edge">
<title>gehS01&#45;&gt;M_gehF4</title>
<path fill="none" stroke="#555555" d="M1199.85,-171.87C1180.69,-155.62 1153.96,-132.95 1137.07,-118.63"/>
</g>
<!-- att38&#45;&gt;geh09 -->
<!-- att38&#45;&gt;M_gehF3 -->
<g id="edge35" class="edge">
<title>att38&#45;&gt;M_gehF3</title>
<path fill="none" stroke="#555555" d="M751.03,-525.87C734.8,-509.92 712.29,-487.79 697.68,-473.43"/>
</g>
<!-- geh07 -->
<g id="P_geh07" class="node">
<title>geh07</title>
<path fill="#dbeafe" stroke="#333333" d="M956.5,-210.5C956.5,-210.5 873.5,-210.5 873.5,-210.5 867.5,-210.5 861.5,-204.5 861.5,-198.5 861.5,-198.5 861.5,-186.5 861.5,-186.5 861.5,-180.5 867.5,-174.5 873.5,-174.5 873.5,-174.5 956.5,-174.5 956.5,-174.5 962.5,-174.5 968.5,-180.5 968.5,-186.5 968.5,-186.5 968.5,-198.5 968.5,-198.5 968.5,-204.5 962.5,-210.5 956.5,-210.5"/>
<text text-anchor="middle" x="915" y="-195.5" font-family="DejaVu Sans" font-size="10.00">Andreas Gehringer</text>
<text text-anchor="middle" x="915" y="-184.5" font-family="DejaVu Sans" font-size="10.00">*28.06.1966</text>
</g>
<!-- geh07&#45;&gt;geh08 -->
<!-- g5p04 -->
<g id="P_g5p04" class="node">
<title>g5p04</title>
<path fill="#fde7ef" stroke="#333333" d="M817,-210.5C817,-210.5 749,-210.5 749,-210.5 743,-210.5 737,-204.5 737,-198.5 737,-198.5 737,-186.5 737,-186.5 737,-180.5 743,-174.5 749,-174.5 749,-174.5 817,-174.5 817,-174.5 823,-174.5 829,-180.5 829,-186.5 829,-186.5 829,-198.5 829,-198.5 829,-204.5 823,-210.5 817,-210.5"/>
<text text-anchor="middle" x="783" y="-195.5" font-family="DejaVu Sans" font-size="10.00">Daniela Niehoff</text>
<text text-anchor="middle" x="783" y="-184.5" font-family="DejaVu Sans" font-size="10.00">*20.07.1969</text>
</g>
<!-- geh07&#45;&gt;g5p04 -->
<!-- geh07&#45;&gt;g5p04 -->
<!-- geh07&#45;&gt;g5p04 -->
<!-- M_g5F2 -->
<g id="M_g5F2" class="node">
<title>M_g5F2</title>
<ellipse fill="#fff3b0" stroke="#b08900" cx="849" cy="-104" rx="40.98" ry="18"/>
<text text-anchor="middle" x="849" y="-101.8" font-family="DejaVu Sans" font-size="9.00">28.06.2016</text>
</g>
<!-- geh07&#45;&gt;M_g5F2 -->
<g id="edge47" class="edge">
<title>geh07&#45;&gt;M_g5F2</title>
<path fill="none" stroke="#555555" d="M901.96,-174.41C890.16,-158.95 872.92,-136.35 861.34,-121.18"/>
</g>
<!-- geh08&#45;&gt;g5p07 -->
<!-- geh08&#45;&gt;g5p07 -->
<!-- geh08&#45;&gt;gehS01 -->
<!-- geh08&#45;&gt;gehS01 -->
<!-- geh08&#45;&gt;gehS01 -->
<!-- geh08&#45;&gt;M_gehF4 -->
<g id="edge50" class="edge">
<title>geh08&#45;&gt;M_gehF4</title>
<path fill="none" stroke="#555555" d="M1082.48,-174.41C1091.06,-158.95 1103.61,-136.35 1112.02,-121.18"/>
</g>
<!-- geh08&#45;&gt;M_g5F4 -->
<g id="edge53" class="edge">
<title>geh08&#45;&gt;M_g5F4</title>
<path fill="none" stroke="#555555" d="M1118.44,-174.41C1167.14,-156.09 1242.5,-127.75 1280.07,-113.62"/>
</g>
<!-- g4p06&#45;&gt;geh06 -->
<!-- g4p06&#45;&gt;geh06 -->
<!-- g4p06&#45;&gt;geh06 -->
<!-- g4p06&#45;&gt;M_g4F3 -->
<g id="edge17" class="edge">
<title>g4p06&#45;&gt;M_g4F3</title>
<path fill="none" stroke="#555555" d="M644.09,-174.41C637.87,-159.05 628.8,-136.63 622.66,-121.47"/>
</g>
<!-- geh02&#45;&gt;geh01 -->
<!-- geh02&#45;&gt;geh03 -->
<!-- geh02&#45;&gt;M_gehF1 -->
<g id="edge26" class="edge">
<title>geh02&#45;&gt;M_gehF1</title>
<path fill="none" stroke="#555555" d="M433.07,-348.87C444.22,-333.32 459.58,-311.89 469.88,-297.52"/>
</g>
<!-- g5p04&#45;&gt;geh07 -->
<!-- g5p04&#45;&gt;geh08 -->
<!-- g5p04&#45;&gt;M_g5F2 -->
<g id="edge48" class="edge">
<title>g5p04&#45;&gt;M_g5F2</title>
<path fill="none" stroke="#555555" d="M796.04,-174.41C807.84,-158.95 825.08,-136.35 836.66,-121.18"/>
</g>
<!-- M_g4F1&#45;&gt;g4p02 -->
<g id="edge4" class="edge">
<title>M_g4F1&#45;&gt;g4p02</title>
<path fill="none" stroke="#555555" d="M106.71,-87.59C96.98,-75.4 83.21,-58.12 71.91,-43.96"/>
<polygon fill="#555555" stroke="#555555" points="74.57,-41.68 65.59,-36.04 69.09,-46.04 74.57,-41.68"/>
</g>
<!-- M_g4F1&#45;&gt;g4p03 -->
<g id="edge5" class="edge">
<title>M_g4F1&#45;&gt;g4p03</title>
<path fill="none" stroke="#555555" d="M131.69,-87.98C141.96,-75.83 156.65,-58.46 168.71,-44.19"/>
<polygon fill="#555555" stroke="#555555" points="171.68,-46.1 175.46,-36.2 166.33,-41.58 171.68,-46.1"/>
</g>
<!-- M_gehF2&#45;&gt;geh07 -->
<g id="edge10" class="edge">
<title>M_gehF2&#45;&gt;geh07</title>
<path fill="none" stroke="#555555" d="M921.42,-262.91C920.3,-250.83 918.78,-234.38 917.5,-220.53"/>
<polygon fill="#555555" stroke="#555555" points="920.98,-220.19 916.58,-210.55 914.01,-220.83 920.98,-220.19"/>
</g>
<!-- M_gehF2&#45;&gt;geh08 -->
<g id="edge11" class="edge">
<title>M_gehF2&#45;&gt;geh08</title>
<path fill="none" stroke="#555555" d="M946.77,-266.29C970.3,-252.73 1006.71,-231.73 1034.39,-215.77"/>
<polygon fill="#555555" stroke="#555555" points="1036.5,-218.59 1043.41,-210.56 1033,-212.53 1036.5,-218.59"/>
</g>
<!-- M_g4F3&#45;&gt;g4p07 -->
<g id="edge19" class="edge">
<title>M_g4F3&#45;&gt;g4p07</title>
<path fill="none" stroke="#555555" d="M598.97,-89.88C582.52,-77.2 557.24,-57.72 537.34,-42.38"/>
<polygon fill="#555555" stroke="#555555" points="539.25,-39.43 529.19,-36.1 534.97,-44.98 539.25,-39.43"/>
</g>
<!-- M_g4F3&#45;&gt;g4p08 -->
<g id="edge20" class="edge">
<title>M_g4F3&#45;&gt;g4p08</title>
<path fill="none" stroke="#555555" d="M616,-85.6C616,-74.26 616,-59.23 616,-46.32"/>
<polygon fill="#555555" stroke="#555555" points="619.5,-46.1 616,-36.1 612.5,-46.1 619.5,-46.1"/>
</g>
<!-- M_g4F3&#45;&gt;g4p09 -->
<g id="edge21" class="edge">
<title>M_g4F3&#45;&gt;g4p09</title>
<path fill="none" stroke="#555555" d="M633.03,-89.88C649.48,-77.2 674.76,-57.72 694.66,-42.38"/>
<polygon fill="#555555" stroke="#555555" points="697.03,-44.98 702.81,-36.1 692.75,-39.43 697.03,-44.98"/>
</g>
<!-- M_gehF1&#45;&gt;geh05 -->
<g id="edge27" class="edge">
<title>M_gehF1&#45;&gt;geh05</title>
<path fill="none" stroke="#555555" d="M457.47,-272.17C418.2,-259.11 338.1,-232.46 282.06,-213.81"/>
<polygon fill="#555555" stroke="#555555" points="282.83,-210.38 272.24,-210.55 280.62,-217.02 282.83,-210.38"/>
</g>
<!-- M_gehF1&#45;&gt;geh06 -->
<g id="edge28" class="edge">
<title>M_gehF1&#45;&gt;geh06</title>
<path fill="none" stroke="#555555" d="M486.98,-263.32C491.11,-251.79 496.72,-236.13 501.58,-222.57"/>
<polygon fill="#555555" stroke="#555555" points="504.88,-223.75 504.96,-213.16 498.29,-221.39 504.88,-223.75"/>
</g>
<!-- M_gehF3&#45;&gt;geh01 -->
<g id="edge36" class="edge">
<title>M_gehF3&#45;&gt;geh01</title>
<path fill="none" stroke="#555555" d="M668.47,-442.72C655.3,-429.77 635.6,-410.41 619.92,-394.99"/>
<polygon fill="#555555" stroke="#555555" points="622.17,-392.3 612.59,-387.79 617.26,-397.29 622.17,-392.3"/>
</g>
<!-- M_gehF3&#45;&gt;geh03 -->
<g id="edge37" class="edge">
<title>M_gehF3&#45;&gt;geh03</title>
<path fill="none" stroke="#555555" d="M697.53,-442.72C710.7,-429.77 730.4,-410.41 746.08,-394.99"/>
<polygon fill="#555555" stroke="#555555" points="748.74,-397.29 753.41,-387.79 743.83,-392.3 748.74,-397.29"/>
</g>
<!-- M_g4F2&#45;&gt;g4p05 -->
<g id="edge45" class="edge">
<title>M_g4F2&#45;&gt;g4p05</title>
<path fill="none" stroke="#555555" d="M356,-85.6C356,-74.26 356,-59.23 356,-46.32"/>
<polygon fill="#555555" stroke="#555555" points="359.5,-46.1 356,-36.1 352.5,-46.1 359.5,-46.1"/>
</g>
<!-- M_g5F4&#45;&gt;g5p08 -->
<g id="edge55" class="edge">
<title>M_g5F4&#45;&gt;g5p08</title>
<path fill="none" stroke="#555555" d="M1284.74,-90.42C1266.11,-77.6 1236.8,-57.42 1214.08,-41.78"/>
<polygon fill="#555555" stroke="#555555" points="1215.95,-38.82 1205.73,-36.03 1211.98,-44.58 1215.95,-38.82"/>
</g>
<!-- M_g5F4&#45;&gt;g5p09 -->
<g id="edge56" class="edge">
<title>M_g5F4&#45;&gt;g5p09</title>
<path fill="none" stroke="#555555" d="M1303,-85.6C1303,-74.26 1303,-59.23 1303,-46.32"/>
<polygon fill="#555555" stroke="#555555" points="1306.5,-46.1 1303,-36.1 1299.5,-46.1 1306.5,-46.1"/>
</g>
<!-- M_g5F4&#45;&gt;g5p10 -->
<g id="edge57" class="edge">
<title>M_g5F4&#45;&gt;g5p10</title>
<path fill="none" stroke="#555555" d="M1321.26,-90.42C1339.89,-77.6 1369.2,-57.42 1391.92,-41.78"/>
<polygon fill="#555555" stroke="#555555" points="1394.02,-44.58 1400.27,-36.03 1390.05,-38.82 1394.02,-44.58"/>
</g>
</g>
</svg>
